<?xml version="1.0" encoding="UTF-8"?>
<svg version="1.1" xmlns="http://www.w3.org/2000/svg" width="512" height="512">
<path d="M0 0 C1.47055847 -0.00101212 1.47055847 -0.00101212 2.9708252 -0.00204468 C25.99987799 0.02309621 47.85997616 2.44193845 70.32568359 7.65332031 C72.70753571 8.19746376 75.09380241 8.69490586 77.48828125 9.1796875 C85.82536639 10.96727513 90.71242064 13.4689614 95.9375 20.25 C96.78138803 21.30952194 97.62653034 22.3680456 98.47265625 23.42578125 C100.35885621 25.80083425 102.22151266 28.1925076 104.07421875 30.59375 C107.24335848 34.67654482 110.57407056 38.609799 113.93041992 42.53881836 C117.77352086 47.04037939 121.52625119 51.60839114 125.2578125 56.203125 C127.54193597 59.24371008 127.54193597 59.24371008 131.65625 59.64453125 C132.41953613 59.7105957 133.18282227 59.77666016 133.96923828 59.84472656 C148.3837442 61.11651086 148.3837442 61.11651086 154.9375 65.25 C155.64132812 65.683125 156.34515625 66.11625 157.0703125 66.5625 C164.08776826 71.32711941 167.5133854 77.22626564 169.9375 85.25 C171.6948913 97.14521 171.15735775 109.54253814 171.17773438 121.53417969 C171.18744016 124.97876134 171.21855288 128.42274502 171.25 131.8671875 C171.43984474 171.64619133 171.43984474 171.64619133 160.875 182.8125 C157.36814955 185.72243973 155.16468717 186.38487192 150.75 186.3125 C149.491875 186.291875 148.23375 186.27125 146.9375 186.25 C146.98390625 187.01183594 147.0303125 187.77367187 147.078125 188.55859375 C147.32279661 195.55794937 147.10653405 201.40642318 142.9375 207.25 C137.08581596 212.83088176 132.24110136 214.40705343 124.234375 214.48828125 C123.47835999 214.496353 122.72234497 214.50442474 121.94342041 214.51274109 C120.34300008 214.52656341 118.7425505 214.53729384 117.14208984 214.54516602 C115.51276963 214.55667206 113.88348671 214.57710229 112.25439453 214.60668945 C109.89329559 214.64956191 107.53331586 214.66556242 105.171875 214.67578125 C104.09181183 214.70204338 104.09181183 214.70204338 102.9899292 214.72883606 C96.6910101 214.70214884 92.57584608 212.69388631 87.9765625 208.43359375 C87.50992188 207.85738281 87.04328125 207.28117188 86.5625 206.6875 C85.83933594 205.81931641 85.83933594 205.81931641 85.1015625 204.93359375 C81.10139476 199.14811624 82.9375 193.85058316 82.9375 186.25 C30.1375 186.25 -22.6625 186.25 -77.0625 186.25 C-77.0625 190.54 -77.0625 194.83 -77.0625 199.25 C-79.54547961 206.12594352 -82.6763389 209.36753872 -88.75097656 213.35961914 C-92.13050476 214.66138713 -95.47310795 214.5952549 -99.046875 214.62109375 C-99.82129944 214.63012222 -100.59572388 214.6391507 -101.39361572 214.64845276 C-103.03092598 214.66293813 -104.66829391 214.67183775 -106.30566406 214.67553711 C-108.79072759 214.6873961 -111.27327547 214.73656054 -113.7578125 214.78710938 C-128.55453695 214.93812874 -128.55453695 214.93812874 -135.0625 209.25 C-140.00607698 204.04623476 -141.33112832 199.54710205 -141.1875 192.4375 C-141.16945312 191.27605469 -141.15140625 190.11460937 -141.1328125 188.91796875 C-141.10960937 188.03753906 -141.08640625 187.15710938 -141.0625 186.25 C-141.64257812 186.29640625 -142.22265625 186.3428125 -142.8203125 186.390625 C-146.72736224 186.57114875 -149.57402566 186.44155856 -153.25 185 C-164.32025586 174.17574983 -165.1598774 157.69675268 -165.39546204 143.13510132 C-165.45349903 136.75916637 -165.42477689 130.38393883 -165.3850708 124.00799561 C-165.37159372 121.06991119 -165.37682309 118.13198019 -165.38219929 115.19387913 C-165.38555723 112.33605879 -165.37887744 109.47833013 -165.36907005 106.62052727 C-165.36343055 104.6193861 -165.36464365 102.61822931 -165.36604309 100.61708069 C-165.2724099 88.54453221 -163.6494477 78.77103809 -155.46484375 69.42578125 C-147.95195362 62.37467633 -138.99154641 60.71949979 -129.03955078 60.19628906 C-125.36980802 59.91757442 -123.3323848 59.46832472 -120.4453125 57.1328125 C-119.65898437 56.18148437 -118.87265625 55.23015625 -118.0625 54.25 C-117.04767401 53.10880518 -116.03060557 51.96960193 -115.01171875 50.83203125 C-113.92192259 49.57773756 -112.83477151 48.32114178 -111.75 47.0625 C-111.17604492 46.39831055 -110.60208984 45.73412109 -110.01074219 45.04980469 C-105.56479897 39.88249152 -101.28568127 34.60051918 -97.0625 29.25 C-95.50536186 27.30818814 -93.94272723 25.37077283 -92.375 23.4375 C-91.66988281 22.56480469 -90.96476562 21.69210938 -90.23828125 20.79296875 C-82.81978258 12.12251519 -75.23916061 9.18609504 -64.3125 6.6875 C-63.41289551 6.47770508 -62.51329102 6.26791016 -61.58642578 6.05175781 C-51.835881 3.85488103 -41.98790125 2.39064657 -32.0625 1.25 C-31.29655518 1.15428711 -30.53061035 1.05857422 -29.74145508 0.95996094 C-19.86921232 -0.12475137 -9.91910659 0.00612957 0 0 Z M-58.0625 21.25 C-58.89620117 21.42821289 -59.72990234 21.60642578 -60.58886719 21.79003906 C-62.69157436 22.25059773 -64.78381854 22.73995574 -66.875 23.25 C-68.52435547 23.6521875 -68.52435547 23.6521875 -70.20703125 24.0625 C-73.72908351 25.5272112 -75.53248463 27.4172123 -78.0625 30.25 C-78.78050781 31.01699219 -79.49851562 31.78398437 -80.23828125 32.57421875 C-85.41251401 38.29709045 -90.30735668 44.1761226 -95.0625 50.25 C-96.07957031 51.51650391 -96.07957031 51.51650391 -97.1171875 52.80859375 C-97.75914062 53.61425781 -98.40109375 54.41992188 -99.0625 55.25 C-99.64 55.971875 -100.2175 56.69375 -100.8125 57.4375 C-102.25174432 59.1574477 -102.25174432 59.1574477 -102.0625 61.25 C-101.26585937 61.43175781 -100.46921875 61.61351562 -99.6484375 61.80078125 C-90.66205915 63.93258633 -90.66205915 63.93258633 -86.875 65.9375 C-80.11299937 69.0931003 -71.63729642 66.89374594 -64.5 65.875 C-23.2691562 60.44607355 19.55411899 60.25604614 60.8359375 65.44921875 C61.6692157 65.5510849 62.5024939 65.65295105 63.36102295 65.75790405 C67.41258857 66.25390263 71.45503353 66.77910092 75.49414062 67.36816406 C83.42481383 68.43116538 89.42182883 68.66388368 96.62670898 64.52685547 C100.24168954 62.52935433 103.89726609 61.97856677 107.9375 61.25 C106.24437351 57.35010191 103.68952042 54.1765691 101.0625 50.875 C100.58288818 50.26865723 100.10327637 49.66231445 99.60913086 49.03759766 C95.98976322 44.49511881 92.2753766 40.03840234 88.5 35.625 C88.0045166 35.04572754 87.5090332 34.46645508 86.99853516 33.86962891 C85.65863105 32.31775224 84.29875546 30.78318223 82.9375 29.25 C82.38191406 28.52039063 81.82632813 27.79078125 81.25390625 27.0390625 C77.42141122 24.07905791 72.97043805 23.3422036 68.3125 22.25 C67.2601416 21.99581299 66.2077832 21.74162598 65.12353516 21.47973633 C23.8883711 11.85657645 -16.82481954 12.30470282 -58.0625 21.25 Z M-138.41796875 98.1328125 C-140.34738788 100.21725366 -140.34738788 100.21725366 -140.3125 103.375 C-138.29796913 112.68971205 -128.57796425 120.2396905 -121.0625 125.25 C-111.7624863 130.56429355 -99.87007375 134.62550939 -89.0625 133.25 C-86.35142287 131.87283334 -86.35142287 131.87283334 -85.0625 129.25 C-85.82079219 119.06197754 -91.33272079 107.94117624 -98.0625 100.25 C-107.65989937 92.51256175 -128.42987964 90.14896681 -138.41796875 98.1328125 Z M107.9375 97.25 C107.35742188 97.57097656 106.77734375 97.89195312 106.1796875 98.22265625 C99.29107992 103.02614718 96.25011508 111.8202776 92.9375 119.25 C92.52628906 120.16265625 92.11507813 121.0753125 91.69140625 122.015625 C90.57631059 125.32046808 91.17885697 127.89932663 91.9375 131.25 C94.31503415 133.62753415 94.8712631 133.57049854 98.125 133.625 C112.70171934 133.26741814 126.47051543 127.15237853 137.109375 117.2734375 C143.52170064 110.30644113 143.52170064 110.30644113 145.80859375 101.6015625 C144.83495195 98.97316626 144.23225397 97.85434098 141.9375 96.25 C131.5765822 93.42566818 117.63207332 91.71332146 107.9375 97.25 Z M-41.0625 100.25 C-41.0625 103.09689422 -40.5450025 104.52786092 -38.97729492 106.87417603 C-36.02023628 108.99889033 -32.93285448 108.66725613 -29.42578125 108.63818359 C-28.6498764 108.64344055 -27.87397156 108.64869751 -27.07455444 108.65411377 C-24.50783198 108.66732584 -21.94172886 108.65857166 -19.375 108.6484375 C-17.5928536 108.65045789 -15.81070801 108.65336904 -14.02856445 108.65713501 C-10.29272595 108.66155999 -6.55710257 108.65512176 -2.82128906 108.64111328 C1.97079084 108.62402124 6.7623667 108.6338615 11.5544281 108.65183067 C15.23469856 108.66266385 18.91484925 108.65922433 22.59512329 108.6514473 C24.36219339 108.64944399 26.12927432 108.65190912 27.89633179 108.65888596 C30.36477524 108.66649285 32.83239895 108.65490753 35.30078125 108.63818359 C36.39962143 108.64729263 36.39962143 108.64729263 37.5206604 108.65658569 C40.43240661 108.61998133 42.45084445 108.58228852 44.89526367 106.91323853 C46.51853779 104.32275883 46.24782754 102.22914438 45.9375 99.25 C44.21523504 96.00150023 44.21523504 96.00150023 40.9375 95.25 C38.48549582 95.13390005 36.06075514 95.07202697 33.60791016 95.05712891 C32.49276283 95.04486267 32.49276283 95.04486267 31.35508728 95.03234863 C28.89558716 95.00754152 26.43614449 94.99099244 23.9765625 94.9765625 C23.13604717 94.97123882 22.29553185 94.96591515 21.42954636 94.96043015 C16.98233706 94.93372142 12.53515564 94.91433757 8.08789062 94.89990234 C4.40762543 94.88655124 0.72791315 94.85867453 -2.95214844 94.81787109 C-7.39715082 94.76858783 -11.84165088 94.7437871 -16.28691483 94.73667526 C-17.97981882 94.72995899 -19.67271144 94.71472701 -21.36545944 94.69078445 C-23.73560846 94.65916791 -26.10381662 94.65908956 -28.47412109 94.66650391 C-29.17143845 94.65009857 -29.8687558 94.63369324 -30.58720398 94.61679077 C-35.73662221 94.68264796 -37.95645192 96.22110765 -41.0625 100.25 Z M-59.0625 122.25 C-59.47942853 125.66600593 -59.47942853 125.66600593 -59.0625 129.25 C-56.57682463 132.23281045 -53.93164717 132.57365169 -50.19508934 133.06097984 C-45.91144724 133.44065665 -41.62231603 133.3641843 -37.32543945 133.33520508 C-36.26770325 133.33202271 -35.20996704 133.32884033 -34.12017822 133.32556152 C-30.63865348 133.3130179 -27.15725444 133.29213905 -23.67578125 133.26953125 C-22.48464407 133.26257421 -21.29350689 133.25561718 -20.06627464 133.24844933 C-13.77223569 133.21113172 -7.47828274 133.16714881 -1.18432617 133.11791992 C5.32249296 133.06839889 11.82918887 133.04233172 18.33615398 133.02148914 C23.33847272 133.00115749 28.34054847 132.96329849 33.34272194 132.9206295 C35.74250243 132.9032636 38.14234088 132.89258868 40.54218102 132.88868141 C43.89144134 132.88162557 47.23959097 132.84977378 50.58862305 132.81176758 C52.07940117 132.81695656 52.07940117 132.81695656 53.60029602 132.82225037 C58.93357065 132.77790941 58.93357065 132.77790941 63.58430481 130.40629578 C65.20881431 128.24195339 65.20881431 128.24195339 64.9375 125.1875 C63.7793348 121.78538973 62.96272801 121.06465836 59.9375 119.25 C57.6634908 118.80668933 57.6634908 118.80668933 55.20021057 118.8757782 C54.25113831 118.86876389 53.30206604 118.86174957 52.32423401 118.85452271 C51.28983688 118.86216644 50.25543976 118.86981018 49.18969727 118.87768555 C47.54763809 118.87220955 47.54763809 118.87220955 45.87240601 118.86662292 C42.24941553 118.85850919 38.62687116 118.87213574 35.00390625 118.88671875 C32.48811341 118.88723729 29.97232015 118.88671982 27.45652771 118.88520813 C22.18149835 118.88529789 16.90658457 118.89539679 11.6315918 118.91381836 C5.5387874 118.93497454 -0.55382849 118.93849799 -6.64666218 118.9322564 C-12.51356738 118.9265546 -18.38040531 118.93232358 -24.2473011 118.94342995 C-26.74118851 118.94728095 -29.2350816 118.94843057 -31.72897148 118.9468441 C-35.21452518 118.94647344 -38.69979209 118.95909476 -42.18530273 118.9753418 C-43.21767563 118.97286438 -44.25004852 118.97038696 -45.31370544 118.96783447 C-46.74154358 118.97846169 -46.74154358 118.97846169 -48.19822693 118.98930359 C-49.43347186 118.99238289 -49.43347186 118.99238289 -50.69367123 118.99552441 C-53.72161604 119.3208067 -56.84915004 120.03665004 -59.0625 122.25 Z M-40.0625 146.25 C-41.17953004 149.15427811 -41.3078571 150.57054957 -40.25 153.5 C-39.16850632 155.40074924 -39.16850632 155.40074924 -37.0625 156.25 C-34.54591391 156.35850088 -32.05657542 156.40731032 -29.53930664 156.41113281 C-28.76354782 156.41609772 -27.987789 156.42106262 -27.18852234 156.42617798 C-24.61655803 156.44080999 -22.04465537 156.44760277 -19.47265625 156.453125 C-17.6890818 156.45887493 -15.90550738 156.46463268 -14.12193298 156.47039795 C-10.38019522 156.48091043 -6.63847897 156.4867517 -2.89672852 156.49023438 C1.9031769 156.49572428 6.70279937 156.51976176 11.50261593 156.54820633 C15.1871474 156.56680704 18.87161031 156.5720369 22.55618477 156.57357025 C24.32606112 156.57660236 26.0959361 156.5846496 27.86576653 156.59775543 C30.33903583 156.61476509 32.81160844 156.61294857 35.28491211 156.60644531 C36.38610886 156.62026749 36.38610886 156.62026749 37.509552 156.6343689 C40.42522381 156.61029025 42.44380813 156.58709452 44.89234924 154.91522217 C46.53853677 152.29237763 46.31415208 150.26321666 45.9375 147.25 C44.39243534 145.21332385 43.21603844 144.38926922 40.9375 143.25 C38.55338745 143.14171521 36.19803518 143.09269961 33.81323242 143.08886719 C33.07970047 143.08390228 32.34616852 143.07893738 31.59040833 143.07382202 C29.157919 143.05918893 26.72549491 143.05239603 24.29296875 143.046875 C22.60386655 143.04112388 20.91476438 143.03536614 19.22566223 143.02960205 C15.68063045 143.01908838 12.13562136 143.01324832 8.59057617 143.00976562 C4.05093295 143.00428431 -0.48840981 142.98026573 -5.02795887 142.95179367 C-8.51870088 142.93315591 -12.00937075 142.92796106 -15.50015831 142.92642975 C-17.17348559 142.92340456 -18.84681165 142.9153805 -20.5200901 142.90224457 C-22.86364091 142.8851622 -25.20646078 142.88706952 -27.55004883 142.89355469 C-28.58435532 142.87973251 -28.58435532 142.87973251 -29.63955688 142.8656311 C-33.93448753 142.90280385 -36.66016307 143.5952085 -40.0625 146.25 Z " fill="#27a09c" transform="translate(314.0625,225.75)"/>
<path d="M0 0 C5.85243009 3.46765608 10.05658729 8.66511402 12.15234375 15.140625 C13.93501503 23.80352347 12.87625624 30.76519621 8.625 38.4375 C6.46516122 41.23213264 4.02605472 43.65956726 1.49357605 46.11636353 C0.77483112 46.83373605 0.05608619 47.55110858 -0.68443888 48.29021966 C-3.08109728 50.67643175 -5.4951037 53.04426731 -7.90942383 55.41259766 C-9.63688447 57.12554261 -11.36318385 58.83965933 -13.08840942 60.55485535 C-16.79792142 64.23844234 -20.51469853 67.91452748 -24.23777199 71.58440018 C-29.62353848 76.89393036 -34.99148024 82.22120599 -40.35453757 87.55366282 C-49.06145017 96.21068151 -57.77656918 104.8593806 -66.49975586 113.5 C-67.28179269 114.27464785 -67.28179269 114.27464785 -68.07962825 115.06494515 C-73.9018471 120.83174947 -79.72630013 126.59628859 -85.5534668 132.35809326 C-87.66969264 134.45062783 -89.78591027 136.5431707 -91.90209961 138.63574219 C-92.42433834 139.15214408 -92.94657708 139.66854597 -93.48464123 140.20059641 C-102.18781142 148.80733666 -110.87549074 157.4295286 -119.55100268 166.0641464 C-124.90025816 171.38687538 -130.26246503 176.6958737 -135.64203259 181.98796831 C-139.75794637 186.03912704 -143.85319126 190.11066538 -147.94102859 194.19013405 C-149.62278212 195.86167569 -151.31144974 197.52629304 -153.00734138 199.18348885 C-155.31650342 201.44185925 -157.59992407 203.72343284 -159.87849426 206.01260376 C-160.55959458 206.66699074 -161.24069489 207.32137773 -161.94243461 207.99559462 C-163.65936336 209.74896766 -165.1210742 211.32815789 -166.375 213.4375 C-166.43019904 217.02822482 -166.43019904 217.02822482 -165.375 220.4375 C-165.28455836 222.50468219 -165.2363682 224.57409217 -165.22782898 226.64323425 C-165.22067368 227.84188614 -165.21351837 229.04053802 -165.20614624 230.2755127 C-165.20345734 231.57186646 -165.20076843 232.86822021 -165.19799805 234.20385742 C-165.19172459 235.59739854 -165.18507703 236.99093801 -165.17808533 238.38447571 C-165.15716831 242.93729514 -165.14670279 247.49011448 -165.13671875 252.04296875 C-165.13266824 253.61388987 -165.12855123 255.18481081 -165.12436867 256.75573158 C-165.10535365 264.1293684 -165.09110822 271.50299536 -165.0827567 278.87665194 C-165.07296165 287.38286476 -165.04656804 295.88881894 -165.00625581 304.39494056 C-164.97612922 310.97768221 -164.96129161 317.56034946 -164.95797569 324.14315873 C-164.95562365 328.07246153 -164.94664158 332.00148679 -164.92151451 335.93071556 C-164.89828531 339.62198549 -164.89397934 343.31279397 -164.90427589 347.00411797 C-164.90500931 349.00480974 -164.88588786 351.00547785 -164.86621094 353.006073 C-164.87315475 354.19626541 -164.88009857 355.38645782 -164.88725281 356.61271667 C-164.88486445 357.6470946 -164.8824761 358.68147253 -164.88001537 359.74719524 C-165.51207452 363.18251752 -166.60613732 364.35928267 -169.375 366.4375 C-171.32684422 366.93807125 -171.32684422 366.93807125 -173.4044342 366.93870544 C-174.19652786 366.94853958 -174.98862152 366.95837372 -175.80471802 366.96850586 C-176.6645932 366.95883789 -177.52446838 366.94916992 -178.41040039 366.93920898 C-179.77930168 366.94731346 -179.77930168 366.94731346 -181.17585754 366.95558167 C-184.19178719 366.96808709 -187.20676571 366.951567 -190.22265625 366.93359375 C-192.31725617 366.93374868 -194.41185637 366.9352367 -196.50645447 366.93800354 C-200.89546385 366.9393883 -205.28414674 366.92681527 -209.6730957 366.90405273 C-215.30477112 366.87565055 -220.93590466 366.87840923 -226.56762028 366.89114285 C-230.89213202 366.89809015 -235.21651803 366.89032186 -239.54101372 366.87788582 C-241.61788895 366.87336333 -243.69477765 366.87304145 -245.77165413 366.87695122 C-248.67105013 366.87985457 -251.56969317 366.86339899 -254.46899414 366.84155273 C-255.76184326 366.84830521 -255.76184326 366.84830521 -257.08081055 366.85519409 C-262.92053418 366.78191114 -262.92053418 366.78191114 -265.05640316 365.16327 C-267.68015959 361.72931658 -267.5014475 358.1515866 -267.50871277 353.95680237 C-267.51297775 352.84259415 -267.51724274 351.72838593 -267.52163696 350.58041382 C-267.52118378 349.36221954 -267.52073059 348.14402527 -267.52026367 346.88891602 C-267.52362228 345.60223526 -267.5269809 344.3155545 -267.53044128 342.98988342 C-267.53927434 339.4604296 -267.54161928 335.93100003 -267.54225707 332.40153623 C-267.54296868 330.19162257 -267.54510524 327.98171504 -267.54775429 325.7718029 C-267.55700979 318.04749029 -267.56108946 310.32319493 -267.56030273 302.59887695 C-267.55970389 295.42471033 -267.57021711 288.25061937 -267.5860464 281.07647187 C-267.59918242 274.90043938 -267.60448401 268.72443141 -267.60384732 262.54838508 C-267.60359384 258.86755747 -267.60636058 255.18679692 -267.61702538 251.50598335 C-267.62863139 247.38748261 -267.62392273 243.26914753 -267.61791992 239.15063477 C-267.62353943 237.95065857 -267.62915894 236.75068237 -267.63494873 235.51434326 C-267.59532151 224.74815503 -267.00821413 213.9089473 -261.875 204.25 C-261.52244141 203.57710937 -261.16988281 202.90421875 -260.80664062 202.2109375 C-253.67655888 189.24489008 -242.30023431 181.97126851 -228.4765625 177.5 C-222.7067228 176.18950013 -215.25693205 175.15995005 -209.54694462 177.03911591 C-206.89894474 177.73899484 -205.09544336 177.8721619 -202.375 177.4375 C-197.97352558 174.54468316 -194.46837184 170.78462848 -190.83178711 167.01367188 C-189.70275574 165.88018017 -188.57150502 164.74889541 -187.43821716 163.61965942 C-184.37015314 160.55019476 -181.33383735 157.45096464 -178.30213237 154.34564018 C-175.11844679 151.09558989 -171.90589069 147.87434023 -168.69618225 144.65002441 C-162.61567016 138.53326485 -156.56065736 132.39190849 -150.51478249 126.24093103 C-142.98808073 118.58557325 -135.43141764 110.96000884 -127.87304688 103.3359375 C-125.22122763 100.66101872 -122.56953935 97.98597032 -119.91810608 95.31066895 C-119.27506533 94.66187035 -118.63202458 94.01307176 -117.96949774 93.3446126 C-114.16333396 89.50279212 -110.36306703 85.65525562 -106.56833827 81.80214024 C-104.19941947 79.39688389 -101.82863658 76.99346905 -99.45778847 74.59011459 C-98.36520391 73.4813864 -97.27359142 72.37169925 -96.18306732 71.26094437 C-90.97699085 65.95849985 -85.74685975 60.758321 -80.09356022 55.9281292 C-77.57699804 53.74533629 -75.24752218 51.39867974 -72.91210938 49.0246582 C-72.42635941 48.53262909 -71.94060944 48.04059998 -71.44013977 47.53366089 C-70.40189879 46.48173573 -69.36476886 45.42871294 -68.32868958 44.37465858 C-66.68281211 42.7017532 -65.03226707 41.03358569 -63.38024902 39.366745 C-58.68902609 34.63314405 -54.00073346 29.89675288 -49.32861328 25.14428711 C-46.45574141 22.22269464 -43.57302523 19.31113122 -40.68379211 16.40572166 C-39.59256345 15.30465515 -38.50498442 14.19995811 -37.42131042 13.09145546 C-27.48195274 2.92928583 -14.94863199 -6.76591854 0 0 Z M-32.375 29.4375 C-42.47959782 37.32181895 -50.79182597 44.64359023 -53.07128906 57.70947266 C-53.96667957 64.97355764 -54.4168402 72.11951389 -54.375 79.4375 C-52.77148233 78.11905213 -51.18273534 76.78081411 -49.64453125 75.38671875 C-47.375 73.4375 -47.375 73.4375 -44.63671875 71.64453125 C-34.92333738 64.21819773 -34.17844671 54.17274781 -32.50537109 42.8125 C-31.3661398 36.04919531 -31.3661398 36.04919531 -32.375 29.4375 Z M-113.8125 110.375 C-114.99682617 111.47811523 -114.99682617 111.47811523 -116.20507812 112.60351562 C-121.39245864 117.6670712 -123.60234654 121.26436248 -124.375 128.4375 C-124.66552675 130.14279447 -124.96125803 131.84720901 -125.26171875 133.55078125 C-125.53198179 135.28333708 -125.79889183 137.01641916 -126.0625 138.75 C-126.27616211 140.06967773 -126.27616211 140.06967773 -126.49414062 141.41601562 C-126.62369141 142.26486328 -126.75324219 143.11371094 -126.88671875 143.98828125 C-127.00490967 144.74794189 -127.12310059 145.50760254 -127.24487305 146.2902832 C-127.38263255 148.5634443 -127.04222239 150.27186746 -126.375 152.4375 C-123.55832697 149.79625056 -120.77681956 147.12056841 -118 144.4375 C-117.2059375 143.69371094 -116.411875 142.94992188 -115.59375 142.18359375 C-110.75952705 137.47227478 -108.15653766 134.15622796 -107.375 127.4375 C-107.09186463 125.77722101 -106.80797058 124.11707128 -106.5234375 122.45703125 C-106.26154082 120.72196573 -106.00377284 118.98627232 -105.75 117.25 C-105.6159375 116.37408203 -105.481875 115.49816406 -105.34375 114.59570312 C-104.7372337 110.514096 -104.186435 106.57735877 -104.375 102.4375 C-107.46359843 102.4375 -111.70214531 108.32636161 -113.8125 110.375 Z M-183.50195312 180.38745117 C-184.15933472 181.03199753 -184.81671631 181.67654388 -185.49401855 182.34062195 C-186.20755493 183.04677139 -186.92109131 183.75292084 -187.65625 184.48046875 C-188.38493286 185.20107986 -189.11361572 185.92169098 -189.86437988 186.66413879 C-191.40931806 188.19521273 -192.9526877 189.72787075 -194.49462891 191.26196289 C-196.8561183 193.6062558 -199.23058997 195.93686134 -201.60546875 198.26757812 C-203.10239194 199.75437371 -204.59851227 201.24197815 -206.09375 202.73046875 C-206.80728638 203.42649704 -207.52082275 204.12252533 -208.25598145 204.83964539 C-208.91336304 205.49995255 -209.57074463 206.1602597 -210.24804688 206.84057617 C-210.82905151 207.41571457 -211.41005615 207.99085297 -212.00866699 208.5834198 C-213.70876481 210.89041061 -214.10459722 212.59704075 -214.375 215.4375 C-213.12736062 219.69415199 -212.2068463 221.84596485 -208.5625 224.4375 C-204.72185354 225.64240869 -203.17649426 225.80603793 -199.375 224.4375 C-196.46923851 222.33687659 -193.9312256 219.94638809 -191.375 217.4375 C-190.73079102 216.91961914 -190.08658203 216.40173828 -189.42285156 215.86816406 C-182.81688389 210.16260089 -181.78920664 204.77843441 -180.875 196.3125 C-180.64296875 194.58193359 -180.64296875 194.58193359 -180.40625 192.81640625 C-179.73908504 187.65183462 -179.30133337 182.64941398 -179.375 177.4375 C-181.19035587 177.4375 -182.26976652 179.17614202 -183.50195312 180.38745117 Z M-242.375 202.4375 C-250.05393686 211.9311528 -252.5418965 221.25473561 -252.48852539 233.28857422 C-252.48867142 234.15751816 -252.48881744 235.0264621 -252.4889679 235.92173767 C-252.48827421 238.77858015 -252.48050735 241.63535649 -252.47265625 244.4921875 C-252.47079014 246.47901372 -252.46936715 248.46584039 -252.46836853 250.45266724 C-252.46455857 255.67062663 -252.4547413 260.88855799 -252.44366455 266.10650635 C-252.43161468 272.37327495 -252.42704094 278.64005295 -252.42121124 284.90682983 C-252.41152872 294.41707269 -252.3923615 303.9272541 -252.375 313.4375 C-228.615 313.4375 -204.855 313.4375 -180.375 313.4375 C-180.375 285.0575 -180.375 256.6775 -180.375 227.4375 C-182.685 229.4175 -184.995 231.3975 -187.375 233.4375 C-188.74135812 234.41746042 -190.13119322 235.36760675 -191.5625 236.25 C-192.19542969 236.64832031 -192.82835937 237.04664063 -193.48046875 237.45703125 C-198.64407383 240.12932996 -204.42596823 240.30380614 -209.94140625 238.68359375 C-217.66435452 235.74864322 -222.50551633 232.42330872 -226.359375 224.99609375 C-228.98343789 218.38547379 -229.21774563 211.37695891 -226.67578125 204.71484375 C-224.43257163 200.78754283 -221.36956556 197.64240986 -218.23828125 194.40625 C-216.26043586 192.76823133 -216.26043586 192.76823133 -216.375 191.4375 C-226.20028446 190.37530709 -235.60470929 195.71999908 -242.375 202.4375 Z " fill="#27a09c" transform="translate(294.375,73.5625)"/>
</svg>
