<?xml version="1.0" encoding="UTF-8"?>
<svg version="1.1" xmlns="http://www.w3.org/2000/svg" width="512" height="512">
    <path
        d="M0 0 C3.37526948 0.81678297 6.53215279 2.01796158 9.75390625 3.3046875 C10.67055557 3.65477371 11.5872049 4.00485992 12.53163147 4.36555481 C14.5102361 5.12334448 16.48597365 5.88865495 18.45904541 6.66073608 C21.63756071 7.90436841 24.82309238 9.12818637 28.01123047 10.34692383 C31.35175267 11.6239344 34.69185388 12.90191436 38.02978516 14.1856842 C48.20412803 18.09677873 58.42613396 21.86957608 68.66534424 25.60693359 C73.73578622 27.45814526 78.8034956 29.3168014 83.87109375 31.17578125 C84.91527466 31.55876373 85.95945557 31.94174622 87.03527832 32.33633423 C100.59858676 37.3152459 114.14268668 42.34605296 127.6875 47.375 C129.01149426 47.86653833 130.33548921 48.35807479 131.65948486 48.84960938 C136.93375343 50.80773577 142.20797572 52.76598675 147.4821167 54.72445679 C160.48537692 59.55276403 173.49232795 64.371092 186.5 69.1875 C188.72420416 70.01114454 190.94840664 70.83479362 193.17260742 71.65844727 C199.78167228 74.10580977 206.39082696 76.55292966 213 79 C229.79279738 85.21759425 246.58510355 91.43651166 263.37658691 97.65765381 C266.4820529 98.80811895 269.58758042 99.95841764 272.69314384 101.10861969 C275.95953017 102.31840311 279.22586821 103.52831685 282.4921875 104.73828125 C283.14568554 104.98035561 283.79918358 105.22242996 284.47248459 105.4718399 C291.71580163 108.15515257 298.95829862 110.84064917 306.19873047 113.53173828 C306.83915094 113.76975662 307.47957142 114.00777496 308.13939857 114.25300598 C310.70476886 115.2064927 313.27012748 116.16001066 315.83537674 117.11382294 C323.86340009 120.09855739 331.89655738 123.06890289 339.93600464 126.02276611 C344.44627131 127.68169768 348.95335173 129.34916139 353.45977783 131.01849365 C355.54975611 131.79038193 357.64116614 132.55840593 359.73406982 133.32232666 C362.58954674 134.36503644 365.43974193 135.42107414 368.2890625 136.48046875 C369.12133362 136.7804628 369.95360474 137.08045685 370.81109619 137.38954163 C375.02393227 138.9727049 378.15472913 140.337262 381 144 C381.53125 146.18359375 381.53125 146.18359375 381.5 148.4375 C381.5103125 149.17871094 381.520625 149.91992188 381.53125 150.68359375 C380.78654632 153.93072082 379.23959023 155.54636749 377 158 C374.27709961 159.6940918 374.27709961 159.6940918 371.15234375 161.19921875 C369.99839111 161.76390869 368.84443848 162.32859863 367.65551758 162.91040039 C367.04833893 163.20061066 366.44116028 163.49082092 365.81558228 163.78982544 C363.27743257 165.00299509 360.75238277 166.24233662 358.2263031 167.48039246 C356.95659505 168.10237263 355.68621902 168.72299104 354.41517639 169.34223938 C348.99529173 171.98564468 343.6404462 174.73917672 338.3125 177.5625 C337.59118896 177.94301514 336.86987793 178.32353027 336.12670898 178.71557617 C331.046704 181.40941864 326.01826452 184.19307499 321 187 C321.33076538 187.94915283 321.33076538 187.94915283 321.66821289 188.91748047 C326.99616244 204.20637917 325.96808343 219.06107451 319.75 234.00390625 C312.57526375 248.33299598 300.56816238 258.39717967 285.4375 263.5 C276.43092063 265.82559467 267.22994582 265.33428375 258 265 C257.87238281 265.73863281 257.74476563 266.47726562 257.61328125 267.23828125 C257.04558416 269.79472613 256.32652764 271.84137535 255.1875 274.1875 C254.87167969 274.86167969 254.55585938 275.53585937 254.23046875 276.23046875 C252.70193715 278.42864277 251.46938069 279.00203892 249 280 C242.14037782 280.36652497 235.64802782 277.70739857 229.3515625 275.31640625 C228.34829422 274.94481888 227.34502594 274.57323151 226.31135559 274.19038391 C223.07891652 272.99065259 219.85200291 271.77676809 216.625 270.5625 C214.41189556 269.73813912 212.198434 268.91473632 209.98461914 268.09228516 C205.63536291 266.47488013 201.28814834 264.85218529 196.94287109 263.22412109 C191.88957476 261.33118463 186.83176174 259.45093137 181.76953125 257.58203125 C181.11704407 257.34112259 180.46455688 257.10021393 179.79229736 256.852005 C179.17360779 256.62361435 178.55491821 256.39522369 177.91748047 256.15991211 C173.2760134 254.44614466 168.63765238 252.72405909 164 251 C163.78960083 252.12281372 163.78960083 252.12281372 163.57495117 253.26831055 C160.61657704 267.32404226 154.34145509 278.18738287 143 287 C142.34 287.33 141.68 287.66 141 288 C140.99853344 288.55253889 140.99706688 289.10507778 140.99555588 289.67436028 C140.95840892 303.1555196 140.89904052 316.636426 140.81609726 330.11738396 C140.7766496 336.63685971 140.74444757 343.15620094 140.72900391 349.67578125 C140.71381985 355.97182873 140.67934222 362.2675063 140.63169098 368.56338882 C140.61689541 370.96100772 140.60896004 373.35867944 140.60811615 375.75634384 C140.60573937 379.12425565 140.57860047 382.49115108 140.54589844 385.85888672 C140.5509288 386.84216446 140.55595917 387.8254422 140.56114197 388.83851624 C140.44576162 396.55847594 138.66563376 403.22130718 134.17578125 409.5859375 C127.11968149 416.36097668 121.44691546 419.17468088 111.5625 419.5625 C102.12224419 419.26041181 96.13920358 416.5321754 89.5625 409.8125 C84.05885571 403.0635867 82.85055632 396.75756349 82.9375 388.171875 C82.94652344 387.01268555 82.95554688 385.85349609 82.96484375 384.65917969 C82.98224609 383.34288574 82.98224609 383.34288574 83 382 C66.95305825 381.87352418 50.90728851 381.81007434 34.8599081 381.82121754 C27.40834845 381.82492968 19.95789292 381.80818389 12.5065918 381.74291992 C6.01028884 381.68607282 -0.48478258 381.66797418 -6.9812941 381.6959936 C-10.42032455 381.7094836 -13.85688069 381.70385156 -17.29559517 381.65177345 C-21.13887669 381.59429556 -24.97891307 381.62335278 -28.82250977 381.65942383 C-29.95683441 381.62922653 -31.09115906 381.59902924 -32.25985718 381.56791687 C-35.52397781 381.64087433 -37.95379826 381.81337907 -41 383 C-44.04904336 386.34967051 -45.9544852 389.98858788 -48 394 C-54.90455 401.96845865 -63.57685005 407.20355046 -74 409 C-73.98428955 409.60473145 -73.9685791 410.20946289 -73.95239258 410.83251953 C-73.8896812 413.59658296 -73.85089589 416.36049621 -73.8125 419.125 C-73.78736328 420.07632812 -73.76222656 421.02765625 -73.73632812 422.0078125 C-73.68029124 427.38735347 -73.76641776 431.45118544 -77 436 C-79.85995786 437.7680964 -82.06015363 438.25933854 -85.39794922 438.30639648 C-86.25919403 438.32238388 -87.12043884 438.33837128 -88.00778198 438.35484314 C-89.39225021 438.36288719 -89.39225021 438.36288719 -90.8046875 438.37109375 C-91.76142365 438.38012222 -92.71815979 438.3891507 -93.70388794 438.39845276 C-95.72622553 438.41294792 -97.74860994 438.42184017 -99.77099609 438.42553711 C-102.85725296 438.4374316 -105.94150881 438.48662285 -109.02734375 438.53710938 C-110.99478193 438.54657428 -112.96223237 438.55380899 -114.9296875 438.55859375 C-115.84861786 438.57812607 -116.76754822 438.59765839 -117.71432495 438.61778259 C-118.58187408 438.61170486 -119.44942322 438.60562714 -120.34326172 438.59936523 C-121.0995285 438.60443588 -121.85579529 438.60950653 -122.63497925 438.61473083 C-126.46906711 437.61815098 -128.94526483 436.37792419 -131 433 C-131.9223239 428.01725841 -131.81015534 423.05364317 -131.76049805 418.0078125 C-131.76699351 416.45854462 -131.77605615 414.90928569 -131.78749084 413.36004639 C-131.81056129 409.15734879 -131.79585983 404.95555991 -131.77302146 400.75289154 C-131.75410003 396.35363988 -131.76526464 391.95444901 -131.77192688 387.55517578 C-131.77826666 380.16749648 -131.76000193 372.78018108 -131.72729492 365.39257812 C-131.68980051 356.85305193 -131.6915792 348.31421512 -131.7143361 339.77465248 C-131.73528893 331.55783187 -131.72800904 323.34126591 -131.70801735 315.12445068 C-131.70003336 311.62848635 -131.70202034 308.13273754 -131.71204185 304.63677979 C-131.72259686 300.51937637 -131.70845605 296.4027758 -131.67529869 292.28549957 C-131.66709412 290.77503899 -131.6673725 289.2645048 -131.67677689 287.75405121 C-131.68821364 285.69044315 -131.66881738 283.62932752 -131.64164734 281.56591797 C-131.63846339 280.41187469 -131.63527945 279.25783142 -131.63199902 278.06881714 C-130.80386084 274.04760103 -129.143632 272.55553097 -126 270 C-122.05944739 268.68648246 -118.27740184 268.81765023 -114.16796875 268.796875 C-113.29860184 268.79117493 -112.42923492 268.78547485 -111.53352356 268.77960205 C-109.69350398 268.77015722 -107.85346752 268.76362012 -106.01342773 268.75976562 C-103.20851856 268.75007263 -100.40434621 268.7190499 -97.59960938 268.6875 C-95.80990017 268.68096832 -94.02018574 268.6757185 -92.23046875 268.671875 C-90.97861031 268.6533548 -90.97861031 268.6533548 -89.70146179 268.63446045 C-83.74790165 268.65705734 -79.37253473 269.62746527 -75 274 C-73.9701319 277.01769634 -73.88300633 279.8130383 -73.90234375 282.984375 C-73.90556641 283.91894531 -73.90878906 284.85351562 -73.91210938 285.81640625 C-73.92467773 287.26853516 -73.92467773 287.26853516 -73.9375 288.75 C-73.94201172 289.73355469 -73.94652344 290.71710938 -73.95117188 291.73046875 C-73.96293517 294.15370791 -73.97937316 296.57682273 -74 299 C-72.43765625 299.16435547 -72.43765625 299.16435547 -70.84375 299.33203125 C-60.0499467 301.20778365 -51.30256006 308.54639311 -45.125 317.25 C-43.62449514 319.47047804 -42.1979458 321.6041084 -41 324 C20.38 324.495 20.38 324.495 83 325 C82.67 309.49 82.34 293.98 82 278 C80.02 276.35 78.04 274.7 76 273 C74.171875 270.53515625 74.171875 270.53515625 72.75 268.0625 C72.27046875 267.24910156 71.7909375 266.43570312 71.296875 265.59765625 C66.41660176 255.82241015 66.36568928 244.84153874 69.53125 234.51171875 C71.41631112 228.92646266 73.36009681 223.27980639 76 218 C75.16421921 217.76413933 75.16421921 217.76413933 74.31155396 217.52351379 C66.68614886 215.30940009 59.25501301 212.62388423 51.8046875 209.88671875 C50.44491963 209.38948141 49.08506468 208.89248213 47.72512817 208.39570618 C44.88544898 207.35774402 42.04645141 206.31794755 39.20800781 205.27661133 C34.20825169 203.44235793 29.20623086 201.61431306 24.20427322 199.78607368 C20.78182351 198.53449261 17.36050637 197.27997057 13.94158936 196.01876831 C8.50099754 194.01216855 3.06214792 192.00741391 -2.41699219 190.10791016 C-3.17043915 189.84170364 -3.92388611 189.57549713 -4.70016479 189.30122375 C-6.53968218 188.65335284 -8.38453266 188.02067248 -10.22998047 187.38989258 C-13.5147002 185.74174262 -15.02512798 184.07799336 -17 181 C-18.12338675 173.53278221 -15.23413737 167.36408061 -12.5 160.5 C-12.07074219 159.39140625 -11.64148438 158.2828125 -11.19921875 157.140625 C-10.14465611 154.42219686 -9.07806294 151.70917471 -8 149 C-13.69802089 146.3185784 -19.47743202 144.04545917 -25.39453125 141.90625 C-26.15353729 141.63079346 -26.91254333 141.35533691 -27.69454956 141.0715332 C-30.8736078 139.91953305 -34.05347038 138.77019286 -37.23901367 137.63623047 C-39.58629757 136.79881593 -41.92812599 135.94743991 -44.26953125 135.09375 C-44.98623489 134.84258423 -45.70293854 134.59141846 -46.44136047 134.3326416 C-50.46871498 132.85062975 -53.49915214 131.55353124 -56 128 C-58.03166399 121.49898361 -55.85153071 116.50457262 -53.55859375 110.41015625 C-53.19221298 109.39929459 -52.82583221 108.38843292 -52.448349 107.34693909 C-51.31332702 104.22578434 -50.15762789 101.1128294 -49 98 C-48.33730256 96.18654683 -47.67594237 94.37260426 -47.01611328 92.55810547 C-45.05339693 87.17641049 -43.05944503 81.80656876 -41.0625 76.4375 C-40.33498765 74.47680592 -39.60769788 72.51602925 -38.88061523 70.55517578 C-37.74931117 67.50424397 -36.61784264 64.45337443 -35.48548889 61.40283203 C-32.70763064 53.91743378 -29.94470689 46.42662063 -27.1875 38.93359375 C-26.02248728 35.77023041 -24.85731316 32.60692655 -23.69210815 29.44363403 C-22.94245972 27.40717858 -22.19353125 25.37045795 -21.44534302 23.33346558 C-20.40446101 20.50017897 -19.36074475 17.66795153 -18.31640625 14.8359375 C-18.00884399 13.99643051 -17.70128174 13.15692352 -17.38439941 12.29197693 C-17.09842896 11.51806107 -16.8124585 10.7441452 -16.51782227 9.94677734 C-16.2715358 9.27722015 -16.02524933 8.60766296 -15.77149963 7.91781616 C-12.51812975 -0.16950504 -8.27958238 -0.82687245 0 0 Z M1 22 C-2.25315317 29.0024697 -4.98571403 36.14825293 -7.6328125 43.3984375 C-8.06955292 44.58684235 -8.50629333 45.77524719 -8.95626831 46.99966431 C-10.11520679 50.15473142 -11.27156887 53.310717 -12.42657471 56.46722412 C-14.01878962 60.81642115 -15.6161665 65.16372603 -17.21282959 69.5112915 C-18.1159917 71.97274427 -19.01756916 74.43477908 -19.9175415 76.8973999 C-22.22377131 83.20131731 -24.55858444 89.49246778 -26.94433594 95.76660156 C-27.41910147 97.02209264 -27.89362352 98.27767581 -28.3678894 99.53335571 C-29.2660656 101.90621383 -30.17162442 104.27629408 -31.08547974 106.64315796 C-31.48378998 107.69886993 -31.88210022 108.75458191 -32.29248047 109.84228516 C-32.82492874 111.23261459 -32.82492874 111.23261459 -33.36813354 112.65103149 C-34.26510971 115.12434678 -34.26510971 115.12434678 -33 118 C-30.79591945 119.18967214 -30.79591945 119.18967214 -28.0078125 120.11865234 C-26.92831833 120.51194733 -25.84882416 120.90524231 -24.73661804 121.31045532 C-22.94886711 121.941819 -22.94886711 121.941819 -21.125 122.5859375 C-19.87049283 123.03844168 -18.61637581 123.49202878 -17.36262512 123.94662476 C-14.66454884 124.92252259 -11.96403063 125.89120504 -9.26138306 126.85437012 C-4.96264043 128.38652053 -0.66966693 129.93437758 3.62231445 131.48535156 C8.04880316 133.08429526 12.47552632 134.68255381 16.90412903 136.27563477 C29.85969398 140.93709485 42.78239525 145.68402301 55.69647217 150.45932007 C61.50079554 152.60525647 67.3069377 154.74625547 73.11328125 156.88671875 C74.24967041 157.3056691 75.38605957 157.72461945 76.55688477 158.15626526 C89.65423581 162.98208386 102.76374957 167.77459674 115.875 172.5625 C116.97645355 172.96472778 118.0779071 173.36695557 119.21273804 173.78137207 C127.80500333 176.92768824 127.80500333 176.92768824 136.40911865 180.04129028 C138.25817832 180.72550204 140.09323149 181.44806688 141.9175415 182.19577026 C142.88206238 182.58096832 143.84658325 182.96616638 144.84033203 183.36303711 C145.70900909 183.72312363 146.57768616 184.08321014 147.47268677 184.45420837 C150.66062565 185.1426669 152.14636678 184.4857374 155 183 C156.75812975 181.63199796 156.75812975 181.63199796 158.26953125 179.98828125 C158.84477539 179.39821289 159.42001953 178.80814453 160.01269531 178.20019531 C160.60663086 177.57725586 161.20056641 176.95431641 161.8125 176.3125 C163.05147691 175.04110611 164.29234919 173.77155637 165.53515625 172.50390625 C166.42678467 171.59342529 166.42678467 171.59342529 167.33642578 170.66455078 C169.95415615 168.04528374 172.71781398 165.62062647 175.546875 163.234375 C177.13457795 161.91950675 177.13457795 161.91950675 179 160 C185.53653879 158.1581238 190.26375138 160.06139509 196.46484375 162.39453125 C197.97122658 162.94038628 197.97122658 162.94038628 199.50804138 163.49726868 C202.67770064 164.64997987 205.8388831 165.82409258 209 167 C210.98539237 167.72697194 212.97122343 168.45274707 214.95751953 169.17724609 C220.8336056 171.32658658 226.69869205 173.50492793 232.5625 175.6875 C234.55525057 176.42797118 236.548089 177.16820593 238.54101562 177.90820312 C239.5131601 178.26923126 240.48530457 178.6302594 241.48690796 179.00222778 C244.29875854 180.04451001 247.11240472 181.08182272 249.92626953 182.11865234 C253.06288918 183.27548998 256.18841201 184.45475267 259.30419922 185.66650391 C260.53283691 186.13362793 261.76147461 186.60075195 263.02734375 187.08203125 C264.054646 187.48268799 265.08194824 187.88334473 266.14038086 188.29614258 C272.55113227 189.87406423 277.42746892 187.04140734 282.95703125 184.125 C284.11007248 183.52960419 284.11007248 183.52960419 285.28640747 182.92218018 C287.79916007 181.62244476 290.30576449 180.31129696 292.8125 179 C294.54914408 178.0991316 296.28620925 177.19907452 298.02368164 176.29980469 C301.58654929 174.45448738 305.14715898 172.60491867 308.70605469 170.75195312 C316.0427445 166.93430828 323.39898991 163.15476094 330.75424194 159.37304688 C334.22146297 157.58954184 337.68696954 155.80271511 341.15234375 154.015625 C342.8537854 153.13825684 342.8537854 153.13825684 344.58959961 152.24316406 C345.38503174 151.83291992 346.18046387 151.42267578 347 151 C344.37920197 148.37920197 341.43749219 147.54643809 338.015625 146.33203125 C337.27852798 146.06503418 336.54143097 145.79803711 335.78199768 145.52294922 C334.14804281 144.93154514 332.51319114 144.34261471 330.87759399 143.75576782 C326.23546556 142.08931159 321.60065693 140.40267697 316.96484375 138.71875 C315.94714401 138.34957962 314.92944427 137.98040924 313.88090515 137.60005188 C301.16259268 132.9805922 288.48052718 128.26322646 275.79682922 123.54980469 C272.46013032 122.31000853 269.12312374 121.07104112 265.78613281 119.83203125 C264.44414168 119.33374287 263.10215153 118.83545186 261.76016235 118.3371582 C261.09634174 118.09067535 260.43252113 117.8441925 259.74858475 117.59024048 C257.73986195 116.84433696 255.73117809 116.09832868 253.72250366 115.35229492 C240.65127034 110.49777213 227.57604894 105.65403553 214.5 100.8125 C212.28230577 99.9912982 210.06461371 99.17009052 207.84692383 98.34887695 C203.43833895 96.71640343 199.02972452 95.08400973 194.62109375 93.45166016 C182.28530003 88.88408864 169.95007933 84.31496971 157.61474609 79.74615479 C154.23275082 78.49352102 150.85075188 77.24089716 147.46875 75.98828125 C146.35338867 75.575177 145.23802734 75.16207275 144.08886719 74.7364502 C137.4196593 72.26638213 130.75032778 69.79664821 124.08088684 67.32720947 C119.66118001 65.6907458 115.24152222 64.05414969 110.8218689 62.4175415 C108.61504256 61.60038463 106.40819456 60.78328624 104.20132446 59.96624756 C91.31219452 55.19429281 78.42524415 50.4165313 65.54188156 45.62903023 C63.42369684 44.84197215 61.30544428 44.05509696 59.18716431 43.26829529 C58.49134058 43.00984235 57.79551685 42.75138941 57.07860756 42.48510456 C55.67938904 41.96539531 54.28016699 41.44569555 52.88094139 40.92600536 C49.48332083 39.66397642 46.08590612 38.40139902 42.68896484 37.13754272 C28.83081652 31.98169279 14.97203812 26.8406863 1 22 Z M11 155 C10.15838146 157.08000011 9.32699237 159.16414146 8.5 161.25 C8.0359375 162.41015625 7.571875 163.5703125 7.09375 164.765625 C5.78643767 168.06248366 5.78643767 168.06248366 6 172 C6.68045883 172.24817474 7.36091766 172.49634949 8.06199646 172.75204468 C42.75583993 185.40608155 77.44119668 198.08239326 112.10058594 210.83056641 C121.20964215 214.18072576 130.32031281 217.52649105 139.43081665 220.87271118 C144.50209144 222.73535369 149.57332303 224.59811377 154.64453125 226.4609375 C155.64951157 226.83009781 156.65449188 227.19925812 157.68992615 227.5796051 C164.08613739 229.92925256 170.48205265 232.27970409 176.8777771 234.63067627 C181.26122147 236.24193049 185.64476744 237.8529082 190.02832031 239.46386719 C192.08712715 240.22056621 194.14588604 240.97739571 196.20458984 241.734375 C200.93283011 243.47291863 205.66167286 245.2097699 210.39208984 246.94238281 C214.33319681 248.38610552 218.27014828 249.84065042 222.20556641 251.29980469 C224.21642672 252.0411367 226.22733027 252.78235145 228.23828125 253.5234375 C229.17455856 253.87274323 230.11083588 254.22204895 231.07548523 254.5819397 C232.37290398 255.05837418 232.37290398 255.05837418 233.6965332 255.54443359 C234.45730667 255.8262851 235.21808014 256.1081366 236.00190735 256.39852905 C238.13100186 257.14412303 238.13100186 257.14412303 241 257 C243.40552983 250.38072675 245.80796675 243.760337 248.20825195 237.13916016 C249.02524706 234.8866227 249.84295109 232.63434223 250.66137695 230.38232422 C251.83731363 227.14618073 253.01070171 223.90912302 254.18359375 220.671875 C254.55028671 219.66445251 254.91697968 218.65703003 255.29478455 217.61907959 C255.80520042 216.20806976 255.80520042 216.20806976 256.32592773 214.76855469 C256.6257103 213.94248718 256.92549286 213.11641968 257.23435974 212.26531982 C257.93555579 210.19067276 258.50472192 208.13204111 259 206 C245.27979753 200.59161214 231.48437218 195.39475851 217.64501953 190.29931641 C215.27162323 189.42324378 212.89990711 188.54260758 210.52978516 187.65771484 C207.06787008 186.36558828 203.60105831 185.08752023 200.1328125 183.8125 C198.5423259 183.21429443 198.5423259 183.21429443 196.91970825 182.60400391 C195.93702972 182.24612793 194.9543512 181.88825195 193.94189453 181.51953125 C193.08129425 181.20089111 192.22069397 180.88225098 191.33401489 180.55395508 C188.72707912 179.93522496 187.47204221 180.01303107 185 181 C182.79923621 182.82390097 180.74403834 184.65147028 178.6875 186.625 C178.10863037 187.16970947 177.52976074 187.71441895 176.93334961 188.27563477 C173.92797274 191.11552382 170.97009182 193.99731186 168.0625 196.9375 C167.53398437 197.4634375 167.00546875 197.989375 166.4609375 198.53125 C165.48670217 199.51069514 164.53316585 200.51117036 163.6015625 201.53125 C160.70899887 204.40783261 158.48695905 205.31699829 154.53344727 205.37646484 C148.29812395 205.23292941 143.04390644 203.26998653 137.27734375 201.0390625 C136.15907196 200.62170837 135.04080017 200.20435425 133.88864136 199.77435303 C130.86136164 198.64148317 127.83985484 197.49462823 124.82025528 196.34148407 C121.64414952 195.13281441 118.46092009 193.94322834 115.27807617 192.75244141 C110.70844375 191.04130533 106.14073483 189.32522783 101.57553196 187.60230827 C90.70385702 183.50024267 79.7979203 179.49299729 68.88580322 175.49987793 C63.88618051 173.66993639 58.88844586 171.83485565 53.890625 170 C52.95723297 169.65749207 52.02384094 169.31498413 51.06216431 168.96209717 C45.92141297 167.07512913 40.78270416 165.18276903 35.64656067 163.28329468 C32.77088867 162.21987945 29.89444072 161.15857331 27.01791382 160.09747314 C25.12608398 159.39849258 23.23550447 158.69613084 21.3449707 157.99365234 C20.25273193 157.59098145 19.16049316 157.18831055 18.03515625 156.7734375 C17.1006665 156.42716309 16.16617676 156.08088867 15.20336914 155.72412109 C13.06988068 154.89592855 13.06988068 154.89592855 11 155 Z M291.0625 200.6875 C290.14275391 201.12255859 289.22300781 201.55761719 288.27539062 202.00585938 C286.94991211 202.65844727 286.94991211 202.65844727 285.59765625 203.32421875 C284.78820557 203.71697998 283.97875488 204.10974121 283.14477539 204.5144043 C278.47916891 207.74607367 276.98990745 213.24823625 275.08203125 218.3828125 C274.81992355 219.07889618 274.55781586 219.77497986 274.2877655 220.49215698 C273.73832909 221.9552891 273.19135667 223.41934863 272.64672852 224.88427734 C271.81156473 227.12751213 270.96589413 229.36658676 270.11914062 231.60546875 C269.58530447 233.03101311 269.05207988 234.45678666 268.51953125 235.8828125 C268.13991997 236.88600021 268.13991997 236.88600021 267.75263977 237.90945435 C266.69976171 240.76031214 266 242.93295342 266 246 C277.76668274 245.55259761 287.53609898 242.5109227 296 234 C303.64972358 224.0874765 305.80953684 215.40770892 305 203 C304.52778717 200.50459944 303.88801707 198.38654586 303 196 C298.80403092 196 294.76250535 198.86719032 291.0625 200.6875 Z M95 225 C93.61697375 227.97939167 92.29865612 230.98292012 91 234 C90.60683594 234.88945312 90.21367187 235.77890625 89.80859375 236.6953125 C87.2108114 243.04947003 85.98234525 248.30049444 88 255 C90.58801952 261.12607153 94.66586358 263.61612755 100.625 266.25 C103.07379732 267.19184512 105.53222049 268.10907641 108 269 C109.07636719 269.42667969 110.15273437 269.85335937 111.26171875 270.29296875 C117.3934804 272.59336077 122.60136423 273.98446756 129 272 C136.85654691 267.84937144 139.80769576 261.77237254 142.8125 253.8125 C143.13669922 252.99330078 143.46089844 252.17410156 143.79492188 251.33007812 C145.01973342 248.20436156 145.01973342 248.20436156 146 245 C144.62484006 242.24968011 143.26898288 242.16460407 140.40429688 241.12060547 C139.42658325 240.760383 138.44886963 240.40016052 137.44152832 240.02902222 C136.37801147 239.64561676 135.31449463 239.2622113 134.21875 238.8671875 C133.13493042 238.47048859 132.05111084 238.07378967 130.93444824 237.66506958 C127.45870887 236.39499165 123.9793591 235.1351233 120.5 233.875 C118.15211663 233.01754872 115.80445728 232.15948378 113.45703125 231.30078125 C111.23196976 230.48903785 109.00671573 229.67782198 106.78125 228.8671875 C105.18597473 228.28600662 105.18597473 228.28600662 103.55847168 227.69308472 C102.58075806 227.33916656 101.60304443 226.98524841 100.59570312 226.62060547 C99.73046021 226.30686981 98.86521729 225.99313416 97.97375488 225.66989136 C96.18956526 224.94643451 96.18956526 224.94643451 95 225 Z M103 288 C103 300.21 103 312.42 103 325 C108.61 325 114.22 325 120 325 C120 314.11 120 303.22 120 292 C111.585 290.02 111.585 290.02 103 288 Z M-112 289 C-112 331.57 -112 374.14 -112 418 C-106.06 418 -100.12 418 -94 418 C-94 375.43 -94 332.86 -94 289 C-99.94 289 -105.88 289 -112 289 Z M-74 319 C-74 341.77 -74 364.54 -74 388 C-66.46702985 384.98681194 -62.08987834 381.24594922 -58.7265625 373.83203125 C-56.4242377 368.0267069 -56.70218958 362.23342459 -56.64990234 356.07836914 C-56.6334446 354.66348709 -56.60629045 353.24868461 -56.56787109 351.83422852 C-56.2635415 340.54889318 -57.7104353 332.48590799 -65.5 324 C-68.3618481 321.19214904 -69.96028053 320.61588779 -74 319 Z M-37 345 C-37 350.94 -37 356.88 -37 363 C14.81 363 66.62 363 120 363 C120 357.06 120 351.12 120 345 C68.19 345 16.38 345 -37 345 Z M103 382 C102.40842414 389.87682353 102.40842414 389.87682353 104.625 397.1875 C107.56874835 399.43404479 109.29569406 400 113 400 C116.52906067 398.39588152 117.82772908 397.25840638 120 394 C120.24219315 391.02550392 120.24219315 391.02550392 120.125 387.8125 C120.08375 385.894375 120.0425 383.97625 120 382 C114.39 382 108.78 382 103 382 Z "
        fill="#27a09c" transform="translate(131,38)" />
    <path
        d="M0 0 C2.98316838 0.94617574 5.96071431 1.9089488 8.9375 2.875 C9.78763672 3.14441406 10.63777344 3.41382813 11.51367188 3.69140625 C12.72700195 4.08779297 12.72700195 4.08779297 13.96484375 4.4921875 C14.7137085 4.73308105 15.46257324 4.97397461 16.23413086 5.22216797 C18 6 18 6 19 8 C18.56274414 9.78759766 18.56274414 9.78759766 17.78515625 11.9140625 C17.37426758 13.05488281 17.37426758 13.05488281 16.95507812 14.21875 C16.66052734 15.0128125 16.36597656 15.806875 16.0625 16.625 C15.77181641 17.42679688 15.48113281 18.22859375 15.18164062 19.0546875 C14.46117475 21.03892138 13.73144862 23.01978837 13 25 C8.39583374 24.39124245 4.43516676 23.15277044 0.125 21.4375 C-1.02742187 20.98246094 -2.17984375 20.52742188 -3.3671875 20.05859375 C-4.23601562 19.70925781 -5.10484375 19.35992187 -6 19 C-5.39124245 14.39583374 -4.15277044 10.43516676 -2.4375 6.125 C-1.75494141 4.39636719 -1.75494141 4.39636719 -1.05859375 2.6328125 C-0.70925781 1.76398438 -0.35992187 0.89515625 0 0 Z "
        fill="#27a09c" transform="translate(213,158)" />
    <path
        d="M0 0 C6.61798396 1.82374506 12.78869885 4.08348512 19 7 C18.07664129 9.81788759 17.1372946 12.628533 16.1875 15.4375 C15.92646484 16.23994141 15.66542969 17.04238281 15.39648438 17.86914062 C15.13544922 18.63291016 14.87441406 19.39667969 14.60546875 20.18359375 C14.36981201 20.89056396 14.13415527 21.59753418 13.89135742 22.32592773 C13 24 13 24 10 25 C7.20307835 24.10417854 4.53322716 23.14841468 1.8125 22.0625 C1.06291016 21.77181641 0.31332031 21.48113281 -0.45898438 21.18164062 C-2.30924477 20.46274964 -4.15506648 19.73245347 -6 19 C-4.70024676 12.28460827 -2.70071112 6.27980887 0 0 Z "
        fill="#27a09c" transform="translate(248,171)" />
    <path
        d="M0 0 C4.60416626 0.60875755 8.56483324 1.84722956 12.875 3.5625 C14.02742188 4.01753906 15.17984375 4.47257813 16.3671875 4.94140625 C17.67042969 5.46541016 17.67042969 5.46541016 19 6 C17.23536928 12.10737442 15.30442525 18.07433507 13 24 C6.0886636 23.52877252 0.27795839 20.79363994 -6 18 C-5.31583566 13.82423832 -3.98634991 10.11919593 -2.4375 6.1875 C-1.75494141 4.44533203 -1.75494141 4.44533203 -1.05859375 2.66796875 C-0.70925781 1.78753906 -0.35992187 0.90710938 0 0 Z "
        fill="#27a09c" transform="translate(178,146)" />
</svg>