<?xml version="1.0" encoding="UTF-8"?>
<svg version="1.1" xmlns="http://www.w3.org/2000/svg" width="512" height="512">
    <path
        d="M0 0 C1.45427399 -0.01029488 1.45427399 -0.01029488 2.93792725 -0.02079773 C6.14366282 -0.03910391 9.34891085 -0.03522306 12.5546875 -0.02954102 C14.78141439 -0.03410064 17.00813986 -0.03940556 19.23486328 -0.04542542 C23.90207638 -0.05436379 28.56911844 -0.05192465 33.23632812 -0.04199219 C39.22219694 -0.03049577 45.20747644 -0.05072105 51.19326782 -0.07990932 C55.79146077 -0.09823916 60.38951163 -0.09798537 64.98773193 -0.0922718 C67.19497505 -0.09211823 69.40222758 -0.09819244 71.60943604 -0.11056328 C74.69312733 -0.12541216 77.77571854 -0.11484106 80.859375 -0.09765625 C81.77378357 -0.10732422 82.68819214 -0.11699219 83.63031006 -0.12695312 C89.80978638 -0.05470559 89.80978638 -0.05470559 92.94030762 2.26203918 C94.74831156 4.86229516 95.91912029 7.40283423 97.0859375 10.34936523 C97.55128906 11.50952148 98.01664062 12.66967773 98.49609375 13.86499023 C98.96917969 15.07413086 99.44226563 16.28327148 99.9296875 17.52905273 C100.63931641 19.30795898 100.63931641 19.30795898 101.36328125 21.12280273 C102.29177808 23.45304686 103.21509482 25.78536276 104.1328125 28.11987305 C105.63747443 31.9302481 107.18591893 35.72189035 108.74804688 39.5090332 C109.4296875 41.40405273 109.4296875 41.40405273 109.4296875 43.40405273 C111.30914062 43.33444336 111.30914062 43.33444336 113.2265625 43.26342773 C114.87758031 43.2259046 116.52862392 43.18950502 118.1796875 43.15405273 C119.0046875 43.12053711 119.8296875 43.08702148 120.6796875 43.05249023 C121.47890625 43.03959961 122.278125 43.02670898 123.1015625 43.01342773 C124.20129395 42.98200684 124.20129395 42.98200684 125.32324219 42.94995117 C128.47249604 43.62885847 129.45054087 44.85858996 131.4296875 47.40405273 C132.85450288 50.23097464 133.97951075 53.1491215 135.1015625 56.10717773 C135.59248383 57.36386261 135.59248383 57.36386261 136.09332275 58.64593506 C137.13204277 61.31157492 138.15601622 63.98260247 139.1796875 66.65405273 C139.8831479 68.46692814 140.58756442 70.27943284 141.29296875 72.09155273 C143.01631521 76.52483433 144.72646236 80.96300398 146.4296875 85.40405273 C147.01459961 85.41339844 147.59951172 85.42274414 148.20214844 85.43237305 C150.8621733 85.48618553 153.52045972 85.56980723 156.1796875 85.65405273 C157.56027344 85.67532227 157.56027344 85.67532227 158.96875 85.69702148 C165.6750262 85.94000251 165.6750262 85.94000251 168.81347656 87.86987305 C171.2112419 91.62951115 172.87751954 95.57103535 174.5390625 99.70092773 C174.91073547 100.60852844 175.28240845 101.51612915 175.66534424 102.45123291 C176.44693243 104.36895815 177.22324849 106.28883945 177.99462891 108.21069336 C179.17276663 111.13686319 180.37620825 114.0517009 181.58203125 116.96655273 C182.34010373 118.83571164 183.09666421 120.70548462 183.8515625 122.57592773 C184.39052155 123.87321808 184.39052155 123.87321808 184.94036865 125.19671631 C187.04114002 130.50479195 188.17432 134.68803875 187.4296875 140.40405273 C186.1096875 141.72405273 184.7896875 143.04405273 183.4296875 144.40405273 C172.8696875 144.40405273 162.3096875 144.40405273 151.4296875 144.40405273 C151.4296875 167.17405273 151.4296875 189.94405273 151.4296875 213.40405273 C157.3696875 213.40405273 163.3096875 213.40405273 169.4296875 213.40405273 C177.086104 217.23226098 181.01161411 219.6091155 184.2421875 227.34155273 C186.54300654 234.27030493 185.49713837 239.96619288 182.4296875 246.40405273 C181.44766542 248.08137513 180.45106207 249.75039867 179.4296875 251.40405273 C180.21472656 251.9725293 180.99976563 252.54100586 181.80859375 253.12670898 C183.38447266 254.28493164 183.38447266 254.28493164 184.9921875 255.46655273 C186.54099609 256.59770508 186.54099609 256.59770508 188.12109375 257.75170898 C196.46216529 264.27475928 201.95625858 272.25001801 207.6796875 281.02905273 C208.5589519 282.36447469 209.43892956 283.69942727 210.31958008 285.03393555 C212.58928014 288.47782032 214.84896107 291.92815355 217.10577393 295.38049316 C219.18657319 298.56092831 221.27536318 301.73610122 223.36328125 304.91186523 C227.68878621 311.49554389 231.999394 318.08889719 236.30657959 324.68457031 C238.81636107 328.52705517 241.32873733 332.36784427 243.84057617 336.20898438 C245.22254746 338.32255902 246.60422535 340.43632553 247.9855957 342.55029297 C251.8544263 348.47019045 255.72893049 354.38629536 259.609375 360.29858398 C260.48373732 361.63125751 261.35808636 362.96393975 262.23242188 364.29663086 C263.50665386 366.23883221 264.78120548 368.18081923 266.05688477 370.12207031 C267.23148995 371.90951299 268.40491099 373.697728 269.578125 375.48608398 C270.25020996 376.50935791 270.92229492 377.53263184 271.61474609 378.58691406 C273.4296875 381.40405273 273.4296875 381.40405273 274.81152344 384.22485352 C276.26066007 386.65042616 276.26066007 386.65042616 279.04248047 387.09179688 C280.07518066 387.12394287 281.10788086 387.15608887 282.171875 387.18920898 C283.88612671 387.26896973 283.88612671 387.26896973 285.63500977 387.3503418 C286.84600342 387.38869141 288.05699707 387.42704102 289.3046875 387.46655273 C305.93881228 388.35242598 320.05831185 391.30759654 332.4296875 403.40405273 C339.52863019 412.23183275 342.90157669 419.95006641 342.86328125 431.23217773 C342.8685231 432.14360535 342.87376495 433.05503296 342.87916565 433.99407959 C342.88555112 435.90676865 342.88429425 437.81949717 342.87573242 439.73217773 C342.86717021 442.65996426 342.89611515 445.58583088 342.92773438 448.51342773 C342.92934533 450.37801049 342.92877089 452.24259668 342.92578125 454.10717773 C342.93701523 454.98013489 342.94824921 455.85309204 342.95982361 456.75250244 C342.95044266 457.56725037 342.94106171 458.38199829 342.93139648 459.22143555 C342.93114723 460.29110565 342.93114723 460.29110565 342.93089294 461.38238525 C342.17246394 464.44159235 340.93222199 465.48988344 338.4296875 467.40405273 C335.51898269 467.79596327 332.98751736 467.94161215 330.07751465 467.9074173 C329.22315732 467.91323106 328.36879999 467.91904482 327.48855305 467.92503476 C324.60601885 467.93971245 321.72432583 467.92571339 318.84179688 467.9119873 C316.76229159 467.91659314 314.68278955 467.92294392 312.60329437 467.93089628 C306.87357306 467.94765621 301.14411687 467.93931299 295.41439438 467.92695141 C289.2411694 467.91793044 283.06799119 467.93185593 276.89477539 467.94287109 C265.49530065 467.9596616 254.09593447 467.95816175 242.69646239 467.94722522 C232.16636621 467.93717208 221.63630117 467.93453194 211.10620117 467.9393158 C210.40833785 467.93962134 209.71047453 467.93992688 208.99146384 467.94024168 C206.1587726 467.94148698 203.32608138 467.94276058 200.49339017 467.94408073 C173.9081081 467.95632306 147.32288013 467.94521288 120.73760641 467.92369314 C97.10629195 467.90471001 73.4750637 467.90640849 49.84375 467.92553711 C23.30780972 467.94694499 -3.22808274 467.95545492 -29.76403046 467.94308805 C-32.59162902 467.94180514 -35.41922759 467.94055378 -38.24682617 467.9393158 C-38.94307832 467.93899949 -39.63933047 467.93868318 -40.35668117 467.93835728 C-50.88143661 467.93380298 -61.40615754 467.93913668 -71.9309082 467.94923401 C-83.8952856 467.96065511 -95.85956113 467.95745963 -107.82393456 467.93611103 C-113.93272052 467.92557145 -120.04133115 467.92152826 -126.15011597 467.93470764 C-131.73609884 467.94657717 -137.32174293 467.94015912 -142.90769482 467.91879743 C-144.93454749 467.91430821 -146.96142846 467.91664916 -148.98826313 467.92630059 C-151.73196901 467.93836913 -154.47449655 467.92608734 -157.21813965 467.9074173 C-158.41354764 467.92146429 -158.41354764 467.92146429 -159.63310528 467.93579507 C-163.20515813 467.88682125 -165.17745562 467.70694004 -168.04813385 465.4936862 C-170.21423995 462.52007479 -170.43074508 460.66280397 -170.29296875 457.04467773 C-168.54133042 450.64409659 -163.20091278 444.89487585 -158.45214844 440.3984375 C-155.64645892 435.93401327 -156.04298774 431.86668714 -156.1015625 426.69702148 C-156.09451294 425.65765945 -156.08746338 424.61829742 -156.0802002 423.54743958 C-156.05075375 419.11173664 -156.06730871 414.67647429 -156.07958984 410.24072266 C-156.08197883 406.99672477 -156.061004 403.75343169 -156.0390625 400.50952148 C-156.05038208 399.51655563 -156.06170166 398.52358978 -156.07336426 397.50053406 C-156.0202136 390.1285149 -154.51170569 384.76063264 -149.60546875 379.16186523 C-142.18146052 373.01684456 -135.9832606 371.25844408 -126.296875 371.30639648 C-125.14316406 371.30961914 -123.98945312 371.3128418 -122.80078125 371.31616211 C-121.61097656 371.32454102 -120.42117187 371.33291992 -119.1953125 371.34155273 C-117.37580078 371.34832031 -117.37580078 371.34832031 -115.51953125 371.35522461 C-112.53640743 371.36696919 -109.55338571 371.38339433 -106.5703125 371.40405273 C-106.58696709 370.56959373 -106.58696709 370.56959373 -106.60395813 369.71827698 C-106.71513645 363.89405479 -106.79022016 358.07013718 -106.8449707 352.24511719 C-106.87001402 350.07539614 -106.90405885 347.90575861 -106.94750977 345.73632812 C-107.00861023 342.60582805 -107.03662479 339.47644948 -107.05859375 336.34545898 C-107.08440018 335.38571671 -107.1102066 334.42597443 -107.13679504 333.43714905 C-107.13996778 325.70578543 -104.94524133 319.87486023 -99.5078125 314.28295898 C-98.8684375 313.84854492 -98.2290625 313.41413086 -97.5703125 312.96655273 C-96.9309375 312.5140918 -96.2915625 312.06163086 -95.6328125 311.59545898 C-86.72942629 306.45240445 -82.96526742 308.40405273 -70.5703125 308.40405273 C-70.5703125 291.57405273 -70.5703125 274.74405273 -70.5703125 257.40405273 C-75.1903125 257.40405273 -79.8103125 257.40405273 -84.5703125 257.40405273 C-93.08775682 255.58572192 -96.69827691 253.39299106 -101.8203125 246.27905273 C-105.15105865 240.80711264 -105.17002617 235.65820959 -104.5703125 229.40405273 C-102.79893433 223.15087439 -98.83927943 219.03224488 -93.5703125 215.40405273 C-89.5703125 213.40405273 -89.5703125 213.40405273 -70.5703125 213.40405273 C-70.5703125 190.63405273 -70.5703125 167.86405273 -70.5703125 144.40405273 C-81.1303125 144.40405273 -91.6903125 144.40405273 -102.5703125 144.40405273 C-106.5703125 140.40405273 -106.5703125 140.40405273 -107.04614258 136.78417969 C-106.76792657 131.60314447 -104.8961356 127.08291478 -102.95703125 122.32202148 C-102.40170464 120.91802849 -102.40170464 120.91802849 -101.8351593 119.485672 C-101.053934 117.51909545 -100.26606446 115.55514669 -99.47192383 113.59375 C-98.25701905 110.58959072 -97.06550205 107.57692618 -95.87695312 104.56225586 C-95.11333875 102.64830141 -94.34841008 100.73487068 -93.58203125 98.82202148 C-93.04747566 97.47203316 -93.04747566 97.47203316 -92.50212097 96.09477234 C-91.99193169 94.84250603 -91.99193169 94.84250603 -91.47143555 93.56494141 C-91.02842354 92.46529305 -91.02842354 92.46529305 -90.57646179 91.34342957 C-89.48503011 89.23966889 -88.39230925 87.91293943 -86.5703125 86.40405273 C-84.30200195 86.06347656 -84.30200195 86.06347656 -81.68359375 86.11108398 C-80.2769043 86.12558594 -80.2769043 86.12558594 -78.84179688 86.14038086 C-77.86533203 86.16551758 -76.88886719 86.1906543 -75.8828125 86.21655273 C-74.89474609 86.23008789 -73.90667969 86.24362305 -72.88867188 86.25756836 C-70.44867019 86.2929307 -68.00976531 86.34228241 -65.5703125 86.40405273 C-65.19777344 85.23487305 -64.82523437 84.06569336 -64.44140625 82.86108398 C-62.32824806 76.53152452 -59.89522412 70.32875728 -57.43676758 64.12744141 C-56.89797786 62.76304194 -56.36384023 61.39679679 -55.83422852 60.02880859 C-55.05976639 58.0286511 -54.27173636 56.03433094 -53.48046875 54.04077148 C-53.01777588 52.86216553 -52.55508301 51.68355957 -52.07836914 50.46923828 C-50.55177067 47.36636573 -49.30195387 45.50922065 -46.5703125 43.40405273 C-44.46386719 42.94995117 -44.46386719 42.94995117 -42.2421875 43.01342773 C-41.44296875 43.02631836 -40.64375 43.03920898 -39.8203125 43.05249023 C-38.9953125 43.08600586 -38.1703125 43.11952148 -37.3203125 43.15405273 C-36.47984375 43.17209961 -35.639375 43.19014648 -34.7734375 43.20874023 C-32.70523855 43.25574476 -30.63762809 43.32748549 -28.5703125 43.40405273 C-28.42263428 42.86127686 -28.27495605 42.31850098 -28.12280273 41.75927734 C-26.00521949 34.33066481 -23.28824191 27.16711339 -20.43676758 19.99707031 C-19.62637827 17.95030205 -18.83373926 15.89717002 -18.04101562 13.84350586 C-17.52190761 12.53123143 -17.00176276 11.21936657 -16.48046875 9.90795898 C-16.01777588 8.73048096 -15.55508301 7.55300293 -15.07836914 6.33984375 C-11.58805264 -0.45488767 -6.94986348 -0.03421429 0 0 Z M-0.5703125 16.40405273 C-1.21501074 17.68392953 -1.85862093 18.96435443 -2.50177002 20.24501038 C-3.03956022 21.31447702 -3.03956022 21.31447702 -3.58821487 22.40554905 C-4.66536383 24.59747591 -5.61317189 26.80922761 -6.4921875 29.08764648 C-6.79511719 29.86946289 -7.09804687 30.6512793 -7.41015625 31.45678711 C-7.71050781 32.24375977 -8.01085937 33.03073242 -8.3203125 33.84155273 C-8.79404297 35.06261719 -8.79404297 35.06261719 -9.27734375 36.30834961 C-10.84814187 39.76022758 -10.84814187 39.76022758 -11.5703125 43.40405273 C-10.32314453 43.46012695 -10.32314453 43.46012695 -9.05078125 43.51733398 C-7.96410156 43.58307617 -6.87742188 43.64881836 -5.7578125 43.71655273 C-4.67886719 43.77456055 -3.59992188 43.83256836 -2.48828125 43.89233398 C0.4296875 44.40405273 0.4296875 44.40405273 2.28515625 45.69702148 C3.65259831 47.73651698 3.89263975 48.95890136 3.9296875 51.40405273 C3.960625 52.08467773 3.9915625 52.76530273 4.0234375 53.46655273 C3.4296875 55.40405273 3.4296875 55.40405273 1.4152832 56.99316406 C-2.3837932 58.78847542 -5.81344553 58.88120516 -9.93359375 58.91577148 C-10.72557663 58.93372269 -11.51755951 58.95167389 -12.33354187 58.97016907 C-14.84991212 59.02412112 -17.36609435 59.05811836 -19.8828125 59.09155273 C-21.59442712 59.12473925 -23.30601698 59.15923014 -25.01757812 59.19506836 C-29.20168692 59.27983855 -33.38574143 59.34672116 -37.5703125 59.40405273 C-40.31096103 65.35479094 -43.02302652 71.29108335 -45.3828125 77.40405273 C-45.80175781 78.47655273 -46.22070312 79.54905273 -46.65234375 80.65405273 C-47.72862847 83.39513255 -47.72862847 83.39513255 -47.5703125 86.40405273 C10.5096875 86.40405273 68.5896875 86.40405273 128.4296875 86.40405273 C127.6582905 82.54706772 126.84186069 79.66435717 125.36328125 76.10327148 C124.7590332 74.63857422 124.7590332 74.63857422 124.14257812 73.14428711 C123.72169922 72.13688477 123.30082031 71.12948242 122.8671875 70.09155273 C122.44244141 69.06481445 122.01769531 68.03807617 121.58007812 66.98022461 C120.53397822 64.45312933 119.48372834 61.9278438 118.4296875 59.40405273 C117.33831985 59.39818649 116.24695221 59.39232025 115.12251282 59.38627625 C104.83734029 59.32906302 94.55237947 59.25630862 84.26742268 59.16833782 C78.97981096 59.12361055 73.69227671 59.08435952 68.40454102 59.05761719 C63.30156347 59.03160787 58.19888367 58.99122205 53.09609032 58.94086647 C51.14929088 58.92418174 49.20243993 58.91267748 47.25557899 58.90643883 C44.5285483 58.89681527 41.80228211 58.86877688 39.07543945 58.83642578 C37.86810654 58.83857841 37.86810654 58.83857841 36.63638306 58.84077454 C32.09341916 58.76455493 28.99053671 58.3268044 25.4296875 55.40405273 C24.40081463 52.18025108 24.11538007 50.29862003 25.2421875 47.09155273 C26.4296875 45.40405273 26.4296875 45.40405273 28.4296875 44.40405273 C30.46129222 44.28367313 32.4967619 44.22666152 34.53173828 44.19873047 C35.81291534 44.17878525 37.09409241 44.15884003 38.41409302 44.13829041 C39.81772744 44.12130605 41.22136313 44.10442724 42.625 44.08764648 C44.05704347 44.06707733 45.48908087 44.04608087 46.92111206 44.02467346 C50.69235313 43.96944871 54.46364902 43.92004126 58.23498535 43.87182617 C62.08248786 43.82161407 65.92991063 43.76592649 69.77734375 43.71069336 C77.3280575 43.60310686 84.8788375 43.50166303 92.4296875 43.40405273 C91.02725511 39.71825547 89.62134421 36.03380659 88.2121582 32.35058594 C87.49699935 30.47914448 86.7846228 28.60664056 86.07226562 26.73413086 C85.62431641 25.56430664 85.17636719 24.39448242 84.71484375 23.18920898 C84.30113525 22.10518799 83.88742676 21.02116699 83.46118164 19.90429688 C82.65854383 17.50491244 82.65854383 17.50491244 81.4296875 16.40405273 C78.87378862 16.30899221 76.34500778 16.27848512 73.78881836 16.29052734 C72.98887955 16.29038132 72.18894073 16.29023529 71.36476135 16.29008484 C68.70799085 16.29078418 66.05128957 16.29857755 63.39453125 16.30639648 C61.55750059 16.30826059 59.72046944 16.30968453 57.88343811 16.3106842 C53.03859088 16.31450998 48.19377342 16.32434078 43.34893799 16.33538818 C38.40906172 16.34560102 33.46918065 16.35018155 28.52929688 16.35522461 C18.82941397 16.36596299 9.12955321 16.38304013 -0.5703125 16.40405273 Z M-76.5703125 101.40405273 C-83.35251485 114.56083192 -83.35251485 114.56083192 -86.5703125 128.40405273 C-2.7503125 128.40405273 81.0696875 128.40405273 167.4296875 128.40405273 C164.21174051 117.0781362 164.21174051 117.0781362 157.4296875 101.40405273 C80.2096875 101.40405273 2.9896875 101.40405273 -76.5703125 101.40405273 Z M-27.5703125 144.40405273 C-27.5703125 158.92405273 -27.5703125 173.44405273 -27.5703125 188.40405273 C-23.34909103 186.293442 -19.93210276 183.72893867 -16.203125 180.86499023 C-12.94577898 179.05750149 -11.2490879 178.8489434 -7.5703125 179.40405273 C-4.07442696 181.37078242 -1.03586011 183.81501782 2.12109375 186.27124023 C2.75595703 186.76366211 3.39082031 187.25608398 4.04492188 187.76342773 C5.3569532 188.78462764 6.65894598 189.81884126 7.95117188 190.86499023 C11.51937955 193.7489501 11.51937955 193.7489501 15.87109375 194.13842773 C20.47573295 191.01711505 24.75315378 187.49712161 29.015625 183.92749023 C32.36968731 181.24424039 34.71127211 179.55919227 38.95703125 178.64233398 C43.80504036 179.70573306 46.81637386 182.12236923 50.6171875 185.21655273 C51.31521484 185.76375977 52.01324219 186.3109668 52.73242188 186.87475586 C55.4238906 188.98746918 58.08730872 191.10589041 60.66796875 193.35327148 C62.35927843 194.6101921 62.35927843 194.6101921 64.28735352 194.15136719 C66.77177831 193.28472054 68.40093956 192.12219526 70.46875 190.49780273 C71.21382813 189.91901367 71.95890625 189.34022461 72.7265625 188.74389648 C73.49484375 188.13674805 74.263125 187.52959961 75.0546875 186.90405273 C76.58749465 185.70479664 78.12130128 184.50681658 79.65625 183.31030273 C80.33252441 182.77727539 81.00879883 182.24424805 81.70556641 181.69506836 C85.0259351 179.20878832 87.29914424 179.00947847 91.4296875 179.40405273 C94.31640625 181.11889648 94.31640625 181.11889648 97.1171875 183.34155273 C100.97682777 186.41776886 100.97682777 186.41776886 105.4296875 188.40405273 C105.4296875 173.88405273 105.4296875 159.36405273 105.4296875 144.40405273 C61.5396875 144.40405273 17.6496875 144.40405273 -27.5703125 144.40405273 Z M121.4296875 144.40405273 C121.4296875 245.71405273 121.4296875 347.02405273 121.4296875 451.40405273 C126.0496875 451.40405273 130.6696875 451.40405273 135.4296875 451.40405273 C135.4296875 350.09405273 135.4296875 248.78405273 135.4296875 144.40405273 C130.8096875 144.40405273 126.1896875 144.40405273 121.4296875 144.40405273 Z M26.02734375 203.58569336 C18.63794452 211.60823675 20.70255055 225.3615394 21.11753845 235.59583282 C21.18781185 237.15948991 21.25898892 238.72310663 21.33105469 240.28668213 C21.52518918 244.9462704 21.59726327 249.60922149 21.69030762 254.27171326 C21.84444178 261.32268692 22.15101065 268.35198027 22.4296875 275.40405273 C33.3196875 275.40405273 44.2096875 275.40405273 55.4296875 275.40405273 C55.7596875 270.12405273 56.0896875 264.84405273 56.4296875 259.40405273 C56.7596875 258.08405273 57.0896875 256.76405273 57.4296875 255.40405273 C58.84122849 255.12657032 60.25948549 254.88311757 61.6796875 254.65405273 C62.46859375 254.51483398 63.2575 254.37561523 64.0703125 254.23217773 C66.4296875 254.40405273 66.4296875 254.40405273 68.6796875 255.84155273 C71.19569001 259.52569926 71.09869176 262.78854738 71.1796875 267.15405273 C71.2621875 269.87655273 71.3446875 272.59905273 71.4296875 275.40405273 C82.6496875 275.40405273 93.8696875 275.40405273 105.4296875 275.40405273 C105.86695419 263.96710238 105.86695419 263.96710238 106.16210938 252.52905273 C106.25137093 247.85258646 106.35619317 243.18057592 106.5612793 238.50756836 C108.16859757 220.56944159 108.16859757 220.56944159 102.19970703 204.58178711 C98.58659795 201.22341805 95.07152252 199.0697148 90.4296875 197.40405273 C85.48667103 197.61773906 82.40172573 200.39296563 78.6796875 203.40405273 C78.09058594 203.86811523 77.50148437 204.33217773 76.89453125 204.81030273 C74.07114089 207.00251355 74.07114089 207.00251355 71.4296875 209.40405273 C71.30900779 210.92954883 71.25016146 212.46005061 71.21875 213.98999023 C71.17621094 215.38604492 71.17621094 215.38604492 71.1328125 216.81030273 C71.08093964 218.78147152 71.03660631 220.75285385 71 222.72436523 C70.9690625 223.65764648 70.938125 224.59092773 70.90625 225.55249023 C70.88643066 226.4102002 70.86661133 227.26791016 70.84619141 228.15161133 C70.34140185 230.88149903 69.66786487 231.79222856 67.4296875 233.40405273 C63.06261842 233.79396962 61.12454853 233.86729342 57.4296875 231.40405273 C56.44770329 228.4581001 56.41378812 227.15582106 56.67578125 224.15795898 C57.34493599 214.72588116 57.34493599 214.72588116 53.83251953 206.29223633 C43.74551052 196.793492 37.15475574 194.21286221 26.02734375 203.58569336 Z M-10.5703125 196.40405273 C-17.39278 199.30677268 -23.55196744 203.02510605 -27.5703125 209.40405273 C-30.31488046 219.52122338 -29.25485117 230.52311109 -28.73760986 240.89178467 C-28.53111074 245.47264958 -28.45472366 250.05740033 -28.35590363 254.64160919 C-28.19226962 261.57033102 -27.86656533 268.47406007 -27.5703125 275.40405273 C-16.3503125 275.40405273 -5.1303125 275.40405273 6.4296875 275.40405273 C6.77930532 263.91807545 6.77930532 263.91807545 7.015625 252.43139648 C7.08710853 247.73815141 7.1712167 243.04774047 7.33496094 238.35668945 C7.46630407 234.56976007 7.53728077 230.78587017 7.56821442 226.99683762 C7.59022489 225.55883292 7.63321575 224.12097718 7.69844818 222.68428421 C8.15703576 214.86592777 8.15703576 214.86592777 5.27516174 207.82091522 C0.72585281 203.04951185 -4.91841678 199.7147384 -10.5703125 196.40405273 Z M-87.51953125 230.76342773 C-89.080185 233.20013619 -89.1229442 234.57181527 -88.5703125 237.40405273 C-85.79318141 240.23270759 -84.21470099 241.32850895 -80.23828125 241.79467773 C-79.08972656 241.74827148 -77.94117187 241.70186523 -76.7578125 241.65405273 C-75.59636719 241.61795898 -74.43492188 241.58186523 -73.23828125 241.54467773 C-71.91763672 241.47506836 -71.91763672 241.47506836 -70.5703125 241.40405273 C-70.5703125 237.44405273 -70.5703125 233.48405273 -70.5703125 229.40405273 C-73.00847835 229.32308044 -75.44395634 229.26358302 -77.8828125 229.21655273 C-78.57310547 229.19141602 -79.26339844 229.1662793 -79.97460938 229.14038086 C-83.99086024 229.05992886 -83.99086024 229.05992886 -87.51953125 230.76342773 Z M151.4296875 229.40405273 C151.4296875 233.36405273 151.4296875 237.32405273 151.4296875 241.40405273 C159.10894711 242.16322605 159.10894711 242.16322605 166.44140625 240.46655273 C168.04949104 239.1176045 168.04949104 239.1176045 169.4296875 236.40405273 C169.34954423 232.95789217 168.8740771 231.84844234 166.4296875 229.40405273 C163.84904621 229.25907289 161.38024866 229.21727728 158.8046875 229.27905273 C158.09828125 229.28807617 157.391875 229.29709961 156.6640625 229.30639648 C154.91912652 229.3299767 153.17436455 229.36584813 151.4296875 229.40405273 Z M151.4296875 258.40405273 C151.4296875 274.57405273 151.4296875 290.74405273 151.4296875 307.40405273 C155.3896875 308.72405273 159.3496875 310.04405273 163.4296875 311.40405273 C171.13247718 317.05107317 175.63646555 323.68186217 180.5546875 331.77905273 C181.88856406 333.93397564 183.22448021 336.08763747 184.5625 338.23999023 C185.20179443 339.27663818 185.84108887 340.31328613 186.49975586 341.38134766 C188.88285224 345.11381019 191.45586978 348.6820589 194.1081543 352.22705078 C196.33095045 355.88873068 196.23458654 358.23321223 195.4296875 362.40405273 C193.27123224 365.06061305 191.84654287 365.33309863 188.4921875 365.90405273 C184.33179793 365.22480546 183.21304056 363.53898723 180.4296875 360.40405273 C178.76674683 358.03641691 177.28468544 355.57656263 175.8046875 353.09155273 C172.19724514 347.19359433 168.49823747 341.37624949 164.6171875 335.65405273 C164.17358887 334.98720459 163.72999023 334.32035645 163.27294922 333.63330078 C160.06700231 328.94597285 156.98873288 325.25706786 151.4296875 323.40405273 C151.4296875 365.64405273 151.4296875 407.88405273 151.4296875 451.40405273 C180.7996875 451.40405273 210.1696875 451.40405273 240.4296875 451.40405273 C234.63799727 442.29676103 234.63799727 442.29676103 228.8046875 433.21655273 C228.37373779 432.54438721 227.94278809 431.87222168 227.4987793 431.1796875 C224.55296222 426.60822125 221.54411239 422.08456234 218.48577881 417.58790588 C216.54787534 414.73365869 214.62465184 411.86965083 212.70220947 409.00497437 C211.73388873 407.5701425 210.75896109 406.13974595 209.77728271 404.71401978 C208.37990005 402.68295411 207.00652682 400.63737508 205.63671875 398.58764648 C205.2122496 397.98288483 204.78778046 397.37812317 204.35044861 396.7550354 C201.23595456 392.02014482 200.89294043 388.88163469 201.4296875 383.40405273 C202.9921875 381.34155273 202.9921875 381.34155273 205.4296875 380.40405273 C208.7421875 380.15405273 208.7421875 380.15405273 212.4296875 381.40405273 C215.33494076 383.99445096 217.27437315 387.18426805 219.4296875 390.40405273 C219.84652802 391.02453491 220.26336853 391.64501709 220.69284058 392.28430176 C226.15841579 400.48688704 231.22883779 408.59967127 235.15138245 417.66201782 C240.6296125 430.17062598 247.05293184 444.46117466 259.4296875 451.40405273 C280.25332098 457.77720093 305.18992079 453.95285777 326.4296875 451.40405273 C326.60581291 447.11291529 326.71115322 442.82272176 326.8046875 438.52905273 C326.85496094 437.32506836 326.90523437 436.12108398 326.95703125 434.88061523 C327.09394737 426.48309311 325.7137573 421.01410311 320.4296875 414.40405273 C311.57449141 405.74595163 300.30546397 403.48952128 288.3359375 403.26342773 C287.45035156 403.2440918 286.56476563 403.22475586 285.65234375 403.20483398 C283.83746369 403.170984 282.02222508 403.15275078 280.20703125 403.15014648 C273.76488745 402.97197948 269.14960681 401.96691488 264.4296875 397.40405273 C261.13109155 393.20108857 258.31330552 388.74344955 255.4921875 384.21655273 C254.65930566 382.90879364 253.8246394 381.60216947 252.98828125 380.29663086 C251.28038196 377.62701854 249.58064571 374.95248865 247.88720703 372.27368164 C244.29906596 366.60831574 240.6115583 361.00884743 236.9296875 355.40405273 C235.53077527 353.26504021 234.13234231 351.12571418 232.734375 348.98608398 C229.76229094 344.44058381 226.78833864 339.89631399 223.8125 335.35327148 C223.42247803 334.75783539 223.03245605 334.16239929 222.63061523 333.54891968 C220.64885284 330.5238003 218.66632104 327.49918846 216.68261719 324.4753418 C212.96240583 318.80339254 209.24711165 313.12844025 205.55099487 307.44075012 C203.84074784 304.80958695 202.12759569 302.18032125 200.41424561 299.55117798 C199.60489869 298.30746781 198.79694579 297.06284911 197.99053955 295.81723022 C187.12230358 279.03174155 175.18563802 263.03117546 154.4296875 258.40405273 C153.4396875 258.40405273 152.4496875 258.40405273 151.4296875 258.40405273 Z M-27.5703125 291.40405273 C-27.5703125 296.68405273 -27.5703125 301.96405273 -27.5703125 307.40405273 C16.3196875 307.40405273 60.2096875 307.40405273 105.4296875 307.40405273 C105.4296875 302.12405273 105.4296875 296.84405273 105.4296875 291.40405273 C61.5396875 291.40405273 17.6496875 291.40405273 -27.5703125 291.40405273 Z M-54.5703125 144.40405273 C-54.5703125 245.71405273 -54.5703125 347.02405273 -54.5703125 451.40405273 C-50.6103125 451.40405273 -46.6503125 451.40405273 -42.5703125 451.40405273 C-42.55572998 449.84452881 -42.54114746 448.28500488 -42.52612305 446.67822266 C-42.46823398 440.90259653 -42.39100033 435.12736412 -42.30786133 429.35205078 C-42.27456779 426.85048809 -42.24654982 424.34884947 -42.22387695 421.84716797 C-42.1904129 418.25512272 -42.13810007 414.66377608 -42.08203125 411.07202148 C-42.07564133 409.95006882 -42.0692514 408.82811615 -42.06266785 407.67216492 C-42.03297661 406.11088615 -42.03297661 406.11088615 -42.00268555 404.51806641 C-41.98603096 403.14239754 -41.98603096 403.14239754 -41.96903992 401.73893738 C-41.49165748 398.94346138 -40.86519973 398.03706592 -38.5703125 396.40405273 C-35.0703125 396.02905273 -35.0703125 396.02905273 -31.5703125 396.40405273 C-18.57244943 409.40191581 -27.92374243 433.02569655 -27.5703125 451.40405273 C16.3196875 451.40405273 60.2096875 451.40405273 105.4296875 451.40405273 C105.4296875 409.16405273 105.4296875 366.92405273 105.4296875 323.40405273 C61.5396875 323.40405273 17.6496875 323.40405273 -27.5703125 323.40405273 C-27.9003125 339.57405273 -28.2303125 355.74405273 -28.5703125 372.40405273 C-32.5703125 375.40405273 -32.5703125 375.40405273 -36.1953125 375.21655273 C-39.5703125 374.40405273 -39.5703125 374.40405273 -41.5703125 372.40405273 C-41.77623049 369.40878666 -41.85536492 366.50488338 -41.8487854 363.50778198 C-41.8545778 362.57502319 -41.8603702 361.64226441 -41.86633813 360.6812402 C-41.88342637 357.53656389 -41.8862222 354.39203354 -41.88916016 351.24731445 C-41.89845225 349.0007389 -41.90861983 346.75416681 -41.91960144 344.50759888 C-41.94699657 338.39221725 -41.96207895 332.27685878 -41.97502947 326.16143179 C-41.99061853 319.77654953 -42.01742211 313.39171485 -42.0430603 307.00686646 C-42.08459273 296.28494433 -42.11916575 285.56302555 -42.1484375 274.84106445 C-42.17861 263.7961236 -42.21295426 252.75120874 -42.25292969 241.70629883 C-42.25539124 241.02578928 -42.25785278 240.34527974 -42.26038893 239.64414869 C-42.27276327 236.23032146 -42.28521986 232.81649454 -42.29771733 229.40266776 C-42.40133288 201.06983244 -42.4903726 172.73696406 -42.5703125 144.40405273 C-46.5303125 144.40405273 -50.4903125 144.40405273 -54.5703125 144.40405273 Z M-88.5390625 326.21655273 C-91.56746177 330.96881005 -91.11180251 335.21022383 -90.8828125 340.71655273 C-90.86025391 341.74329102 -90.83769531 342.7700293 -90.81445312 343.82788086 C-90.75568825 346.35477064 -90.67359099 348.87865529 -90.5703125 351.40405273 C-85.99871036 347.08545911 -82.17774344 342.29939188 -78.3203125 337.34155273 C-77.68351562 336.53911133 -77.04671875 335.73666992 -76.390625 334.90991211 C-75.48183594 333.74492187 -75.48183594 333.74492187 -74.5546875 332.55639648 C-74.00522461 331.85506592 -73.45576172 331.15373535 -72.88964844 330.43115234 C-71.56090812 328.38960333 -70.99917222 326.7851594 -70.5703125 324.40405273 C-72.96805995 324.26833118 -75.35806495 324.16968405 -77.7578125 324.09155273 C-78.43134766 324.0496582 -79.10488281 324.00776367 -79.79882812 323.96459961 C-83.39661681 323.87684867 -85.45913169 324.33617393 -88.5390625 326.21655273 Z M-71.5703125 353.40405273 C-73.50329433 355.83954818 -75.38915779 358.29471722 -77.2578125 360.77905273 C-78.444622 362.34468057 -79.63214582 363.90976713 -80.8203125 365.47436523 C-81.43777344 366.28808594 -82.05523437 367.10180664 -82.69140625 367.94018555 C-85.6856166 371.86658509 -88.7207732 375.76074462 -91.7578125 379.65405273 C-97.39075733 386.88229078 -102.99196014 394.13360016 -108.5703125 401.40405273 C-114.21202829 408.75708898 -119.87685875 416.09100189 -125.5703125 423.40405273 C-127.90419229 426.40362802 -130.23745153 429.40368502 -132.5703125 432.40405273 C-133.07723633 433.05567383 -133.58416016 433.70729492 -134.10644531 434.37866211 C-135.47165834 436.13539046 -136.83399694 437.89430335 -138.1953125 439.65405273 C-139.32839844 441.11584961 -139.32839844 441.11584961 -140.484375 442.60717773 C-142.62690294 445.47993056 -144.60967669 448.40543327 -146.5703125 451.40405273 C-136.63986147 452.8562089 -136.63986147 452.8562089 -127.703125 449.29467773 C-125.55917012 446.69381444 -123.64409198 444.09408715 -121.80957031 441.27368164 C-120.05689268 438.62947256 -118.13795753 436.12370733 -116.21923828 433.59863281 C-114.68114262 431.57289035 -113.1642299 429.53245626 -111.6484375 427.48999023 C-108.17981495 422.85120341 -104.56077445 418.3404869 -100.92578125 413.83178711 C-96.97524781 408.92714311 -93.12240913 403.95793481 -89.296875 398.95483398 C-85.30680955 393.74347473 -81.25822622 388.57715193 -77.21533203 383.40673828 C-76.64153809 382.67108643 -76.06774414 381.93543457 -75.4765625 381.17749023 C-74.70795898 380.19401611 -74.70795898 380.19401611 -73.92382812 379.19067383 C-71.27769761 375.69781973 -70.32232119 373.8633354 -70.375 369.51733398 C-70.38144531 368.57954102 -70.38789062 367.64174805 -70.39453125 366.67553711 C-70.41128906 365.69907227 -70.42804688 364.72260742 -70.4453125 363.71655273 C-70.45433594 362.72848633 -70.46335937 361.74041992 -70.47265625 360.72241211 C-70.4962282 358.28271508 -70.52913228 355.84350577 -70.5703125 353.40405273 C-70.9003125 353.40405273 -71.2303125 353.40405273 -71.5703125 353.40405273 Z M-137.5703125 390.40405273 C-139.77223474 393.7069361 -139.80991218 394.67868 -139.765625 398.50952148 C-139.75917969 399.49243164 -139.75273437 400.4753418 -139.74609375 401.48803711 C-139.72933594 402.51219727 -139.71257812 403.53635742 -139.6953125 404.59155273 C-139.68628906 405.62731445 -139.67726562 406.66307617 -139.66796875 407.73022461 C-139.6443911 410.28839958 -139.6114828 412.84611021 -139.5703125 415.40405273 C-135.53202383 411.67259482 -132.36568485 407.34170129 -129.0703125 402.96655273 C-127.93539167 401.4674793 -126.79998683 399.96877216 -125.6640625 398.47045898 C-125.13296875 397.76679199 -124.601875 397.063125 -124.0546875 396.33813477 C-122.79374474 394.69517613 -121.48380185 393.09000982 -120.1640625 391.49389648 C-118.3681787 389.57703478 -118.3681787 389.57703478 -118.5703125 387.40405273 C-128.58430605 386.6793641 -128.58430605 386.6793641 -137.5703125 390.40405273 Z M-71.5703125 401.40405273 C-73.42155191 403.609071 -75.22405425 405.83272732 -77.0078125 408.09155273 C-77.55131348 408.77564209 -78.09481445 409.45973145 -78.65478516 410.16455078 C-82.76915981 415.35655705 -86.82304764 420.59228409 -90.84375 425.85717773 C-92.95329374 428.61322044 -95.09008807 431.34683528 -97.234375 434.07592773 C-97.86875488 434.88505615 -98.50313477 435.69418457 -99.15673828 436.52783203 C-100.41015312 438.12522432 -101.66624166 439.72052312 -102.92529297 441.31347656 C-103.49908691 442.04590576 -104.07288086 442.77833496 -104.6640625 443.53295898 C-105.43266602 444.50857788 -105.43266602 444.50857788 -106.21679688 445.50390625 C-107.82886569 447.66336463 -107.82886569 447.66336463 -109.5703125 451.40405273 C-96.7003125 451.40405273 -83.8303125 451.40405273 -70.5703125 451.40405273 C-70.5703125 434.90405273 -70.5703125 418.40405273 -70.5703125 401.40405273 C-70.9003125 401.40405273 -71.2303125 401.40405273 -71.5703125 401.40405273 Z "
        fill="#27a09c" transform="translate(169.5703125,28.595947265625)" />
    <path
        d="M0 0 C4.55475595 3.27887552 8.51215815 6.48623443 10.8125 11.6875 C13.32500459 15.4921498 14.47358418 15.82942842 18.625 17.375 C27.40167243 20.66491262 33.7711358 25.97618721 38.0625 34.375 C42.01101107 43.22753373 42.84511356 54.27036187 39.375 63.5 C34.31901006 73.99954706 27.22053774 80.31104437 16.2506485 84.34991264 C12.48584829 85.43735434 8.82488614 85.44238514 4.92871094 85.43579102 C4.05924332 85.44586685 3.1897757 85.45594269 2.29396057 85.46632385 C-0.55936813 85.49464739 -3.41216476 85.50067271 -6.265625 85.50390625 C-8.26568817 85.51355905 -10.26574926 85.52365239 -12.26580811 85.53416443 C-16.45183212 85.55208745 -20.63767081 85.55768949 -24.82373047 85.5559082 C-30.16102906 85.55560378 -35.49712639 85.59653395 -40.83414078 85.64822483 C-44.96428779 85.68175072 -49.09414954 85.68766079 -53.22441864 85.68607903 C-55.19063196 85.68959547 -57.15685456 85.70273086 -59.12293243 85.72607613 C-71.27095856 85.85681054 -81.37538 85.72323614 -90.97491455 77.25856018 C-92.58012623 75.60495832 -93.77913411 73.9525769 -95 72 C-95.40992188 71.36707031 -95.81984375 70.73414062 -96.2421875 70.08203125 C-100.32390173 62.580122 -99.96527176 53.81974524 -98.59765625 45.57421875 C-96.46851589 38.63015966 -90.75345303 32.74738365 -84.75 28.9375 C-81.45018806 26.6126325 -80.55104375 24.53725673 -78.90625 20.94921875 C-75.37764924 13.35968523 -68.06722142 9.52520803 -60.5 6.6875 C-57.58739431 6.11538103 -55.00697023 5.89789576 -52.0625 5.75 C-47.14175004 5.34179299 -44.76552229 3.63837475 -41.02734375 0.56640625 C-29.50834986 -8.33362564 -12.00192839 -7.3070564 0 0 Z M-36.875 18.1875 C-37.926875 19.5796875 -37.926875 19.5796875 -39 21 C-42.7272233 22.86361165 -47.32983154 21.89019758 -51.421875 21.7421875 C-56.74618905 22.12581712 -59.88582624 23.88582624 -63.625 27.625 C-65.61156644 30.13007277 -66.64629725 32.57454796 -67.75 35.5625 C-69.70535759 40.35472884 -72.34976774 41.64249421 -76.87109375 43.83984375 C-80.18857592 45.64771935 -81.48575619 47.57649225 -83 51 C-83.81200317 55.75235537 -83.47840479 59.04319041 -81.3125 63.375 C-77.87862637 67.27291061 -75.46889894 68.84912367 -70.22563171 69.38768005 C-68.73608647 69.40844442 -67.24625593 69.41282707 -65.7565918 69.40405273 C-64.93965851 69.41091599 -64.12272522 69.41777924 -63.28103638 69.42485046 C-60.58691909 69.4431147 -57.89338454 69.43928059 -55.19921875 69.43359375 C-53.31980704 69.43815668 -51.440397 69.44346258 -49.56098938 69.44947815 C-45.62270327 69.45840923 -41.68461992 69.45598726 -37.74633789 69.44604492 C-32.71258058 69.43457226 -27.67952655 69.45474058 -22.64586163 69.48396206 C-18.76379486 69.50235963 -14.88189537 69.50202422 -10.99979591 69.49632454 C-9.14474312 69.49617167 -7.28967875 69.50218759 -5.43466759 69.51461601 C-2.83320184 69.52958662 -0.23301895 69.51880414 2.3684082 69.50170898 C3.50570122 69.51621094 3.50570122 69.51621094 4.66596985 69.53100586 C11.08529714 69.44320228 16.3834729 67.46519811 21.09375 63.02734375 C25.09117929 57.08671967 26.24906552 52.10675209 25 45 C23.27681847 39.90704126 19.76524611 35.52830612 15 33 C11.9161412 32.12998421 8.85910851 31.44600092 5.70703125 30.87109375 C2.48303532 29.83364629 1.66984227 28.89334305 0 26 C-0.58824564 24.7198531 -1.15121887 23.42777073 -1.6875 22.125 C-3.98654916 17.35759185 -7.50662132 14.66650193 -12 12 C-21.17861352 8.94046216 -30.62076611 10.64242133 -36.875 18.1875 Z "
        fill="#27a09c" transform="translate(456,30)" />
    <path
        d="M0 0 C0.66 -0.01289063 1.32 -0.02578125 2 -0.0390625 C5.35296279 1.07422593 6.26387156 2.55250953 8 5.625 C8.58196676 9.32378877 8.55843176 12.95030204 8.5 16.6875 C8.51546875 17.68072266 8.5309375 18.67394531 8.546875 19.69726562 C8.50805517 26.90319646 8.50805517 26.90319646 6.15234375 30.25 C3.32279401 32.05762524 1.36102694 32.55640761 -2 32.625 C-6.56521739 30.49456522 -6.56521739 30.49456522 -8 27.625 C-8.29382599 24.02735402 -8.27796031 20.42074606 -8.3125 16.8125 C-8.34150391 15.81412109 -8.37050781 14.81574219 -8.40039062 13.78710938 C-8.4392032 9.30575031 -8.45089264 6.43023652 -6.23046875 2.46484375 C-3.90082998 0.54319776 -2.97468326 -0.05809928 0 0 Z "
        fill="#27a09c" transform="translate(460,251.375)" />
    <path
        d="M0 0 C4.20581545 0.87621155 5.43107387 2.16979435 8 5.625 C8.69075168 9.32802967 8.60763558 12.93248586 8.5 16.6875 C8.50386719 18.17733398 8.50386719 18.17733398 8.5078125 19.69726562 C8.397173 27.91224833 8.397173 27.91224833 5 31.625 C3.1328125 32.41015625 3.1328125 32.41015625 1.125 32.6875 C0.46757812 32.80222656 -0.18984375 32.91695312 -0.8671875 33.03515625 C-4.59549094 32.31817482 -5.81387378 30.67584395 -8 27.625 C-8.73365792 23.94281821 -8.69849506 20.36834832 -8.625 16.625 C-8.64433594 15.64015625 -8.66367187 14.6553125 -8.68359375 13.640625 C-8.65122384 8.84987799 -8.57748466 6.39817714 -5.6484375 2.4765625 C-3 0.625 -3 0.625 0 0 Z "
        fill="#27a09c" transform="translate(460,194.375)" />
    <path
        d="M0 0 C4.62278985 0.81101576 5.79102227 1.8405964 8.5625 5.625 C9.25001323 9.3287851 9.17014297 12.93222805 9.0625 16.6875 C9.06636719 18.17733398 9.06636719 18.17733398 9.0703125 19.69726562 C8.95709386 28.10374954 8.95709386 28.10374954 5.5625 31.625 C1.58905839 32.72873378 -0.52749772 33.04043583 -4.3125 31.3125 C-6.4375 29.625 -6.4375 29.625 -7.4375 27.625 C-7.73132599 24.02735402 -7.71546031 20.42074606 -7.75 16.8125 C-7.77900391 15.81412109 -7.80800781 14.81574219 -7.83789062 13.78710938 C-7.8768994 9.28309569 -7.8994805 6.43396585 -5.6328125 2.46484375 C-3.4375 0.625 -3.4375 0.625 0 0 Z "
        fill="#27a09c" transform="translate(54.4375,15.375)" />
    <path
        d="M0 0 C1.34771484 -0.02416992 1.34771484 -0.02416992 2.72265625 -0.04882812 C7.68473557 -0.05249288 11.09063779 0.08664358 15.125 3.3125 C16.9753199 5.1628199 16.41640132 7.73722082 16.55078125 10.20703125 C15.93398231 13.25707369 14.49878558 14.35510182 12.125 16.3125 C9.62304688 16.81420898 9.62304688 16.81420898 6.84375 16.80859375 C5.83699219 16.80923828 4.83023437 16.80988281 3.79296875 16.81054688 C2.74753906 16.79056641 1.70210938 16.77058594 0.625 16.75 C-0.42042969 16.75708984 -1.46585937 16.76417969 -2.54296875 16.77148438 C-11.33361645 16.69832277 -11.33361645 16.69832277 -14.875 13.3125 C-16.04907634 9.71199922 -16.20259676 8.03321287 -14.625 4.5625 C-10.49094544 -0.752713 -6.16604157 -0.0219276 0 0 Z "
        fill="#27a09c" transform="translate(487.875,230.6875)" />
    <path
        d="M0 0 C0.66 -0.02191406 1.32 -0.04382813 2 -0.06640625 C5.35578603 0.98883115 6.27255079 2.51853663 8 5.5625 C8.52939018 9.09711148 8.46775868 12.55867272 8.375 16.125 C8.37371094 17.07052734 8.37242188 18.01605469 8.37109375 18.99023438 C8.27117489 26.84496676 8.27117489 26.84496676 6 30.5625 C3.48151662 32.45136253 2.17180132 32.56965839 -1 32.4375 C-4.50697401 31.41463258 -5.71651337 30.37759199 -8 27.5625 C-8.51757812 25.06054688 -8.51757812 25.06054688 -8.53125 22.28125 C-8.53640625 21.27449219 -8.5415625 20.26773438 -8.546875 19.23046875 C-8.53140625 18.18503906 -8.5159375 17.13960937 -8.5 16.0625 C-8.51546875 15.01707031 -8.5309375 13.97164062 -8.546875 12.89453125 C-8.54171875 11.88777344 -8.5365625 10.88101563 -8.53125 9.84375 C-8.52673828 8.92658203 -8.52222656 8.00941406 -8.51757812 7.06445312 C-7.58327632 2.54807347 -4.59676697 -0.00897806 0 0 Z "
        fill="#27a09c" transform="translate(55,72.4375)" />
    <path
        d="M0 0 C1.41925781 -0.03673828 1.41925781 -0.03673828 2.8671875 -0.07421875 C7.21884579 -0.09255439 9.91216071 -0.02903126 13.75390625 2.1484375 C15.72206824 4.49050918 16.28732851 5.36840032 16.1875 8.375 C16.18943359 9.365 16.18943359 9.365 16.19140625 10.375 C15.37276829 13.26563888 13.91755446 14.46856254 11.625 16.375 C9.12304688 16.89257812 9.12304688 16.89257812 6.34375 16.90625 C5.33699219 16.91140625 4.33023438 16.9165625 3.29296875 16.921875 C1.72482422 16.89867187 1.72482422 16.89867187 0.125 16.875 C-0.92042969 16.89046875 -1.96585938 16.9059375 -3.04296875 16.921875 C-4.04972656 16.91671875 -5.05648437 16.9115625 -6.09375 16.90625 C-7.01091797 16.90173828 -7.92808594 16.89722656 -8.87304688 16.89257812 C-12.11967053 16.22095028 -13.30644332 14.91102712 -15.375 12.375 C-16.3125 9.9375 -16.3125 9.9375 -16.375 7.375 C-12.73892098 -0.44256989 -7.67964319 0.0103779 0 0 Z "
        fill="#27a09c" transform="translate(83.375,51.625)" />
    <path
        d="M0 0 C0.93714844 -0.01546875 1.87429687 -0.0309375 2.83984375 -0.046875 C7.1518242 -0.02240986 9.82350274 0.11391395 13.62109375 2.28125 C15.60058927 4.61878317 16.1624433 5.48994292 16.0625 8.5 C16.06443359 9.49 16.06443359 9.49 16.06640625 10.5 C15.24776829 13.39063888 13.79255446 14.59356254 11.5 16.5 C8.99804688 17.01757812 8.99804688 17.01757812 6.21875 17.03125 C5.21199219 17.03640625 4.20523437 17.0415625 3.16796875 17.046875 C1.59982422 17.02367187 1.59982422 17.02367187 0 17 C-1.04542969 17.01546875 -2.09085938 17.0309375 -3.16796875 17.046875 C-4.17472656 17.04171875 -5.18148438 17.0365625 -6.21875 17.03125 C-7.13591797 17.02673828 -8.05308594 17.02222656 -8.99804688 17.01757812 C-12.23561238 16.34782414 -13.43898096 15.02810467 -15.5 12.5 C-16.06640625 10.5 -16.06640625 10.5 -16.0625 8.5 C-16.08441406 7.84 -16.10632812 7.18 -16.12890625 6.5 C-13.81978177 -0.84330271 -6.29113251 -0.10384263 0 0 Z "
        fill="#27a09c" transform="translate(26.5,51.5)" />
    <path
        d="M0 0 C0.84175781 -0.01160156 1.68351562 -0.02320313 2.55078125 -0.03515625 C7.8104079 -0.01030762 11.59821618 0.47321618 15.5 4.375 C16.09537681 11.63859711 16.09537681 11.63859711 13.8034668 14.47338867 C11.03632125 16.75778683 9.76102759 16.88882488 6.21875 16.90625 C5.21199219 16.91140625 4.20523437 16.9165625 3.16796875 16.921875 C1.59982422 16.89867187 1.59982422 16.89867187 0 16.875 C-1.04542969 16.89046875 -2.09085937 16.9059375 -3.16796875 16.921875 C-4.17472656 16.91671875 -5.18148438 16.9115625 -6.21875 16.90625 C-7.13591797 16.90173828 -8.05308594 16.89722656 -8.99804688 16.89257812 C-12.23419542 16.22311726 -13.4244844 14.88771368 -15.5 12.375 C-16.68008862 9.76194662 -16.55863256 8.6153935 -15.875 5.8125 C-12.32808772 -0.47520813 -6.43661408 -0.0887129 0 0 Z "
        fill="#27a09c" transform="translate(431.5,230.625)" />
</svg>