<?xml version="1.0" encoding="UTF-8"?>
<svg version="1.1" xmlns="http://www.w3.org/2000/svg" width="512" height="512">
    <path
        d="M0 0 C16.63591622 13.94973214 26.61793089 33.52812323 28.78198242 55.14575195 C31.0943377 86.43333464 16.23796846 117.94671128 -3.640625 141.35546875 C-12.27488688 151.03327552 -22.2274637 161.11373185 -34 167 C-30.38969353 170.61030647 -17.97025937 168.9644753 -13.07080078 169.03369141 C17.98282317 168.6929854 44.87079409 151.49440207 66 130 C73.30740251 122.23010366 79.8114345 113.83684778 85.99243164 105.15332031 C86.4589917 104.50975586 86.92555176 103.86619141 87.40625 103.203125 C87.81166016 102.63239258 88.21707031 102.06166016 88.63476562 101.47363281 C91.22731967 98.6752322 93.63229638 98.04085596 97.375 97.625 C101.7179218 98.07426777 103.70673134 99.1662572 107 102 C109.58054842 106.15131703 108.97716337 109.33023937 108 114 C106.3203125 117.0703125 106.3203125 117.0703125 104.125 120.125 C103.72643799 120.67994141 103.32787598 121.23488281 102.91723633 121.80664062 C98.28188663 128.15530719 93.20828244 134.11860956 88 140 C87.51096191 140.55751953 87.02192383 141.11503906 86.51806641 141.68945312 C79.87507779 149.23072792 73.01427412 155.88473582 65 162 C64.05511719 162.74894531 63.11023438 163.49789062 62.13671875 164.26953125 C46.04680456 176.77917314 27.91695573 185.64931483 8 190 C6.98035156 190.22558594 5.96070313 190.45117188 4.91015625 190.68359375 C-25.01001851 196.26715275 -55.50039673 188.2711389 -80.75146484 171.86181641 C-106.5669013 154.12478467 -128.41359211 126.17055828 -135 95 C-135.93947657 89.68793105 -136.53992383 84.37323529 -137 79 C-137.07347656 78.15179688 -137.14695312 77.30359375 -137.22265625 76.4296875 C-138.24214861 50.98670422 -127.0125186 27.17011453 -110.69140625 8.3359375 C-81.7987752 -22.31207507 -33.05449877 -25.44604636 0 0 Z M-93 24 C-93.62390625 24.61359375 -94.2478125 25.2271875 -94.890625 25.859375 C-107.91830035 39.59124902 -114.68211645 59.25728542 -114.25 78.02734375 C-111.97512864 105.07698605 -97.04434096 129.2746187 -77 147 C-72.94293588 150.37889332 -68.81481729 153.80582781 -64 156 C-51.50303638 153.67116951 -40.09784972 143.37746571 -31 135 C-30.11441406 134.19691406 -29.22882813 133.39382813 -28.31640625 132.56640625 C-21.49503271 126.0855693 -16.15334268 118.82428249 -11 111 C-10.0409375 109.54980469 -10.0409375 109.54980469 -9.0625 108.0703125 C1.83291872 90.51117786 9.00875262 68.99587044 5.34375 48.29296875 C1.39839019 32.86865258 -7.48831289 20.18987244 -20.9375 11.5625 C-45.95772177 -2.24451233 -73.42825295 4.15063951 -93 24 Z "
        fill="#27a09c" transform="translate(251,173)" />
    <path
        d="M0 0 C3.77922101 4.20848665 5.81420252 8.58582789 7.9375 13.75 C8.45799927 15.00864868 8.45799927 15.00864868 8.98901367 16.29272461 C21.18661128 46.42512978 25.44602484 80.37673502 12.79296875 111.109375 C8.09400538 121.74233668 1.06758438 130.69941679 -7 139 C-7.61101562 139.67289063 -8.22203125 140.34578125 -8.8515625 141.0390625 C-17.8495263 150.64965362 -29.06885023 157.62442703 -41 163 C-58.44917755 141.17450139 -65.27792188 113.26072309 -62.79785156 85.75830078 C-58.98373485 56.21688734 -38.16139712 28.36380299 -15.09179688 10.52441406 C-3.49883829 1.74941914 -3.49883829 1.74941914 0 0 Z "
        fill="#27a09c" transform="translate(405,100)" />
    <path
        d="M0 0 C3.58854238 2.9274951 4.87671291 4.81939214 5.359375 9.44140625 C5.2712231 15.1985032 2.76743129 19.86572866 0.25 24.9375 C-0.24226074 25.94514404 -0.73452148 26.95278809 -1.24169922 27.9909668 C-7.55696969 40.55873367 -15.46921767 51.76416104 -25.1171875 62 C-26.69683487 63.67796568 -28.13970797 65.37838695 -29.5625 67.1875 C-39.42101881 78.56271401 -53.01713175 87.60024316 -66 95 C-66.66676758 95.38655762 -67.33353516 95.77311523 -68.02050781 96.17138672 C-89.78567486 108.67024461 -113.99920616 116.54576599 -138.6875 120.8125 C-139.40607178 120.9367334 -140.12464355 121.0609668 -140.86499023 121.18896484 C-152.88689552 123.0956838 -152.88689552 123.0956838 -158.375 120.25 C-161.39746807 117.65931308 -162.84344824 115.82317571 -163.1875 111.81640625 C-163.125625 111.07261719 -163.06375 110.32882812 -163 109.5625 C-162.95875 108.82128906 -162.9175 108.08007812 -162.875 107.31640625 C-161.50542015 103.69068817 -159.33682607 101.7734482 -156 100 C-151.86747604 98.81933257 -147.68316886 98.20035669 -143.4375 97.5625 C-112.49738427 92.34145927 -82.86699245 81.54239726 -58 62 C-57.41089844 61.53722656 -56.82179688 61.07445312 -56.21484375 60.59765625 C-39.04906305 46.91693685 -26.86038873 30.52595642 -18.18115234 10.39599609 C-16.13012675 5.7809479 -14.43089426 2.75858901 -10 0 C-6.19426871 -1.2685771 -3.89430952 -0.88817586 0 0 Z "
        fill="#27a09c" transform="translate(388,285)" />
    <path
        d="M0 0 C2.96420295 1.80662482 5.42245851 3.84491701 7 7 C7.6147902 11.47040303 7.71008996 14.88414435 5.25 18.75 C-3.58737285 24.8681812 -14.52030913 27.58052233 -24.75 30.5 C-25.75197922 30.78881546 -25.75197922 30.78881546 -26.77420044 31.08346558 C-35.93041904 33.7138499 -45.11268815 36.09441965 -54.4375 38.0625 C-55.39430664 38.26617187 -56.35111328 38.46984375 -57.33691406 38.6796875 C-70.09766948 41.22542844 -70.09766948 41.22542844 -75.8125 38.8125 C-78.46569012 36.61414247 -79.73465799 35.2336518 -81 32 C-81.3784661 27.15915455 -81.0183345 24.20265669 -77.8203125 20.42578125 C-73.19916976 16.87232203 -67.43503025 16.18906912 -61.83917236 15.0880127 C-58.36680255 14.40180006 -54.90810122 13.65318575 -51.44921875 12.90234375 C-50.74482666 12.75008331 -50.04043457 12.59782288 -49.31469727 12.44094849 C-42.15381976 10.86468116 -35.14493525 8.86938321 -28.125 6.75 C-27.03421143 6.42088623 -25.94342285 6.09177246 -24.81958008 5.75268555 C-19.48020193 4.11920384 -14.17363502 2.41583963 -8.90258789 0.57324219 C-5.72871036 -0.38303453 -3.27001331 -0.49358691 0 0 Z "
        fill="#27a09c" transform="translate(159,346)" />
</svg>