<svg xmlns="http://www.w3.org/2000/svg" version="1.0" width="512.000000pt" height="512.000000pt"
    viewBox="0 0 512.000000 512.000000" preserveAspectRatio="xMidYMid meet">

    <g transform="translate(0.000000,512.000000) scale(0.100000,-0.100000)" fill="#27a09c"
        stroke="none">
        <path
            d="M1726 4521 c-18 -20 -136 -390 -129 -403 2 -5 350 -8 774 -8 710 0 769 1 769 17 0 31 -112 378 -127 396 -15 16 -59 17 -643 17 -601 0 -628 -1 -644 -19z" />
        <path
            d="M1025 3945 l-25 -24 0 -1601 0 -1600 -125 0 c-120 0 -127 -1 -150 -25 -30 -29 -32 -68 -5 -95 20 -20 33 -20 1649 -20 l1630 0 20 26 c27 35 26 59 -4 89 -23 24 -30 25 -149 25 l-126 0 -2 1606 -3 1606 -24 19 c-23 18 -58 19 -1343 19 l-1319 0 -24 -25z m2476 -204 l24 -19 3 -1501 2 -1501 -75 0 -75 0 0 1445 0 1445 -470 0 -470 0 0 -1445 0 -1445 -70 0 -70 0 0 1445 0 1445 -470 0 -470 0 0 -1445 0 -1445 -75 0 -75 0 0 1495 0 1496 25 24 24 25 1109 0 c1078 0 1110 -1 1133 -19z" />
        <path
            d="M3905 2585 l-25 -24 0 -454 c0 -444 0 -455 21 -481 l20 -26 229 0 229 0 20 26 c21 26 21 37 21 481 l0 454 -25 24 -24 25 -221 0 -221 0 -24 -25z m287 -174 c13 -11 45 -54 71 -95 54 -88 61 -135 25 -160 -38 -27 -73 -20 -108 22 -28 34 -32 36 -42 18 -33 -57 -90 -74 -128 -36 -31 31 -24 69 26 150 72 118 106 140 156 101z m-71 -382 c34 -37 38 -39 44 -20 9 28 53 61 81 61 34 0 64 -34 64 -71 0 -44 -103 -207 -136 -215 -50 -13 -70 3 -128 96 -61 98 -68 131 -34 167 32 35 65 29 109 -18z" />
    </g>
</svg>