<?xml version="1.0" encoding="UTF-8"?>
<svg version="1.1" xmlns="http://www.w3.org/2000/svg" width="512" height="512">
    <path
        d="M0 0 C5.01187886 4.55066301 6.63629896 10.25893376 7.91015625 16.734375 C7.91015625 18.054375 7.91015625 19.374375 7.91015625 20.734375 C8.81280716 20.4882547 9.71545807 20.2421344 10.64546204 19.98855591 C19.19080845 17.65919959 27.73747541 15.33474551 36.28542805 13.01497078 C40.6789872 11.82246483 45.07207848 10.62829206 49.46411133 9.43017578 C53.70999556 8.27199605 57.95709395 7.11837022 62.20503807 5.96776962 C63.81800727 5.53004707 65.43054748 5.09074024 67.04262733 4.64975357 C88.40173781 -1.19021219 112.5064793 -6.64349064 132.9296875 4.9453125 C139.7995358 9.04124883 146.28901441 13.65640142 152.70703125 18.421875 C168.96071908 30.15624475 186.00571854 41.32765382 203.94750977 50.30908203 C213.89458865 55.3117065 221.46444871 60.91676679 225.28515625 71.8671875 C227.40277528 81.58176478 226.7051907 90.98431213 221.91015625 99.734375 C221.25015625 100.724375 220.59015625 101.714375 219.91015625 102.734375 C228.23985052 102.14442413 236.03568906 99.98228324 244.046875 97.76171875 C245.53139149 97.35571074 247.01608075 96.95033397 248.50093079 96.54554749 C252.41186428 95.47771407 256.32058098 94.40198527 260.2288208 93.32434082 C264.09474751 92.25952011 267.96241885 91.20108522 271.83007812 90.14257812 C272.58742311 89.93522348 273.3447681 89.72786884 274.12506294 89.51423073 C280.18479939 87.85519522 286.24466004 86.19660989 292.30518913 84.54047203 C295.94310306 83.54634356 299.58054202 82.55055749 303.21685791 81.55059814 C306.62829435 80.61296399 310.04167237 79.68273314 313.45655251 78.75772285 C315.28849886 78.25967422 317.1185034 77.75449962 318.94841003 77.24900818 C336.53184249 72.50675793 356.7528772 68.94792965 373.84375 77.140625 C381.8409168 81.74143738 386.69158672 87.62201912 390.34765625 96.046875 C392.3435022 109.13075402 390.59510562 119.37061922 383.21484375 130.3125 C376.54943147 137.31683155 368.54948051 140.20527036 359.44140625 142.83203125 C357.51904749 143.40746171 355.59669199 143.98290309 353.67443085 144.55865955 C351.57684162 145.18397817 349.47719719 145.80193463 347.37695312 146.41827393 C342.70448915 147.79127863 338.04135064 149.19448037 333.37890625 150.60107422 C323.66655405 153.52828963 313.94740269 156.43244369 304.22667694 159.33171463 C301.37782858 160.18151826 298.52913347 161.0318338 295.68048096 161.8822937 C271.21060584 169.18730762 246.73609899 176.4768121 222.24685669 183.71666336 C220.29371762 184.2943428 218.34080143 184.87277012 216.38793945 185.4513855 C212.82051096 186.50769342 209.25221989 187.56102766 205.68359375 188.61328125 C204.13525345 189.07228317 204.13525345 189.07228317 202.55563354 189.54055786 C201.612211 189.81793793 200.66878845 190.09531799 199.69677734 190.38110352 C198.88663177 190.62022964 198.07648621 190.85935577 197.24179077 191.10572815 C178.97749516 196.03008135 160.40941641 192.48430657 144.20703125 183.2421875 C142.77361169 182.40818554 141.34141549 181.57207895 139.91015625 180.734375 C138.14456761 179.71087477 136.37893998 178.68744181 134.61328125 177.6640625 C130.56707117 175.31195695 126.52838337 172.94736605 122.4921875 170.578125 C115.66166212 166.57696324 108.78892422 162.6516567 101.91015625 158.734375 C91.01733159 152.52800034 80.16778697 146.2503805 69.34765625 139.91796875 C68.46368164 139.40741943 67.57970703 138.89687012 66.66894531 138.37084961 C64.69806248 137.20174982 62.75452863 135.98603922 60.83105469 134.74047852 C54.73446133 130.56758543 54.73446133 130.56758543 47.67578125 129.70703125 C45.93554688 130.24650391 45.93554688 130.24650391 44.16015625 130.796875 C42.9690625 131.13847656 41.77796875 131.48007812 40.55078125 131.83203125 C39.679375 132.12980469 38.80796875 132.42757812 37.91015625 132.734375 C38.12671875 133.36601562 38.34328125 133.99765625 38.56640625 134.6484375 C41.0890431 142.75357625 43.04248909 152.05692912 39.9609375 160.26171875 C36.24112949 166.56309698 31.44585577 169.92136533 24.39453125 171.83984375 C22.51701172 172.35514648 22.51701172 172.35514648 20.6015625 172.88085938 C19.9533252 173.05190186 19.30508789 173.22294434 18.63720703 173.39916992 C16.67579666 173.91773989 14.72072348 174.45622218 12.765625 174.99804688 C-6.86668043 180.30380326 -6.86668043 180.30380326 -16.08984375 175.734375 C-24.99536494 170.55266149 -26.50893749 161.09524544 -29.00894451 151.75357056 C-30.23987843 147.06550517 -31.43678078 142.36894185 -32.6328125 137.671875 C-33.16555966 135.59655605 -33.69879835 133.52136323 -34.23249817 131.44628906 C-35.63616773 125.98331031 -37.03327989 120.51867569 -38.42895508 115.0536499 C-40.09187056 108.5475828 -41.76293869 102.04360575 -43.43263435 95.53927612 C-44.78888652 90.25426093 -46.14275428 84.96865845 -47.49118042 79.68164062 C-49.92291199 70.15136467 -52.37244006 60.62724819 -54.89697266 51.12109375 C-55.53034126 48.72025806 -56.16291176 46.31921365 -56.79519081 43.91809082 C-57.36953307 41.75144219 -57.95551396 39.58818078 -58.54203796 37.42480469 C-63.20192195 19.92036753 -63.20192195 19.92036753 -58.39453125 11.58203125 C-53.42823792 4.54892723 -47.32397232 2.36030689 -39.15625 0.27148438 C-36.8117025 -0.33792069 -34.48351848 -0.99759497 -32.15234375 -1.65625 C-30.40290495 -2.1322756 -28.65290338 -2.60623785 -26.90234375 -3.078125 C-26.08354736 -3.30959229 -25.26475098 -3.54105957 -24.42114258 -3.77954102 C-15.32199523 -6.13432487 -7.66187001 -5.67545926 0 0 Z M-28.52734375 15.109375 C-29.79384766 15.42648437 -31.06035156 15.74359375 -32.36523438 16.0703125 C-33.57244141 16.3796875 -34.77964844 16.6890625 -36.0234375 17.0078125 C-37.69490845 17.43199463 -37.69490845 17.43199463 -39.40014648 17.86474609 C-42.20524663 18.54625717 -42.20524663 18.54625717 -44.08984375 20.734375 C-43.70252459 26.38009397 -42.47411503 31.70226299 -41.03955078 37.16186523 C-40.83274185 37.96524323 -40.62593292 38.76862122 -40.41285706 39.59634399 C-39.72930015 42.24649813 -39.03858344 44.89472743 -38.34765625 47.54296875 C-37.85938609 49.42861621 -37.37150973 51.31436568 -36.88400269 53.20021057 C-35.85638951 57.17113925 -34.82549432 61.14119572 -33.79199219 65.1105957 C-32.50241044 70.06368739 -31.21849174 75.01822149 -29.93675613 79.97334862 C-27.18072305 90.62704266 -24.40387931 101.27515117 -21.61242676 111.9196167 C-20.58081171 115.8547723 -19.55448441 119.79125598 -18.53210449 123.7288208 C-17.27667872 128.56260908 -16.01102792 133.39360872 -14.73778915 138.22273445 C-14.26269007 140.03136321 -13.79110693 141.84091956 -13.32321548 143.65142632 C-12.67933806 146.14013156 -12.0227292 148.62513195 -11.36279297 151.10961914 C-11.17618984 151.84300821 -10.98958672 152.57639729 -10.79732895 153.33201027 C-9.53454514 158.24917021 -9.53454514 158.24917021 -6.08984375 161.734375 C-3.0827683 161.52906624 -3.0827683 161.52906624 0.2578125 160.56640625 C2.12469727 160.09170898 2.12469727 160.09170898 4.02929688 159.60742188 C4.67616455 159.43331787 5.32303223 159.25921387 5.98950195 159.07983398 C7.96447167 158.54907455 9.94477584 158.04490807 11.92773438 157.54492188 C18.48169674 156.20141001 18.48169674 156.20141001 23.91015625 152.734375 C23.71674034 142.78550565 20.64644666 133.18951847 18.1328125 123.625 C17.64189924 121.73508866 17.1516327 119.84500922 16.66197205 117.95477295 C15.36875592 112.96999769 14.06653715 107.98761715 12.76245117 103.00567627 C11.47469483 98.0794609 10.19573767 93.15096363 8.91601562 88.22265625 C7.40518304 82.40606325 5.89152498 76.59025619 4.36611938 70.77746582 C3.86401345 68.86401907 3.36192797 66.95056695 2.85986328 65.03710938 C2.61379145 64.09930885 2.36771961 63.16150833 2.11419106 62.19528961 C0.63875833 56.55872508 -0.81053681 50.91620951 -2.23702526 45.26706314 C-3.13577999 41.71192346 -4.04453143 38.15937782 -4.95443916 34.60707855 C-5.37629344 32.94863897 -5.79325516 31.28894619 -6.20499992 29.62796783 C-6.76946182 27.35243899 -7.35066796 25.08181239 -7.93579102 22.81152344 C-8.25701431 21.53484802 -8.57823761 20.25817261 -8.90919495 18.94281006 C-10.14417287 15.5867346 -11.33100249 13.96345847 -14.08984375 11.734375 C-18.76020967 11.734375 -24.02546927 13.95821075 -28.52734375 15.109375 Z M85.734375 17.75 C84.85311951 17.96792206 83.97186401 18.18584412 83.06390381 18.41036987 C80.00916338 19.17182906 76.95951701 19.9516572 73.91015625 20.734375 C72.15084274 21.18269684 72.15084274 21.18269684 70.35598755 21.64007568 C62.47647819 23.65202091 54.60825134 25.7040704 46.74609375 27.78271484 C43.98814831 28.51123498 41.22834817 29.23204931 38.46679688 29.94677734 C35.08091923 30.82312189 31.69849339 31.71171921 28.31824493 32.60952377 C26.42525229 33.10908029 24.52901441 33.5962869 22.63275146 34.08328247 C21.4993634 34.38724945 20.36597534 34.69121643 19.19824219 35.00439453 C18.19790955 35.26688995 17.1975769 35.52938538 16.16693115 35.79983521 C15.42219543 36.10823334 14.67745972 36.41663147 13.91015625 36.734375 C12.65135279 40.51078537 13.52640419 43.02152302 14.52490234 46.72851562 C14.80025063 47.7899604 14.80025063 47.7899604 15.0811615 48.87284851 C15.69069462 51.21426518 16.3120417 53.5523728 16.93359375 55.890625 C17.35930991 57.51564579 17.78431881 59.14085202 18.20864868 60.76623535 C19.32863437 65.04797797 20.45878869 69.32697487 21.59088135 73.60552979 C22.51347465 77.09889383 23.42911473 80.59406151 24.34433556 84.0893631 C26.23455723 91.30821287 28.12941541 98.52585192 30.03662109 105.74023438 C30.21226089 106.40733932 30.3879007 107.07444427 30.56886292 107.76176453 C31.28120145 110.45028085 32.03026775 113.09470949 32.91015625 115.734375 C36.92331465 115.31193727 40.48509714 114.86575691 44.34765625 113.671875 C51.80567527 111.70923842 56.3287635 112.09023592 63.0703125 115.7421875 C65.3850134 117.09631943 67.68158396 118.46698668 69.97265625 119.859375 C71.21552401 120.59489665 72.4595218 121.32851184 73.70458984 122.06030273 C76.23734188 123.55257252 78.76360092 125.05496982 81.28466797 126.56689453 C85.54197378 129.11790311 89.83130217 131.6126841 94.12304688 134.10522461 C97.05667086 135.80937288 99.98575858 137.52110375 102.9140625 139.234375 C112.48550869 144.82731899 122.08592362 150.36984248 131.69970703 155.88964844 C133.84519421 157.122447 135.98939605 158.35748511 138.13232422 159.59472656 C141.22121321 161.37701503 144.31499768 163.15050206 147.41015625 164.921875 C148.32289307 165.45047119 149.23562988 165.97906738 150.17602539 166.52368164 C164.62402558 174.75162738 178.44535893 178.45674706 194.9140625 174.21484375 C197.44301077 173.4722336 199.9576403 172.70802522 202.47265625 171.921875 C203.94254053 171.4810706 205.41303127 171.04228483 206.8840332 170.60522461 C210.27023034 169.59402911 213.65150618 168.56797332 217.03027344 167.53222656 C223.66271225 165.50006709 230.30596394 163.5042765 236.94921875 161.5078125 C244.86068186 159.12838663 252.77123039 156.74605243 260.67822266 154.35180664 C274.99013617 150.018921 289.30870704 145.71022341 303.64453125 141.45703125 C304.37069452 141.24158976 305.0968578 141.02614826 305.84502602 140.80417824 C312.88324402 138.71659797 319.92253896 136.63266966 326.9626379 134.55144215 C327.61716222 134.35794524 328.27168653 134.16444834 328.94604492 133.96508789 C329.91248727 133.67938572 329.91248727 133.67938572 330.89845371 133.3879118 C336.22801267 131.81159222 341.55450518 130.22510409 346.88000488 128.63513184 C349.62743694 127.81841745 352.37807966 127.01374164 355.12988281 126.21191406 C356.58156383 125.77991344 358.03307974 125.34735731 359.484375 124.9140625 C360.66217529 124.56843262 361.83997559 124.22280273 363.0534668 123.86669922 C367.34149158 122.16702749 369.74605854 119.74541817 371.91015625 115.734375 C372.59078125 114.55875 372.59078125 114.55875 373.28515625 113.359375 C374.55502407 108.02593017 374.7319794 103.51499183 372.41015625 98.484375 C367.14147026 92.68882041 361.70718689 90.06044767 353.921875 89.53125 C336.95372828 89.29198119 320.98616945 94.16828354 304.77734375 98.6796875 C302.68484245 99.25658598 300.59215696 99.83281676 298.4992981 100.40841675 C293.03894982 101.91165224 287.58062551 103.42209637 282.12286377 104.93469238 C273.35517693 107.36370318 264.58488925 109.78327435 255.813694 112.19958115 C252.76290468 113.04142542 249.7132916 113.88742971 246.66378784 114.73391724 C244.79526349 115.24998955 242.92670457 115.76593669 241.05810547 116.28173828 C240.21649368 116.51654907 239.3748819 116.75135986 238.50776672 116.99328613 C223.27935128 121.18261305 207.77559457 121.45814113 192.91015625 115.734375 C192.26353027 115.48719727 191.6169043 115.24001953 190.95068359 114.98535156 C177.89487215 109.87938122 165.99881687 102.77833975 154.00878906 95.58203125 C150.87266476 93.71201953 147.71917885 91.8751999 144.55859375 90.046875 C143.54635742 89.45865967 142.53412109 88.87044434 141.49121094 88.2644043 C139.55935504 87.14195581 137.62519894 86.02345445 135.68847656 84.90942383 C134.82577148 84.40435303 133.96306641 83.89928223 133.07421875 83.37890625 C132.3157666 82.93909424 131.55731445 82.49928223 130.77587891 82.04614258 C128.91015625 80.734375 128.91015625 80.734375 126.91015625 77.734375 C126.56143982 74.45644055 126.58540497 72.40191931 128.03515625 69.421875 C130.60552237 67.10854549 132.49079833 67.00959161 135.91015625 66.734375 C144.44647 69.43355209 152.48967446 75.42376535 160.1081543 80.04516602 C165.96304246 83.59203072 171.86602028 87.03061497 177.84765625 90.359375 C178.95584717 90.9795752 178.95584717 90.9795752 180.08642578 91.61230469 C186.37570052 95.08799498 191.57909856 97.70290904 198.91015625 96.734375 C202.59926005 95.05750964 205.24739474 92.77753101 207.91015625 89.734375 C209.26698074 85.66390153 209.43487879 81.99045783 208.91015625 77.734375 C205.04576608 70.14872023 198.579605 66.89832465 191.28515625 63.234375 C174.48013866 54.58059598 158.99562273 43.88882763 143.53222656 33.07080078 C141.03712603 31.32795006 138.53635866 29.59345352 136.03515625 27.859375 C135.27460938 27.3238501 134.5140625 26.7883252 133.73046875 26.23657227 C118.28847749 15.55150518 103.96634213 13.08039944 85.734375 17.75 Z "
        fill="#27a09c" transform="translate(85.08984375,289.265625)" />
    <path
        d="M0 0 C0.88464432 -0.01606293 1.76928864 -0.03212585 2.68074036 -0.04867554 C6.72839607 -0.09312606 10.77588777 -0.13419031 14.82373047 -0.15722656 C16.95860697 -0.17378732 19.09342801 -0.20107878 21.22802734 -0.23925781 C24.30554985 -0.29402224 27.38177265 -0.31590003 30.4597168 -0.33056641 C31.41195633 -0.35323578 32.36419586 -0.37590515 33.34529114 -0.39926147 C37.87050195 -0.38483691 40.03226505 -0.31557694 43.76025391 2.43481445 C45.58797551 5.00518305 46.57791067 6.82409807 47.36206055 9.84521484 C49.82528804 19.18823583 49.82528804 19.18823583 55.53735352 26.61035156 C59.70773693 28.70409532 64.10847363 29.63333925 68.64526367 30.60693359 C71.82499948 31.50431905 74.37870267 33.31787679 77.15893555 35.06787109 C80.33002732 36.63537663 82.44406046 37.48609883 85.94848633 36.68164062 C90.06711359 35.20717374 93.89959296 33.31150042 97.75268555 31.25146484 C103.41036343 28.24253718 103.41036343 28.24253718 106.72143555 28.19287109 C112.04758772 30.34162736 115.45739678 33.51660039 119.3972168 37.54052734 C120.0078447 38.15302841 120.6184726 38.76552948 121.24760437 39.39659119 C122.5292812 40.68495983 123.80737069 41.97690613 125.08203125 43.2722168 C127.03801975 45.25952068 129.00462804 47.2358051 130.97338867 49.21044922 C132.21945995 50.46568492 133.46492442 51.72152336 134.7097168 52.97802734 C135.59244011 53.86712547 135.59244011 53.86712547 136.49299622 54.77418518 C141.59279694 59.96452923 141.59279694 59.96452923 142.04174805 64.25146484 C141.57034116 70.05206909 139.01528971 74.48883507 136.3894043 79.60888672 C134.12284075 84.18124848 134.12284075 84.18124848 134.22924805 89.15771484 C134.96788086 90.66011719 134.96788086 90.66011719 135.72143555 92.19287109 C136.35270621 93.70067773 136.97709885 95.21137341 137.59643555 96.72412109 C138.30252693 98.38132812 139.01091284 100.03755914 139.72143555 101.69287109 C140.43195825 103.34818305 141.14034416 105.00441407 141.84643555 106.66162109 C142.35883789 107.83470825 142.35883789 107.83470825 142.8815918 109.03149414 C143.72143555 111.19287109 143.72143555 111.19287109 144.28393555 114.49365234 C146.7928891 119.20475806 151.89011723 120.15533489 156.72143555 121.88037109 C158.74535313 122.62595786 160.76635932 123.37950991 162.78393555 124.14208984 C163.68241211 124.4652417 164.58088867 124.78839355 165.5065918 125.12133789 C167.72143555 126.19287109 167.72143555 126.19287109 169.72143555 129.19287109 C169.98886108 131.3110199 169.98886108 131.3110199 170.01196289 133.78442383 C170.0247226 134.71226181 170.0374823 135.64009979 170.05062866 136.59605408 C170.05396713 138.09610741 170.05396713 138.09610741 170.05737305 139.62646484 C170.06402985 140.65594742 170.07068665 141.68542999 170.07754517 142.74610901 C170.08767342 144.92406425 170.09236213 147.10205053 170.09204102 149.2800293 C170.09641424 152.61412602 170.13273312 155.94689928 170.1706543 159.28076172 C170.17652234 161.39599156 170.18049182 163.5112277 170.18237305 165.62646484 C170.19674408 166.62447617 170.21111511 167.62248749 170.22592163 168.65074158 C170.18043947 175.53220768 170.18043947 175.53220768 167.95654297 178.7331543 C165.8201979 180.12837081 163.88066979 181.20638664 161.4987793 182.11474609 C160.7130957 182.41767578 159.92741211 182.72060547 159.11791992 183.03271484 C157.90072266 183.48324219 157.90072266 183.48324219 156.65893555 183.94287109 C155.84360352 184.25869141 155.02827148 184.57451172 154.18823242 184.89990234 C148.14809613 187.19287109 148.14809613 187.19287109 144.72143555 187.19287109 C144.55643555 188.47162109 144.39143555 189.75037109 144.22143555 191.06787109 C142.98486607 197.44307375 140.27375738 203.09357906 137.5534668 208.94628906 C137.20541992 209.69539551 136.85737305 210.44450195 136.4987793 211.21630859 C136.18158936 211.88581543 135.86439941 212.55532227 135.53759766 213.24511719 C133.85542682 217.12031767 133.85542682 217.12031767 134.34228516 221.18823242 C134.85287476 222.22113403 134.85287476 222.22113403 135.3737793 223.27490234 C135.73793945 224.04253906 136.10209961 224.81017578 136.47729492 225.60107422 C137.2596568 227.19295434 138.04349093 228.7841118 138.82885742 230.37451172 C141.07393807 235.11412641 142.79590904 238.86906739 141.72143555 244.19287109 C139.75779391 247.2260109 137.27730855 249.653281 134.72143555 252.19287109 C133.38411377 253.56548096 133.38411377 253.56548096 132.01977539 254.96582031 C129.5254358 257.52033279 127.00631719 260.04871044 124.4765625 262.56811523 C122.89097758 264.14826753 121.31090112 265.73379085 119.73120117 267.31982422 C118.72175662 268.32860915 117.71200256 269.33708448 116.7019043 270.34521484 C115.33908325 271.70634399 115.33908325 271.70634399 113.94873047 273.0949707 C110.68469053 276.16938649 108.48189398 276.56177072 103.98657227 276.51318359 C100.62954417 276.03846697 98.08026592 274.54003492 95.12597656 272.93994141 C88.12327778 269.12042105 88.12327778 269.12042105 80.3815918 268.53466797 C75.75554829 270.11008833 71.74381722 272.61858022 67.61254883 275.18603516 C64.9240674 276.61739294 62.21406534 276.8865692 59.22143555 277.31787109 C55.78489422 278.30310722 54.20904525 279.34088562 52.42504883 282.45800781 C50.64998624 286.34254516 49.12002311 290.26407131 47.7487793 294.30859375 C47.42135742 295.27200684 47.09393555 296.23541992 46.7565918 297.22802734 C46.48210205 298.1085376 46.2076123 298.98904785 45.92480469 299.89624023 C44.26915861 303.05604195 43.04131415 303.84358666 39.72143555 305.19287109 C36.40596303 305.62636934 33.12423267 305.63711239 29.78393555 305.62646484 C28.82624268 305.6317067 27.8685498 305.63694855 26.88183594 305.64234924 C24.86125659 305.64875976 22.84063988 305.64744503 20.82006836 305.63891602 C17.73182702 305.63039975 14.64543209 305.65919133 11.55737305 305.69091797 C9.59122777 305.69252999 7.62507922 305.69195243 5.65893555 305.68896484 C4.73798096 305.70019882 3.81702637 305.7114328 2.86816406 305.7230072 C-1.24288823 305.67839161 -3.66996942 305.545877 -7.28173828 303.45092773 C-9.33583881 301.12810394 -10.25381762 299.50850752 -11.1652832 296.56787109 C-11.46499023 295.69646484 -11.76469727 294.82505859 -12.07348633 293.92724609 C-12.66668563 292.11000533 -13.24237035 290.28695012 -13.80004883 288.45849609 C-15.56571419 283.36038353 -15.56571419 283.36038353 -19.4453125 279.82446289 C-22.02679271 278.80245455 -24.62046331 277.99207691 -27.27856445 277.19287109 C-28.89254794 276.51701048 -30.49608731 275.81556694 -32.0871582 275.08740234 C-32.85350586 274.74386719 -33.61985352 274.40033203 -34.40942383 274.04638672 C-35.17061523 273.70285156 -35.93180664 273.35931641 -36.71606445 273.00537109 C-38.27668394 272.30226289 -39.8378589 271.60038595 -41.3996582 270.89990234 C-42.07440186 270.59544189 -42.74914551 270.29098145 -43.44433594 269.97729492 C-46.70913695 268.43356664 -46.70913695 268.43356664 -50.14453125 268.8137207 C-51.17574097 269.3243103 -51.17574097 269.3243103 -52.2277832 269.84521484 C-52.99413086 270.209375 -53.76047852 270.57353516 -54.55004883 270.94873047 C-56.14342961 271.7280315 -57.73463792 272.51179239 -59.32348633 273.30029297 C-64.6205404 275.80523847 -68.41992586 277.22674849 -74.27856445 276.19287109 C-77.35075711 274.25880889 -79.74625594 271.77712153 -82.27856445 269.19287109 C-83.15609375 268.34289551 -84.03362305 267.49291992 -84.93774414 266.6171875 C-87.36858849 264.25803358 -89.77670612 261.88043065 -92.17163086 259.48510742 C-93.66674581 257.99220928 -95.16973401 256.50753717 -96.6730957 255.02294922 C-97.63321873 254.06575578 -98.59287167 253.10809053 -99.55200195 252.14990234 C-100.41229004 251.29372314 -101.27257812 250.43754395 -102.15893555 249.55541992 C-105.37090181 245.9753465 -106.32294871 244.31065345 -106.13012695 239.45458984 C-105.30027128 234.17068578 -102.97379472 229.68362447 -100.63012695 224.92919922 C-99.3002614 222.09778466 -98.25923167 219.82021982 -98.35668945 216.65771484 C-99.6033323 213.32452994 -101.08611307 210.13339441 -102.65356445 206.94287109 C-109.27856445 193.10945292 -109.27856445 193.10945292 -109.27856445 187.19287109 C-109.93727539 187.08587891 -110.59598633 186.97888672 -111.2746582 186.86865234 C-115.09351732 186.00953319 -118.67356548 184.73509345 -122.34106445 183.38037109 C-123.40164062 183.0081543 -123.40164062 183.0081543 -124.48364258 182.62841797 C-125.51328125 182.2484668 -125.51328125 182.2484668 -126.5637207 181.86083984 C-127.18126221 181.63678467 -127.79880371 181.41272949 -128.43505859 181.18188477 C-131.1400621 179.73069033 -132.47037816 178.74853886 -134.27856445 176.19287109 C-134.90541345 172.69970832 -134.88663673 169.23854631 -134.88012695 165.69677734 C-134.8886972 164.67108139 -134.89726746 163.64538544 -134.90609741 162.58860779 C-134.91757599 160.4208369 -134.91859032 158.25298898 -134.90991211 156.08520508 C-134.90359262 152.77014621 -134.9505031 149.45866012 -135.0012207 146.14404297 C-135.00576702 144.0366256 -135.00717353 141.92919863 -135.00512695 139.82177734 C-135.02354645 138.83206436 -135.04196594 137.84235138 -135.0609436 136.82264709 C-134.97147262 130.15995192 -134.97147262 130.15995192 -133.04188538 127.46685791 C-130.35146683 125.09526346 -127.58154408 123.61857196 -124.0715332 122.98193359 C-115.12144239 120.83851626 -115.12144239 120.83851626 -108.61743164 114.70654297 C-105.82184662 108.94488681 -103.86352448 102.92533174 -102.15966797 96.76074219 C-101.27856445 94.19287109 -101.27856445 94.19287109 -99.67138672 91.53930664 C-98.02498272 89.24360731 -98.02498272 89.24360731 -98.36450195 86.37646484 C-99.69844515 81.73046611 -101.77455036 77.51986311 -103.92700195 73.20263672 C-106.1312588 68.4914894 -106.96933804 65.33995396 -105.27856445 60.19287109 C-103.23821225 57.23424098 -100.79361391 54.75124517 -98.27856445 52.19287109 C-97.44583008 51.31405273 -96.6130957 50.43523437 -95.75512695 49.52978516 C-93.43635141 47.09723015 -91.09699308 44.69063997 -88.7355957 42.29980469 C-87.75885694 41.30637234 -86.78753405 40.30758783 -85.8215332 39.30371094 C-84.40265996 37.82986113 -82.96782363 36.37335026 -81.52856445 34.91943359 C-80.6880957 34.05914551 -79.84762695 33.19885742 -78.98168945 32.3125 C-75.80193453 29.81912642 -73.2274599 28.95834226 -69.27856445 28.19287109 C-65.9621582 28.98583984 -65.9621582 28.98583984 -62.71606445 30.38037109 C-61.10538086 31.05132812 -61.10538086 31.05132812 -59.4621582 31.73583984 C-56.27856445 33.19287109 -56.27856445 33.19287109 -53.3137207 34.93115234 C-48.94698242 36.74641163 -45.77957411 36.099221 -41.38549805 34.50683594 C-39.38676874 33.67986232 -37.42641649 32.79443554 -35.46606445 31.88037109 C-34.14786655 31.27832847 -32.82884202 30.67809276 -31.5090332 30.07958984 C-30.83735107 29.76417236 -30.16566895 29.44875488 -29.47363281 29.1237793 C-27.27856445 28.19287109 -27.27856445 28.19287109 -24.69482422 27.42407227 C-19.50887154 25.81077342 -19.50887154 25.81077342 -15.78369141 22.05053711 C-14.61735481 19.4430302 -13.69526684 16.85568348 -12.84106445 14.13037109 C-12.22385769 12.32475379 -11.60040198 10.52125745 -10.9699707 8.72021484 C-10.71417236 7.92349365 -10.45837402 7.12677246 -10.19482422 6.3059082 C-8.09965714 1.47412802 -5.04165583 0.08313623 0 0 Z M3.72143555 17.19287109 C2.40143555 20.45162109 1.08143555 23.71037109 -0.27856445 27.06787109 C-0.6962207 28.09380371 -1.11387695 29.11973633 -1.54418945 30.17675781 C-1.8690332 30.98387207 -2.19387695 31.79098633 -2.52856445 32.62255859 C-2.8637207 33.44997559 -3.19887695 34.27739258 -3.54418945 35.12988281 C-4.39035164 37.14193414 -4.39035164 37.14193414 -4.27856445 39.19287109 C-4.88700195 39.33982422 -5.49543945 39.48677734 -6.12231445 39.63818359 C-18.60694994 42.8327815 -30.27472981 47.11733105 -41.21606445 53.97021484 C-46.67767693 56.15068003 -51.34453414 54.69959363 -56.55981445 52.56396484 C-57.97184589 51.93220001 -59.37713936 51.28532705 -60.77856445 50.63037109 C-63.25356445 49.49599609 -65.72856445 48.36162109 -68.27856445 47.19287109 C-74.54856445 53.46287109 -80.81856445 59.73287109 -87.27856445 66.19287109 C-85.36799545 71.92457809 -83.74592525 76.57580708 -81.0480957 81.75927734 C-79.45076068 86.810748 -79.641017 90.78364282 -81.7824707 95.51708984 C-82.46180664 96.62697266 -83.14114258 97.73685547 -83.84106445 98.88037109 C-87.49982469 105.17854778 -90.02100343 111.58631545 -92.27856445 118.50537109 C-92.58093018 119.43115967 -92.8832959 120.35694824 -93.19482422 121.31079102 C-94.70934109 125.67008897 -94.70934109 125.67008897 -95.27856445 130.19287109 C-96.10743164 130.45970703 -96.93629883 130.72654297 -97.7902832 131.00146484 C-101.60897889 132.30572261 -105.34670182 133.753973 -109.09106445 135.25537109 C-109.77104492 135.52414063 -110.45102539 135.79291016 -111.15161133 136.06982422 C-114.46136617 137.2230134 -114.46136617 137.2230134 -117.27856445 139.19287109 C-117.36614448 141.19252091 -117.38553022 143.19523219 -117.3762207 145.19677734 C-117.37299805 146.41171875 -117.36977539 147.62666016 -117.36645508 148.87841797 C-117.35807617 150.1578125 -117.34969727 151.43720703 -117.34106445 152.75537109 C-117.33429688 154.68026367 -117.33429688 154.68026367 -117.32739258 156.64404297 C-117.31555991 159.82703132 -117.29907514 163.00992872 -117.27856445 166.19287109 C-115.38471035 166.99005462 -113.49001333 167.78523578 -111.5949707 168.57958984 C-110.53995361 169.02262451 -109.48493652 169.46565918 -108.39794922 169.92211914 C-105.00623422 171.30381097 -101.58789831 172.54298389 -98.1184082 173.71240234 C-95.1157114 176.12858512 -94.40221245 179.63680953 -93.27856445 183.19287109 C-92.82701395 184.54105572 -92.37390966 185.888721 -91.91918945 187.23583984 C-91.69376465 187.91074463 -91.46833984 188.58564941 -91.23608398 189.28100586 C-88.70210385 196.79987928 -85.79537428 203.39844832 -81.59887695 210.16552734 C-79.63443621 214.66979237 -79.42011655 218.65371978 -80.97924805 223.26538086 C-81.89228257 225.3614013 -82.87186758 227.40274871 -83.90356445 229.44287109 C-85.20822856 232.02341994 -86.26869699 234.46445724 -87.27856445 237.19287109 C-85.50345324 242.22359332 -81.18000648 245.77867533 -77.52856445 249.50537109 C-76.82473633 250.25882813 -76.1209082 251.01228516 -75.39575195 251.78857422 C-71.4973137 255.999564 -71.4973137 255.999564 -66.1965332 257.36865234 C-61.6462345 255.53513172 -57.23462871 253.49733609 -52.8137207 251.37255859 C-45.9839934 249.09346727 -41.06920371 251.53931819 -34.95581055 254.58325195 C-33.63057373 255.25626343 -33.63057373 255.25626343 -32.27856445 255.94287109 C-24.6798775 259.7035478 -17.25295331 262.79522841 -9.11450195 265.15771484 C-5.53361795 266.46478683 -3.92609979 267.81981316 -2.29541016 271.27758789 C-2.01785889 272.05787354 -1.74030762 272.83815918 -1.4543457 273.64208984 C-1.1776001 274.40610107 -0.90085449 275.1701123 -0.61572266 275.95727539 C-0.27758545 276.92189697 0.06055176 277.88651855 0.40893555 278.88037109 C2.04862305 283.49005859 2.04862305 283.49005859 3.72143555 288.19287109 C12.96143555 288.19287109 22.20143555 288.19287109 31.72143555 288.19287109 C34.18767968 281.75112268 34.18767968 281.75112268 36.62670898 275.29907227 C37.09898926 274.09214722 37.09898926 274.09214722 37.58081055 272.86083984 C37.89501953 272.03865967 38.20922852 271.21647949 38.53295898 270.36938477 C41.39480552 265.12834905 46.59506965 264.12549784 51.97143555 262.50537109 C59.15391733 260.2506525 65.73746882 257.45656506 72.32983398 253.82104492 C76.51281249 251.56811711 79.9493486 250.26111876 84.72143555 250.19287109 C87.58277066 251.07117996 90.18279028 252.33838985 92.84643555 253.69287109 C94.21784275 254.38241976 95.59536591 255.05996351 96.97924805 255.72412109 C97.57882324 256.02898437 98.17839844 256.33384766 98.79614258 256.64794922 C101.48185608 257.40809537 103.07721605 257.06100417 105.72143555 256.19287109 C107.9263808 254.53506271 107.9263808 254.53506271 109.9284668 252.37646484 C110.6793457 251.61269531 111.43022461 250.84892578 112.20385742 250.06201172 C112.9727832 249.25957031 113.74170898 248.45712891 114.53393555 247.63037109 C115.32219727 246.8240625 116.11045898 246.01775391 116.92260742 245.18701172 C118.86486471 243.19766941 120.79717216 241.19959838 122.72143555 239.19287109 C120.98493622 233.77262225 119.12206229 228.68171574 116.4909668 223.62646484 C115.16390995 219.42973177 114.86771162 215.37817218 116.47558594 211.26245117 C117.53428551 209.25656186 118.67088372 207.32000826 119.84643555 205.38037109 C123.91309893 198.27291258 126.59555173 191.23272994 128.78051758 183.34985352 C129.10318604 182.20867065 129.10318604 182.20867065 129.43237305 181.04443359 C129.61074707 180.37234863 129.78912109 179.70026367 129.97290039 179.0078125 C131.23368474 175.95084224 132.96229565 174.5678002 135.89794922 173.11791992 C136.72012939 172.79847412 137.54230957 172.47902832 138.3894043 172.14990234 C139.194021 171.83255127 139.9986377 171.5152002 140.82763672 171.18823242 C141.84446533 170.79788818 142.86129395 170.40754395 143.90893555 170.00537109 C147.14706055 168.74724609 150.38518555 167.48912109 153.72143555 166.19287109 C153.72143555 157.28287109 153.72143555 148.37287109 153.72143555 139.19287109 C147.27789658 136.68648929 147.27789658 136.68648929 140.82763672 134.19750977 C139.62071167 133.72148315 139.62071167 133.72148315 138.3894043 133.23583984 C137.15613403 132.75667114 137.15613403 132.75667114 135.89794922 132.26782227 C132.83664925 130.7558869 131.20872025 129.33931708 129.86523438 126.1784668 C129.63860107 125.41622803 129.41196777 124.65398926 129.1784668 123.86865234 C128.91300049 123.01223145 128.64753418 122.15581055 128.37402344 121.2734375 C128.09679443 120.35997559 127.81956543 119.44651367 127.53393555 118.50537109 C125.08589089 110.72277138 122.24988071 103.52970147 118.2109375 96.43237305 C115.8434313 92.12253825 115.10588213 89.07982992 115.72143555 84.19287109 C116.98703803 80.6155755 118.70819675 77.27598252 120.40893555 73.89013672 C122.39380536 70.17946117 122.39380536 70.17946117 122.02270508 66.21044922 C119.51344617 62.31992096 116.19955139 59.17501621 112.97143555 55.88037109 C112.26760742 55.12691406 111.5637793 54.37345703 110.83862305 53.59716797 C106.9401848 49.38617819 106.9401848 49.38617819 101.6394043 48.01708984 C97.0891056 49.85061047 92.67749981 51.8884061 88.2565918 54.01318359 C82.83540511 55.82224258 79.35943591 54.94660863 74.2409668 52.59130859 C73.00177095 51.92331634 71.76624325 51.2484868 70.53393555 50.56787109 C63.35942781 46.75778769 56.03749148 44.03579188 48.28515625 41.62792969 C42.28372169 39.68844533 42.28372169 39.68844533 39.87768555 37.56787109 C38.03205025 33.77683642 36.51137419 29.88974791 35.03393555 25.94287109 C33.94081055 23.05537109 32.84768555 20.16787109 31.72143555 17.19287109 C22.48143555 17.19287109 13.24143555 17.19287109 3.72143555 17.19287109 Z "
        fill="#27a09c" transform="translate(334.278564453125,37.80712890625)" />
    <path
        d="M0 0 C0.71873795 -0.00902847 1.43747589 -0.01805695 2.17799377 -0.02735901 C3.69682657 -0.04185312 5.21572169 -0.05074618 6.73461914 -0.05444336 C9.05527034 -0.06634912 11.37326872 -0.1155414 13.69335938 -0.16601562 C15.17055996 -0.1754794 16.64777685 -0.18271466 18.125 -0.1875 C18.81677841 -0.20703232 19.50855682 -0.22656464 20.22129822 -0.24668884 C23.92867 -0.21206089 25.34930953 0.09612385 28.03369141 2.73608398 C29.65588378 5.4156558 30.59464551 7.90159313 31.56640625 10.87109375 C33.1685096 14.59761627 34.13138413 16.07783103 37.6640625 18.16015625 C40.96709526 19.43370439 44.19950817 20.49676701 47.62890625 21.37109375 C48.93214844 21.73654297 48.93214844 21.73654297 50.26171875 22.109375 C53.16718796 22.43060674 54.45041802 21.80252156 57.00390625 20.43359375 C61.15778705 18.48367284 63.98190815 17.44169413 68.62890625 18.37109375 C71.68976249 20.29804188 74.07806253 22.82429899 76.62890625 25.37109375 C77.8220307 26.47372651 79.01754268 27.57377887 80.21484375 28.671875 C81.50019792 29.88252399 82.78404109 31.09477913 84.06640625 32.30859375 C84.69426025 32.88109863 85.32211426 33.45360352 85.96899414 34.04345703 C88.97769674 36.96596102 90.98332019 39.23971808 91.7109375 43.44921875 C91.62359527 47.62500941 90.90697566 49.5943125 88.87890625 53.18359375 C86.814073 57.63422891 86.814073 57.63422891 87.37109375 62.375 C88.27960227 64.26131007 89.2463539 66.12085294 90.2734375 67.9453125 C91.82678694 70.72522605 92.37231672 73.20648952 92.62890625 76.37109375 C93.26828125 76.45359375 93.90765625 76.53609375 94.56640625 76.62109375 C99.41910282 77.80950924 104.67226023 79.37005299 108.23217773 83.01074219 C110.9645126 87.62815409 110.10658535 93.39930722 110.07495117 98.64282227 C110.06644544 100.79866152 110.09520641 102.95184452 110.12695312 105.10742188 C110.12856556 106.48567629 110.12798679 107.86393537 110.125 109.2421875 C110.12685303 110.4892749 110.12870605 111.7363623 110.13061523 113.02124023 C109.5409322 116.95848642 108.41739786 118.58228393 105.62890625 121.37109375 C102.90234375 122.734375 102.90234375 122.734375 100.00390625 123.68359375 C99.04226562 124.00972656 98.080625 124.33585937 97.08984375 124.671875 C94.62890625 125.37109375 94.62890625 125.37109375 92.62890625 125.37109375 C92.52320313 126.24378906 92.4175 127.11648437 92.30859375 128.015625 C91.60353724 131.49633501 90.40076526 133.93126822 88.75390625 137.05859375 C86.76809509 141.57155889 86.76809509 141.57155889 87.44921875 146.3125 C88.81980106 149.1148839 88.81980106 149.1148839 90.45703125 151.60546875 C91.72627366 154.60088083 92.11918214 156.88895772 91.56884766 160.11865234 C89.39601108 165.3255589 84.72338537 169.00970908 80.69140625 172.80859375 C79.75876953 173.71802734 78.82613281 174.62746094 77.86523438 175.56445312 C69.79227587 183.3805713 69.79227587 183.3805713 66.7109375 183.35546875 C62.8058339 182.95218783 59.49268746 182.47417255 55.94140625 180.74609375 C50.40619644 178.44845949 46.73867063 180.28397922 41.44140625 182.43359375 C40.60222656 182.79582031 39.76304687 183.15804687 38.8984375 183.53125 C36.62890625 184.37109375 36.62890625 184.37109375 33.62890625 184.37109375 C33.45875 185.02335938 33.28859375 185.675625 33.11328125 186.34765625 C31.62223324 191.7249464 30.11367603 195.98702855 26.62890625 200.37109375 C22.13540737 202.61784319 16.02342045 201.63965977 11.02587891 201.66625977 C8.76923934 201.68347677 6.51406388 201.72736497 4.2578125 201.77148438 C2.82162535 201.78161135 1.38542575 201.79012744 -0.05078125 201.796875 C-2.01120361 201.81874878 -2.01120361 201.81874878 -4.01123047 201.84106445 C-7.37109375 201.37109375 -7.37109375 201.37109375 -9.76879883 199.51977539 C-11.70027628 196.92965913 -12.31870197 194.60022588 -13.18359375 191.49609375 C-15.12314366 186.51303628 -17.03859983 184.45631493 -21.78588867 182.34130859 C-27.21372904 180.24092764 -31.52165053 178.80680452 -37.37109375 180.37109375 C-39.10359375 181.14453125 -39.10359375 181.14453125 -40.87109375 181.93359375 C-44.62316547 183.47462321 -46.40177116 184.18115958 -50.37109375 183.37109375 C-53.39963894 181.42729191 -55.81313474 178.88622544 -58.37109375 176.37109375 C-59.65229694 175.19514327 -60.93498023 174.0208043 -62.21875 172.84765625 C-63.60451712 171.54472412 -64.98861491 170.2400144 -66.37109375 168.93359375 C-67.39674438 168.00341431 -67.39674438 168.00341431 -68.44311523 167.05444336 C-71.64464603 163.95426532 -73.80483646 161.78951392 -73.9375 157.19140625 C-73.44037879 153.83840941 -72.90931245 151.61914906 -71.30859375 148.68359375 C-69.34599535 145.06897649 -69.27695801 143.33586518 -70.37109375 139.37109375 C-70.71720703 137.82615234 -70.71720703 137.82615234 -71.0703125 136.25 C-72.68537383 130.83028825 -73.78965348 127.34302058 -78.74609375 124.296875 C-81.234233 123.20289334 -83.696322 122.37201347 -86.2890625 121.51953125 C-89.37109375 120.37109375 -89.37109375 120.37109375 -91.37109375 117.37109375 C-91.59028784 114.87651767 -91.6990243 112.49601113 -91.70703125 110 C-91.71368805 109.28126205 -91.72034485 108.56252411 -91.72720337 107.82200623 C-91.73731948 106.30315711 -91.74202071 104.78426363 -91.74169922 103.26538086 C-91.74607215 100.94505409 -91.78239692 98.62663081 -91.8203125 96.30664062 C-91.82618107 94.82943358 -91.83015019 93.35221751 -91.83203125 91.875 C-91.84640228 91.18322159 -91.86077332 90.49144318 -91.87557983 89.77870178 C-91.8436702 86.40429663 -91.60657905 84.67171525 -89.49902344 81.98120117 C-87.15427175 80.20703442 -84.99565992 79.15525893 -82.24609375 78.12109375 C-80.94285156 77.61835938 -80.94285156 77.61835938 -79.61328125 77.10546875 C-77.37109375 76.37109375 -77.37109375 76.37109375 -75.37109375 76.37109375 C-75.18933594 75.71882813 -75.00757812 75.0665625 -74.8203125 74.39453125 C-73.66813793 70.3885089 -72.57564685 66.75828355 -70.62109375 63.05859375 C-69.10840239 59.80630732 -69.22530499 58.72661796 -70.37109375 55.37109375 C-70.88671875 54.27796875 -71.40234375 53.18484375 -71.93359375 52.05859375 C-73.54455019 47.92614027 -74.69084123 44.66415467 -73.37109375 40.37109375 C-70.76102729 36.63980156 -67.61720416 33.55037248 -64.37109375 30.37109375 C-63.47390625 29.45070313 -62.57671875 28.5303125 -61.65234375 27.58203125 C-52.79459146 18.54191348 -52.79459146 18.54191348 -48.24609375 17.99609375 C-44.02627925 18.4044629 -41.35511657 19.59080976 -37.6796875 21.59375 C-34.55830222 22.64477482 -32.561722 22.1119887 -29.37109375 21.37109375 C-28.30890625 21.14035156 -27.24671875 20.90960938 -26.15234375 20.671875 C-20.76010866 19.04778515 -17.32876036 17.93227102 -14.30078125 12.99609375 C-13.20438138 10.50758853 -12.37250564 8.04736241 -11.51953125 5.453125 C-9.36861955 -0.31921968 -5.40486815 0.04177657 0 0 Z M1.62890625 17.37109375 C0.94828125 19.28921875 0.26765625 21.20734375 -0.43359375 23.18359375 C-2.9221879 29.08709209 -2.9221879 29.08709209 -6.43359375 31.30859375 C-7.74319603 31.67332947 -9.05625512 32.02571041 -10.37109375 32.37109375 C-12.40122627 33.18150955 -14.42147284 34.01693846 -16.43359375 34.87109375 C-17.47257812 35.29777344 -18.5115625 35.72445312 -19.58203125 36.1640625 C-22.4916529 37.36345158 -22.4916529 37.36345158 -25.55859375 39.18359375 C-29.53348121 40.86187957 -33.11594664 40.97460654 -37.37109375 40.37109375 C-39.39346427 39.41714539 -41.39936335 38.42574024 -43.37109375 37.37109375 C-47.73560462 37.84818603 -50.08439013 40.41241562 -53.01171875 43.46484375 C-54.67195052 45.41357041 -54.67195052 45.41357041 -54.43359375 48.55859375 C-53.49119779 51.27114835 -53.49119779 51.27114835 -52.30859375 53.24609375 C-50.78667804 56.69576936 -50.6814705 59.73273658 -51.37109375 63.37109375 C-52.69282395 66.40935667 -54.20912804 69.28334899 -55.7890625 72.1953125 C-57.82838592 76.28906544 -59.04195641 80.46641507 -60.21875 84.875 C-62.7456176 90.3484522 -70.1303017 92.10269122 -75.37109375 94.37109375 C-75.37109375 98.66109375 -75.37109375 102.95109375 -75.37109375 107.37109375 C-73.45296875 108.11359375 -71.53484375 108.85609375 -69.55859375 109.62109375 C-65.33029379 111.25785502 -62.63570822 112.35949098 -60.37109375 116.37109375 C-59.6812935 118.22323457 -59.06080469 120.10206325 -58.49609375 121.99609375 C-57.19617425 126.13769774 -55.70610433 129.81624393 -53.62109375 133.62109375 C-51.20762424 138.27670622 -50.68665405 141.15224106 -51.37109375 146.37109375 C-51.8502614 147.63765039 -52.37126575 148.8892031 -52.93359375 150.12109375 C-54.56057699 153.08291526 -54.56057699 153.08291526 -54.18359375 155.33984375 C-53.16494455 157.88646676 -51.79530128 159.24275209 -49.80859375 161.12109375 C-48.84759766 162.04148438 -48.84759766 162.04148438 -47.8671875 162.98046875 C-47.37347656 163.439375 -46.87976563 163.89828125 -46.37109375 164.37109375 C-45.79101562 164.16613281 -45.2109375 163.96117187 -44.61328125 163.75 C-43.83210938 163.48058594 -43.0509375 163.21117187 -42.24609375 162.93359375 C-41.48039062 162.66675781 -40.7146875 162.39992187 -39.92578125 162.125 C-39.08273438 161.87621094 -38.2396875 161.62742188 -37.37109375 161.37109375 C-36.46230469 161.09652344 -35.55351563 160.82195312 -34.6171875 160.5390625 C-29.93610362 160.29684035 -26.70186305 162.08946548 -22.55859375 164.12109375 C-21.03326908 164.84929649 -19.5059188 165.57327167 -17.9765625 166.29296875 C-17.22439453 166.64705811 -16.47222656 167.00114746 -15.69726562 167.3659668 C-12.60008392 168.70424315 -9.43460455 169.70010535 -6.19995117 170.65063477 C-4.37109375 171.37109375 -4.37109375 171.37109375 -2.49609375 173.55859375 C-1.06093235 177.14649725 0.33286394 180.72983202 1.62890625 184.37109375 C6.24890625 184.37109375 10.86890625 184.37109375 15.62890625 184.37109375 C16.30953125 182.45296875 16.99015625 180.53484375 17.69140625 178.55859375 C19.1785997 174.36741221 19.85170086 172.78238858 23.83984375 170.671875 C25.0977763 170.22373343 26.36109901 169.79048612 27.62890625 169.37109375 C28.88294526 168.87799836 30.1342695 168.37794411 31.3828125 167.87109375 C33.29111654 167.11797068 35.20041556 166.36757435 37.11132812 165.62109375 C40.13116478 164.42684321 43.0295661 163.16457786 45.91796875 161.67578125 C51.64613446 158.91899833 57.98143667 162.40303617 63.62890625 164.37109375 C66.59890625 161.40109375 69.56890625 158.43109375 72.62890625 155.37109375 C71.94828125 153.70046875 71.26765625 152.02984375 70.56640625 150.30859375 C68.05076975 144.13384962 68.5963332 139.84397383 71.15234375 133.72265625 C71.76014722 132.47585028 72.3776283 131.23372299 73.00390625 129.99609375 C75.11504941 125.75971923 76.83330117 121.9830454 77.75390625 117.30859375 C78.714181 113.95081185 79.61847396 113.37747273 82.6953125 111.49609375 C85.96826133 109.97083604 89.23654473 108.60511969 92.62890625 107.37109375 C92.62890625 103.08109375 92.62890625 98.79109375 92.62890625 94.37109375 C90.62828125 93.77296875 88.62765625 93.17484375 86.56640625 92.55859375 C81.74594749 90.38938731 79.50770007 88.84837984 77.34765625 83.98828125 C75.81541051 79.92971803 74.61210647 75.78636717 73.40380859 71.62231445 C72.24305072 68.25011902 70.46108782 65.42343853 68.62890625 62.37109375 C67.58932522 56.52345044 70.34664898 51.64881368 72.62890625 46.37109375 C69.65890625 43.40109375 66.68890625 40.43109375 63.62890625 37.37109375 C62.32953125 37.86609375 61.03015625 38.36109375 59.69140625 38.87109375 C52.0172741 41.34546346 47.03276019 41.33096124 39.75390625 37.62109375 C38.7484375 37.07710937 37.74296875 36.533125 36.70703125 35.97265625 C29.0224167 31.94333433 29.0224167 31.94333433 20.62890625 30.37109375 C20.43554688 29.7678125 20.2421875 29.16453125 20.04296875 28.54296875 C19.65238281 27.34414063 19.65238281 27.34414063 19.25390625 26.12109375 C18.99867187 25.3321875 18.7434375 24.54328125 18.48046875 23.73046875 C17.56282552 21.0439275 17.56282552 21.0439275 15.62890625 17.37109375 C11.00890625 17.37109375 6.38890625 17.37109375 1.62890625 17.37109375 Z "
        fill="#27a09c" transform="translate(99.37109375,29.62890625)" />
    <path
        d="M0 0 C1.02738281 0.350625 2.05476563 0.70125 3.11328125 1.0625 C23.35521743 8.62369017 38.77651241 24.75414007 48 44 C56.64122605 64.30907443 58.29989803 87.33721219 50.15429688 108.16210938 C40.79413917 129.88323968 25.20577158 146.1539048 3.4765625 155.64453125 C-16.82301374 163.55908513 -40.03619119 164.04668313 -60.14453125 155.234375 C-81.34503026 145.40673843 -97.21085631 129.85698948 -106 108 C-113.85919877 85.22702245 -112.44920617 61.61141699 -102 40 C-94.0530715 25.23052857 -81.79560381 12.86857112 -67 5 C-66.16984375 4.55785156 -65.3396875 4.11570312 -64.484375 3.66015625 C-44.78422166 -6.04246418 -20.65143315 -7.64681569 0 0 Z M-80.03125 37.40625 C-90.88906318 52.07382218 -95.69203624 69.35227455 -93.6015625 87.44921875 C-90.7285789 105.30275972 -81.29018769 121.20638154 -66.79296875 132.15234375 C-50.55115933 142.89692537 -33.75498768 145.973819 -14.5390625 143.56640625 C3.58329633 139.65528055 19.1787648 127.75738183 29.1875 112.375 C38.22162033 96.62699789 40.47741403 78.24813486 35.83618164 60.78515625 C31.21080441 44.85308439 20.81825385 30.01648198 6.19140625 21.765625 C2.21262259 19.64430558 -1.85393221 17.7688417 -6 16 C-6.89074219 15.61585937 -7.78148437 15.23171875 -8.69921875 14.8359375 C-34.44420624 5.96407386 -63.18821751 17.45373459 -80.03125 37.40625 Z "
        fill="#27a09c" transform="translate(380,112)" />
    <path
        d="M0 0 C9.54541736 9.02209404 15.37240503 20.92349265 16.20703125 34.05859375 C16.64457931 50.87944585 12.12414556 64.57125919 0.4765625 76.94921875 C-10.73758021 87.499596 -23.66144889 90.93716781 -38.71411133 90.78149414 C-53.75115955 90.25299897 -65.57029424 83.64666552 -75.83984375 72.87890625 C-82.37907902 65.20900106 -87.19034194 54.39949048 -88.03125 44.30859375 C-88.09441406 43.56867188 -88.15757813 42.82875 -88.22265625 42.06640625 C-88.83356468 28.78407465 -85.00855133 16.83571743 -77.03125 6.30859375 C-76.268125 5.23609375 -75.505 4.16359375 -74.71875 3.05859375 C-54.06137289 -18.07918748 -22.38942826 -18.64350469 0 0 Z M-61 14.16015625 C-68.14800376 21.76248228 -71.41428107 30.47432036 -71.2421875 40.8515625 C-70.40389586 50.61610775 -65.86629502 59.05303904 -58.65625 65.62109375 C-49.44927124 72.98667676 -39.50989538 74.50291947 -28.03125 73.30859375 C-19.10707701 71.21059436 -12.59756938 66.52545773 -7.03125 59.30859375 C-1.14913826 49.68844937 0.96257113 39.64846272 -1.71484375 28.44921875 C-5.95363914 17.12231324 -12.97642426 11.09729646 -23.40625 5.49609375 C-37.28334053 0.9501503 -50.43698012 4.22588755 -61 14.16015625 Z "
        fill="#27a09c" transform="translate(144.03125,91.69140625)" />
    <path
        d="M0 0 C3.3795917 1.95265298 4.71224763 3.17271195 6 6.875 C6 10.77860393 5.19395541 12.78219873 3 16 C0.09213776 17.80759004 -1.64288187 18.00728813 -5.0625 17.9375 C-8.87702012 16.72009996 -10.03689127 15.47319236 -12 12 C-12.5 8.4375 -12.5 8.4375 -12 5 C-8.47403586 0.53377875 -5.6371593 -0.55266268 0 0 Z "
        fill="#27a09c" transform="translate(65,315)" />
</svg>