<?xml version="1.0" encoding="UTF-8"?>
<svg version="1.1" xmlns="http://www.w3.org/2000/svg" width="512" height="512">
    <path
        d="M0 0 C3.99750594 2.47778386 6.79944325 5.73730152 9.76171875 9.34375 C10.32036621 10.00616699 10.87901367 10.66858398 11.45458984 11.35107422 C12.59947301 12.71031849 13.73996727 14.07327198 14.87597656 15.43994141 C16.37677656 17.24403741 17.88953141 19.03682685 19.41015625 20.82421875 C21.67045258 23.48114977 23.92145428 26.14570963 26.16894531 28.81347656 C28.44593314 31.51439812 30.72917669 34.21002244 33.01171875 36.90625 C33.92841459 37.98955865 34.84508128 39.07289196 35.76171875 40.15625 C36.21546875 40.6925 36.66921875 41.22875 37.13671875 41.78125 C49.51171875 56.40625 61.88671875 71.03125 74.26171875 85.65625 C74.94355225 86.46195435 74.94355225 86.46195435 75.63916016 87.28393555 C76.54795195 88.35809447 77.4564843 89.43247297 78.36474609 90.50708008 C80.77472256 93.35771567 83.19020798 96.20345339 85.61328125 99.04296875 C86.3722168 99.93435547 86.3722168 99.93435547 87.14648438 100.84375 C88.12010066 101.98707921 89.0952947 103.12906724 90.07226562 104.26953125 C93.67144677 108.50136018 94.89535245 110.72456483 94.78125 116.4296875 C94.51171875 118.40625 94.51171875 118.40625 93.01171875 120.90625 C89.52841595 122.99623168 86.40835327 123.2964631 82.51171875 122.40625 C79.88671875 120.34375 79.88671875 120.34375 77.51171875 117.40625 C76.46597868 116.17519937 75.4163767 114.94742069 74.36328125 113.72265625 C73.82783691 113.0994751 73.29239258 112.47629395 72.74072266 111.83422852 C72.13236572 111.12737915 72.13236572 111.12737915 71.51171875 110.40625 C71.50807312 111.25514297 71.50442749 112.10403595 71.50067139 112.97865295 C71.4627312 120.99700304 71.40581028 129.01494889 71.32781601 137.03301334 C71.28838534 141.1547557 71.25617546 145.27628583 71.24072266 149.39819336 C71.22552667 153.37959387 71.19102993 157.36041077 71.14340973 161.34155083 C71.12862606 162.85685579 71.12067947 164.37224409 71.1198349 165.88762093 C71.10281703 181.11770466 71.10281703 181.11770466 66.51171875 186.40625 C60.07507389 191.30124913 54.02185031 190.97461932 46.14428711 190.92382812 C44.79339343 190.92925488 43.44250567 190.93638064 42.09162903 190.94506836 C38.43871579 190.9632376 34.78625657 190.95626153 31.13333583 190.94355202 C27.303117 190.93339301 23.47293588 190.94282553 19.64271545 190.94909668 C13.21283011 190.9563638 6.78312885 190.94680915 0.35327148 190.92773438 C-7.07285585 190.90595802 -14.498544 190.91302605 -21.92466074 190.93504 C-28.31044359 190.95320973 -34.69609447 190.95574496 -41.08189481 190.94528532 C-44.89160989 190.93906017 -48.7011187 190.9381878 -52.51082039 190.95143127 C-56.09218533 190.9630126 -59.6729855 190.95492332 -63.25428963 190.93185425 C-65.1901383 190.92406982 -67.12603491 190.93590297 -69.06185913 190.94836426 C-75.47525383 190.88596496 -79.67115284 190.8378673 -84.48828125 186.40625 C-88.70781615 181.61650768 -89.61281774 179.19266901 -89.69360352 172.84521484 C-89.70845291 171.83528221 -89.70845291 171.83528221 -89.72360229 170.8049469 C-89.7552324 168.57572974 -89.77998059 166.34649126 -89.8046875 164.1171875 C-89.82525573 162.57304322 -89.84625217 161.02890459 -89.86766052 159.48477173 C-89.92289474 155.41760833 -89.97229803 151.35039401 -90.02050781 147.28314209 C-90.070713 143.13402771 -90.12640418 138.98498741 -90.18164062 134.8359375 C-90.28923871 126.69277095 -90.39067999 118.54954248 -90.48828125 110.40625 C-91.11476562 111.18871094 -91.74125 111.97117187 -92.38671875 112.77734375 C-93.20398438 113.78925781 -94.02125 114.80117188 -94.86328125 115.84375 C-95.67539063 116.85308594 -96.4875 117.86242187 -97.32421875 118.90234375 C-100.23672857 122.27223327 -100.83702374 122.35372923 -105.36328125 122.71875 C-108.31796778 122.65965627 -109.37886518 122.47189964 -111.98828125 120.90625 C-113.64462248 118.14568129 -114.3648145 115.96536476 -114.1796875 112.72265625 C-112.76565277 107.98524045 -109.16710488 104.56600815 -105.90039062 100.97167969 C-103.89759298 98.75142753 -101.96159884 96.47629024 -100.02075195 94.2019043 C-98.48259775 92.39959043 -96.93664861 90.60415788 -95.390625 88.80859375 C-92.8967777 85.89924049 -90.46243853 82.94681486 -88.05078125 79.96875 C-83.90767134 74.86317535 -79.60597675 69.90824947 -75.28540039 64.95336914 C-72.12362287 61.31887149 -69.01977919 57.65104157 -65.98828125 53.90625 C-61.86934959 48.81815794 -57.58680791 43.88621177 -53.28515625 38.953125 C-50.12348894 35.31868501 -47.01970653 31.65095182 -43.98828125 27.90625 C-39.8041279 22.73804577 -35.46341158 17.71649722 -31.09179688 12.70703125 C-30.30579102 11.80597656 -30.30579102 11.80597656 -29.50390625 10.88671875 C-28.99593506 10.30470703 -28.48796387 9.72269531 -27.96459961 9.12304688 C-26.53520348 7.46081543 -25.14413945 5.77241152 -23.7578125 4.07421875 C-17.77267735 -2.96166302 -8.17865863 -3.73672197 0 0 Z M-12.5546875 17.42578125 C-13.37839844 18.34746094 -14.20210937 19.26914063 -15.05078125 20.21875 C-15.49768311 20.71793945 -15.94458496 21.21712891 -16.4050293 21.73144531 C-20.06427609 25.85092993 -23.54728135 30.10324128 -27.0078125 34.390625 C-29.93796507 37.95295222 -32.95591003 41.43095796 -35.98828125 44.90625 C-39.72247083 49.18827781 -43.41287401 53.48957047 -46.98828125 57.90625 C-51.05455244 62.92929089 -55.27007585 67.81003879 -59.53320312 72.66601562 C-60.56670798 73.84809495 -61.5860824 75.04267741 -62.5909729 76.24917603 C-64.48828125 78.40625 -64.48828125 78.40625 -66.75753784 80.51754761 C-73.91048279 87.78098677 -74.60729141 93.57784089 -74.53359985 103.43399048 C-74.49097116 105.22945817 -74.44719271 107.02489889 -74.40234375 108.8203125 C-74.3880698 110.68547077 -74.37766645 112.55066228 -74.37094116 114.41586304 C-74.34243984 119.29251103 -74.25905454 124.16672705 -74.16455078 129.04248047 C-74.07905077 134.02672412 -74.05116868 139.01129228 -74.015625 143.99609375 C-73.9523425 151.24992071 -73.87672565 158.50341677 -73.74462891 165.75634766 C-73.73408478 166.52093292 -73.72354065 167.28551819 -73.712677 168.07327271 C-73.94575217 171.53168553 -73.94575217 171.53168553 -72.48828125 174.40625 C-69.89468803 174.49476529 -67.32788434 174.52150945 -64.734375 174.50390625 C-63.95892838 174.5024913 -63.18348175 174.50107635 -62.38453674 174.49961853 C-59.89824631 174.49400345 -57.41204465 174.48144846 -54.92578125 174.46875 C-53.24414192 174.46373694 -51.56250119 174.4591737 -49.88085938 174.45507812 C-45.74996559 174.44402913 -41.61913849 174.42675445 -37.48828125 174.40625 C-37.48241501 173.76145187 -37.47654877 173.11665375 -37.47050476 172.45231628 C-37.40666487 165.75266816 -37.32226978 159.0535046 -37.22583008 152.35424805 C-37.19253654 149.85268535 -37.16451857 147.35104673 -37.1418457 144.84936523 C-37.10838165 141.25731998 -37.05606882 137.66597334 -37 134.07421875 C-36.99361008 132.95226608 -36.98722015 131.83031342 -36.9806366 130.67436218 C-36.96084244 129.63350967 -36.94104828 128.59265717 -36.9206543 127.52026367 C-36.90399971 126.1445948 -36.90399971 126.1445948 -36.88700867 124.74113464 C-36.48828125 122.40625 -36.48828125 122.40625 -35.25495911 120.61088562 C-32.96756223 119.05118998 -31.54855357 119.0259353 -28.7890625 119.01806641 C-27.36243286 119.00388168 -27.36243286 119.00388168 -25.90698242 118.9894104 C-24.88193604 118.99548309 -23.85688965 119.00155579 -22.80078125 119.0078125 C-21.74673096 119.00494232 -20.69268066 119.00207214 -19.60668945 118.99911499 C-17.37743594 118.99707287 -15.14816458 119.00261302 -12.91894531 119.01513672 C-9.50154657 119.03118769 -6.0853306 119.01529241 -2.66796875 118.99609375 C-0.50390363 118.99807615 1.66016075 119.00191977 3.82421875 119.0078125 C4.84926514 119.00173981 5.87431152 118.99566711 6.93041992 118.9894104 C8.35704956 119.00359512 8.35704956 119.00359512 9.8125 119.01806641 C10.64950439 119.02045319 11.48650879 119.02283997 12.34887695 119.02529907 C14.51171875 119.40625 14.51171875 119.40625 16.27839661 120.61088562 C17.92726313 123.01116379 17.90894789 124.61737698 17.9440918 127.52026367 C17.96388596 128.56111618 17.98368011 129.60196869 18.0040741 130.67436218 C18.01046402 131.79631485 18.01685394 132.91826752 18.0234375 134.07421875 C18.0413887 135.22416824 18.0593399 136.37411774 18.07783508 137.55891418 C18.13208136 141.23715532 18.16588046 144.91526564 18.19921875 148.59375 C18.23237909 151.08530472 18.26686753 153.57684215 18.30273438 156.06835938 C18.3878161 162.18087228 18.45610531 168.29340182 18.51171875 174.40625 C23.47794224 174.43090098 28.44413041 174.44908649 33.41040039 174.46118164 C35.10116191 174.4662219 36.79191904 174.47305405 38.48266602 174.48168945 C40.90772582 174.49376857 43.33272819 174.49948123 45.7578125 174.50390625 C46.51823349 174.50906754 47.27865448 174.51422882 48.06211853 174.51954651 C49.87904445 174.51974238 51.69585002 174.46822277 53.51171875 174.40625 C55.49489583 172.42307292 54.77123648 168.53729742 54.83154297 165.81982422 C54.86308472 164.62679687 54.86308472 164.62679687 54.89526367 163.40966797 C55.07914324 156.02243271 55.18457912 148.63357348 55.26740837 141.24458122 C55.32378909 136.28526586 55.40477694 131.3292312 55.54736328 126.37158203 C55.68483292 121.57193637 55.75642033 116.77525027 55.78406143 111.9737587 C55.80535641 110.15479017 55.84902001 108.33592404 55.91677475 106.51809311 C56.29108003 95.98004793 55.49496455 89.0254618 48.21142578 81.01220703 C46.53120354 79.28182676 44.82176774 77.59736923 43.07248306 75.93698502 C40.84664665 73.75397397 38.93506529 71.35556648 37.01171875 68.90625 C33.43630521 64.48956268 29.74576318 60.18841104 26.01171875 55.90625 C22.27767432 51.62408896 18.58713229 47.32293732 15.01171875 42.90625 C9.85571173 36.53986795 4.47117224 30.37377824 -0.92724609 24.21289062 C-2.01542245 22.95350604 -3.08754521 21.68014742 -4.14697266 20.39648438 C-4.6785498 19.75517578 -5.21012695 19.11386719 -5.7578125 18.453125 C-6.47287964 17.57672363 -6.47287964 17.57672363 -7.20239258 16.68261719 C-9.51754238 14.38461014 -10.35735603 15.27829473 -12.5546875 17.42578125 Z M-21.48828125 134.40625 C-21.48828125 147.60625 -21.48828125 160.80625 -21.48828125 174.40625 C-13.56828125 174.40625 -5.64828125 174.40625 2.51171875 174.40625 C2.51171875 161.20625 2.51171875 148.00625 2.51171875 134.40625 C-5.40828125 134.40625 -13.32828125 134.40625 -21.48828125 134.40625 Z "
        fill="#27a09c" transform="translate(263.48828125,161.59375)" />
    <path
        d="M0 0 C10.72131275 8.11855033 18.18079116 19.47953651 20.4296875 32.83984375 C22.84046823 60.207744 10.78093007 77.36790759 -3.515625 99.5390625 C-7.58595819 105.85182112 -11.59985465 112.19884259 -15.58886719 118.56323242 C-17.95720899 122.33045743 -20.35138046 126.08073583 -22.78125 129.80859375 C-23.2664209 130.55560547 -23.7515918 131.30261719 -24.25146484 132.07226562 C-25.5703125 133.83984375 -25.5703125 133.83984375 -27.5703125 134.83984375 C-34.68480781 135.53963017 -34.68480781 135.53963017 -37.8984375 133 C-41.76797 128.80264136 -44.55365752 123.75658722 -47.5078125 118.90234375 C-48.84153613 116.73771919 -50.17619298 114.57366939 -51.51171875 112.41015625 C-52.18605957 111.31477539 -52.86040039 110.21939453 -53.55517578 109.09082031 C-56.63565139 104.12115552 -59.79123402 99.20047708 -62.9453125 94.27734375 C-88.08594225 54.83165716 -88.08594225 54.83165716 -82.921875 28.88671875 C-78.9152951 14.70958989 -70.05379316 3.92523335 -57.55859375 -3.58203125 C-39.32253375 -13.21257797 -16.89907403 -11.58443771 0 0 Z M-58.5859375 19.98046875 C-66.69230241 29.72173078 -67.60130497 39.55385013 -66.5703125 51.83984375 C-64.84080865 61.49624023 -58.4789165 69.51126983 -53.12304688 77.49707031 C-50.45289578 81.52580772 -47.89080778 85.62209906 -45.3203125 89.71484375 C-44.31772187 91.30209188 -43.31511812 92.88933173 -42.3125 94.4765625 C-40.63591764 97.13682447 -38.97253654 99.80411959 -37.328125 102.484375 C-36.70679688 103.48855469 -36.08546875 104.49273437 -35.4453125 105.52734375 C-34.92710937 106.37683594 -34.40890625 107.22632812 -33.875 108.1015625 C-33.44445312 108.67519531 -33.01390625 109.24882813 -32.5703125 109.83984375 C-31.9103125 109.83984375 -31.2503125 109.83984375 -30.5703125 109.83984375 C-29.14911237 108.05050495 -29.14911237 108.05050495 -27.734375 105.6953125 C-27.17041016 104.79981689 -26.60644531 103.90432129 -26.02539062 102.98168945 C-25.42146484 102.00675537 -24.81753906 101.03182129 -24.1953125 100.02734375 C-23.26235352 98.53883911 -23.26235352 98.53883911 -22.31054688 97.02026367 C-21.02255542 94.96527527 -19.73710292 92.90869352 -18.45410156 90.85058594 C-16.71358988 88.06883503 -14.95582796 85.2992824 -13.1875 82.53515625 C0.80738254 60.91642023 0.80738254 60.91642023 3.4296875 35.83984375 C1.24596301 26.36049426 -4.75095534 18.46978091 -12.5703125 12.83984375 C-28.81676305 3.6799402 -45.89662369 6.50422075 -58.5859375 19.98046875 Z "
        fill="#27a09c" transform="translate(287.5703125,9.16015625)" />
    <path
        d="M0 0 C12.34962095 7.94466061 20.04066828 18.72561773 24.16699219 32.92797852 C29.96985847 59.97193368 14.50309953 80.32431596 0.6796875 101.76171875 C-3.39064569 108.07447737 -7.40454215 114.42149884 -11.39355469 120.78588867 C-13.76189649 124.55311368 -16.15606796 128.30339208 -18.5859375 132.03125 C-19.0711084 132.77826172 -19.5562793 133.52527344 -20.05615234 134.29492188 C-21.375 136.0625 -21.375 136.0625 -23.375 137.0625 C-30.48949531 137.76228642 -30.48949531 137.76228642 -33.703125 135.22265625 C-37.5726575 131.02529761 -40.35834502 125.97924347 -43.3125 121.125 C-44.64622363 118.96037544 -45.98088048 116.79632564 -47.31640625 114.6328125 C-47.99074707 113.53743164 -48.66508789 112.44205078 -49.35986328 111.31347656 C-52.44033889 106.34381177 -55.59592152 101.42313333 -58.75 96.5 C-72.32084909 75.20731699 -83.46637859 57.60015121 -78.69140625 31.296875 C-74.27255657 17.28857144 -65.74093699 6.74772427 -53.375 -0.9375 C-35.87251134 -9.49895831 -17.11725863 -9.79937735 0 0 Z M-54.390625 22.203125 C-62.49698991 31.94438703 -63.40599247 41.77650638 -62.375 54.0625 C-60.64549615 63.71889648 -54.283604 71.73392608 -48.92773438 79.71972656 C-46.25758328 83.74846397 -43.69549528 87.84475531 -41.125 91.9375 C-40.12240937 93.52474813 -39.11980562 95.11198798 -38.1171875 96.69921875 C-36.44060514 99.35948072 -34.77722404 102.02677584 -33.1328125 104.70703125 C-32.51148437 105.71121094 -31.89015625 106.71539062 -31.25 107.75 C-30.73179688 108.59949219 -30.21359375 109.44898438 -29.6796875 110.32421875 C-29.24914063 110.89785156 -28.81859375 111.47148437 -28.375 112.0625 C-27.715 112.0625 -27.055 112.0625 -26.375 112.0625 C-24.95379987 110.2731612 -24.95379987 110.2731612 -23.5390625 107.91796875 C-22.97509766 107.02239258 -22.41113281 106.12681641 -21.83007812 105.20410156 C-21.22615234 104.22924805 -20.62222656 103.25439453 -20 102.25 C-19.37802734 101.25838867 -18.75605469 100.26677734 -18.11523438 99.24511719 C-16.8270568 97.19097848 -15.54160709 95.13512675 -14.25878906 93.07763672 C-11.99164377 89.44891143 -9.69973749 85.83633994 -7.40527344 82.22485352 C-5.4616893 79.16094878 -3.53060497 76.08931262 -1.60253906 73.015625 C-0.52984328 71.30886958 0.55081927 69.60712652 1.6328125 67.90625 C2.16648437 67.0503125 2.70015625 66.194375 3.25 65.3125 C3.67539063 64.63703125 4.10078125 63.9615625 4.5390625 63.265625 C8.7180511 54.78738913 9.04565902 44.22137973 6.9375 35.08203125 C3.16244757 24.93657785 -3.88681205 17.01693633 -13.4609375 11.9609375 C-28.69126794 5.90277632 -43.63193688 10.77723141 -54.390625 22.203125 Z "
        fill="#27a09c" transform="translate(79.375,190.9375)" />
    <path
        d="M0 0 C12.34962095 7.94466061 20.04066828 18.72561773 24.16699219 32.92797852 C29.96985847 59.97193368 14.50309953 80.32431596 0.6796875 101.76171875 C-3.39064569 108.07447737 -7.40454215 114.42149884 -11.39355469 120.78588867 C-13.76189649 124.55311368 -16.15606796 128.30339208 -18.5859375 132.03125 C-19.0711084 132.77826172 -19.5562793 133.52527344 -20.05615234 134.29492188 C-21.375 136.0625 -21.375 136.0625 -23.375 137.0625 C-30.48949531 137.76228642 -30.48949531 137.76228642 -33.703125 135.22265625 C-37.5726575 131.02529761 -40.35834502 125.97924347 -43.3125 121.125 C-44.64622363 118.96037544 -45.98088048 116.79632564 -47.31640625 114.6328125 C-47.99074707 113.53743164 -48.66508789 112.44205078 -49.35986328 111.31347656 C-52.44033889 106.34381177 -55.59592152 101.42313333 -58.75 96.5 C-72.21772348 75.36912123 -83.52495756 57.49598487 -78.69140625 31.3671875 C-74.27064159 17.31612637 -65.78077921 6.77248555 -53.375 -0.9375 C-35.87251134 -9.49895831 -17.11725863 -9.79937735 0 0 Z M-55.375 23.0625 C-62.66823173 32.47367257 -63.36352974 42.55378619 -62.375 54.0625 C-60.70586165 63.70782617 -54.27025749 71.75382623 -48.92773438 79.71972656 C-46.25758328 83.74846397 -43.69549528 87.84475531 -41.125 91.9375 C-40.12240937 93.52474813 -39.11980562 95.11198798 -38.1171875 96.69921875 C-36.44060514 99.35948072 -34.77722404 102.02677584 -33.1328125 104.70703125 C-32.51148438 105.71121094 -31.89015625 106.71539062 -31.25 107.75 C-30.73179687 108.59949219 -30.21359375 109.44898438 -29.6796875 110.32421875 C-29.24914062 110.89785156 -28.81859375 111.47148437 -28.375 112.0625 C-27.715 112.0625 -27.055 112.0625 -26.375 112.0625 C-24.95379987 110.2731612 -24.95379987 110.2731612 -23.5390625 107.91796875 C-22.97509766 107.02239258 -22.41113281 106.12681641 -21.83007812 105.20410156 C-21.22615234 104.22924805 -20.62222656 103.25439453 -20 102.25 C-19.37802734 101.25838867 -18.75605469 100.26677734 -18.11523438 99.24511719 C-16.8270568 97.19097848 -15.54160709 95.13512675 -14.25878906 93.07763672 C-11.99164377 89.44891143 -9.69973749 85.83633994 -7.40527344 82.22485352 C-5.4616893 79.16094878 -3.53060497 76.08931262 -1.60253906 73.015625 C-0.52984328 71.30886958 0.55081927 69.60712652 1.6328125 67.90625 C2.16648437 67.0503125 2.70015625 66.194375 3.25 65.3125 C3.67539062 64.63703125 4.10078125 63.9615625 4.5390625 63.265625 C8.87131753 54.47644573 8.89974069 43.58164368 7.04296875 34.0859375 C3.91697658 25.09335729 -3.26871567 17.79214997 -11.35546875 13 C-27.64993428 5.43583805 -43.60133627 10.36869203 -55.375 23.0625 Z "
        fill="#27a09c" transform="translate(487.375,190.9375)" />
    <path
        d="M0 0 C12.34962095 7.94466061 20.04066828 18.72561773 24.16699219 32.92797852 C29.96985847 59.97193368 14.50309953 80.32431596 0.6796875 101.76171875 C-3.39064569 108.07447737 -7.40454215 114.42149884 -11.39355469 120.78588867 C-13.76189649 124.55311368 -16.15606796 128.30339208 -18.5859375 132.03125 C-19.0711084 132.77826172 -19.5562793 133.52527344 -20.05615234 134.29492188 C-21.375 136.0625 -21.375 136.0625 -23.375 137.0625 C-30.48949531 137.76228642 -30.48949531 137.76228642 -33.703125 135.22265625 C-37.5726575 131.02529761 -40.35834502 125.97924347 -43.3125 121.125 C-44.64622363 118.96037544 -45.98088048 116.79632564 -47.31640625 114.6328125 C-47.99074707 113.53743164 -48.66508789 112.44205078 -49.35986328 111.31347656 C-52.44033889 106.34381177 -55.59592152 101.42313333 -58.75 96.5 C-72.32084909 75.20731699 -83.46637859 57.60015121 -78.69140625 31.296875 C-74.27255657 17.28857144 -65.74093699 6.74772427 -53.375 -0.9375 C-35.87251134 -9.49895831 -17.11725863 -9.79937735 0 0 Z M-51.125 17.8125 C-59.0015339 25.6890339 -62.64592077 34.34002489 -62.8125 45.375 C-62.6498086 59.2858608 -56.45965733 68.48934977 -48.92773438 79.71972656 C-46.25758328 83.74846397 -43.69549528 87.84475531 -41.125 91.9375 C-40.12240937 93.52474813 -39.11980562 95.11198798 -38.1171875 96.69921875 C-36.44060514 99.35948072 -34.77722404 102.02677584 -33.1328125 104.70703125 C-32.51148438 105.71121094 -31.89015625 106.71539062 -31.25 107.75 C-30.73179687 108.59949219 -30.21359375 109.44898438 -29.6796875 110.32421875 C-29.24914062 110.89785156 -28.81859375 111.47148437 -28.375 112.0625 C-27.715 112.0625 -27.055 112.0625 -26.375 112.0625 C-24.95379987 110.2731612 -24.95379987 110.2731612 -23.5390625 107.91796875 C-22.97509766 107.02239258 -22.41113281 106.12681641 -21.83007812 105.20410156 C-21.22615234 104.22924805 -20.62222656 103.25439453 -20 102.25 C-19.37802734 101.25838867 -18.75605469 100.26677734 -18.11523438 99.24511719 C-16.8270568 97.19097848 -15.54160709 95.13512675 -14.25878906 93.07763672 C-11.99191954 89.44935281 -9.7005703 85.83705936 -7.40551758 82.2265625 C-5.90889472 79.86596164 -4.42404963 77.49830531 -2.94140625 75.12890625 C-1.46465165 72.77178904 0.03634724 70.45566101 1.59765625 68.15234375 C7.85998993 58.68960368 9.71644817 48.20263158 7.4765625 37.09765625 C4.76666045 27.43896868 -0.27000778 20.04798495 -8.7265625 14.52734375 C-23.7489719 6.34847641 -37.17571716 8.93568365 -51.125 17.8125 Z "
        fill="#27a09c" transform="translate(283.375,374.9375)" />
    <path
        d="M0 0 C0.66 0 1.32 0 2 0 C2.47308594 0.969375 2.94617188 1.93875 3.43359375 2.9375 C14.18397083 24.81313911 26.16560302 44.188531 43.52734375 61.5234375 C45.04987248 63.04837149 46.54926579 64.59735326 48.0078125 66.18359375 C66.65577984 86.03576562 92.27853244 99.92266219 117.7175293 108.96606445 C120 110 120 110 121.44140625 112.57421875 C121.99634766 114.11529297 121.99634766 114.11529297 122.5625 115.6875 C123.95263804 119.36364281 125.31424239 122.77538368 127.375 126.125 C128.179375 127.548125 128.179375 127.548125 129 129 C128.67 129.66 128.34 130.32 128 131 C122.64742232 129.39137958 117.31762069 127.72064768 112 126 C110.76378906 125.60039062 109.52757812 125.20078125 108.25390625 124.7890625 C88.67276988 117.95120535 70.40112429 107.63086005 54 95 C53.06414062 94.29359375 52.12828125 93.5871875 51.1640625 92.859375 C44.42903254 87.63282178 38.19717641 81.84353319 32 76 C31.21625 75.27039063 30.4325 74.54078125 29.625 73.7890625 C23.01008914 67.43402314 17.50164933 60.31124695 12 53 C11.57041992 52.43651855 11.14083984 51.87303711 10.69824219 51.29248047 C3.45050891 41.74321527 -2.42319157 31.59936941 -8 21 C-8.59989746 19.90510254 -8.59989746 19.90510254 -9.21191406 18.78808594 C-9.58799805 18.08200195 -9.96408203 17.37591797 -10.3515625 16.6484375 C-10.86323975 15.70363525 -10.86323975 15.70363525 -11.38525391 14.73974609 C-12 13 -12 13 -11 10 C-9.63875 9.1028125 -9.63875 9.1028125 -8.25 8.1875 C-5.55189958 6.37147087 -4.18785246 5.20115267 -2.25 2.75 C-1.5075 1.8425 -0.765 0.935 0 0 Z "
        fill="#27a09c" transform="translate(72,331)" />
    <path
        d="M0 0 C3.37404518 3.23908338 6.3888465 6.73272547 9.4140625 10.29296875 C10.90631704 12.09935724 10.90631704 12.09935724 13 13 C5.67522327 38.24358082 -13.34832279 60.26603017 -31 79 C-31.72832031 79.78246094 -32.45664062 80.56492187 -33.20703125 81.37109375 C-39.56370118 87.98721959 -46.68713602 93.49713387 -54 99 C-54.56348145 99.42958008 -55.12696289 99.85916016 -55.70751953 100.30175781 C-72.79468376 113.27063093 -101.80954585 133 -124 133 C-122.23625439 128.4926501 -120.24333095 124.11357206 -118.21875 119.71875 C-116.92576832 117.08246534 -116.92576832 117.08246534 -116.43359375 114.4140625 C-114.02810246 110.36339869 -109.83220288 109.49232886 -105.5625 107.875 C-80.89239333 97.8881213 -60.70010278 82.73055898 -42 64 C-41.37738281 63.4121875 -40.75476563 62.824375 -40.11328125 62.21875 C-25.41538218 48.19038646 -14.49507681 30.00472794 -5.84472656 11.77001953 C-4.59985064 9.16153675 -3.29980183 6.58145001 -2 4 C-1.608125 3.21625 -1.21625 2.4325 -0.8125 1.625 C-0.544375 1.08875 -0.27625 0.5525 0 0 Z "
        fill="#27a09c" transform="translate(436,327)" />
    <path
        d="M0 0 C0.99 8.415 0.99 8.415 2 17 C0.35 17.66 -1.3 18.32 -3 19 C-10.23240005 22.01421159 -17.20908334 25.47237409 -24.17236328 29.05957031 C-25.74464014 29.8686019 -27.32293502 30.66591884 -28.90234375 31.4609375 C-42.51910686 38.54574958 -54.50714939 47.91741456 -66 58 C-67.29051446 59.06389917 -68.58195049 60.12668333 -69.875 61.1875 C-73.65367593 64.4500641 -76.78698029 68.19197664 -80 72 C-80.83660156 72.94875 -81.67320313 73.8975 -82.53515625 74.875 C-94.35307318 88.35678853 -103.20364523 103.43353053 -112 119 C-117.69305433 117.76123355 -123.35370013 116.43723997 -129 115 C-118.86356431 91.71601097 -104.87542722 71.72742619 -87.36523438 53.42822266 C-86.14565415 52.15237424 -84.9390991 50.86410438 -83.734375 49.57421875 C-77.40338758 42.97357816 -70.28969354 37.48543058 -63 32 C-62.43651855 31.57041992 -61.87303711 31.14083984 -61.29248047 30.69824219 C-46.2170709 19.25625736 -19.46281022 0 0 0 Z "
        fill="#27a09c" transform="translate(189,54)" />
    <path
        d="M0 0 C21.51716037 6.53199511 41.09773306 17.56726641 59 31 C59.93457031 31.69996094 60.86914062 32.39992187 61.83203125 33.12109375 C68.4148112 38.23630725 74.50442802 43.90765062 80.5546875 49.63378906 C81.76897094 50.7816151 82.99277097 51.91936185 84.21875 53.0546875 C90.54175862 59.09264245 95.74696663 66.03931269 101 73 C101.43103027 73.56493164 101.86206055 74.12986328 102.30615234 74.71191406 C109.54867516 84.25519981 115.44944214 94.39368246 121 105 C121.38833008 105.7415332 121.77666016 106.48306641 122.17675781 107.24707031 C125 112.74731124 125 112.74731124 125 115 C122.54285453 115.83698386 120.08441143 116.66972424 117.625 117.5 C116.57699219 117.85771484 116.57699219 117.85771484 115.5078125 118.22265625 C110.2265625 120 110.2265625 120 108 120 C107.55011719 119.04222656 107.10023438 118.08445312 106.63671875 117.09765625 C96.63005782 96.22041187 83.39411324 78.34288163 67 62 C66.30261719 61.25621094 65.60523438 60.51242188 64.88671875 59.74609375 C46.58448684 40.53362651 22.39722929 27.75889172 -2 18 C-1.34 12.06 -0.68 6.12 0 0 Z "
        fill="#27a09c" transform="translate(323,55)" />
    <path
        d="M0 0 C5.161066 4.56959448 8.56380942 9.23957809 9.37109375 16.19921875 C9.52370814 24.21596313 8.96781477 30.48797293 4 37 C-1.46713172 42.38854872 -7.14117998 44.9967531 -14.8125 45.375 C-22.06801911 45.22202219 -28.9264563 42.21447547 -34 37 C-39.1314785 30.71713713 -39.77968095 24.5664807 -39.4765625 16.59765625 C-38.53009037 9.45256747 -35.62922792 5.02870397 -30.0625 0.5625 C-20.64137419 -5.77088253 -9.7579522 -5.8678473 0 0 Z M-20.375 14.5625 C-22.63913895 17.95870843 -22.64269755 20.00099302 -22 24 C-20.00979883 26.65884601 -20.00979883 26.65884601 -17 28 C-13.81590023 27.936318 -11.85067668 27.51040601 -9.125 25.875 C-7.29900315 22.83167192 -7.57539419 20.45750445 -8 17 C-9.47993156 14.43661311 -9.47993156 14.43661311 -12 13 C-15.63632575 12.39394571 -17.28314769 12.52838664 -20.375 14.5625 Z "
        fill="#27a09c" transform="translate(271,33)" />
    <path
        d="M0 0 C5.03654575 3.51940763 8.35151038 7.69523705 10.23046875 13.55859375 C11.24283197 22.07607276 11.09677948 29.33818516 6.00390625 36.53515625 C0.53108553 42.77947592 -5.33228416 45.20075124 -13.64453125 45.87109375 C-20.08486079 45.67139361 -26.65718953 43.67059515 -31.41796875 39.17578125 C-37.08511623 32.39485912 -38.60704422 25.64673714 -38.24609375 16.8984375 C-37.25303835 9.93890987 -34.26789989 5.47187537 -28.83203125 1.12109375 C-19.66975768 -5.02682588 -9.63327373 -5.40627286 0 0 Z M-19.14453125 15.12109375 C-21.4086702 18.51730218 -21.4122288 20.55958677 -20.76953125 24.55859375 C-18.77933008 27.21743976 -18.77933008 27.21743976 -15.76953125 28.55859375 C-12.58543148 28.49491175 -10.62020793 28.06899976 -7.89453125 26.43359375 C-6.0685344 23.39026567 -6.34492544 21.0160982 -6.76953125 17.55859375 C-8.24946281 14.99520686 -8.24946281 14.99520686 -10.76953125 13.55859375 C-14.405857 12.95253946 -16.05267894 13.08698039 -19.14453125 15.12109375 Z "
        fill="#27a09c" transform="translate(269.76953125,400.44140625)" />
    <path
        d="M0 0 C5.03654575 3.51940763 8.35151038 7.69523705 10.23046875 13.55859375 C11.24283197 22.07607276 11.09677948 29.33818516 6.00390625 36.53515625 C0.53108553 42.77947592 -5.33228416 45.20075124 -13.64453125 45.87109375 C-20.08486079 45.67139361 -26.65718953 43.67059515 -31.41796875 39.17578125 C-37.08511623 32.39485912 -38.60704422 25.64673714 -38.24609375 16.8984375 C-37.25303835 9.93890987 -34.26789989 5.47187537 -28.83203125 1.12109375 C-19.66975768 -5.02682588 -9.63327373 -5.40627286 0 0 Z M-19.14453125 15.12109375 C-21.4086702 18.51730218 -21.4122288 20.55958677 -20.76953125 24.55859375 C-18.77933008 27.21743976 -18.77933008 27.21743976 -15.76953125 28.55859375 C-12.58543148 28.49491175 -10.62020793 28.06899976 -7.89453125 26.43359375 C-6.0685344 23.39026567 -6.34492544 21.0160982 -6.76953125 17.55859375 C-8.24946281 14.99520686 -8.24946281 14.99520686 -10.76953125 13.55859375 C-14.405857 12.95253946 -16.05267894 13.08698039 -19.14453125 15.12109375 Z "
        fill="#27a09c" transform="translate(473.76953125,216.44140625)" />
    <path
        d="M0 0 C5.03654575 3.51940763 8.35151038 7.69523705 10.23046875 13.55859375 C11.24283197 22.07607276 11.09677948 29.33818516 6.00390625 36.53515625 C0.53108553 42.77947592 -5.33228416 45.20075124 -13.64453125 45.87109375 C-20.08486079 45.67139361 -26.65718953 43.67059515 -31.41796875 39.17578125 C-37.08511623 32.39485912 -38.60704422 25.64673714 -38.24609375 16.8984375 C-37.25303835 9.93890987 -34.26789989 5.47187537 -28.83203125 1.12109375 C-19.66975768 -5.02682588 -9.63327373 -5.40627286 0 0 Z M-19.14453125 15.12109375 C-21.4086702 18.51730218 -21.4122288 20.55958677 -20.76953125 24.55859375 C-18.77933008 27.21743976 -18.77933008 27.21743976 -15.76953125 28.55859375 C-12.58543148 28.49491175 -10.62020793 28.06899976 -7.89453125 26.43359375 C-6.0685344 23.39026567 -6.34492544 21.0160982 -6.76953125 17.55859375 C-8.24946281 14.99520686 -8.24946281 14.99520686 -10.76953125 13.55859375 C-14.405857 12.95253946 -16.05267894 13.08698039 -19.14453125 15.12109375 Z "
        fill="#27a09c" transform="translate(65.76953125,216.44140625)" />
    <path
        d="M0 0 C2.5 1.5 2.5 1.5 4 4 C4.791013 8.02098277 4.62153384 10.96411027 2.5 14.5 C-1.03588973 16.62153384 -3.97901723 16.791013 -8 16 C-10.5 14.5 -10.5 14.5 -12 12 C-12.791013 7.97901723 -12.62153384 5.03588973 -10.5 1.5 C-6.96411027 -0.62153384 -4.02098277 -0.791013 0 0 Z "
        fill="#27a09c" transform="translate(258,232)" />
</svg>