<?xml version="1.0" encoding="UTF-8"?>
<svg version="1.1" xmlns="http://www.w3.org/2000/svg" width="512" height="512">
    <path
        d="M0 0 C3.67481588 1.9214246 6.25315847 4.69522849 8.30522251 8.28029251 C10.72362125 12.31588253 12.5486067 14.63062256 17.21398735 15.81795502 C21.37905158 16.11538705 25.45975262 16.12291273 29.63061523 16.03417969 C31.22456123 16.03331722 32.81851373 16.03649028 34.41244507 16.04338074 C37.83648469 16.04968259 41.2587629 16.02782934 44.68252373 15.98394012 C50.1001213 15.91491416 55.51662026 15.91040571 60.93458557 15.91461182 C70.48176957 15.91375791 80.02804059 15.85779002 89.57495117 15.7901001 C103.94300771 15.68898404 118.31121083 15.63532142 132.6796127 15.62655759 C138.06102759 15.62127314 143.44139139 15.58888336 148.82252681 15.53459215 C152.17495092 15.50532104 155.52721675 15.49648154 158.87975693 15.49270058 C160.42935572 15.48659331 161.97894928 15.47187771 163.52837181 15.44772148 C178.80783222 15.21741961 178.80783222 15.21741961 185 21 C187.1105957 23.39331055 187.1105957 23.39331055 188.67578125 25.88671875 C189.27011963 26.81556885 189.86445801 27.74441895 190.47680664 28.70141602 C191.08258545 29.68682373 191.68836426 30.67223145 192.3125 31.6875 C192.96275146 32.71480225 193.61300293 33.74210449 194.28295898 34.80053711 C196.20872611 37.8550632 198.10902638 40.92383869 200 44 C200.50466797 44.81823242 201.00933594 45.63646484 201.52929688 46.47949219 C203.31907113 49.38756158 205.1012232 52.29997064 206.86865234 55.22167969 C212.18980377 64.01519087 217.75452124 72.65345419 223.28759766 81.31445312 C226.40268164 86.19981437 229.50403413 91.09406379 232.57495117 96.00732422 C235.12067817 100.07242073 237.72008805 104.08598093 240.4140625 108.0546875 C240.97206543 108.89298096 241.53006836 109.73127441 242.10498047 110.5949707 C243.16617595 112.18676392 244.24481117 113.76713232 245.34423828 115.33276367 C248.49710022 120.11292628 249.60948643 123.92158533 249.77050781 129.63842773 C249 132 249 132 243 137 C231.78 137 220.56 137 209 137 C209 209.93 209 282.86 209 358 C221.54 358 234.08 358 247 358 C251 362 251 362 251.49609375 364.03515625 C251.33888048 369.47473525 251.33888048 369.47473525 249.75 371.9375 C245.44826804 374.54926583 240.62123419 374.14137049 235.74432468 374.12863445 C234.47843345 374.13126401 234.47843345 374.13126401 233.18696865 374.13394669 C230.34017016 374.13862334 227.49342238 374.13613691 224.6466217 374.13371277 C222.59258194 374.1355799 220.53854253 374.13788021 218.48450369 374.14057809 C212.82520636 374.14671454 207.16592376 374.14656034 201.50662386 374.14538372 C195.4090614 374.14518018 189.31150373 374.15069396 183.21394348 374.15544128 C171.26262696 374.16375828 159.31131671 374.16650953 147.35999805 374.16705366 C137.64951274 374.16751289 127.93902903 374.16956957 118.22854424 374.17275429 C115.43522483 374.1736518 112.64190543 374.17454162 109.84858602 374.17542917 C109.1541974 374.17565021 108.45980878 374.17587126 107.74437808 374.17609901 C88.20862689 374.18225448 68.67287626 374.18619944 49.13712406 374.18575573 C48.40034981 374.18574015 47.66357556 374.18572457 46.90447481 374.18570852 C43.17003639 374.18562541 39.43559797 374.18552637 35.70115954 374.18542381 C34.58861163 374.1853939 34.58861163 374.1853939 33.45358801 374.18536337 C31.95369277 374.18532294 30.45379754 374.18528114 28.95390231 374.18523798 C5.61127044 374.18462505 -17.7313469 374.19213454 -41.07397461 374.20581055 C-67.28726039 374.22116202 -93.50053663 374.22977735 -119.71382719 374.22884732 C-122.50746095 374.22877269 -125.30109471 374.22872399 -128.09472847 374.22869301 C-128.78261429 374.22868135 -129.47050012 374.2286697 -130.17923096 374.22865769 C-141.26164002 374.22862689 -152.3440365 374.2350198 -163.42644181 374.24362527 C-174.55866692 374.25209083 -185.69087377 374.25292832 -196.82310193 374.24651595 C-202.85703478 374.24323961 -208.8909219 374.24323403 -214.92485046 374.2518692 C-220.44355854 374.25968606 -225.96218427 374.25835245 -231.48089022 374.24958507 C-233.48219264 374.24803941 -235.48350105 374.24990595 -237.4847964 374.25544515 C-240.1961265 374.26245524 -242.90716373 374.2572511 -245.61848354 374.24888897 C-246.40316911 374.25385715 -247.18785469 374.25882533 -247.99631861 374.26394406 C-253.2936779 374.22918591 -257.17638111 373.82361889 -261 370 C-261.40579125 365.80682376 -261.64590514 363.2302955 -259.6875 359.5 C-255.35603598 357.08243869 -250.85001072 357.69896485 -246 358 C-246.04640625 356.77023437 -246.0928125 355.54046875 -246.140625 354.2734375 C-246.17816036 352.6406494 -246.21455862 351.00783489 -246.25 349.375 C-246.30027344 348.16263672 -246.30027344 348.16263672 -246.3515625 346.92578125 C-246.44098736 341.42615256 -245.67364918 338.35993529 -242 334 C-238.29277083 331.07324013 -235.67259219 330.6740052 -231 331 C-231.04640625 330.35675781 -231.0928125 329.71351563 -231.140625 329.05078125 C-231.57925114 318.06946259 -228.93247446 307.47685059 -221.40382671 299.25735855 C-219.50673584 296.2068294 -219.61530748 294.02646834 -219.60127258 290.44476318 C-219.59462576 289.78797711 -219.58797893 289.13119103 -219.58113068 288.45450234 C-219.56249096 286.25564313 -219.56510649 284.0573276 -219.56762695 281.85839844 C-219.55861035 280.28146597 -219.54828337 278.70454053 -219.53674316 277.12762451 C-219.50913499 272.84698772 -219.49988349 268.56648377 -219.49388909 264.28576946 C-219.48451534 259.81206166 -219.45831278 255.33845349 -219.43388367 250.86480713 C-219.39018744 242.39346069 -219.36165967 233.92213354 -219.33856028 225.45070863 C-219.31152534 215.80624397 -219.26761279 206.16187936 -219.22227156 196.5174861 C-219.12938057 176.67837786 -219.05772023 156.83923968 -219 137 C-219.99854004 137.02618408 -220.99708008 137.05236816 -222.02587891 137.0793457 C-225.74928159 137.17020673 -229.47258738 137.22737771 -233.19677734 137.2746582 C-234.80501818 137.29972128 -236.41314602 137.33378171 -238.02099609 137.37719727 C-240.33980239 137.43821848 -242.65709665 137.46628963 -244.9765625 137.48828125 C-245.68930328 137.51408768 -246.40204407 137.5398941 -247.13638306 137.56648254 C-251.02205854 137.56863975 -253.4649916 137.00955602 -256.45330811 134.61708069 C-259 132 -259 132 -259.77050781 129.63842773 C-259.57781992 122.79730936 -257.64568047 118.61002537 -253.75 113.0625 C-252.64002397 111.39753595 -251.53066615 109.73215962 -250.421875 108.06640625 C-249.85146484 107.22609863 -249.28105469 106.38579102 -248.69335938 105.52001953 C-246.03888287 101.56968699 -243.52420071 97.53428831 -241 93.5 C-240.00073584 91.91620216 -239.00073384 90.33286962 -238 88.75 C-237.505 87.96625 -237.01 87.1825 -236.5 86.375 C-231 77.66666667 -225.5 68.95833333 -220 60.25 C-219.50443604 59.4652832 -219.00887207 58.68056641 -218.49829102 57.87207031 C-217.50425737 56.29833219 -216.50995659 54.72476277 -215.51538086 53.15136719 C-212.92181164 49.04761304 -210.33378327 44.94050296 -207.75390625 40.828125 C-207.21958984 39.97798828 -206.68527344 39.12785156 -206.13476562 38.25195312 C-205.12000481 36.63715983 -204.10686419 35.02134672 -203.09570312 33.40429688 C-201.74620171 31.25898378 -200.3759283 29.12842895 -199 27 C-198.60022949 26.35353516 -198.20045898 25.70707031 -197.78857422 25.04101562 C-197.39299316 24.43451172 -196.99741211 23.82800781 -196.58984375 23.203125 C-196.09085571 22.41663574 -196.09085571 22.41663574 -195.58178711 21.61425781 C-190.80139848 16.73573804 -186.75662468 15.7298445 -180.04412842 15.5684967 C-177.16748997 15.56414345 -174.29312369 15.61049224 -171.41699219 15.66040039 C-169.8279304 15.67295996 -168.2388521 15.68355904 -166.64976501 15.69235229 C-163.23604807 15.71423368 -159.8227041 15.74759268 -156.40917206 15.78923225 C-151.00360731 15.85272244 -145.59833365 15.87590743 -140.19244385 15.89097595 C-124.82323297 15.93856008 -109.45478037 16.01501064 -94.08642578 16.18823242 C-85.59166542 16.2836454 -77.09796389 16.33236818 -68.60265279 16.32950205 C-64.11253022 16.33004567 -59.62542996 16.35465528 -55.13600922 16.43742561 C-50.90937651 16.51529577 -46.68677842 16.53209569 -42.45956612 16.50362778 C-40.91595137 16.50396975 -39.37214632 16.52629958 -37.82924461 16.57321358 C-29.61020501 16.92127854 -29.61020501 16.92127854 -22.29575062 13.68441844 C-19.58320333 11.00504418 -17.32171907 8.10118602 -15.13318253 4.98618221 C-11.04480824 -0.73701794 -6.60031292 -1.11852631 0 0 Z M-7.77734375 20.6953125 C-12.61477826 26.13633287 -17.17332057 31.71024915 -21.6262207 37.46655273 C-25.67835971 42.67124416 -29.96343303 47.64554351 -34.3059082 52.60864258 C-38.14826704 57.00357954 -41.88891074 61.46554682 -45.56640625 66 C-53.33100741 75.57177157 -61.18061238 85.07306135 -69.16308594 94.46386719 C-73.5117715 99.5862255 -77.76183759 104.78614553 -82 110 C-90.10480183 119.97065549 -90.10480183 119.97065549 -93.9765625 124.4765625 C-94.47881348 125.06260254 -94.98106445 125.64864258 -95.49853516 126.25244141 C-96.48120625 127.39617469 -97.46772145 128.53661915 -98.45849609 129.67333984 C-100.55750403 132.11751461 -101.96985101 133.90955303 -103 137 C-99.16771463 137.64468352 -95.82050959 137.78788719 -92 137 C-88.31721576 134.19775221 -85.75709463 130.68934965 -83 127 C-81.54790065 125.22405116 -80.08951357 123.45322558 -78.625 121.6875 C-77.51705078 120.31851563 -77.51705078 120.31851563 -76.38671875 118.921875 C-73.77609633 115.72589208 -71.11283497 112.57924943 -68.4375 109.4375 C-65.23243556 105.66926467 -62.07311606 101.87753089 -59 98 C-55.4724383 93.54906837 -51.81977957 89.21680023 -48.14111328 84.89111328 C-43.69008308 79.65125391 -39.33656652 74.33491277 -35 69 C-29.693506 62.47186709 -24.36214663 55.9673303 -18.88208008 49.58374023 C-16.930759 47.3090948 -15.02641718 45.03591085 -13.25 42.62109375 C-10.79886039 39.32404455 -9.22717221 38.06815166 -5.25 36.875 C0.2377768 37.3871925 3.16794785 41.89350883 6.4921875 45.86328125 C7.32883529 46.9082859 8.16478873 47.95384688 9 49 C9.76570313 49.92167969 10.53140625 50.84335938 11.3203125 51.79296875 C13.57080558 54.51002747 15.787957 57.25158551 18 60 C22.77645596 65.88267287 27.59474122 71.7245082 32.5 77.5 C38.14840972 84.15048379 43.66823149 90.90120564 49.171875 97.671875 C53.69049838 103.21600155 58.27113806 108.70067768 62.90258789 114.15039062 C65.91030808 117.69522257 68.87522949 121.27128996 71.8125 124.875 C72.54339844 125.75542969 73.27429688 126.63585937 74.02734375 127.54296875 C76 130 76 130 77.50390625 132.23828125 C78.91283587 134.24128946 79.96215293 135.63537027 82 137 C85.74075316 137.56111297 89.25024538 137.42034616 93 137 C90.65020293 132.73702355 87.70524692 129.19340781 84.5 125.5625 C80.3780885 120.83039805 76.39653015 116.03049929 72.5625 111.0625 C68.13180556 105.33662986 63.47175548 99.85093798 58.7043457 94.40356445 C54.00982456 89.035692 49.4811399 83.54728471 45 78 C40.22224285 72.11835672 35.40528038 66.27551723 30.5 60.5 C24.85159028 53.84951621 19.33176851 47.09879436 13.828125 40.328125 C11.56010747 37.54538008 9.28253151 34.77085268 7 32 C6.52675293 31.4229834 6.05350586 30.8459668 5.56591797 30.25146484 C4.07108104 28.43315819 2.56781416 26.6221376 1.0625 24.8125 C0.5895752 24.23516113 0.11665039 23.65782227 -0.37060547 23.06298828 C-1.53621132 21.67044283 -2.76325382 20.32976641 -4 19 C-6.16816789 18.76992969 -6.16816789 18.76992969 -7.77734375 20.6953125 Z M-185.86029053 34.91757202 C-187.11559924 37.76491648 -187.11559924 37.76491648 -187 40 C-185.16840332 40.029729 -185.16840332 40.029729 -183.29980469 40.06005859 C-178.76720646 40.13616123 -174.2349273 40.22487161 -169.70263672 40.31738281 C-167.7414378 40.35565327 -165.78016916 40.39050954 -163.81884766 40.421875 C-160.99877003 40.4675674 -158.17917162 40.525555 -155.359375 40.5859375 C-154.48319519 40.59748871 -153.60701538 40.60903992 -152.70428467 40.62094116 C-151.88373596 40.64081085 -151.06318726 40.66068054 -150.21777344 40.68115234 C-149.13855621 40.70113785 -149.13855621 40.70113785 -148.03753662 40.7215271 C-145.65833997 41.04669514 -144.04120167 41.74607346 -142 43 C-140.57958179 45.84083641 -140.68547728 47.85477278 -141 51 C-143.01402551 53.58158085 -144.19339466 54.84924386 -147.45272827 55.4584198 C-148.3672879 55.4401564 -149.28184753 55.42189301 -150.22412109 55.40307617 C-151.26555267 55.39374557 -152.30698425 55.38441498 -153.37997437 55.37480164 C-154.4998172 55.34779678 -155.61966003 55.32079193 -156.7734375 55.29296875 C-159.14843205 55.28309336 -161.52343302 55.27467501 -163.8984375 55.26757812 C-167.64064703 55.23440251 -171.38140895 55.18737351 -175.12304688 55.11352539 C-178.73657659 55.05042672 -182.34693257 55.0430473 -185.9609375 55.04296875 C-187.07673187 55.00584274 -188.19252625 54.96871674 -189.34213257 54.9304657 C-195.2779924 54.89210172 -195.2779924 54.89210172 -200.07843018 57.99771118 C-203.02418085 62.15214866 -203.02418085 62.15214866 -204 67 C-186.14546772 67.23383391 -168.29133396 67.410055 -150.43560028 67.51812172 C-142.14437101 67.56963819 -133.8540943 67.63984138 -125.56347656 67.75439453 C-118.33539639 67.85421858 -111.10800612 67.91861685 -103.87925577 67.94088495 C-100.05292736 67.95389854 -96.22857216 67.98436696 -92.40287781 68.05730057 C-88.79727528 68.12547768 -85.19444655 68.14606119 -81.58826065 68.13107681 C-79.64281956 68.13511555 -77.69767709 68.18878509 -75.75302124 68.24420166 C-68.99246074 68.17532011 -68.99246074 68.17532011 -63.38514709 64.73258591 C-59.7718996 60.79448919 -59.7718996 60.79448919 -58 56 C-58.71774597 55.99635437 -59.43549194 55.99270874 -60.17498779 55.98895264 C-66.94341934 55.95106538 -73.71145507 55.89420452 -80.47953415 55.81609726 C-83.95903137 55.77660949 -87.43827505 55.7444279 -90.91796875 55.72900391 C-94.91968376 55.71094453 -98.92045124 55.66100019 -102.921875 55.609375 C-104.16990906 55.60814636 -105.41794312 55.60691772 -106.70379639 55.60565186 C-108.44514862 55.57607391 -108.44514862 55.57607391 -110.22167969 55.54589844 C-111.24316101 55.53701599 -112.26464233 55.52813354 -113.31707764 55.51898193 C-116.71079816 54.86250389 -117.91207089 53.7096697 -120 51 C-120.50299316 46.89222251 -120.32749345 45.49124017 -118 42 C-114.53708384 40.84569461 -111.89038844 40.8962658 -108.23706055 40.92163086 C-106.82102025 40.92774582 -105.40497914 40.93367268 -103.98893738 40.93943787 C-103.23929403 40.94411009 -102.48965069 40.94878231 -101.71729088 40.95359612 C-97.74184363 40.97278212 -93.76647678 40.95756243 -89.79101562 40.94726562 C-84.73445614 40.93501821 -79.6787427 40.93334114 -74.62231445 40.97583008 C-70.53344137 41.00928063 -66.4462391 41.00376047 -62.35737038 40.97226143 C-60.80209129 40.96734315 -59.2466986 40.97659125 -57.69159508 41.00047112 C-55.50956183 41.03200765 -53.33306877 41.01365025 -51.15112305 40.98413086 C-49.91218796 40.98714706 -48.67325287 40.99016327 -47.39677429 40.99327087 C-42.44661909 39.54576669 -40.6340611 36.25831794 -38 32 C-56.83646706 31.85989863 -75.67282854 31.75406286 -94.5097084 31.68912697 C-103.25583553 31.65817592 -112.00163912 31.61597196 -120.74755859 31.54736328 C-128.36966373 31.48759899 -135.99153459 31.44885992 -143.61386752 31.43546903 C-147.65076364 31.42764004 -151.68698948 31.40921563 -155.72367096 31.36561966 C-159.52248385 31.32492465 -163.32034981 31.31232406 -167.11935997 31.32135391 C-168.51420677 31.31970181 -169.90908488 31.30774668 -171.30374336 31.28476715 C-179.5427495 30.67391186 -179.5427495 30.67391186 -185.86029053 34.91757202 Z M28 32 C29.55749213 35.23541937 31.24457715 37.67421807 34 40 C38.58803148 41.19296577 43.09118004 41.01132781 47.80810547 40.90820312 C49.21783824 40.90594474 50.62758042 40.90721671 52.03730774 40.91174316 C55.85377625 40.91403413 59.66822413 40.86707999 63.48422384 40.8111515 C67.47596011 40.76106307 71.46774528 40.75643566 75.45974731 40.74694824 C83.01421907 40.72210555 90.56776213 40.65648825 98.12182534 40.57615232 C106.72384584 40.48666193 115.32591125 40.44272955 123.92828155 40.40258884 C141.61938044 40.31901904 159.3096155 40.17835047 177 40 C175.87548273 37.0280615 174.77706209 34.66559313 173 32 C170.37894236 31.55133683 170.37894236 31.55133683 167.25473022 31.63923645 C166.03192856 31.63511246 164.80912689 31.63098846 163.54927063 31.6267395 C162.18697902 31.63735762 160.82468961 31.64826206 159.46240234 31.65942383 C158.03355426 31.66026968 156.60470487 31.65979577 155.17585754 31.65809631 C151.28962279 31.6572333 147.40366414 31.67490823 143.51749372 31.69581819 C139.45891172 31.71453424 135.40032383 31.71633141 131.34170532 31.71989441 C123.65290418 31.72922983 115.96423055 31.75386378 108.27548563 31.78394288 C99.52350767 31.8174404 90.77152371 31.83396118 82.01949763 31.84902918 C64.01292605 31.8804121 46.00647326 31.93320158 28 32 Z M48 56 C48.40992188 56.54269531 48.81984375 57.08539063 49.2421875 57.64453125 C49.78101563 58.35996094 50.31984375 59.07539063 50.875 59.8125 C51.40867187 60.52019531 51.94234375 61.22789062 52.4921875 61.95703125 C53.70814781 63.60456297 54.86416141 65.29624211 56 67 C58.50346102 67.44819821 58.50346102 67.44819821 61.47952271 67.36076355 C63.22537659 67.36694954 63.22537659 67.36694954 65.00650024 67.3732605 C66.28971161 67.36247467 67.57292297 67.35168884 68.89501953 67.34057617 C70.25490297 67.33973029 71.61478777 67.34020428 72.97467041 67.34190369 C76.67290043 67.3427666 80.37084023 67.32509331 84.06900263 67.30418181 C87.93139339 67.2854641 91.79379036 67.28366846 95.65621948 67.28010559 C102.97315609 67.27077065 110.28995868 67.24613738 117.6068362 67.21605712 C125.93560485 67.18255807 134.2643798 67.16603844 142.59319901 67.15097082 C159.72887694 67.119589 176.86442431 67.06680049 194 67 C193.69667629 66.24244226 193.39335258 65.48488453 193.08083725 64.7043705 C192.285552 62.71448167 191.49480418 60.72277789 190.706604 58.73007202 C186.87809512 54.86836747 183.9082409 55.29034992 178.61773682 55.253479 C176.67565338 55.28583649 176.67565338 55.28583649 174.69433594 55.31884766 C173.31445388 55.32054046 171.93456642 55.3195894 170.5546875 55.31619263 C166.8107685 55.3144707 163.0680023 55.34975037 159.32435131 55.39163637 C155.41130096 55.4291387 151.49822431 55.43266829 147.58502197 55.43978882 C140.17587985 55.4584393 132.76726878 55.5076785 125.35836053 55.56788576 C116.92319504 55.63494506 108.48800421 55.66793834 100.05263853 55.69805837 C82.70145182 55.76077784 65.35078205 55.86631618 48 56 Z M-6 58 C-7.76657522 59.89944584 -9.42117093 61.80891574 -11.0625 63.8125 C-11.55492187 64.40417969 -12.04734375 64.99585938 -12.5546875 65.60546875 C-14.04338594 67.3980617 -15.52330507 69.19751147 -17 71 C-18.15822266 72.41345703 -18.15822266 72.41345703 -19.33984375 73.85546875 C-20.79356979 75.6351659 -22.24535898 77.41644672 -23.6953125 79.19921875 C-26.22033075 82.26775787 -28.79484769 85.29039812 -31.375 88.3125 C-35.15792492 92.74851603 -38.80532737 97.26600643 -42.375 101.875 C-46.82926201 107.61865365 -51.50929095 113.1273402 -56.29541016 118.59619141 C-60.99009762 123.96415344 -65.51726403 129.45384126 -70 135 C-71.66527287 137.04280367 -73.33192041 139.08448755 -75 141.125 C-76.11375 142.49011719 -76.11375 142.49011719 -77.25 143.8828125 C-78.13277792 144.95081615 -79.02022231 146.02022231 -80 147 C-80.09785825 149.71853757 -80.12993566 152.41166147 -80.12025452 155.13063049 C-80.12110894 155.99311447 -80.12196337 156.85559844 -80.12284368 157.74421829 C-80.12450114 160.65705481 -80.1189728 163.56983473 -80.11352539 166.48266602 C-80.11324355 168.5616048 -80.11340119 170.64054369 -80.1139679 172.71948242 C-80.11425599 178.38247439 -80.10835731 184.04544537 -80.10139394 189.70843244 C-80.09516241 195.61949893 -80.09455676 201.53056586 -80.09336853 207.44163513 C-80.09025462 218.64367695 -80.08204043 229.84570906 -80.07201904 241.0477466 C-80.06085975 253.79722363 -80.05534792 266.54670111 -80.05032361 279.2961818 C-80.03985786 305.53079344 -80.02205694 331.76539577 -80 358 C-70.76 358 -61.52 358 -52 358 C-51.98541748 354.30014893 -51.97083496 350.60029785 -51.95581055 346.78833008 C-51.90551122 334.57461176 -51.83907502 322.36102618 -51.76428509 310.14743519 C-51.71932769 302.74112687 -51.67991295 295.33486663 -51.65356445 287.9284668 C-51.63058384 281.47271891 -51.59718527 275.01712317 -51.55129844 268.56149596 C-51.52736685 265.1435573 -51.50863775 261.72576932 -51.50238609 258.30774879 C-51.49278639 254.49115115 -51.4647751 250.67510516 -51.43237305 246.85864258 C-51.43380814 245.72647812 -51.43524323 244.59431366 -51.4367218 243.42784119 C-51.42418365 242.38602692 -51.41164551 241.34421265 -51.39872742 240.27082825 C-51.39411845 239.36839292 -51.38950949 238.46595758 -51.38476086 237.53617573 C-50.91197091 234.41975065 -49.83509875 232.54518956 -48 230 C-43.51955741 227.0638997 -39.93228248 226.61829636 -34.63696289 226.59594727 C-33.92556656 226.58908401 -33.21417023 226.58222076 -32.48121643 226.57514954 C-30.14482291 226.55694567 -27.80910503 226.56070963 -25.47265625 226.56640625 C-23.83890059 226.56184129 -22.20514685 226.55653478 -20.57139587 226.55052185 C-17.15274234 226.54160332 -13.73432257 226.54399936 -10.31567383 226.55395508 C-5.94656177 226.56544231 -1.57825824 226.54523121 2.79074764 226.51603794 C6.16322407 226.49764321 9.5355079 226.49797489 12.90802193 226.50367546 C14.51828711 226.50382828 16.12856568 226.49781651 17.73878288 226.48538399 C19.99555246 226.47041317 22.25084331 226.48119353 24.50756836 226.49829102 C25.7885289 226.49845718 27.06948944 226.49862335 28.38926697 226.49879456 C32.95155482 227.13208522 35.23584865 228.35443727 39 231 C40.99456282 234.07115809 41.25629699 236.52850782 41.2784729 240.15057373 C41.28963638 241.19101334 41.30079987 242.23145294 41.31230164 243.30342102 C41.31446182 244.43918076 41.31662201 245.57494049 41.31884766 246.74511719 C41.32889328 247.94539047 41.3389389 249.14566376 41.34928894 250.38230896 C41.37487601 253.66916551 41.3917342 256.95592797 41.40471697 260.24285412 C41.4203535 263.67955115 41.44714204 267.1161608 41.4727478 270.55279541 C41.51952638 277.05854251 41.55627491 283.56430607 41.58942068 290.07013535 C41.62764859 297.47763813 41.67705699 304.88505313 41.72740483 312.2924819 C41.83071102 327.52826422 41.9184997 342.76408306 42 358 C51.24 358 60.48 358 70 358 C70.03758423 353.75225708 70.03758423 353.75225708 70.07592773 349.41870117 C70.15930817 340.07482471 70.24800608 330.73100421 70.33933926 321.38720226 C70.39456427 315.72063849 70.44798367 310.05406956 70.49731445 304.38745117 C70.54496412 298.92150121 70.59730726 293.4556147 70.65294075 287.98974037 C70.67336155 285.90171191 70.69207509 283.81366604 70.70907402 281.72560692 C70.733124 278.80683461 70.76317792 275.88818248 70.79467773 272.96948242 C70.8004332 272.10129883 70.80618866 271.23311523 70.81211853 270.33862305 C70.85341035 266.98487367 70.93233341 264.20299977 72 261 C73.60184626 260.8647597 75.20696626 260.76789153 76.8125 260.6875 C77.70582031 260.62949219 78.59914063 260.57148438 79.51953125 260.51171875 C82 261 82 261 83.62800598 262.96720886 C85.48186285 267.06515725 85.43989042 270.56408556 85.43237305 275.01293945 C85.44778373 276.38172509 85.44778373 276.38172509 85.46350574 277.77816296 C85.4933244 280.72327032 85.50292482 283.66804396 85.51171875 286.61328125 C85.52718781 288.43502974 85.54398521 290.25676745 85.56213379 292.07849121 C85.62001903 298.82304187 85.65220654 305.56779329 85.6875 312.3125 C85.790625 327.389375 85.89375 342.46625 86 358 C121.31 358 156.62 358 193 358 C193 285.07 193 212.14 193 137 C187.06 136.67 181.12 136.34 175 136 C172 132 172 132 171.92578125 129.640625 C172.05339844 128.85171875 172.18101562 128.0628125 172.3125 127.25 C172.43238281 126.45078125 172.55226563 125.6515625 172.67578125 124.828125 C172.83626953 123.92320312 172.83626953 123.92320312 173 123 C176.43143417 122.2323484 179.64406124 121.85694069 183.1574707 121.79467773 C184.15813065 121.77473251 185.15879059 121.75478729 186.18977356 121.73423767 C187.79159737 121.70916893 187.79159737 121.70916893 189.42578125 121.68359375 C190.52850876 121.66281265 191.63123627 121.64203156 192.76737976 121.62062073 C196.28235778 121.55535068 199.79740912 121.49634505 203.3125 121.4375 C205.69857523 121.39429335 208.08464309 121.35067837 210.47070312 121.30664062 C216.31372506 121.1996924 222.15681958 121.09788445 228 121 C227.4025696 119.30728055 226.71573527 117.64619113 226 116 C225.56782166 114.96475189 225.13564331 113.92950378 224.69036865 112.86288452 C221.59010644 109.56382263 220.95095217 109.54132042 216.62164307 109.2784729 C214.31582253 109.26103964 212.00961042 109.27712005 209.70410156 109.31884766 C207.8159095 109.31753342 207.8159095 109.31753342 205.88957214 109.31619263 C202.44105727 109.31447136 198.99379508 109.3497393 195.54557133 109.39163637 C191.94082559 109.42915029 188.33605096 109.43266919 184.73114014 109.43978882 C177.90633951 109.45843598 171.08211571 109.50767037 164.25756907 109.56788576 C156.48745184 109.63495565 148.71730702 109.66794095 140.94697237 109.69805837 C124.9643142 109.76077024 108.98223149 109.86630172 93 110 C96.6814831 117.27979906 96.6814831 117.27979906 103.07006836 121.54873657 C105.63713427 121.77483523 108.14197598 121.80458537 110.71875 121.76953125 C112.12199524 121.78653328 112.12199524 121.78653328 113.55358887 121.80387878 C116.53629224 121.83455857 119.51719268 121.82477394 122.5 121.8125 C125.48222395 121.82669648 128.46426445 121.84913599 131.44641113 121.87467957 C133.29947985 121.88765615 135.15262825 121.89248643 137.0057373 121.88813782 C141.13673383 121.89097084 144.97141137 121.94971909 149 123 C149.2506019 124.41303238 149.47461921 125.83079474 149.6875 127.25 C149.87892578 128.43335938 149.87892578 128.43335938 150.07421875 129.640625 C149.97444211 132.81247179 149.27685759 133.79379565 147 136 C144.43505382 136.42714081 142.27677795 136.6047623 139.70703125 136.609375 C139.00100266 136.62591125 138.29497406 136.64244751 137.56755066 136.65948486 C135.31577908 136.70801288 133.06468291 136.72934438 130.8125 136.75 C129.28447114 136.77815599 127.75647381 136.80808291 126.22851562 136.83984375 C122.48573272 136.91377194 118.74332576 136.96331623 115 137 C115.08741455 137.61488281 115.1748291 138.22976562 115.26489258 138.86328125 C115.36954834 139.67152344 115.4742041 140.47976562 115.58203125 141.3125 C115.6900708 142.11300781 115.79811035 142.91351563 115.90942383 143.73828125 C116.03674184 146.91745652 115.02035727 148.6055025 113 151 C110.37276604 152.31361698 108.27389439 152.21253909 105.3359375 152.31640625 C104.21445312 152.35830078 103.09296875 152.40019531 101.9375 152.44335938 C100.761875 152.48267578 99.58625 152.52199219 98.375 152.5625 C96.59996094 152.62727539 96.59996094 152.62727539 94.7890625 152.69335938 C91.85949672 152.79967426 88.92984412 152.90170642 86 153 C85.98969254 153.99114304 85.97938507 154.98228607 85.96876526 156.00346375 C85.87098414 165.34671813 85.76824561 174.68990661 85.66066074 184.0330534 C85.60551029 188.83638439 85.55210297 193.63972156 85.50268555 198.44311523 C85.4549257 203.07914757 85.40257887 207.71510756 85.34705925 212.35105324 C85.32668829 214.11924244 85.30796666 215.88745145 85.29092598 217.65567589 C85.26676528 220.13339765 85.23672705 222.61098398 85.20532227 225.08862305 C85.1995668 225.81870575 85.19381134 226.54878845 85.18788147 227.30099487 C85.1348605 230.9842343 84.87049768 234.41639167 84 238 C82.58696762 238.2506019 81.16920526 238.47461921 79.75 238.6875 C78.56664062 238.87892578 78.56664062 238.87892578 77.359375 239.07421875 C75 239 75 239 72.87872314 238.01834106 C70.00103902 234.92680091 70.49380688 231.63456462 70.58105469 227.63232422 C70.58356735 226.77827499 70.58608002 225.92422577 70.58866882 225.04429626 C70.5960862 223.18796415 70.61236739 221.33165134 70.63640594 219.47546005 C70.67215058 216.53199392 70.67981123 213.58969625 70.67926025 210.64602661 C70.68188454 202.27668295 70.7281393 193.90798897 70.81103516 185.5390625 C70.85977152 180.41949765 70.86939906 175.30103713 70.85544586 170.18127823 C70.85804792 168.23487667 70.87562252 166.2884328 70.90877533 164.34231186 C71.50901875 152.00163112 71.50901875 152.00163112 66.09399414 141.41162109 C64.75800339 140.24086137 63.39656238 139.09779922 62 138 C60.54780908 136.26217153 59.10745164 134.51426857 57.6875 132.75 C54.38734088 128.67999244 51.02813941 124.67093139 47.625 120.6875 C43.84192098 116.25162082 40.19466645 111.73398558 36.625 107.125 C32.17073799 101.38134635 27.49070905 95.8726598 22.70458984 90.40380859 C18.00986743 85.0358066 13.48391489 79.5452452 9 74 C7.39682606 72.04085389 5.79266345 70.0825164 4.1875 68.125 C2.03790271 65.50162991 -0.08840732 62.8833088 -2.13671875 60.1796875 C-3.05904297 59.10074219 -3.05904297 59.10074219 -4 58 C-4.66 58 -5.32 58 -6 58 Z M-220.14712334 89.87185764 C-221.12399988 91.92729738 -221.12399988 91.92729738 -221 94 C-203.94501905 94.23394707 -186.89054108 94.41010954 -169.83432102 94.51812172 C-161.91414714 94.56961463 -153.99497206 94.63977167 -146.07543945 94.75439453 C-139.1700015 94.85429202 -132.26528702 94.91863398 -125.35914654 94.94088495 C-121.70433028 94.95388646 -118.05158301 94.98427461 -114.39743233 95.05730057 C-110.31034059 95.13831063 -106.22680857 95.13988572 -102.13891602 95.13525391 C-100.33600601 95.18918304 -100.33600601 95.18918304 -98.49667358 95.24420166 C-93.39155188 95.18171211 -90.24609287 95.00494341 -86.18848991 91.73258591 C-82.12181158 87.85988577 -82.12181158 87.85988577 -80 83 C-97.49799652 82.78968282 -114.99559821 82.63101541 -132.49456978 82.53369045 C-140.61985672 82.48729768 -148.74435801 82.42406005 -156.86914062 82.32104492 C-163.95143912 82.23129044 -171.03316866 82.17326518 -178.11602008 82.15320355 C-181.86611996 82.141477 -185.61459238 82.1139602 -189.36417007 82.04842949 C-193.55226801 81.97582973 -197.73754439 81.97409347 -201.92626953 81.97827148 C-203.16704758 81.945914 -204.40782562 81.91355652 -205.686203 81.88021851 C-213.27317149 81.96225765 -216.43455755 83.08045312 -220.14712334 89.87185764 Z M70 83 C70.93441535 84.27310312 71.87267111 85.543388 72.8125 86.8125 C73.59560547 87.87404297 73.59560547 87.87404297 74.39453125 88.95703125 C74.92433594 89.63121094 75.45414062 90.30539063 76 91 C76.67491722 91.86088966 76.67491722 91.86088966 77.36346912 92.73917103 C79.71330032 94.54954644 81.42798861 94.36915103 84.37199402 94.36076355 C85.48678635 94.36488754 86.60157867 94.36901154 87.75015259 94.3732605 C89.58542007 94.35708176 89.58542007 94.35708176 91.45776367 94.34057617 C93.38962776 94.34123329 93.38962776 94.34123329 95.36051941 94.34190369 C98.89341217 94.34276541 102.42600016 94.32511124 105.95882201 94.30418181 C109.65037353 94.28544444 113.34193182 94.2836669 117.03352356 94.28010559 C124.02460307 94.27077645 131.01554207 94.246151 138.00655967 94.21605712 C145.96534552 94.18254007 153.92413804 94.1660339 161.88297689 94.15097082 C178.25540022 94.11960214 194.62768219 94.06682486 211 94 C208.77273205 88.03819262 208.77273205 88.03819262 205 83 C200.73061843 82.09468702 196.50168186 82.24368442 192.15332031 82.31884766 C190.83600418 82.3179715 189.51868805 82.31709534 188.16145325 82.31619263 C184.55180969 82.31447099 180.94336229 82.34974557 177.33399677 82.39163637 C173.56108477 82.42914374 169.78814535 82.43266868 166.01507568 82.43978882 C158.87154378 82.45843786 151.7285628 82.50767497 144.5852735 82.56788576 C136.45240254 82.63494966 128.31950527 82.66793947 120.18642664 82.69805837 C103.45729524 82.76077455 86.72871792 82.86630987 70 83 Z M-237.12775993 116.87185764 C-238.12641408 118.92510665 -238.12641408 118.92510665 -238 121 C-221.57966269 121.23388951 -205.15986784 121.41008104 -188.73826599 121.51812172 C-181.1128665 121.56962705 -173.48850354 121.63980731 -165.86376953 121.75439453 C-159.21580359 121.85425467 -152.56858839 121.91862499 -145.91989326 121.94088495 C-142.40089059 121.953893 -138.88403499 121.984321 -135.36572266 122.05730057 C-131.43221668 122.13822605 -127.50078603 122.13988765 -123.56640625 122.13525391 C-122.40762466 122.17120667 -121.24884308 122.20715942 -120.0549469 122.24420166 C-115.15395488 122.1817966 -112.2002789 122.06590656 -108.44674683 118.73258591 C-104.80834673 114.78967323 -104.80834673 114.78967323 -103 110 C-119.71569571 109.78966244 -136.43096157 109.63100577 -153.14766121 109.53369045 C-160.90976346 109.48730178 -168.67104304 109.4240726 -176.43261719 109.32104492 C-183.19848966 109.23127715 -189.96376638 109.17326217 -196.73021781 109.15320355 C-200.31267743 109.14147904 -203.89343291 109.11397712 -207.47534561 109.04842949 C-211.47667913 108.97580206 -215.47506025 108.97409419 -219.47705078 108.97827148 C-220.6617244 108.945914 -221.84639801 108.91355652 -223.06697083 108.88021851 C-230.51631442 108.9644878 -233.47063123 110.25677024 -237.12775993 116.87185764 Z M-203 137 C-203 186.5 -203 236 -203 287 C-198.38 286.67 -193.76 286.34 -189 286 C-179.31028816 287.05322955 -171.49139557 289.80455001 -164.1875 296.375 C-160.63735534 299.14584461 -157.9149627 299.45678014 -153.4375 299.375 C-148.7316113 298.77390259 -146.28641594 297.98592628 -143.25 294.3125 C-142.72664063 293.59320313 -142.20328125 292.87390625 -141.6640625 292.1328125 C-137.02818743 286.19105713 -129.34498275 282.30384309 -122 281 C-112.31591797 280.22527344 -105.63549648 281.37213732 -96 284 C-96 240.77 -96 197.54 -96 153 C-104.25 152.67 -112.5 152.34 -121 152 C-125 149 -125 149 -125.64453125 147.09765625 C-125.69996094 146.42605469 -125.75539063 145.75445312 -125.8125 145.0625 C-125.88082031 144.39347656 -125.94914062 143.72445312 -126.01953125 143.03515625 C-126 141 -126 141 -125 137 C-150.74 137 -176.48 137 -203 137 Z M-36 242 C-36 280.28 -36 318.56 -36 358 C-15.54 358 4.92 358 26 358 C26 319.72 26 281.44 26 242 C5.54 242 -14.92 242 -36 242 Z M-134 306 C-134.8550861 307.44568611 -135.68923381 308.90400077 -136.5 310.375 C-138.43578707 313.68891362 -138.67033713 313.90337468 -142.625 315.0625 C-146 315 -146 315 -149 314 C-155.43581151 313.46368237 -158.74533474 314.18779187 -164 318 C-167.88756611 322.5145929 -167 324.3474423 -167 331 C-143.57 331 -120.14 331 -96 331 C-96 322.42 -96 313.84 -96 305 C-101.68157252 299.31842748 -105.83418221 295.83845698 -114 295.5625 C-122.81859686 295.99465176 -128.49051491 299.10294089 -134 306 Z M-210 310 C-214.05124237 316.1822427 -215.2315684 321.70559542 -215 329 C-214.67 329.66 -214.34 330.32 -214 331 C-203.77 331 -193.54 331 -183 331 C-182.34 326.38 -181.68 321.76 -181 317 C-178.375 312.3125 -178.375 312.3125 -177.0234375 310.55078125 C-175.72459354 308.8923605 -175.72459354 308.8923605 -176 306 C-188.1449538 299.15466241 -199.81269293 299.6744037 -210 310 Z M-230 347 C-230 350.63 -230 354.26 -230 358 C-185.78 358 -141.56 358 -96 358 C-96 354.37 -96 350.74 -96 347 C-140.22 347 -184.44 347 -230 347 Z "
        fill="#27a09c" transform="translate(261,69)" />
    <path
        d="M0 0 C1.19992332 -0.00786278 1.19992332 -0.00786278 2.42408752 -0.0158844 C4.11091963 -0.02228922 5.79779648 -0.02098756 7.48461914 -0.01245117 C10.05501448 -0.00394395 12.62318347 -0.03271648 15.19335938 -0.06445312 C16.83723892 -0.06606551 18.48112238 -0.0654869 20.125 -0.0625 C21.26901527 -0.07935097 21.26901527 -0.07935097 22.43614197 -0.09654236 C27.59160428 -0.02975869 30.58993786 0.96414255 34.62890625 4.43359375 C37.86248392 8.64043343 38.05857978 12.41494427 38.01708984 17.54101562 C38.0223468 18.34326065 38.02760376 19.14550568 38.03302002 19.97206116 C38.04619023 22.61568856 38.03749264 25.25871055 38.02734375 27.90234375 C38.02936534 29.74410111 38.0322775 31.58585768 38.03604126 33.4276123 C38.04046057 37.28433873 38.0340462 41.14085646 38.02001953 44.99755859 C38.00292788 49.93735109 38.01277117 54.87665457 38.03073692 59.81642914 C38.04158536 63.618588 38.03812355 67.42063121 38.03035355 71.22279358 C38.02835447 73.04403237 38.03080053 74.86528171 38.03779221 76.68650818 C38.04542415 79.23334505 38.03377839 81.7793936 38.01708984 84.32617188 C38.02619888 85.45159142 38.02619888 85.45159142 38.03549194 86.5997467 C37.9646569 92.44460731 36.424438 95.52412504 32.48974609 99.70849609 C28.55839123 102.07911851 25.36879002 102.04537211 20.85546875 102.03515625 C20.01349945 102.0437265 19.17153015 102.05229675 18.30404663 102.06112671 C16.52727851 102.07258389 14.7504166 102.07363535 12.97363281 102.06494141 C10.26853641 102.0586279 7.56783575 102.10552729 4.86328125 102.15625 C3.1315159 102.16079752 1.39973886 102.16220226 -0.33203125 102.16015625 C-1.13329437 102.17857574 -1.9345575 102.19699524 -2.76010132 102.2159729 C-8.22344663 102.12690562 -11.0581743 100.72043318 -15.05996704 97.01351929 C-18.0741212 93.38142248 -17.53223884 89.02674106 -17.5480957 84.5690918 C-17.5546669 83.76874512 -17.5612381 82.96839844 -17.56800842 82.14379883 C-17.58772437 79.49430242 -17.59939986 76.84486264 -17.609375 74.1953125 C-17.61345053 73.28984995 -17.61752605 72.3843874 -17.62172508 71.45148659 C-17.64257799 66.6594732 -17.6568834 61.86748839 -17.66625977 57.07543945 C-17.67732601 52.12892814 -17.71173057 47.18286644 -17.75143147 42.23651409 C-17.77758864 38.43005035 -17.78595077 34.62369392 -17.78954124 30.81714821 C-17.79440908 28.99391453 -17.80602871 27.17068571 -17.82457924 25.3475399 C-17.84895319 22.79342466 -17.84800919 20.24047547 -17.84106445 17.6862793 C-17.85387451 16.93645279 -17.86668457 16.18662628 -17.87988281 15.41407776 C-17.82909947 10.27792614 -16.58891231 7.39859375 -13.37109375 3.43359375 C-9.24335763 0.00821992 -5.15963914 -0.01980752 0 0 Z M-1.37109375 16.43359375 C-1.37109375 39.20359375 -1.37109375 61.97359375 -1.37109375 85.43359375 C6.21890625 85.43359375 13.80890625 85.43359375 21.62890625 85.43359375 C21.62890625 62.66359375 21.62890625 39.89359375 21.62890625 16.43359375 C14.03890625 16.43359375 6.44890625 16.43359375 -1.37109375 16.43359375 Z "
        fill="#27a09c" transform="translate(389.37109375,239.56640625)" />
    <path
        d="M0 0 C1.19992332 -0.00786278 1.19992332 -0.00786278 2.42408752 -0.0158844 C4.11091963 -0.02228922 5.79779648 -0.02098756 7.48461914 -0.01245117 C10.05501448 -0.00394395 12.62318347 -0.03271648 15.19335938 -0.06445312 C16.83723892 -0.06606551 18.48112238 -0.0654869 20.125 -0.0625 C21.26901527 -0.07935097 21.26901527 -0.07935097 22.43614197 -0.09654236 C27.59160428 -0.02975869 30.58993786 0.96414255 34.62890625 4.43359375 C37.86248392 8.64043343 38.05857978 12.41494427 38.01708984 17.54101562 C38.0223468 18.34326065 38.02760376 19.14550568 38.03302002 19.97206116 C38.04619023 22.61568856 38.03749264 25.25871055 38.02734375 27.90234375 C38.02936534 29.74410111 38.0322775 31.58585768 38.03604126 33.4276123 C38.04046057 37.28433873 38.0340462 41.14085646 38.02001953 44.99755859 C38.00292788 49.93735109 38.01277117 54.87665457 38.03073692 59.81642914 C38.04158536 63.618588 38.03812355 67.42063121 38.03035355 71.22279358 C38.02835447 73.04403237 38.03080053 74.86528171 38.03779221 76.68650818 C38.04542415 79.23334505 38.03377839 81.7793936 38.01708984 84.32617188 C38.02619888 85.45159142 38.02619888 85.45159142 38.03549194 86.5997467 C37.9646569 92.44460731 36.424438 95.52412504 32.48974609 99.70849609 C28.55839123 102.07911851 25.36879002 102.04537211 20.85546875 102.03515625 C20.01349945 102.0437265 19.17153015 102.05229675 18.30404663 102.06112671 C16.52727851 102.07258389 14.7504166 102.07363535 12.97363281 102.06494141 C10.26853641 102.0586279 7.56783575 102.10552729 4.86328125 102.15625 C3.1315159 102.16079752 1.39973886 102.16220226 -0.33203125 102.16015625 C-1.13329437 102.17857574 -1.9345575 102.19699524 -2.76010132 102.2159729 C-8.22344663 102.12690562 -11.0581743 100.72043318 -15.05996704 97.01351929 C-18.0741212 93.38142248 -17.53223884 89.02674106 -17.5480957 84.5690918 C-17.5546669 83.76874512 -17.5612381 82.96839844 -17.56800842 82.14379883 C-17.58772437 79.49430242 -17.59939986 76.84486264 -17.609375 74.1953125 C-17.61345053 73.28984995 -17.61752605 72.3843874 -17.62172508 71.45148659 C-17.64257799 66.6594732 -17.6568834 61.86748839 -17.66625977 57.07543945 C-17.67732601 52.12892814 -17.71173057 47.18286644 -17.75143147 42.23651409 C-17.77758864 38.43005035 -17.78595077 34.62369392 -17.78954124 30.81714821 C-17.79440908 28.99391453 -17.80602871 27.17068571 -17.82457924 25.3475399 C-17.84895319 22.79342466 -17.84800919 20.24047547 -17.84106445 17.6862793 C-17.85387451 16.93645279 -17.86668457 16.18662628 -17.87988281 15.41407776 C-17.82909947 10.27792614 -16.58891231 7.39859375 -13.37109375 3.43359375 C-9.24335763 0.00821992 -5.15963914 -0.01980752 0 0 Z M-1.37109375 16.43359375 C-1.37109375 39.20359375 -1.37109375 61.97359375 -1.37109375 85.43359375 C6.21890625 85.43359375 13.80890625 85.43359375 21.62890625 85.43359375 C21.62890625 62.66359375 21.62890625 39.89359375 21.62890625 16.43359375 C14.03890625 16.43359375 6.44890625 16.43359375 -1.37109375 16.43359375 Z "
        fill="#27a09c" transform="translate(102.37109375,239.56640625)" />
    <path
        d="M0 0 C0.89017822 0.00161133 1.78035645 0.00322266 2.69750977 0.00488281 C11.3891086 0.16726821 18.9996265 1.95100501 25.25 8.375 C31.1699116 16.13468363 33.56176167 22.60079351 33.55078125 32.31640625 C33.55506638 33.16170395 33.5593515 34.00700165 33.56376648 34.87791443 C33.56948669 36.65712593 33.57002714 38.4363608 33.56567383 40.21557617 C33.56250579 42.93253398 33.58602907 45.6484103 33.61132812 48.36523438 C33.61360061 50.09895697 33.61430485 51.83268247 33.61328125 53.56640625 C33.622491 54.37485489 33.63170074 55.18330353 33.64118958 56.01625061 C33.60349549 60.62190693 33.24392727 63.64433568 30.25 67.375 C26.94471543 69.57852305 25.88209252 69.63770121 22.03173828 69.68139648 C20.96698273 69.69738388 19.90222717 69.71337128 18.8052063 69.72984314 C17.65519135 69.73520584 16.50517639 69.74056854 15.3203125 69.74609375 C14.13782928 69.75512222 12.95534607 69.7641507 11.73703003 69.77345276 C9.23372943 69.78797072 6.73039076 69.79684581 4.22705078 69.80053711 C0.39681054 69.81243227 -3.4318187 69.86160574 -7.26171875 69.91210938 C-9.69270046 69.9215734 -12.12369208 69.92880853 -14.5546875 69.93359375 C-15.70065399 69.95312607 -16.84662048 69.97265839 -18.02731323 69.99278259 C-26.881141 69.94254156 -26.881141 69.94254156 -29.94970703 66.96508789 C-32.9917429 62.58850008 -32.94090744 59.20356203 -32.98828125 54 C-33.00038887 52.74135132 -33.00038887 52.74135132 -33.01274109 51.45727539 C-33.02659035 49.67515125 -33.03730873 47.89300048 -33.04516602 46.11083984 C-33.06225793 43.41320555 -33.1061198 40.71683618 -33.15039062 38.01953125 C-33.24397952 27.59548451 -32.6267355 19.69264303 -27.0625 10.625 C-19.04992223 2.82897839 -11.01132766 -0.02054161 0 0 Z M-13.75 20.375 C-16.36089711 24.69534441 -17.11468277 27.84720597 -17.04296875 32.8671875 C-17.03547607 33.9485498 -17.0279834 35.02991211 -17.02026367 36.14404297 C-16.99295166 37.49900879 -16.96563965 38.85397461 -16.9375 40.25 C-16.875625 44.58125 -16.81375 48.9125 -16.75 53.375 C-5.53 53.375 5.69 53.375 17.25 53.375 C17.3325 49.064375 17.415 44.75375 17.5 40.3125 C17.55462402 38.29370728 17.55462402 38.29370728 17.61035156 36.23413086 C17.67317241 29.44998604 17.69867973 24.68542729 13.25 19.375 C5.43356083 14.07369798 -6.49966603 14.25249576 -13.75 20.375 Z "
        fill="#27a09c" transform="translate(255.75,179.625)" />
    <path
        d="M0 0 C0.66 -0.01289063 1.32 -0.02578125 2 -0.0390625 C5.33349963 1.06776355 6.26753077 2.58270788 8 5.625 C8.55395256 9.15896383 8.51324238 12.61783492 8.4375 16.1875 C8.44458984 17.13302734 8.45167969 18.07855469 8.45898438 19.05273438 C8.38513775 27.09065507 8.38513775 27.09065507 5 30.625 C1.02655839 31.72873378 -1.08999772 32.04043583 -4.875 30.3125 C-7 28.625 -7 28.625 -8 26.625 C-8.29259649 23.1941548 -8.27791989 19.75437345 -8.3125 16.3125 C-8.34150391 15.36181641 -8.37050781 14.41113281 -8.40039062 13.43164062 C-8.44008874 9.06179408 -8.4142421 6.35746782 -6.23046875 2.49609375 C-3.9001603 0.54124656 -2.9936179 -0.0584691 0 0 Z "
        fill="#27a09c" transform="translate(236,351.375)" />
</svg>