<svg width="557" height="557" viewBox="0 0 557 557" fill="none" xmlns="http://www.w3.org/2000/svg">
    <path opacity="0.1"
        d="M278.5 516.506C415.368 516.506 526.321 452.446 526.321 373.424C526.321 294.402 415.368 230.342 278.5 230.342C141.633 230.342 30.6797 294.402 30.6797 373.424C30.6797 452.446 141.633 516.506 278.5 516.506Z"
        fill="#FF8C54" />
    <path opacity="0.3"
        d="M322.993 492.054L444.575 421.872C447.237 420.335 447.237 417.839 444.575 416.302L214.389 283.39C212.894 282.632 211.242 282.237 209.566 282.237C207.889 282.237 206.237 282.632 204.742 283.39L83.1599 353.572C80.4975 355.11 80.4975 357.605 83.1599 359.142L313.346 492.054C314.841 492.812 316.493 493.207 318.169 493.207C319.846 493.207 321.498 492.812 322.993 492.054Z"
        fill="#D97747" />
    <path
        d="M106.409 356.235L115.945 350.732C115.945 350.732 118.273 330.323 116.725 314.516C114.497 292.314 100.193 265.589 83.0818 271.86C65.9708 278.132 90.8798 300.758 96.4498 319.595C102.02 338.433 106.409 356.235 106.409 356.235Z"
        fill="#FF8C54" />
    <path opacity="0.15"
        d="M106.409 356.235L115.945 350.732C115.945 350.732 118.273 330.323 116.725 314.516C114.497 292.314 100.193 265.589 83.0818 271.86C65.9708 278.132 90.8798 300.758 96.4498 319.595C102.02 338.433 106.409 356.235 106.409 356.235Z"
        fill="black" />
    <path
        d="M111.4 353.918C111.248 353.912 111.105 353.847 111.001 353.736C110.896 353.626 110.84 353.479 110.843 353.327C112.514 303.977 88.0058 279.146 87.705 278.901C87.6508 278.848 87.6077 278.785 87.5783 278.715C87.5489 278.645 87.5337 278.57 87.5337 278.494C87.5337 278.419 87.5489 278.344 87.5783 278.274C87.6077 278.204 87.6508 278.141 87.705 278.088C87.8134 277.981 87.9595 277.921 88.1116 277.921C88.2638 277.921 88.4099 277.981 88.5182 278.088C88.7633 278.344 113.695 303.52 112.001 353.372C111.993 353.524 111.925 353.666 111.812 353.768C111.7 353.87 111.552 353.924 111.4 353.918Z"
        fill="white" />
    <path
        d="M101.374 360.178L108.058 356.257C108.058 356.257 109.172 342.254 102.354 325.243C96.3719 310.427 81.5446 298.14 74.0808 300.735C66.617 303.331 66.8398 308.578 70.4825 314.148C74.1253 319.718 96.2494 332.919 101.374 360.178Z"
        fill="#FF8C54" />
    <path
        d="M104.905 358.708C104.752 358.708 104.604 358.647 104.496 358.538C104.387 358.43 104.326 358.282 104.326 358.129C104.46 326.937 75.1615 305.837 74.8607 305.626C74.7375 305.536 74.6545 305.402 74.6295 305.252C74.6045 305.102 74.6395 304.948 74.727 304.824C74.7703 304.762 74.8256 304.709 74.8896 304.668C74.9537 304.628 75.0251 304.6 75.0999 304.588C75.1746 304.575 75.2511 304.578 75.3248 304.596C75.3985 304.613 75.468 304.645 75.5291 304.69C75.8299 304.902 105.607 326.335 105.485 358.162C105.473 358.309 105.408 358.446 105.301 358.547C105.194 358.648 105.053 358.706 104.905 358.708Z"
        fill="white" />
    <path
        d="M431.931 60.947L441.534 66.517C441.478 66.096 441.448 65.6718 441.445 65.247V62.384C441.445 57.4379 444.921 55.4327 449.243 57.928C451.086 59.0641 452.663 60.5839 453.866 62.384C454.568 56.1679 459.436 53.8508 465.374 57.2708C471.779 60.9693 476.982 69.9704 476.982 77.3228V81.478C477.024 83.1405 476.684 84.7905 475.99 86.3016L483.966 90.9024C485.217 91.7177 486.259 92.8164 487.006 94.1093C487.753 95.4022 488.185 96.8529 488.266 98.3439C488.266 101.096 486.339 102.198 483.966 100.828L431.931 70.8727C430.68 70.0574 429.639 68.9588 428.892 67.6659C428.145 66.373 427.713 64.9222 427.631 63.4312C427.631 60.6796 429.559 59.5656 431.931 60.947Z"
        fill="#EBEBEB" />
    <path
        d="M392.128 85.6555L399.158 89.7104C399.141 89.4025 399.141 89.0938 399.158 88.7858V86.7472C399.158 83.1156 401.698 81.6451 404.839 83.4052C406.173 84.2429 407.312 85.3557 408.181 86.6692C408.693 82.1018 412.269 80.4085 416.614 82.915C419.089 84.529 421.15 86.7033 422.629 89.2619C424.107 91.8205 424.962 94.6915 425.125 97.6421V100.694C425.152 101.911 424.905 103.118 424.401 104.226L430.238 107.568C431.158 108.164 431.924 108.97 432.474 109.918C433.024 110.867 433.342 111.932 433.402 113.026C433.402 115.043 431.987 115.856 430.238 114.842L392.128 92.941C391.21 92.3415 390.445 91.5338 389.898 90.5834C389.35 89.633 389.034 88.5667 388.976 87.4713C388.931 85.4661 390.335 84.664 392.128 85.6555Z"
        fill="#EBEBEB" />
    <path
        d="M437.2 397.999C438.938 399.336 438.749 401.241 436.655 402.455L321.946 468.704C320.652 469.358 319.223 469.699 317.774 469.699C316.325 469.699 314.896 469.358 313.602 468.704L94.2332 342.076C92.1054 340.851 91.9383 338.923 93.743 337.62C92.6639 338.435 91.775 339.474 91.1383 340.667C90.5015 341.86 90.1321 343.177 90.0557 344.527V350.041C90.1352 351.491 90.5548 352.902 91.2805 354.16C92.0062 355.418 93.0177 356.487 94.2332 357.282L313.524 483.866C314.818 484.525 316.249 484.869 317.702 484.869C319.154 484.869 320.585 484.525 321.879 483.866L436.621 417.627C437.837 416.836 438.849 415.769 439.575 414.512C440.301 413.256 440.72 411.846 440.799 410.398V404.828C440.72 403.499 440.358 402.202 439.737 401.024C439.117 399.847 438.252 398.815 437.2 397.999Z"
        fill="#455A64" />
    <path
        d="M436.688 397.631L217.33 271.003C216.037 270.349 214.607 270.008 213.158 270.008C211.709 270.008 210.28 270.349 208.986 271.003L94.2441 337.263C91.9382 338.589 91.9382 340.75 94.2441 342.076L313.546 468.704C314.84 469.358 316.269 469.699 317.718 469.699C319.167 469.699 320.597 469.358 321.89 468.704L436.632 402.444C438.916 401.118 438.916 398.957 436.688 397.631ZM406.933 387.393C408.905 388.507 408.905 390.379 406.933 391.515L302.596 451.772C301.485 452.332 300.258 452.623 299.014 452.623C297.77 452.623 296.543 452.332 295.433 451.772L124.634 353.138C122.662 352.024 122.662 350.141 124.634 349.005L228.982 288.76C230.954 287.646 233.015 286.955 234.987 288.092L406.933 387.393Z"
        fill="#37474F" />
    <path
        d="M93.743 337.542C92.6639 338.357 91.775 339.396 91.1383 340.589C90.5015 341.782 90.1321 343.099 90.0557 344.449V349.963C90.1361 351.413 90.5561 352.824 91.2817 354.081C92.0073 355.339 93.0183 356.409 94.2332 357.204L313.524 483.866C314.814 484.546 316.254 484.891 317.713 484.868V469.696C316.259 469.723 314.822 469.382 313.535 468.704L94.2332 342.076C92.1054 340.884 91.9383 338.923 93.743 337.542Z"
        fill="#263238" />
    <path
        d="M162.644 310.639C164.192 309.748 164.192 308.299 162.644 307.408C161.78 306.973 160.826 306.745 159.859 306.745C158.892 306.745 157.938 306.973 157.074 307.408C155.525 308.299 155.525 309.748 157.074 310.639C157.938 311.075 158.892 311.302 159.859 311.302C160.826 311.302 161.78 311.075 162.644 310.639Z"
        fill="black" />
    <path
        d="M375.017 431.809C378.659 429.714 378.659 426.305 375.017 424.211C372.977 423.169 370.718 422.625 368.427 422.625C366.136 422.625 363.878 423.169 361.838 424.211C358.195 426.305 358.195 429.714 361.838 431.809C363.878 432.851 366.136 433.395 368.427 433.395C370.718 433.395 372.977 432.851 375.017 431.809Z"
        stroke="#E6E6E6" stroke-miterlimit="10" />
    <path
        d="M159.848 321.356L181.46 308.89C182.741 308.144 182.807 306.974 181.604 306.272C180.903 305.938 180.133 305.771 179.356 305.784C178.579 305.798 177.816 305.991 177.126 306.35L155.514 318.816C154.233 319.562 154.167 320.732 155.37 321.434C156.071 321.768 156.841 321.935 157.618 321.921C158.395 321.908 159.158 321.714 159.848 321.356Z"
        fill="black" />
    <path
        d="M234.987 288.136C233.015 287.022 230.954 287.657 228.983 288.805L124.634 349.05C122.662 350.164 122.662 352.035 124.634 353.183L295.388 451.76C296.499 452.321 297.726 452.612 298.97 452.612C300.214 452.612 301.44 452.321 302.551 451.76L406.888 391.504C408.871 390.39 408.871 388.519 406.888 387.382L234.987 288.136Z"
        fill="#FF8C54" />
    <path opacity="0.85"
        d="M234.987 288.136C233.015 287.022 230.954 287.657 228.983 288.805L124.634 349.05C122.662 350.164 122.662 352.035 124.634 353.183L295.388 451.76C296.499 452.321 297.726 452.612 298.97 452.612C300.214 452.612 301.44 452.321 302.551 451.76L406.888 391.504C408.871 390.39 408.871 388.519 406.888 387.382L234.987 288.136Z"
        fill="white" />
    <path
        d="M136.655 354.464L135.541 353.817C135.489 353.798 135.445 353.764 135.414 353.719C135.383 353.675 135.366 353.621 135.366 353.567C135.366 353.512 135.383 353.459 135.414 353.414C135.445 353.369 135.489 353.335 135.541 353.316L135.663 353.249C135.797 353.178 135.946 353.141 136.098 353.141C136.249 353.141 136.398 353.178 136.532 353.249L137.646 353.884C137.88 354.029 137.88 354.252 137.646 354.386L137.523 354.464C137.388 354.53 137.24 354.564 137.089 354.564C136.938 354.564 136.79 354.53 136.655 354.464Z"
        fill="#455A64" />
    <path
        d="M138.637 353.316L136.71 352.202C136.476 352.069 136.476 351.846 136.71 351.701L136.833 351.634C136.968 351.568 137.117 351.534 137.267 351.534C137.418 351.534 137.566 351.568 137.702 351.634L139.629 352.748C139.863 352.882 139.863 353.105 139.629 353.249L139.506 353.316C139.371 353.382 139.222 353.416 139.072 353.416C138.921 353.416 138.773 353.382 138.637 353.316Z"
        fill="#455A64" />
    <path
        d="M140.62 352.169L137.891 350.598C137.646 350.453 137.646 350.23 137.891 350.097L138.013 350.019C138.149 349.953 138.297 349.918 138.448 349.918C138.598 349.918 138.747 349.953 138.882 350.019L141.612 351.601C141.663 351.62 141.707 351.654 141.738 351.699C141.769 351.743 141.786 351.797 141.786 351.851C141.786 351.906 141.769 351.959 141.738 352.004C141.707 352.049 141.663 352.083 141.612 352.102L141.489 352.169C141.355 352.24 141.206 352.277 141.055 352.277C140.903 352.277 140.754 352.24 140.62 352.169Z"
        fill="#455A64" />
    <path
        d="M142.592 351.032L137.88 348.303C137.635 348.169 137.635 347.947 137.88 347.802L138.002 347.735C138.137 347.667 138.286 347.631 138.437 347.631C138.588 347.631 138.736 347.667 138.871 347.735L143.572 350.453C143.817 350.598 143.817 350.821 143.572 350.955L143.461 351.032C143.325 351.098 143.177 351.133 143.026 351.133C142.876 351.133 142.727 351.098 142.592 351.032Z"
        fill="#455A64" />
    <path
        d="M148.285 348.114C148.21 348.123 148.134 348.103 148.073 348.058L147.382 347.657L145.154 348.938C145.106 348.97 145.05 348.987 144.993 348.987C144.935 348.987 144.879 348.97 144.831 348.938L144.575 348.793L144.464 348.715V348.604L144.352 345.808C144.345 345.767 144.345 345.726 144.352 345.685C144.389 345.643 144.435 345.608 144.486 345.585L144.787 345.407C144.865 345.361 144.952 345.331 145.043 345.318C145.125 345.319 145.206 345.342 145.277 345.385L147.694 346.777L148.184 346.499C148.258 346.45 148.342 346.419 148.429 346.409C148.509 346.409 148.586 346.432 148.652 346.476L148.819 346.577C148.897 346.577 148.931 346.655 148.92 346.699C148.908 346.744 148.92 346.777 148.775 346.833L148.285 347.122L148.975 347.523C149.053 347.523 149.087 347.601 149.076 347.646C149.064 347.691 149.02 347.735 148.92 347.791L148.541 348.002C148.469 348.065 148.379 348.104 148.285 348.114ZM146.937 347.234L145.21 346.242L145.321 348.17L146.937 347.234Z"
        fill="#455A64" />
    <path
        d="M150.502 346.354C149.722 346.391 148.948 346.202 148.274 345.808C147.583 345.407 147.271 344.972 147.327 344.505C147.382 344.037 147.817 343.58 148.608 343.123C148.92 342.938 149.248 342.782 149.588 342.655C149.887 342.539 150.197 342.454 150.513 342.399C150.559 342.381 150.611 342.381 150.658 342.399C150.662 342.417 150.662 342.436 150.658 342.455L150.758 342.744C150.769 342.757 150.775 342.772 150.775 342.789C150.775 342.805 150.769 342.821 150.758 342.834H150.635C150.155 342.928 149.696 343.106 149.276 343.357C148.741 343.658 148.452 343.981 148.407 344.304C148.363 344.627 148.608 344.95 149.142 345.251C149.631 345.55 150.196 345.701 150.769 345.685C151.336 345.664 151.888 345.5 152.373 345.206C152.547 345.105 152.714 344.994 152.874 344.872C153.001 344.782 153.114 344.673 153.209 344.549L152.095 343.903L151.17 344.438C151.091 344.484 151.004 344.514 150.914 344.527C150.835 344.524 150.758 344.501 150.691 344.46L150.535 344.371C150.461 344.326 150.427 344.282 150.435 344.237C150.435 344.237 150.49 344.159 150.58 344.103L152.061 343.246C152.149 343.193 152.248 343.162 152.351 343.157C152.442 343.158 152.531 343.185 152.607 343.235L154.211 344.159C154.256 344.177 154.295 344.208 154.323 344.248C154.323 344.248 154.323 344.304 154.323 344.349C153.973 344.872 153.488 345.292 152.919 345.563C152.191 346.022 151.36 346.293 150.502 346.354Z"
        fill="#455A64" />
    <path
        d="M181.337 324.709L183.955 326.224C184.066 326.279 184.188 326.307 184.311 326.307C184.435 326.307 184.557 326.279 184.668 326.224L187.308 324.709C187.497 324.586 187.497 324.408 187.308 324.296L184.679 322.781C184.57 322.721 184.447 322.689 184.322 322.689C184.198 322.689 184.075 322.721 183.966 322.781L181.337 324.296C181.136 324.408 181.136 324.586 181.337 324.709Z"
        fill="#455A64" />
    <path
        d="M183.153 322.648C182.806 322.479 182.424 322.395 182.039 322.403C181.653 322.393 181.271 322.477 180.925 322.648C180.412 322.949 180.412 323.405 180.925 323.695L181.827 324.218L182.484 324.085L181.582 323.572C181.502 323.542 181.433 323.488 181.384 323.417C181.336 323.346 181.31 323.263 181.31 323.177C181.31 323.091 181.336 323.007 181.384 322.937C181.433 322.866 181.502 322.812 181.582 322.781C181.726 322.703 181.886 322.661 182.05 322.659C182.211 322.654 182.37 322.697 182.507 322.781L183.409 323.305L184.077 323.171L183.153 322.648Z"
        fill="#455A64" />
    <path
        d="M230.954 295.009C230.513 294.994 230.076 295.094 229.684 295.299L223 299.142C222.421 299.465 222.421 299.989 223 300.323L225.429 301.716C225.82 301.921 226.258 302.02 226.699 302.005C226.904 302.004 227.109 301.985 227.312 301.95C227.54 301.913 227.759 301.833 227.958 301.716L234.642 297.884C235.21 297.549 235.21 297.026 234.642 296.703L232.213 295.299C231.826 295.094 231.392 294.994 230.954 295.009ZM226.721 301.693C226.53 301.69 226.343 301.641 226.175 301.549L223.758 300.145C223.665 300.112 223.584 300.051 223.527 299.97C223.47 299.889 223.44 299.793 223.44 299.694C223.44 299.595 223.47 299.499 223.527 299.418C223.584 299.337 223.665 299.276 223.758 299.243L230.442 295.41C230.548 295.345 230.665 295.3 230.787 295.277H230.988C231.176 295.283 231.36 295.336 231.522 295.433L233.94 296.825C234.033 296.858 234.113 296.92 234.17 297C234.227 297.081 234.258 297.178 234.258 297.276C234.258 297.375 234.227 297.472 234.17 297.552C234.113 297.633 234.033 297.694 233.94 297.728L227.256 301.571C227.094 301.667 226.91 301.721 226.721 301.727V301.693Z"
        fill="#455A64" />
    <path
        d="M226.91 301.259L226.821 301.203L224.593 299.944C224.525 299.919 224.466 299.874 224.425 299.814C224.383 299.754 224.361 299.683 224.361 299.61C224.361 299.538 224.383 299.466 224.425 299.407C224.466 299.347 224.525 299.301 224.593 299.276L230.587 295.823C230.624 295.797 230.665 295.778 230.709 295.767L230.798 295.823L233.026 297.081C233.091 297.109 233.146 297.154 233.185 297.213C233.224 297.271 233.245 297.34 233.245 297.41C233.245 297.48 233.224 297.549 233.185 297.607C233.146 297.666 233.091 297.712 233.026 297.739L227.033 301.203L226.91 301.259Z"
        fill="#455A64" />
    <path
        d="M232.558 295.121C232.788 295.066 233.027 295.061 233.26 295.105C233.492 295.149 233.712 295.242 233.906 295.377L234.352 295.644C234.853 295.923 235.065 296.279 234.831 296.435L234.396 296.703L232.168 295.377L232.558 295.121Z"
        fill="#455A64" />
    <path
        d="M194.493 360.579C196.131 360.511 197.732 360.069 199.172 359.287C201.89 357.716 202.592 355.578 198.281 352.893C198.136 353.703 197.805 354.469 197.314 355.13C196.823 355.792 196.185 356.33 195.451 356.703C191.753 358.842 187.542 359.387 184.144 357.438C180.747 355.488 181.916 352.592 185.637 350.453C188.031 349.087 190.742 348.374 193.498 348.384C196.254 348.393 198.96 349.126 201.344 350.509C207.638 354.141 206.224 357.984 201.768 360.535C199.436 361.841 196.838 362.603 194.17 362.763L194.493 360.579ZM196.064 351.734C192.8 350.32 190.026 350.52 187.921 351.734C186.149 352.748 185.793 354.23 187.754 355.355C188.736 355.886 189.844 356.139 190.959 356.086C192.074 356.033 193.154 355.676 194.081 355.054C194.706 354.763 195.229 354.291 195.583 353.699C195.936 353.107 196.104 352.423 196.064 351.734Z"
        fill="#455A64" />
    <path
        d="M203.862 344.727C204.526 344.324 205.277 344.086 206.052 344.031C206.827 343.977 207.604 344.109 208.318 344.415C209.432 345.084 209.22 346.198 207.794 347.011C207.119 347.423 206.356 347.668 205.567 347.724C204.778 347.78 203.987 347.647 203.26 347.334C202.113 346.677 202.403 345.552 203.862 344.727ZM212.562 349.751C213.227 349.349 213.978 349.112 214.754 349.06C215.529 349.008 216.305 349.142 217.018 349.451C218.132 350.108 217.921 351.222 216.495 352.046C215.819 352.456 215.055 352.699 214.267 352.755C213.478 352.811 212.688 352.679 211.961 352.369C210.824 351.712 211.103 350.576 212.529 349.796L212.562 349.751Z"
        fill="#455A64" />
    <path
        d="M214.033 343.68C208.563 340.516 208.563 337.23 213.041 334.634C217.52 332.039 223.246 332.061 228.704 335.214C234.163 338.366 234.274 341.753 229.818 344.348C225.362 346.944 219.514 346.844 214.033 343.68ZM224.961 337.364C220.383 334.724 217.442 334.746 215.336 335.96C213.231 337.174 213.186 338.879 217.765 341.53C222.343 344.181 225.485 344.226 227.557 343.034C229.629 341.842 229.551 340.015 224.961 337.364Z"
        fill="#455A64" />
    <path
        d="M231.456 333.621C225.975 330.457 225.975 327.171 230.453 324.586C234.932 322.002 240.669 322.013 246.116 325.154C251.564 328.296 251.753 331.705 247.23 334.289C242.707 336.874 236.926 336.785 231.456 333.621ZM242.384 327.316C237.795 324.664 234.854 324.686 232.748 325.901C230.643 327.115 230.598 328.819 235.188 331.471C239.777 334.122 242.908 334.155 244.969 332.963C247.03 331.772 246.963 329.956 242.384 327.316Z"
        fill="#455A64" />
    <path
        d="M203.372 385.032L291.021 334.434C292.057 333.91 293.202 333.637 294.363 333.637C295.524 333.637 296.669 333.91 297.705 334.434L320.108 347.367C321.957 348.481 321.957 350.164 320.108 351.233L232.492 401.831C231.456 402.355 230.311 402.628 229.15 402.628C227.989 402.628 226.844 402.355 225.808 401.831L203.372 388.897C201.523 387.828 201.523 386.101 203.372 385.032Z"
        fill="#FF8C54" />
    <path
        d="M212.774 386.747L228.459 395.793C228.905 396.024 229.4 396.144 229.902 396.144C230.404 396.144 230.898 396.024 231.344 395.793L254.46 382.425C255.262 381.957 255.262 381.211 254.46 380.754L238.775 371.697C238.327 371.472 237.833 371.355 237.332 371.355C236.831 371.355 236.337 371.472 235.889 371.697L212.774 385.065C212.594 385.121 212.437 385.232 212.325 385.384C212.213 385.535 212.153 385.718 212.153 385.906C212.153 386.095 212.213 386.278 212.325 386.429C212.437 386.58 212.594 386.692 212.774 386.747Z"
        fill="#FAFAFA" />
    <path
        d="M236.435 382.392L255.028 381.656L236.502 381.378L237.248 371.385L234.207 383.717L212.161 385.901L230.163 385.054L229.718 396.138L231.099 385.009L236.257 384.764L236.435 382.392Z"
        fill="#FF8C54" />
    <path
        d="M246.194 366.974L268.841 353.951C269.406 353.665 270.03 353.516 270.663 353.516C271.296 353.516 271.92 353.665 272.484 353.951C273.476 354.519 273.442 355.455 272.406 356.057L249.759 369.079C249.194 369.365 248.57 369.514 247.937 369.514C247.304 369.514 246.68 369.365 246.116 369.079C245.135 368.511 245.18 367.62 246.194 366.974Z"
        fill="#FAFAFA" />
    <path
        d="M253.179 370.962L299.076 344.438C299.64 344.152 300.264 344.003 300.897 344.003C301.53 344.003 302.154 344.152 302.718 344.438C303.71 345.006 303.676 345.953 302.64 346.543L256.744 373.067C256.177 373.353 255.551 373.501 254.917 373.501C254.282 373.501 253.657 373.353 253.09 373.067C252.109 372.533 252.143 371.597 253.179 370.962Z"
        fill="#FAFAFA" />
    <path
        d="M260.141 375.017L306.049 348.493C306.614 348.207 307.238 348.058 307.87 348.058C308.503 348.058 309.127 348.207 309.692 348.493C310.672 349.061 310.639 350.008 309.614 350.598L263.706 377.122C263.141 377.408 262.517 377.557 261.884 377.557C261.252 377.557 260.628 377.408 260.063 377.122C259.072 376.532 259.116 375.619 260.141 375.017Z"
        fill="#FAFAFA" />
    <path
        d="M193.334 202.236L341.92 116.458L347.869 119.889C348.679 120.422 349.354 121.139 349.838 121.98C350.321 122.822 350.601 123.765 350.654 124.735V234.341C350.602 235.31 350.323 236.254 349.839 237.096C349.355 237.938 348.68 238.654 347.869 239.187L204.864 321.734C203.999 322.165 203.046 322.389 202.079 322.389C201.113 322.389 200.16 322.165 199.294 321.734L196.153 319.918C195.341 319.385 194.665 318.669 194.18 317.827C193.694 316.986 193.413 316.042 193.357 315.073L193.334 202.236Z"
        fill="#FF8C54" />
    <path opacity="0.05"
        d="M193.334 202.236L341.92 116.458L347.869 119.889C348.679 120.422 349.354 121.139 349.838 121.98C350.321 122.822 350.601 123.765 350.654 124.735V234.341C350.602 235.31 350.323 236.254 349.839 237.096C349.355 237.938 348.68 238.654 347.869 239.187L204.864 321.734C203.999 322.165 203.046 322.389 202.079 322.389C201.113 322.389 200.16 322.165 199.294 321.734L196.153 319.918C195.341 319.385 194.665 318.669 194.18 317.827C193.694 316.986 193.413 316.042 193.357 315.073L193.334 202.236Z"
        fill="black" />
    <path
        d="M341.095 106.81L341.708 106.476L339.402 105.139C339.202 105.027 338.993 104.93 338.778 104.85L273.387 80.6201C272.49 80.3194 271.521 80.3117 270.62 80.5981C269.719 80.8844 268.932 81.4501 268.374 82.2132L195.217 189.035C194.081 190.877 193.434 192.978 193.334 195.139V202.236L195.562 203.55L341.886 116.446V109.35C341.865 108.446 341.591 107.566 341.095 106.81Z"
        fill="#FF8C54" />
    <path opacity="0.1"
        d="M271.393 82.7368C271.101 82.9647 270.846 83.2351 270.635 83.5388L197.479 190.36C196.878 191.305 196.42 192.334 196.12 193.413L193.892 192.098C194.056 191.549 194.254 191.009 194.482 190.483C194.582 190.26 194.683 190.048 194.794 189.837V189.736C194.91 189.513 195.04 189.297 195.184 189.09L268.362 82.2243C268.473 82.0661 268.596 81.917 268.73 81.7787L269.12 81.4222L271.393 82.7368Z"
        fill="black" />
    <path opacity="0.35"
        d="M341.675 106.476C341.477 106.356 341.268 106.255 341.051 106.175L275.648 81.9347C274.929 81.6955 274.161 81.6437 273.416 81.784C272.672 81.9244 271.975 82.2523 271.393 82.7368L269.165 81.4222C269.752 80.9423 270.45 80.6175 271.196 80.4773C271.941 80.3372 272.71 80.3863 273.431 80.6202L338.823 104.85C339.037 104.93 339.242 105.03 339.436 105.15L341.675 106.476Z"
        fill="white" />
    <path
        d="M268.741 81.7787C268.86 81.6485 268.991 81.5292 269.131 81.4222C268.988 81.5263 268.858 81.6459 268.741 81.7787Z"
        fill="#FF8C54" />
    <path opacity="0.2"
        d="M194.772 189.792C194.772 189.792 194.772 189.714 194.772 189.681C194.772 189.647 194.794 189.759 194.772 189.792Z"
        fill="black" />
    <path opacity="0.2"
        d="M268.374 82.2133C268.481 82.056 268.604 81.9104 268.741 81.7788C268.601 81.9073 268.477 82.0533 268.374 82.2133Z"
        fill="black" />
    <path
        d="M270.635 83.5499L197.49 190.383C196.344 192.217 195.692 194.316 195.596 196.476V203.572L344.181 117.794V110.665C344.126 109.704 343.804 108.778 343.251 107.991C342.698 107.204 341.936 106.587 341.051 106.209L275.659 81.9792C274.763 81.6823 273.796 81.6741 272.894 81.9559C271.993 82.2377 271.203 82.7952 270.635 83.5499Z"
        fill="#FF8C54" />
    <path
        d="M211.771 306.807L207.003 304.055C206.61 303.755 206.301 303.358 206.106 302.904C205.91 302.449 205.836 301.951 205.889 301.459V152.896C205.952 151.388 206.413 149.924 207.226 148.652L212.072 151.437C211.252 152.714 210.791 154.187 210.735 155.704V304.211C210.676 304.696 210.74 305.188 210.921 305.642C211.102 306.095 211.394 306.496 211.771 306.807Z"
        fill="#E0E0E0" />
    <path
        d="M214.746 148.608L334.1 79.7179C336.328 78.4034 338.188 79.4617 338.188 82.0796V230.598C338.114 232.019 337.704 233.403 336.994 234.636C336.284 235.869 335.292 236.917 334.1 237.694L214.746 306.573C212.518 307.876 210.657 306.818 210.657 304.2V155.704C210.734 154.283 211.144 152.901 211.855 151.668C212.565 150.435 213.555 149.387 214.746 148.608Z"
        fill="#F0F0F0" />
    <path
        d="M332.15 76.6321L336.829 79.3502C336.376 79.1813 335.888 79.1285 335.409 79.1966C334.931 79.2647 334.477 79.4516 334.089 79.7401L214.746 148.619C213.601 149.309 212.65 150.279 211.983 151.437L207.137 148.652C207.81 147.495 208.754 146.52 209.889 145.811L329.243 76.866C329.657 76.5608 330.148 76.3755 330.661 76.3303C331.173 76.2851 331.689 76.3818 332.15 76.6098V76.6321Z"
        fill="#FAFAFA" />
    <path
        d="M224.059 156.383L323.305 99.0791C324.642 98.3105 325.723 98.8563 325.723 100.305C325.662 101.114 325.412 101.898 324.992 102.593C324.572 103.288 323.994 103.874 323.305 104.304L224.059 161.608C222.722 162.377 221.642 161.831 221.642 160.394C221.7 159.582 221.95 158.796 222.37 158.099C222.79 157.402 223.369 156.814 224.059 156.383Z"
        fill="#E0E0E0" />
    <path
        d="M224.059 166.799L323.305 109.495C324.642 108.726 325.723 109.272 325.723 110.72C325.662 111.53 325.412 112.314 324.992 113.009C324.572 113.704 323.994 114.29 323.305 114.72L224.059 172.024C222.722 172.793 221.642 172.247 221.642 170.81C221.7 169.998 221.95 169.212 222.37 168.515C222.79 167.818 223.369 167.23 224.059 166.799Z"
        fill="#E0E0E0" />
    <path
        d="M224.059 177.215L323.305 119.911C324.642 119.142 325.723 119.688 325.723 121.125C325.664 121.937 325.414 122.723 324.994 123.42C324.574 124.117 323.995 124.705 323.305 125.136L224.059 182.44C222.722 183.208 221.642 182.663 221.642 181.226C221.7 180.414 221.95 179.628 222.37 178.931C222.79 178.234 223.369 177.646 224.059 177.215Z"
        fill="#E0E0E0" />
    <path
        d="M224.059 187.631L323.305 130.338C324.642 129.569 325.723 130.115 325.723 131.552C325.664 132.364 325.414 133.15 324.994 133.847C324.574 134.544 323.995 135.132 323.305 135.563L224.059 192.867C222.722 193.635 221.642 193.09 221.642 191.641C221.7 190.83 221.95 190.044 222.37 189.347C222.79 188.65 223.369 188.062 224.059 187.631Z"
        fill="#E0E0E0" />
    <path
        d="M224.059 198.047L323.305 140.743C324.642 139.974 325.723 140.52 325.723 141.957C325.664 142.769 325.414 143.555 324.994 144.252C324.574 144.949 323.995 145.536 323.305 145.967L224.059 203.272C222.722 204.04 221.642 203.494 221.642 202.046C221.702 201.237 221.953 200.453 222.373 199.758C222.793 199.063 223.37 198.477 224.059 198.047Z"
        fill="#E0E0E0" />
    <path
        d="M224.059 208.463L323.305 151.159C324.642 150.39 325.723 150.936 325.723 152.373C325.664 153.185 325.414 153.971 324.994 154.668C324.574 155.364 323.995 155.952 323.305 156.383L224.059 213.688C222.722 214.456 221.642 213.91 221.642 212.462C221.702 211.652 221.953 210.869 222.373 210.174C222.793 209.479 223.37 208.893 224.059 208.463Z"
        fill="#E0E0E0" />
    <path
        d="M224.059 218.879L323.305 161.53C324.642 160.761 325.723 161.307 325.723 162.744C325.664 163.556 325.414 164.342 324.994 165.039C324.574 165.736 323.995 166.324 323.305 166.755L224.059 224.059C222.722 224.828 221.642 224.282 221.642 222.833C221.709 222.032 221.962 221.257 222.382 220.57C222.802 219.883 223.376 219.304 224.059 218.879Z"
        fill="#E0E0E0" />
    <path
        d="M224.059 229.295L323.305 171.99C324.642 171.211 325.723 171.768 325.723 173.205C325.664 174.016 325.414 174.802 324.994 175.499C324.574 176.196 323.995 176.784 323.305 177.215L224.059 234.519C222.722 235.288 221.642 234.742 221.642 233.294C221.702 232.484 221.953 231.7 222.373 231.005C222.793 230.311 223.37 229.724 224.059 229.295Z"
        fill="#E0E0E0" />
    <path
        d="M346.889 235.789C346.844 235.869 346.792 235.943 346.733 236.012L284.817 208.552C282.466 207.512 279.818 207.356 277.362 208.114C274.906 208.871 272.806 210.49 271.449 212.674L205.255 318.882L202.804 320.297C202.531 320.488 202.215 320.607 201.884 320.644C201.553 320.681 201.218 320.634 200.91 320.509L268.987 211.27C270.347 209.09 272.446 207.473 274.901 206.714C277.356 205.955 280.002 206.105 282.355 207.137L346.889 235.789Z"
        fill="#FF8C54" />
    <path opacity="0.4"
        d="M265.333 222.332L265.489 222.198L205.232 318.894L202.781 320.308C202.507 320.496 202.191 320.614 201.861 320.651C201.531 320.688 201.197 320.643 200.888 320.52L262.904 220.906L265.333 222.332Z"
        fill="white" />
    <path opacity="0.4"
        d="M346.888 235.8C346.844 235.88 346.792 235.954 346.732 236.023L284.805 208.552C282.454 207.512 279.807 207.356 277.351 208.114C274.894 208.871 272.794 210.49 271.437 212.674L268.986 211.248C270.352 209.074 272.453 207.463 274.908 206.711C277.362 205.958 280.005 206.113 282.354 207.148L346.888 235.8Z"
        fill="white" />
    <path
        d="M350.609 124.022C350.476 123.22 350.052 122.997 349.495 123.376C349.22 123.581 348.979 123.829 348.782 124.111L348.471 124.545L287.412 209.61L278.289 222.321C277.701 223.062 276.923 223.628 276.038 223.96C275.153 224.292 274.194 224.376 273.264 224.204L265.388 222.332L205.232 208.028C204.828 207.946 204.411 207.946 204.007 208.028C203.85 208.06 203.697 208.109 203.55 208.173L205.21 207.215L263.138 220.995L271.036 222.8C271.966 222.975 272.926 222.892 273.811 222.56C274.697 222.228 275.475 221.66 276.061 220.917L285.184 208.218L346.588 122.718C346.775 122.464 347.01 122.249 347.279 122.083L341.998 119.042L344.226 117.761L347.902 119.878C348.607 120.353 349.21 120.964 349.675 121.676C350.14 122.388 350.457 123.185 350.609 124.022Z"
        fill="#FF8C54" />
    <path opacity="0.4"
        d="M287.412 209.61L278.288 222.321C277.701 223.062 276.923 223.628 276.038 223.96C275.152 224.292 274.194 224.376 273.264 224.204L265.388 222.332L265.544 222.198L265.923 221.597L271.081 222.822C272.01 222.997 272.97 222.914 273.856 222.582C274.741 222.25 275.519 221.682 276.105 220.94L285.139 208.374L287.412 209.61Z"
        fill="white" />
    <path opacity="0.1"
        d="M347.857 119.878L344.181 117.761L341.953 119.042L347.267 122.106C346.999 122.272 346.764 122.487 346.576 122.741L285.184 208.24L285.095 208.363L287.323 209.599L348.459 124.545L348.771 124.111C348.968 123.829 349.209 123.581 349.484 123.376C350.03 122.997 350.453 123.22 350.598 124.022C350.442 123.183 350.119 122.383 349.648 121.672C349.177 120.96 348.569 120.35 347.857 119.878Z"
        fill="black" />
    <path
        d="M206.435 209.811L193.334 202.236V315.073C193.39 316.043 193.672 316.986 194.158 317.827C194.643 318.669 195.319 319.385 196.131 319.919L199.272 321.734C200.137 322.165 201.091 322.389 202.057 322.389C203.024 322.389 203.977 322.165 204.842 321.734L206.413 320.821L206.435 209.811Z"
        fill="#FF8C54" />
    <path opacity="0.15"
        d="M206.435 209.811L193.334 202.236V315.073C193.39 316.043 193.672 316.986 194.158 317.827C194.643 318.669 195.319 319.385 196.131 319.919L199.272 321.734C200.137 322.165 201.091 322.389 202.057 322.389C203.024 322.389 203.977 322.165 204.842 321.734L206.413 320.821L206.435 209.811Z"
        fill="black" />
    <path
        d="M348.47 124.545V232.96C348.441 233.964 348.141 234.942 347.601 235.789C347.192 236.508 346.634 237.131 345.964 237.616L345.864 237.683L345.674 237.806L202.681 320.353C202.51 320.459 202.326 320.545 202.135 320.609C202.124 320.442 202.124 320.275 202.135 320.108V210.546C202.111 210.153 202.181 209.761 202.342 209.402C202.502 209.043 202.748 208.728 203.057 208.485C203.366 208.241 203.729 208.077 204.116 208.005C204.503 207.933 204.901 207.957 205.277 208.073L265.433 222.377L273.309 224.248C274.238 224.42 275.197 224.336 276.082 224.004C276.967 223.673 277.746 223.106 278.333 222.366L287.412 209.61L348.47 124.545Z"
        fill="#455A64" />
    <path
        d="M350.665 124.768V234.375C350.63 235.378 350.33 236.354 349.796 237.204C349.381 237.922 348.823 238.547 348.158 239.042L348.047 239.098C347.99 239.142 347.931 239.183 347.869 239.22L204.876 321.723C204.603 321.917 204.285 322.04 203.952 322.079C203.619 322.118 203.281 322.072 202.971 321.946C202.734 321.808 202.534 321.614 202.388 321.381C202.242 321.148 202.156 320.883 202.135 320.609C202.124 320.442 202.124 320.275 202.135 320.108V210.546C202.111 210.154 202.181 209.761 202.342 209.402C202.502 209.043 202.748 208.728 203.057 208.485C203.366 208.242 203.729 208.077 204.116 208.005C204.503 207.933 204.901 207.957 205.277 208.073L265.433 222.377L273.309 224.248C274.238 224.421 275.197 224.336 276.082 224.005C276.967 223.673 277.746 223.106 278.333 222.366L287.412 209.61L348.515 124.545L348.827 124.111C349.796 122.674 350.665 122.941 350.665 124.768Z"
        fill="#FF8C54" />
    <path
        d="M347.869 239.176L348.047 239.053L348.159 238.998C348.824 238.502 349.381 237.877 349.796 237.159C350.316 236.324 350.612 235.369 350.654 234.386L287.412 209.61L329.744 249.636L347.869 239.176Z"
        fill="#FF8C54" />
    <path opacity="0.2"
        d="M347.869 239.176L348.047 239.053L348.159 238.998C348.824 238.502 349.381 237.877 349.796 237.159C350.316 236.324 350.612 235.369 350.654 234.386L287.412 209.61L329.744 249.636L347.869 239.176Z"
        fill="black" />
    <path
        d="M202.079 320.119C202.039 320.476 202.098 320.837 202.252 321.162C202.405 321.487 202.647 321.762 202.948 321.957C203.259 322.083 203.596 322.129 203.929 322.09C204.262 322.051 204.58 321.929 204.853 321.734L254.081 293.316L265.321 222.343L202.079 318.292V320.119Z"
        fill="#FF8C54" />
    <path opacity="0.15"
        d="M271.404 212.663L202.938 321.946C202.636 321.751 202.395 321.476 202.241 321.151C202.087 320.826 202.028 320.465 202.069 320.108V318.292L262.481 221.686L262.949 220.94L268.953 211.315L271.404 212.663Z"
        fill="black" />
    <path
        d="M349.796 237.159C349.381 237.877 348.823 238.502 348.158 238.998L348.047 239.053L204.876 321.723C204.602 321.917 204.285 322.04 203.952 322.079C203.619 322.118 203.281 322.072 202.971 321.946L271.437 212.629C272.81 210.436 274.927 208.811 277.401 208.052C279.874 207.293 282.539 207.451 284.905 208.496L349.796 237.159Z"
        fill="#FF8C54" />
    <path
        d="M349.796 237.171C349.387 237.89 348.828 238.512 348.158 238.998L348.058 239.064L204.864 321.734C204.589 321.925 204.271 322.044 203.939 322.081C203.606 322.118 203.27 322.072 202.959 321.946L204.864 318.916L345.574 237.661L345.685 237.594C346.278 237.16 346.781 236.615 347.167 235.99L349.796 237.171Z"
        fill="#FF8C54" />
    <path opacity="0.15"
        d="M193.836 192.098L196.064 193.413C195.748 194.401 195.572 195.428 195.54 196.465V203.55L193.312 202.236V195.139C193.345 194.106 193.521 193.083 193.836 192.098Z"
        fill="black" />
    <path
        d="M207.293 207.672L205.199 207.171L203.539 208.129L201.244 206.803L195.596 203.55L197.791 202.247L207.293 207.672Z"
        fill="#FF8C54" />
    <path opacity="0.1"
        d="M207.293 207.672L197.802 202.258L195.574 203.561L201.222 206.814L203.517 208.14C203.65 208.074 203.793 208.028 203.94 208.006C204.344 207.924 204.761 207.924 205.165 208.006L209.788 209.12L262.481 221.686L262.948 220.94L207.293 207.672Z"
        fill="black" />
    <path
        d="M377.089 212.039L366.517 205.912L366.428 205.856C361.816 203.249 355.477 203.628 348.47 207.694C334.367 215.838 322.926 235.644 322.926 251.931C322.926 260.063 325.789 265.778 330.39 268.452L340.026 274.022L342.254 270.245C344.829 269.675 347.301 268.713 349.584 267.393C363.688 259.25 375.128 239.443 375.128 223.157C375.126 220.956 374.857 218.764 374.326 216.628L377.089 212.039Z"
        fill="#0E8C88" />
    <path opacity="0.15"
        d="M323.862 243.365C323.239 246.182 322.914 249.057 322.893 251.942C322.893 260.074 325.756 265.789 330.357 268.463L339.993 274.033L342.221 270.256C344.796 269.686 347.268 268.724 349.551 267.405C352.047 265.944 354.381 264.222 356.514 262.269L323.862 243.365Z"
        fill="black" />
    <path
        d="M358.497 213.498C344.393 221.642 332.953 241.448 332.953 257.735C332.953 274.022 344.393 280.628 358.497 272.485C372.6 264.341 384.041 244.534 384.041 228.248C384.041 211.961 372.611 205.355 358.497 213.498Z"
        fill="#29A29E" />
    <path
        d="M368.589 236.168V229.907C368.589 222.767 364.245 219.48 358.898 222.577C353.539 225.674 349.195 233.962 349.195 241.103V246.673C349.077 250.538 347.952 254.305 345.931 257.601C345.433 258.475 345.161 259.459 345.14 260.464C345.14 262.258 346.254 263.093 347.579 262.314L370.227 249.235C370.97 248.702 371.577 248.001 372.001 247.191C372.424 246.38 372.652 245.482 372.667 244.568C372.701 244.218 372.655 243.866 372.531 243.537C372.408 243.209 372.21 242.913 371.954 242.674C369.904 241.805 368.589 239.51 368.589 236.168Z"
        fill="white" />
    <path
        d="M363.543 255.106C363.543 258.537 361.46 262.514 358.898 264.018C356.336 265.522 354.241 263.929 354.241 260.509L363.543 255.106Z"
        fill="white" />
</svg>