<svg width="56" height="70" viewBox="0 0 56 70" fill="none" xmlns="http://www.w3.org/2000/svg">
<g clip-path="url(#clip0_268_240)">
<path d="M21.9932 17.5017C22.0702 17.6342 22.1806 17.7442 22.3134 17.8207C22.4462 17.8972 22.5968 17.9375 22.7501 17.9375H25.7423L27.2404 20.5591C27.3169 20.693 27.4275 20.8044 27.5609 20.8818C27.6943 20.9592 27.8458 21 28.0001 21C28.1543 21 28.3058 20.9592 28.4392 20.8818C28.5726 20.8044 28.6832 20.693 28.7597 20.5591L30.2578 17.9375H33.2501C33.4033 17.9375 33.5539 17.8973 33.6868 17.8208C33.8196 17.7443 33.93 17.6343 34.0069 17.5017C34.0838 17.3692 34.1246 17.2187 34.1251 17.0655C34.1256 16.9122 34.0858 16.7615 34.0097 16.6284L32.5079 14L34.0097 11.3716C34.0858 11.2385 34.1256 11.0878 34.1251 10.9345C34.1246 10.7813 34.0838 10.6308 34.0069 10.4983C33.93 10.3657 33.8196 10.2557 33.6868 10.1792C33.5539 10.1027 33.4033 10.0625 33.2501 10.0625H30.2578L28.7597 7.44092C28.6832 7.30698 28.5726 7.19565 28.4392 7.11822C28.3058 7.04078 28.1543 7 28.0001 7C27.8458 7 27.6943 7.04078 27.5609 7.11822C27.4275 7.19565 27.3169 7.30698 27.2404 7.44092L25.7423 10.0625H22.7501C22.5968 10.0625 22.4462 10.1027 22.3134 10.1792C22.1805 10.2557 22.0701 10.3657 21.9932 10.4983C21.9163 10.6308 21.8755 10.7813 21.875 10.9345C21.8746 11.0878 21.9143 11.2385 21.9904 11.3716L23.4922 14L21.9904 16.6284C21.9143 16.7615 21.8745 16.9122 21.875 17.0654C21.8755 17.2187 21.9162 17.3692 21.9932 17.5017ZM25.2597 13.5659L24.2578 11.8125H26.2501C26.4043 11.8125 26.5558 11.7717 26.6892 11.6943C26.8226 11.6168 26.9332 11.5055 27.0097 11.3716L28.0001 9.63867L28.9904 11.3716C29.0669 11.5055 29.1775 11.6168 29.3109 11.6943C29.4443 11.7717 29.5958 11.8125 29.7501 11.8125H31.7423L30.7404 13.5659C30.6648 13.6981 30.6251 13.8477 30.6251 14C30.6251 14.1523 30.6648 14.3019 30.7404 14.4341L31.7423 16.1875H29.7501C29.5958 16.1875 29.4443 16.2283 29.3109 16.3057C29.1775 16.3832 29.0669 16.4945 28.9904 16.6284L28.0001 18.3613L27.0097 16.6284C26.9332 16.4945 26.8226 16.3832 26.6892 16.3057C26.5558 16.2283 26.4043 16.1875 26.2501 16.1875H24.2578L25.2597 14.4341C25.3353 14.3019 25.3751 14.1523 25.3751 14C25.3751 13.8477 25.3353 13.6981 25.2597 13.5659Z" fill="#FF8C54"/>
<path d="M39.4469 14.2367C39.5218 14.4509 39.6471 14.644 39.8123 14.7996L42.2564 17.2437C42.4227 17.4035 42.6444 17.4927 42.8751 17.4927C43.1057 17.4927 43.3274 17.4035 43.4937 17.2437C43.575 17.1625 43.6395 17.0661 43.6834 16.9599C43.7274 16.8538 43.7501 16.74 43.7501 16.6251C43.7501 16.5102 43.7274 16.3964 43.6834 16.2903C43.6395 16.1841 43.575 16.0877 43.4937 16.0064L42.3625 14.8751H55.1251C55.3571 14.8751 55.5797 14.7829 55.7438 14.6188C55.9079 14.4547 56.0001 14.2322 56.0001 14.0001C56.0001 13.768 55.9079 13.5455 55.7438 13.3814C55.5797 13.2173 55.3571 13.1251 55.1251 13.1251H42.3625L43.4937 11.9938C43.5752 11.9126 43.6399 11.8161 43.6841 11.7099C43.7282 11.6037 43.751 11.4898 43.7512 11.3748C43.7513 11.2597 43.7287 11.1458 43.6847 11.0395C43.6407 10.9332 43.5762 10.8366 43.4949 10.7553C43.4136 10.6739 43.317 10.6094 43.2107 10.5655C43.1044 10.5215 42.9904 10.4989 42.8754 10.499C42.7604 10.4991 42.6465 10.5219 42.5403 10.5661C42.4341 10.6103 42.3376 10.675 42.2564 10.7565C41.8942 11.1187 40.2089 12.8032 39.7291 13.2838C39.5945 13.3981 39.4962 13.549 39.4461 13.7183C39.396 13.8875 39.3962 14.0676 39.4469 14.2367Z" fill="#FF8C54"/>
<path d="M0.875 14.8752H13.6376L12.5063 16.0065C12.4251 16.0878 12.3606 16.1842 12.3166 16.2904C12.2726 16.3965 12.25 16.5103 12.25 16.6252C12.25 16.7401 12.2726 16.8539 12.3166 16.96C12.3606 17.0662 12.4251 17.1626 12.5063 17.2438C12.672 17.405 12.8939 17.4952 13.125 17.4952C13.3561 17.4952 13.5781 17.405 13.7437 17.2438L16.1599 14.8276C16.4136 14.6256 16.5795 14.3336 16.6232 14.0123C16.63 13.5155 16.1599 13.1728 15.8387 12.8516L13.7738 10.7867L13.7437 10.7565C13.5795 10.593 13.3571 10.5012 13.1253 10.5015C12.8936 10.5017 12.6714 10.5938 12.5075 10.7577C12.3437 10.9216 12.2515 11.1438 12.2513 11.3755C12.2511 11.6073 12.3428 11.8297 12.5064 11.9938L13.6376 13.1252H0.875C0.642936 13.1252 0.420376 13.2174 0.256282 13.3815C0.0921873 13.5456 0 13.7681 0 14.0002C0 14.2323 0.0921873 14.4548 0.256282 14.6189C0.420376 14.783 0.642936 14.8752 0.875 14.8752Z" fill="#FF8C54"/>
<path d="M53.3753 34.125H39.3753V35.875H53.3753C53.6072 35.8753 53.8297 35.9675 53.9937 36.1316C54.1577 36.2956 54.25 36.518 54.2503 36.75V61.25H39.3753V62.125C39.3747 62.4232 39.3231 62.7192 39.2227 63H55.1253C55.3573 63 55.5799 62.9078 55.744 62.7437C55.9081 62.5796 56.0003 62.3571 56.0003 62.125V36.75C55.9995 36.054 55.7227 35.3868 55.2306 34.8947C54.7385 34.4026 54.0712 34.1258 53.3753 34.125Z" fill="#FF8C54"/>
<path d="M16.625 61.25H1.75V41.125C1.75027 40.893 1.84254 40.6706 2.00657 40.5066C2.17061 40.3425 2.39302 40.2503 2.625 40.25H16.625V38.5H2.625C1.92904 38.5008 1.2618 38.7776 0.769684 39.2697C0.277565 39.7618 0.000759671 40.429 0 41.125L0 62.125C1.16022e-05 62.3571 0.0922026 62.5796 0.256294 62.7437C0.420386 62.9078 0.642939 63 0.875 63H16.7776C16.6772 62.7192 16.6256 62.4232 16.625 62.125V61.25Z" fill="#FF8C54"/>
<path d="M35.875 61.25H20.125V33.25H18.375V62.125C18.375 62.3571 18.4672 62.5796 18.6313 62.7437C18.7954 62.9078 19.0179 63 19.25 63H36.75C36.9821 63 37.2046 62.9078 37.3687 62.7437C37.5328 62.5796 37.625 62.3571 37.625 62.125V33.25H35.875V61.25Z" fill="#FF8C54"/>
<path d="M39.8125 30.625C39.8107 29.0011 39.1648 27.4442 38.0165 26.296C36.8683 25.1477 35.3114 24.5018 33.6875 24.5H22.3125C20.6886 24.5018 19.1317 25.1477 17.9835 26.296C16.8352 27.4442 16.1893 29.0011 16.1875 30.625C16.1875 30.8571 16.2797 31.0796 16.4438 31.2437C16.6079 31.4078 16.8304 31.5 17.0625 31.5H38.9375C39.1696 31.5 39.3921 31.4078 39.5562 31.2437C39.7203 31.0796 39.8125 30.8571 39.8125 30.625ZM18.0253 29.75C18.2284 28.7626 18.7657 27.8753 19.5466 27.2378C20.3276 26.6002 21.3044 26.2514 22.3125 26.25H33.6875C34.6956 26.2514 35.6724 26.6002 36.4534 27.2378C37.2343 27.8753 37.7716 28.7626 37.9747 29.75H18.0253Z" fill="#FF8C54"/>
</g>
<defs>
<clipPath id="clip0_268_240">
<rect width="56" height="70" fill="white"/>
</clipPath>
</defs>
</svg>
