<svg width="56" height="70" viewBox="0 0 56 70" fill="none" xmlns="http://www.w3.org/2000/svg">
<g clip-path="url(#clip0_212_1196)">
<path d="M23.7889 19.1672H34.1825C34.6249 19.1672 34.9777 18.8088 34.9777 18.372C34.9777 17.9352 34.6193 17.5768 34.1825 17.5768H23.7889C23.3465 17.5768 22.9937 17.9352 22.9937 18.372C22.9937 18.8088 23.3521 19.1672 23.7889 19.1672Z" fill="#FF8C54"/>
<path d="M23.7889 26.8671H34.1825C34.6249 26.8671 34.9777 26.5087 34.9777 26.0719C34.9777 25.6295 34.6193 25.2767 34.1825 25.2767H23.7889C23.3465 25.2767 22.9937 25.6351 22.9937 26.0719C22.9937 26.5087 23.3521 26.8671 23.7889 26.8671Z" fill="#FF8C54"/>
<path d="M23.7889 34.5671H34.1825C34.6249 34.5671 34.9777 34.2087 34.9777 33.7719C34.9777 33.3295 34.6193 32.9767 34.1825 32.9767H23.7889C23.3465 32.9767 22.9937 33.3351 22.9937 33.7719C22.9937 34.2143 23.3521 34.5671 23.7889 34.5671Z" fill="#FF8C54"/>
<path d="M23.7889 42.2672H34.1825C34.6249 42.2672 34.9777 41.9088 34.9777 41.472C34.9777 41.0352 34.6193 40.6768 34.1825 40.6768H23.7889C23.3465 40.6768 22.9937 41.0352 22.9937 41.472C22.9937 41.9088 23.3521 42.2672 23.7889 42.2672Z" fill="#FF8C54"/>
<path d="M12.9416 22.7007H7.87918C7.43678 22.7007 7.08398 23.0591 7.08398 23.4959V28.5583C7.08398 29.0007 7.44238 29.3535 7.87918 29.3535H12.9416C13.384 29.3535 13.7368 28.9951 13.7368 28.5583V23.4959C13.7368 23.0591 13.384 22.7007 12.9416 22.7007ZM12.1464 27.7631H8.67998V24.2967H12.1464V27.7631Z" fill="#FF8C54"/>
<path d="M12.9416 31.308H7.87918C7.43678 31.308 7.08398 31.6664 7.08398 32.1032V37.1656C7.08398 37.608 7.44238 37.9608 7.87918 37.9608H12.9416C13.384 37.9608 13.7368 37.6024 13.7368 37.1656V32.1032C13.7368 31.6608 13.384 31.308 12.9416 31.308ZM12.1464 36.3648H8.67998V32.8984H12.1464V36.3648Z" fill="#FF8C54"/>
<path d="M12.9416 39.9095H7.87918C7.43678 39.9095 7.08398 40.2679 7.08398 40.7047V45.7671C7.08398 46.2095 7.44238 46.5623 7.87918 46.5623H12.9416C13.384 46.5623 13.7368 46.2039 13.7368 45.7671V40.7047C13.7368 40.2679 13.384 39.9095 12.9416 39.9095ZM12.1464 44.9719H8.67998V41.5055H12.1464V44.9719Z" fill="#FF8C54"/>
<path d="M54.1072 32.092C54.0232 32.0248 53.9784 31.9128 53.984 31.7952C54.0008 31.6328 54.0064 31.4816 54.0064 31.3248C54.0064 29.1464 52.612 27.2312 50.54 26.5536C50.4392 26.52 50.3608 26.4416 50.3384 26.3464C50.1592 25.6408 49.8232 24.9688 49.364 24.4088C48.412 23.2328 46.9952 22.5608 45.4776 22.5608C43.232 22.5608 42 23.636 41.3168 24.756V13.6288C41.3168 13.1864 40.9584 12.8336 40.5216 12.8336H17.4496C17.0072 12.8336 16.6544 13.192 16.6544 13.6288V18.428C16.5872 18.4112 16.52 18.4 16.4472 18.4H2.5648C2.1224 18.4 1.7696 18.7584 1.7696 19.1952V49.0208H0.7952C0.3584 49.0208 0 49.3736 0 49.8159V55.3824C0 55.8247 0.3584 56.1775 0.7952 56.1775H48.3728C48.8152 56.1775 49.168 55.8191 49.168 55.3824V49.8159C49.168 49.3736 48.8096 49.0208 48.3728 49.0208H48.0592V42.4184C48.1152 42.396 48.1656 42.3792 48.2216 42.3512C48.2328 42.3456 48.2384 42.3456 48.2496 42.34C48.9328 42.032 49.5488 41.5616 50.036 40.9848C50.0584 40.9624 50.092 40.9456 50.1256 40.9512C50.4504 41.0072 50.7864 41.0352 51.1224 41.024C51.1728 41.024 51.2176 41.0184 51.2512 41.0184C52.4104 40.9568 53.5192 40.4864 54.376 39.6968C55.3224 38.8232 55.8992 37.6472 55.9888 36.376C56.1064 34.724 55.4008 33.1224 54.1072 32.092ZM39.732 14.424V27.3096C38.052 28.1496 36.9544 29.8912 36.9544 31.7952C36.9544 32.484 37.0888 33.1504 37.3632 33.7776C37.38 33.8168 37.3688 33.8672 37.3296 33.9064C36.3328 34.9256 35.812 36.3312 35.9072 37.7592C36.0528 39.9544 37.6432 41.78 39.7264 42.284V49.0152H18.2448V14.424H39.732ZM43.8368 49.0208H41.3224V42.4128C41.9776 42.3568 42.616 42.1832 43.1984 41.8808C43.2376 41.8584 43.288 41.864 43.3216 41.8864C43.4896 42.004 43.6576 42.1048 43.8368 42.2V49.0208ZM3.3656 19.9904H16.4472C16.52 19.9904 16.5872 19.9792 16.6544 19.9624V49.0208H3.3656V19.9904ZM47.5776 54.5872H1.5904V50.6112H2.5592H2.5648H2.5704H17.4384H17.444H17.4496H40.5216H40.5272H40.5328H44.0776H45.192H46.788H47.5776V50.7064V54.5872ZM54.3984 36.264C54.3368 37.1264 53.9448 37.9272 53.3008 38.5264C52.7128 39.0696 51.9568 39.3888 51.156 39.4336C51.128 39.4336 51.1 39.4392 51.0776 39.4392C50.848 39.4448 50.624 39.428 50.4 39.3888C49.8064 39.288 49.196 39.512 48.8152 39.9712C48.6024 40.2288 48.3448 40.4472 48.0648 40.632V39.68L50.372 37.9944C50.7248 37.7368 50.8032 37.2384 50.5456 36.88C50.288 36.5272 49.7896 36.4488 49.4312 36.7064L48.0648 37.7032V34.584C48.0648 34.1416 47.7064 33.7888 47.2696 33.7888C46.8272 33.7888 46.4744 34.1472 46.4744 34.584V49.0208H45.4384V41.6736V34.1864C45.4384 33.744 45.08 33.3912 44.6432 33.3912C44.2008 33.3912 43.848 33.7496 43.848 34.1864V35.5976L43.3104 35.1496C42.9744 34.8696 42.4704 34.9144 42.1904 35.2504C41.9104 35.5864 41.9552 36.0904 42.2912 36.3704L43.8424 37.664V40.3744C43.4 40.212 42.9072 40.24 42.476 40.464C41.9272 40.744 41.3112 40.8728 40.684 40.828C40.6448 40.8224 40.6 40.8168 40.5608 40.8168C38.92 40.6488 37.6152 39.3104 37.5032 37.6528C37.436 36.6616 37.7832 35.7264 38.472 35.0208C38.9648 34.5168 39.1048 33.7832 38.8304 33.1448C38.6456 32.7192 38.556 32.2656 38.556 31.7952C38.556 30.3728 39.452 29.0848 40.7792 28.592C40.796 28.5864 40.8072 28.5808 40.824 28.5696C40.8408 28.564 40.8632 28.5528 40.88 28.5416C41.5352 28.256 42.0112 27.6848 42.1568 26.9736C42.42 25.6856 43.2152 24.1512 45.4888 24.1512C46.5192 24.1512 47.488 24.6104 48.1376 25.4112C48.4512 25.792 48.6808 26.2512 48.804 26.7328C48.9608 27.3656 49.4312 27.864 50.0584 28.0656C51.4752 28.5248 52.4216 29.8352 52.4216 31.3192C52.4216 31.4256 52.416 31.532 52.4048 31.644C52.3432 32.2936 52.612 32.9264 53.116 33.3296C54.0008 34.0408 54.4768 35.1328 54.3984 36.264Z" fill="#FF8C54"/>
</g>
<defs>
<clipPath id="clip0_212_1196">
<rect width="56" height="70" fill="white"/>
</clipPath>
</defs>
</svg>
