<svg width="56" height="70" viewBox="0 0 56 70" fill="none" xmlns="http://www.w3.org/2000/svg">
    <path fill-rule="evenodd" clip-rule="evenodd"
        d="M1.52106 14.3111H4.34387C4.55184 14.3111 4.74966 14.3542 4.93227 14.4303L17.2832 5.13025C17.4684 4.98823 17.6941 4.96287 17.9097 5.05163L50.4391 17.563C50.5583 17.5959 50.6623 17.6619 50.7409 17.7532L55.8158 22.7621C56.209 23.1502 55.93 23.8197 55.3822 23.8197V23.8223H49.7772V26.1885C49.7772 26.5309 49.5007 26.8073 49.1584 26.8073H46.858V32.529H47.7787C48.1667 32.529 48.4634 32.8764 48.3823 33.2823L47.4693 38.4129C47.416 38.7147 47.1548 38.9252 46.8606 38.9252H45.7269V40.7969C45.7269 41.1393 45.4505 41.4158 45.1081 41.4158C43.2566 41.4158 42.3259 43.6628 43.6346 44.9715C44.9433 46.2803 47.1903 45.3494 47.1903 43.498C47.1903 42.6839 48.428 42.6839 48.428 43.498C48.428 46.4476 44.8444 47.9338 42.7596 45.8466C40.8675 43.9545 41.8897 40.726 44.4893 40.234V38.9228H43.3556C43.0436 38.9228 42.7824 38.6895 42.7418 38.3877L41.8262 33.2518C41.7603 32.874 42.057 32.5265 42.4349 32.5265H43.3556V26.8048H41.0552C40.7129 26.8048 40.4364 26.5284 40.4364 26.186V23.8198L25.6507 23.8223V25.5114C25.6507 25.8538 25.3743 26.1303 25.0319 26.1303H20.8066V60.8763H23.5431C24.1696 60.8763 24.6819 61.3912 24.6819 62.0151V64.5335C24.6819 65.1599 24.1721 65.6722 23.5431 65.6722L11.7882 65.6697C11.1617 65.6697 10.6494 65.1599 10.6494 64.5309V62.0125C10.6494 61.7006 10.7788 61.4165 10.9842 61.2085L10.9817 61.206C11.1871 61.0006 11.4712 60.8738 11.7857 60.8738H14.5248L14.5273 26.1277H10.297C9.95458 26.1277 9.67814 25.8513 9.67814 25.5089V23.8198H5.86371V25.5266C5.86371 26.3636 5.17893 27.0484 4.34196 27.0484H1.52169C1.11082 27.0484 0.715169 26.8759 0.448905 26.5994L0.446369 26.602C0.169926 26.3255 0 25.9451 0 25.5267V15.8331C0 14.9987 0.687311 14.3114 1.52175 14.3114L1.52106 14.3111ZM46.2444 33.7637H43.1806L43.8781 37.6847H46.3483L47.0457 33.7637H46.2444ZM45.6255 26.8043H44.6009V32.5259H45.6255V26.8043ZM18.8687 6.7407L22.8353 15.2344H25.0291C25.3715 15.2344 25.6479 15.5108 25.6479 15.8532V17.5423H46.9497L18.8687 6.7407ZM5.77951 15.3357C5.83531 15.4929 5.86321 15.6578 5.86321 15.8328V17.5396H9.67764V15.8505C9.67764 15.5081 9.95408 15.2316 10.2965 15.2316H12.4903L16.0562 7.59499L5.77951 15.3357ZM13.8551 15.2342H21.4761L17.6642 7.07555L13.8551 15.2342ZM17.6644 17.6436C15.988 17.6436 14.6286 19.003 14.6286 20.6794C14.6286 23.3753 17.9028 24.7348 19.8101 22.825C21.7198 20.9178 20.3604 17.6436 17.6644 17.6436ZM18.935 19.4088C17.8064 18.2802 15.8662 19.0816 15.8662 20.6794C15.8662 22.2772 17.8064 23.0786 18.935 21.95C19.6375 21.2475 19.6375 20.1114 18.935 19.4088ZM5.8634 21.7041L8.77749 18.7773H5.8634V21.7041ZM9.68036 19.6219L6.73328 22.5791H9.68036V19.6219ZM25.651 18.7773V21.7041L28.5651 18.7773H25.651ZM19.5666 26.127H16.366L19.5666 29.9237V26.127ZM24.4107 16.4718H10.9158V24.8895H24.4107V16.4718ZM16.4748 60.873H19.5664V57.2083L16.4748 60.873ZM23.4394 62.1107H11.8897V64.4287H23.4394V62.1107ZM19.3765 31.6128L15.7624 27.3291V35.8962L19.3765 31.6128ZM19.5667 33.3044L15.9526 37.5881L19.5667 41.8717V33.3044ZM19.3765 43.5634L15.7624 39.2798V47.8494L19.3765 43.5634ZM19.5667 45.2576L15.9526 49.5413L19.5667 53.8249V45.2576ZM19.3765 55.5167L15.7624 51.2305L15.7599 59.8027L19.3765 55.5167ZM41.682 23.8196V25.567H48.5447V23.8196H41.682ZM50.2062 18.9577L46.5997 22.5793H53.8786L50.2062 18.9577ZM45.1135 22.3257L48.6464 18.7776H41.5804L45.1135 22.3257ZM43.6247 22.5819L40.0918 19.0338L36.5589 22.5819H43.6247ZM35.07 22.3257L38.6029 18.7776H31.5369L35.07 22.3257ZM33.5838 22.5819L30.0508 19.0338L26.5179 22.5819H33.5838ZM4.34412 15.5491H1.52131C1.36406 15.5491 1.23979 15.6733 1.23979 15.8306V25.5267C1.23979 25.6028 1.27276 25.6738 1.32349 25.7271H1.32096C1.37168 25.7778 1.44269 25.8108 1.52131 25.8108H4.34412C4.5039 25.8108 4.62563 25.6814 4.62563 25.5292V15.8331C4.62563 15.6759 4.50136 15.5491 4.34412 15.5491Z"
        fill="#FF8C54" />
</svg>