<svg xmlns="http://www.w3.org/2000/svg" width="160" height="200" viewBox="0 0 160 200" fill="none">
    <script xmlns="" id="eppiocemhmnlbhjplcgkofciiegomcon" />
    <script xmlns="" />
    <script xmlns="" />
    <g id="noun-objective-4596488 1" opacity="0.4">
        <g id="Group 49">
            <path id="Vector"
                d="M138.496 71.3939C138.315 71.0081 138.212 70.5899 138.195 70.1639C138.177 69.7379 138.245 69.3127 138.394 68.9132C138.543 68.5137 138.77 68.1481 139.063 67.8377C139.355 67.5274 139.707 67.2786 140.096 67.1059C140.476 66.9213 140.889 66.8138 141.311 66.7896C141.733 66.7653 142.155 66.8248 142.554 66.9647C142.952 67.1045 143.319 67.3219 143.634 67.6042C143.948 67.8866 144.203 68.2284 144.384 68.6099C146.714 73.466 148.485 78.5707 149.664 83.8259C152.5 96.0983 152.067 108.9 148.407 120.952C144.748 133.005 137.991 143.887 128.811 152.511C119.631 161.135 108.349 167.2 96.0914 170.101C83.8341 173.001 71.0304 172.635 58.9587 169.039C46.8871 165.443 35.97 158.744 27.2975 149.609C18.625 140.475 12.5005 129.225 9.5357 116.983C6.57087 104.741 6.86941 91.9355 10.4015 79.8451C13.9336 67.7547 20.5756 56.8024 29.6644 48.0819C30.2911 47.5022 31.1182 47.1882 31.9718 47.2061C32.8253 47.224 33.6386 47.5724 34.2404 48.1779C34.5365 48.482 34.7693 48.842 34.925 49.2368C35.0807 49.6317 35.1563 50.0536 35.1473 50.478C35.1384 50.9024 35.0451 51.3208 34.8729 51.7087C34.7007 52.0967 34.4531 52.4466 34.1444 52.7379C27.7526 58.8013 22.6641 66.1041 19.1896 74.2002C15.7151 82.2963 13.9277 91.0158 13.9364 99.8259C13.997 112.762 17.8812 125.392 25.1005 136.127C32.3198 146.862 42.5519 155.222 54.5101 160.157C66.4683 165.092 79.6187 166.382 92.3077 163.863C104.997 161.344 116.658 155.13 125.824 146.002C131.919 139.956 136.755 132.763 140.053 124.837C143.352 116.911 145.047 108.41 145.04 99.8259C145.051 94.9176 144.514 90.0234 143.44 85.2339C142.361 80.4485 140.717 75.8081 138.544 71.4099L138.496 71.3939ZM40.5604 47.2339C39.8732 47.6804 39.041 47.8462 38.2352 47.6972C37.4294 47.5482 36.7115 47.0958 36.2294 46.4331C35.7473 45.7705 35.5378 44.9482 35.644 44.1357C35.7502 43.3231 36.1641 42.5823 36.8004 42.0659L37.1684 41.7939L37.4884 41.5699C37.829 41.3128 38.2175 41.1263 38.6312 41.0216C39.0449 40.9169 39.4754 40.8959 39.8973 40.96C40.3192 41.0241 40.7241 41.172 41.088 41.3949C41.4519 41.6178 41.7676 41.9112 42.0164 42.2579C42.2686 42.6009 42.4498 42.9908 42.5494 43.4048C42.649 43.8187 42.665 44.2484 42.5964 44.6686C42.5279 45.0888 42.3762 45.4911 42.1502 45.8519C41.9242 46.2127 41.6285 46.5248 41.2804 46.7699L40.9604 46.9939L40.5604 47.2339ZM48.8484 42.0659C48.474 42.2656 48.0637 42.3889 47.6412 42.4286C47.2188 42.4682 46.7927 42.4235 46.3877 42.2969C45.9827 42.1703 45.6069 41.9645 45.2822 41.6914C44.9575 41.4182 44.6904 41.0833 44.4964 40.7059C44.298 40.3342 44.175 39.927 44.1343 39.5076C44.0937 39.0882 44.1364 38.6649 44.2597 38.2621C44.3831 37.8592 44.5849 37.4847 44.8534 37.16C45.1219 36.8353 45.4519 36.5668 45.8244 36.3699C50.9792 33.6456 56.4496 31.566 62.1124 30.1779C75.1393 26.9698 88.7993 27.4239 101.584 31.4899C108.702 33.7953 115.418 37.1961 121.488 41.5699C122.178 42.0644 122.643 42.8125 122.781 43.6495C122.919 44.4866 122.719 45.3443 122.224 46.0339C121.979 46.3798 121.668 46.6735 121.309 46.898C120.949 47.1226 120.549 47.2735 120.13 47.3419C119.712 47.4104 119.284 47.3951 118.872 47.2969C118.46 47.1987 118.071 47.0196 117.728 46.7699C106.606 38.7268 93.214 34.4291 79.4884 34.4979C68.8106 34.4837 58.2916 37.0819 48.8484 42.0659Z"
                fill="white" />
            <path id="Vector_2"
                d="M112.512 78.7858C112.283 78.4321 112.127 78.0366 112.051 77.6221C111.975 77.2076 111.982 76.7822 112.072 76.3704C112.161 75.9587 112.33 75.5685 112.571 75.2225C112.811 74.8764 113.117 74.5812 113.472 74.3538C113.828 74.1149 114.229 73.9499 114.65 73.8688C115.071 73.7877 115.504 73.792 115.924 73.8815C116.343 73.9711 116.74 74.144 117.091 74.3901C117.443 74.6361 117.741 74.9503 117.968 75.3138C122.655 82.6307 125.148 91.1367 125.152 99.8258C125.152 100.675 124.815 101.488 124.215 102.089C123.615 102.689 122.801 103.026 121.952 103.026C121.104 103.026 120.29 102.689 119.689 102.089C119.089 101.488 118.752 100.675 118.752 99.8258C118.741 96.1047 118.202 92.4039 117.152 88.8338C116.1 85.2854 114.543 81.9068 112.528 78.8018L112.512 78.7858ZM117.968 107.474C118.052 107.06 118.217 106.667 118.453 106.316C118.689 105.966 118.992 105.666 119.344 105.432C119.696 105.199 120.091 105.038 120.505 104.957C120.92 104.876 121.346 104.878 121.76 104.962C122.174 105.046 122.567 105.211 122.918 105.447C123.268 105.683 123.568 105.985 123.802 106.338C124.035 106.69 124.196 107.084 124.277 107.499C124.358 107.913 124.356 108.34 124.272 108.754L124.144 109.298L124.048 109.794C123.958 110.214 123.786 110.612 123.541 110.966C123.297 111.32 122.985 111.622 122.624 111.855C122.263 112.088 121.86 112.248 121.437 112.326C121.014 112.403 120.58 112.396 120.16 112.306C119.74 112.215 119.342 112.043 118.988 111.799C118.634 111.555 118.332 111.243 118.099 110.882C117.866 110.521 117.706 110.118 117.629 109.695C117.551 109.272 117.558 108.838 117.648 108.418L117.744 107.922L117.968 107.474ZM115.408 115.474C115.754 114.693 116.396 114.082 117.193 113.774C117.989 113.466 118.875 113.488 119.656 113.834C120.437 114.18 121.048 114.822 121.356 115.618C121.664 116.415 121.642 117.301 121.296 118.082C118.3 124.873 113.694 130.833 107.878 135.446C102.062 140.058 95.2097 143.185 87.9141 144.555C80.6185 145.926 73.0989 145.499 66.0052 143.312C58.9115 141.125 52.4572 137.243 47.2002 132.002C40.8343 125.627 36.5025 117.507 34.7528 108.669C33.0031 99.8319 33.9142 90.674 37.3709 82.3544C40.8275 74.0348 46.6743 66.9275 54.1715 61.9319C61.6686 56.9362 70.4791 54.2767 79.4882 54.2898C88.3954 54.2978 97.1075 56.8998 104.56 61.7778C104.913 62.0121 105.217 62.3136 105.453 62.6652C105.69 63.0167 105.854 63.4114 105.938 63.8266C106.022 64.2419 106.024 64.6696 105.942 65.0854C105.861 65.5012 105.698 65.8968 105.464 66.2498C105.23 66.6028 104.928 66.9062 104.577 67.1427C104.225 67.3792 103.831 67.5441 103.415 67.628C103 67.712 102.572 67.7133 102.157 67.6319C101.741 67.5506 101.345 67.3881 100.992 67.1538C97.8359 65.0547 94.3847 63.437 90.7522 62.3538C87.1149 61.2863 83.3429 60.7475 79.5522 60.7538C72.5103 60.7643 65.602 62.6768 59.5574 66.2894C53.5128 69.902 48.5563 75.0804 45.2119 81.2775C41.8674 87.4745 40.2591 94.4599 40.5571 101.495C40.855 108.531 43.048 115.356 46.9044 121.248C50.7607 127.14 56.1372 131.881 62.4656 134.969C68.794 138.058 75.8392 139.38 82.8568 138.795C89.8743 138.21 96.6036 135.74 102.333 131.646C108.063 127.553 112.58 121.987 115.408 115.538V115.474Z"
                fill="white" />
            <path id="Vector_3"
                d="M88.6883 91.8259C88.4058 91.5074 88.1898 91.1357 88.0527 90.7327C87.9157 90.3296 87.8605 89.9033 87.8903 89.4786C87.9201 89.054 88.0343 88.6395 88.2263 88.2596C88.4182 87.8796 88.6841 87.5418 89.0083 87.2659C89.326 86.9884 89.6955 86.7764 90.0955 86.6422C90.4955 86.5081 90.918 86.4543 91.3388 86.484C91.7597 86.5138 92.1705 86.6264 92.5476 86.8155C92.9247 87.0046 93.2607 87.2664 93.5363 87.5859C96.4712 90.9904 98.0939 95.331 98.1123 99.8259C98.1239 102.267 97.6489 104.686 96.7148 106.942C95.7808 109.197 94.4065 111.244 92.6723 112.962C90.9448 114.697 88.8915 116.074 86.6304 117.014C84.3693 117.953 81.9448 118.437 79.4963 118.437C77.0477 118.437 74.6233 117.953 72.3622 117.014C70.101 116.074 68.0478 114.697 66.3203 112.962C64.5966 111.241 63.2291 109.197 62.2961 106.947C61.3631 104.697 60.8828 102.286 60.8828 99.8499C60.8828 97.4142 61.3631 95.0024 62.2961 92.7525C63.2291 90.5026 64.5966 88.4587 66.3203 86.7379C68.0476 85.0048 70.0998 83.6294 72.3593 82.6905C74.6189 81.7515 77.0414 81.2674 79.4883 81.2659C80.0323 81.2659 80.6403 81.2659 81.2803 81.3619C81.9203 81.4579 82.5603 81.5379 83.1043 81.6339C83.5171 81.7148 83.91 81.8762 84.2605 82.1089C84.611 82.3417 84.9123 82.6412 85.147 82.9903C85.3817 83.3394 85.5454 83.7314 85.6287 84.1438C85.712 84.5562 85.7132 84.981 85.6323 85.3939C85.5514 85.8067 85.39 86.1996 85.1572 86.5501C84.9245 86.9006 84.625 87.2018 84.2758 87.4366C83.9267 87.6713 83.5347 87.835 83.1223 87.9183C82.7099 88.0015 82.2851 88.0028 81.8723 87.9219C81.4814 87.8399 81.0861 87.7812 80.6883 87.7459C80.3683 87.7459 79.9523 87.7459 79.4883 87.7459C77.8554 87.6866 76.2272 87.9571 74.7012 88.5411C73.1751 89.1251 71.7824 90.0107 70.6062 91.1449C69.43 92.2792 68.4945 93.6389 67.8555 95.1427C67.2166 96.6466 66.8873 98.2639 66.8873 99.8979C66.8873 101.532 67.2166 103.149 67.8555 104.653C68.4945 106.157 69.43 107.517 70.6062 108.651C71.7824 109.785 73.1751 110.671 74.7012 111.255C76.2272 111.839 77.8554 112.109 79.4883 112.05C81.0919 112.052 82.6801 111.737 84.1615 111.123C85.6428 110.509 86.9881 109.608 88.1198 108.471C89.2515 107.335 90.1473 105.986 90.7556 104.503C91.3639 103.019 91.6727 101.429 91.6643 99.8259C91.6683 98.3761 91.4025 96.9383 90.8803 95.5859C90.3984 94.2031 89.6541 92.9264 88.6883 91.8259Z"
                fill="white" />
            <path id="Vector_4"
                d="M82.8317 102.082C82.5337 102.387 82.1778 102.629 81.7849 102.794C81.392 102.96 80.97 103.045 80.5437 103.045C80.1175 103.045 79.6955 102.96 79.3026 102.794C78.9097 102.629 78.5538 102.387 78.2557 102.082C77.6597 101.482 77.3252 100.671 77.3252 99.826C77.3252 98.9806 77.6597 98.1695 78.2557 97.57L138.784 37.234C139.382 36.6293 140.196 36.287 141.047 36.2825C141.897 36.278 142.715 36.6116 143.32 37.21C143.924 37.8083 144.267 38.6223 144.271 39.473C144.276 40.3236 143.942 41.1413 143.344 41.746L82.8317 102.082Z"
                fill="white" />
            <path id="Vector_5"
                d="M124.416 60.6418H131.648L141.616 50.7538L134.4 50.6898L124.416 60.6418ZM132.928 67.1538L116.928 66.9778C116.465 67.0097 116 66.9403 115.567 66.7745C115.133 66.6087 114.74 66.3505 114.416 66.0178C114.109 65.7277 113.865 65.378 113.698 64.9901C113.531 64.6022 113.444 64.1842 113.444 63.7618C113.444 63.3394 113.531 62.9215 113.698 62.5336C113.865 62.1457 114.109 61.7959 114.416 61.5058L130.72 45.2178C131.015 44.9113 131.371 44.6713 131.766 44.514C132.16 44.3567 132.584 44.2857 133.008 44.3058L149.008 44.4978C149.47 44.4722 149.931 44.5429 150.364 44.7054C150.796 44.8679 151.19 45.1187 151.52 45.4418C151.818 45.739 152.054 46.0919 152.215 46.4804C152.376 46.8689 152.459 47.2853 152.459 47.7058C152.459 48.1264 152.376 48.5428 152.215 48.9312C152.054 49.3197 151.818 49.6726 151.52 49.9698L135.248 66.2258C134.948 66.5332 134.586 66.7734 134.186 66.9306C133.786 67.0878 133.358 67.1584 132.928 67.1378V67.1538Z"
                fill="white" />
            <path id="Vector_6"
                d="M112.288 64.738L112.064 48.738C112.066 48.3146 112.152 47.8958 112.317 47.5058C112.482 47.1158 112.722 46.7624 113.024 46.466L130.624 28.866C131.098 28.4221 131.695 28.1325 132.337 28.0358C132.978 27.939 133.634 28.0396 134.217 28.3243C134.8 28.6089 135.283 29.0641 135.602 29.6295C135.92 30.1949 136.059 30.8438 136 31.49L136.224 47.49C136.23 47.9145 136.148 48.3355 135.982 48.7266C135.817 49.1176 135.573 49.4702 135.264 49.762L117.664 67.234C117.05 67.8265 116.23 68.1575 115.376 68.1575C114.523 68.1575 113.703 67.8265 113.088 67.234C112.764 66.9058 112.515 66.5113 112.358 66.0778C112.2 65.6442 112.138 65.1817 112.176 64.722L112.288 64.738ZM118.512 50.05L118.608 57.298L129.808 46.098L129.712 38.85L118.512 50.05Z"
                fill="white" />
        </g>
    </g>
</svg>