<svg width="56" height="70" viewBox="0 0 56 70" fill="none" xmlns="http://www.w3.org/2000/svg">
    <g clip-path="url(#clip0_272_253)">
        <path
            d="M19.3529 32.5293C16.4013 32.5293 14 30.128 14 27.1764V21.4117C14 18.4601 16.4013 16.0588 19.3529 16.0588C22.3046 16.0588 24.7059 18.4601 24.7059 21.4117V27.1764C24.7059 30.128 22.3046 32.5293 19.3529 32.5293ZM19.3529 17.7058C17.3096 17.7058 15.6471 19.3683 15.6471 21.4117V27.1764C15.6471 29.2198 17.3096 30.8823 19.3529 30.8823C21.3963 30.8823 23.0588 29.2198 23.0588 27.1764V21.4117C23.0588 19.3683 21.3964 17.7058 19.3529 17.7058Z"
            fill="#FF8C54" />
        <path
            d="M55.1764 62.9999H0.823528C0.368611 62.9999 0 62.6312 0 62.1763V39.9411C0 39.4862 0.368611 39.1176 0.823528 39.1176H11.5294C18.645 39.1176 25.7523 41.1248 31.9505 45.0927C38.8712 41.1822 46.7155 39.1176 54.6702 39.1176H55.1764C55.6313 39.1176 55.9999 39.4862 55.9999 39.9411V62.1763C55.9999 62.6311 55.6313 62.9999 55.1764 62.9999ZM17.1206 61.3528H54.3528V40.7658C39.2551 40.8735 25.2469 48.6207 17.1206 61.3528ZM1.64706 61.3528H15.1807C18.9555 55.1313 24.1759 49.8653 30.354 46.0377C24.635 42.5576 18.1063 40.7646 11.5294 40.7646H1.64706V61.3528Z"
            fill="#FF8C54" />
        <path
            d="M6.22193 32.5294C2.84129 32.5294 0.0908203 29.779 0.0908203 26.3983C0.0908203 24.6324 0.854285 22.9621 2.16282 21.8047C1.96352 21.2983 1.85998 20.7562 1.85998 20.206C1.85998 17.8009 3.81668 15.8441 6.22193 15.8441C8.62718 15.8441 10.584 17.8009 10.584 20.206C10.584 20.7562 10.4806 21.2984 10.2812 21.8047C11.5897 22.9621 12.3531 24.6323 12.3531 26.3983C12.3531 29.779 9.60279 32.5294 6.22193 32.5294ZM6.22193 17.491C4.72498 17.491 3.50703 18.7089 3.50703 20.2059C3.50703 20.7033 3.64253 21.1895 3.89892 21.612C4.12457 21.9838 4.02212 22.467 3.66515 22.7152C2.4583 23.5549 1.73777 24.9317 1.73777 26.3982C1.73777 28.8707 3.74926 30.8822 6.22182 30.8822C8.69449 30.8822 10.706 28.8706 10.706 26.3982C10.706 24.9317 9.98534 23.5549 8.77849 22.7152C8.42141 22.4669 8.31907 21.9836 8.54483 21.6118C8.80122 21.1894 8.93672 20.7033 8.93672 20.2058C8.93694 18.7089 7.71899 17.491 6.22193 17.491Z"
            fill="#FF8C54" />
        <path
            d="M6.13114 40.7646C5.67623 40.7646 5.30762 40.396 5.30762 39.9411V27.5882C5.30762 27.1334 5.67623 26.7646 6.13114 26.7646C6.58606 26.7646 6.95467 27.1334 6.95467 27.5882V39.9411C6.95467 40.3959 6.58606 40.7646 6.13114 40.7646Z"
            fill="#FF8C54" />
        <path
            d="M19.3528 41.4892C18.8979 41.4892 18.5293 41.1206 18.5293 40.6657V27.5882C18.5293 27.1334 18.8979 26.7646 19.3528 26.7646C19.8077 26.7646 20.1764 27.1334 20.1764 27.5882V40.6658C20.1764 41.1206 19.8077 41.4892 19.3528 41.4892Z"
            fill="#FF8C54" />
        <path
            d="M45.7378 17.1991H39.0864C37.0604 17.1991 35.4121 15.5509 35.4121 13.525C35.4121 12.1347 36.1968 10.8779 37.4089 10.2559C37.8181 8.36826 39.4806 7 41.462 7C43.3058 7 44.8706 8.18182 45.4102 9.86511C47.5635 9.67383 49.4121 11.375 49.4121 13.5249C49.4121 15.5509 47.7639 17.1991 45.7378 17.1991ZM41.462 8.64706C40.1643 8.64706 39.0936 9.6197 38.9714 10.9095C38.941 11.2303 38.7261 11.504 38.4215 11.6098C37.6066 11.8926 37.0592 12.6622 37.0592 13.5249C37.0592 14.6427 37.9686 15.552 39.0864 15.552H45.7378C46.8556 15.552 47.765 14.6426 47.765 13.5249C47.765 12.124 46.3695 11.1428 45.0517 11.6169C44.5449 11.7989 44.0021 11.4534 43.9529 10.9171C43.8344 9.62299 42.7635 8.64706 41.462 8.64706Z"
            fill="#FF8C54" />
        <path
            d="M26.6825 62.8352C26.3187 62.5623 26.2449 62.046 26.5177 61.6822C32.8805 53.1984 42.8974 48.1764 53.5295 48.1764H55.1765C55.6314 48.1764 56 48.545 56 48.9999C56 49.4548 55.6314 49.8234 55.1765 49.8234H53.5295C43.474 49.8234 33.8687 54.626 27.8354 62.6705C27.5645 63.0317 27.0489 63.1098 26.6825 62.8352Z"
            fill="#FF8C54" />
        <path
            d="M22.9718 42.5765C22.3441 42.5765 21.941 41.8924 22.2594 41.3411L34.7166 19.7647C35.033 19.2169 35.8261 19.2159 36.143 19.7647C36.1496 19.776 47.8973 40.1256 47.9107 40.1488C48.1381 40.5426 48.0031 41.0463 47.6091 41.2736C47.2155 41.5009 46.7116 41.3661 46.4843 40.9721C46.4734 40.9533 35.4505 21.8594 35.4298 21.8235L23.6856 42.1646C23.5332 42.4288 23.2563 42.5765 22.9718 42.5765Z"
            fill="#FF8C54" />
        <path
            d="M54.463 40.3529L46.0416 25.7654L42.5866 31.7497C42.3593 32.1435 41.8557 32.2785 41.4617 32.0512C41.0678 31.8238 40.9329 31.3201 41.1603 30.9262L45.3284 23.7066C45.4756 23.4519 45.7473 23.2949 46.0416 23.2949C46.3359 23.2949 46.6076 23.4519 46.7548 23.7066L55.8893 39.5293C56.1167 39.9233 55.9818 40.427 55.5879 40.6543C55.1945 40.8812 54.6907 40.7473 54.463 40.3529Z"
            fill="#FF8C54" />
    </g>
    <defs>
        <clipPath id="clip0_272_253">
            <rect width="56" height="70" fill="white" />
        </clipPath>
    </defs>
</svg>