<svg width="160" height="200" viewBox="0 0 160 200" fill="none" xmlns="http://www.w3.org/2000/svg">
<g id="noun-vision-1320324 1" opacity="0.4">
<g id="Group 50">
<path id="Vector" d="M80 150C133.54 150 154.598 101.46 154.805 100.97C155.065 100.35 155.065 99.6525 154.805 99.0325C154.598 98.54 133.54 50 80 50C26.46 50 5.4025 98.54 5.195 99.03C4.935 99.65 4.935 100.348 5.195 100.968C5.4025 101.46 26.46 150 80 150ZM35 100C35 75.1875 55.1875 55 80 55C104.812 55 125 75.1875 125 100C125 124.812 104.812 145 80 145C55.1875 145 35 124.812 35 100ZM149.745 100C147.445 104.772 136.232 125.88 113.057 137.412C123.42 128.245 130 114.893 130 100C130 85.1075 123.42 71.755 113.057 62.5875C136.235 74.12 147.447 95.2275 149.745 100ZM46.9425 62.5875C36.58 71.755 30 85.1075 30 100C30 114.893 36.58 128.245 46.9425 137.412C23.765 125.88 12.5525 104.772 10.255 100C12.5525 95.2275 23.765 74.12 46.9425 62.5875Z" fill="#282830"/>
<path id="Vector_2" d="M114.667 118.745C115.115 117.967 115.11 117.015 114.66 116.24L97.5 86.8225V65C97.5 64.0525 96.965 63.1875 96.1175 62.7625C95.27 62.3425 94.2575 62.43 93.5 63L83.5 70.5C82.8075 71.02 82.43 71.8625 82.51 72.725C82.59 73.5875 83.1075 74.3475 83.8825 74.7375L92.5 79.045V86.7425L74.75 113.365L61.895 98.3725C60.9475 97.265 59.0475 97.265 58.1 98.3725L43.1 115.872C42.4625 116.612 42.3175 117.657 42.7275 118.542C43.1375 119.427 44.0225 120 45 120H74.995H75H75.005H112.5C113.395 120 114.22 119.522 114.667 118.745ZM50.435 115L60 103.84L69.565 115H50.435ZM89.7375 72.0725L92.5 70V73.455L89.7375 72.0725ZM79.67 115L94.8575 92.22L108.147 115H79.67Z" fill="#282830"/>
<path id="Vector_3" d="M75 65H70V70H75V65Z" fill="#282830"/>
<path id="Vector_4" d="M80 70H75V75H80V70Z" fill="#282830"/>
<path id="Vector_5" d="M75 75H70V80H75V75Z" fill="#282830"/>
<path id="Vector_6" d="M70 70H65V75H70V70Z" fill="#282830"/>
<path id="Vector_7" d="M112.5 72.5H107.5V77.5H112.5V72.5Z" fill="#282830"/>
<path id="Vector_8" d="M110 85H105V90H110V85Z" fill="#282830"/>
<path id="Vector_9" d="M10 30H35V25H7.5C6.1175 25 5 26.1175 5 27.5V55H10V30Z" fill="#282830"/>
<path id="Vector_10" d="M155 55V27.5C155 26.1175 153.882 25 152.5 25H125V30H150V55H155Z" fill="#282830"/>
<path id="Vector_11" d="M5 145V172.5C5 173.882 6.1175 175 7.5 175H35V170H10V145H5Z" fill="#282830"/>
<path id="Vector_12" d="M150 170H125V175H152.5C153.882 175 155 173.882 155 172.5V145H150V170Z" fill="#282830"/>
</g>
</g>
</svg>
