<svg width="56" height="70" viewBox="0 0 56 70" fill="none" xmlns="http://www.w3.org/2000/svg">
<path d="M28.2625 47.3794C27.4218 47.3794 26.6001 47.1301 25.9011 46.6631C25.2022 46.1961 24.6574 45.5323 24.3357 44.7556C24.014 43.979 23.9299 43.1244 24.0939 42.3C24.2579 41.4755 24.6627 40.7182 25.2571 40.1238C25.8515 39.5294 26.6088 39.1246 27.4333 38.9606C28.2577 38.7966 29.1123 38.8807 29.8889 39.2024C30.6656 39.5241 31.3294 40.0689 31.7964 40.7678C32.2634 41.4668 32.5127 42.2885 32.5127 43.1292C32.5115 44.256 32.0633 45.3364 31.2665 46.1332C30.4697 46.93 29.3893 47.3782 28.2625 47.3794ZM28.2625 40.6289C27.7679 40.6289 27.2846 40.7755 26.8734 41.0503C26.4622 41.325 26.1418 41.7155 25.9525 42.1724C25.7633 42.6292 25.7138 43.1319 25.8103 43.6169C25.9067 44.1019 26.1448 44.5474 26.4945 44.8971C26.8442 45.2468 27.2897 45.4849 27.7747 45.5814C28.2597 45.6778 28.7624 45.6283 29.2193 45.4391C29.6761 45.2498 30.0666 44.9294 30.3413 44.5182C30.6161 44.107 30.7627 43.6237 30.7627 43.1292C30.7618 42.4663 30.4981 41.8309 30.0294 41.3622C29.5607 40.8935 28.9253 40.6298 28.2625 40.6289Z" fill="#FF8C54"/>
<path d="M36.1371 42.8786C35.2966 42.8785 34.4749 42.6291 33.7761 42.1621C33.0773 41.695 32.5326 41.0313 32.211 40.2547C31.8894 39.4781 31.8054 38.6236 31.9694 37.7992C32.1335 36.9748 32.5383 36.2176 33.1327 35.6234C33.7272 35.0291 34.4844 34.6244 35.3088 34.4605C36.1332 34.2966 36.9877 34.3808 37.7643 34.7026C38.5408 35.0243 39.2045 35.5691 39.6714 36.268C40.1383 36.9669 40.3874 37.7886 40.3873 38.6292C40.386 39.7559 39.9377 40.8361 39.1409 41.6327C38.3441 42.4294 37.2638 42.8774 36.1371 42.8786ZM36.1371 36.1289C35.6427 36.129 35.1595 36.2757 34.7484 36.5504C34.3374 36.8251 34.0171 37.2155 33.8279 37.6723C33.6388 38.1291 33.5893 38.6317 33.6858 39.1165C33.7822 39.6014 34.0203 40.0468 34.3699 40.3964C34.7195 40.746 35.1648 40.984 35.6497 41.0805C36.1346 41.177 36.6372 41.1275 37.094 40.9384C37.5507 40.7492 37.9412 40.4289 38.2159 40.0178C38.4906 39.6068 38.6373 39.1236 38.6373 38.6292C38.6365 37.9663 38.3728 37.3309 37.9041 36.8622C37.4354 36.3935 36.7999 36.1298 36.1371 36.1289Z" fill="#FF8C54"/>
<path d="M42.8873 49.629H36.1377C35.9056 49.629 35.6831 49.5369 35.519 49.3728C35.3549 49.2087 35.2627 48.9861 35.2627 48.754C35.2627 48.522 35.3549 48.2994 35.519 48.1353C35.6831 47.9712 35.9056 47.879 36.1377 47.879H41.9474C41.7409 46.4865 41.069 45.205 40.041 44.2432C39.533 43.7609 38.9299 43.39 38.2702 43.1544C37.6105 42.9188 36.9089 42.8237 36.2103 42.8751C36.0955 42.8864 35.9796 42.8746 35.8695 42.8402C35.7594 42.8059 35.6572 42.7499 35.5692 42.6754C35.4811 42.6008 35.4089 42.5094 35.3569 42.4065C35.3048 42.3036 35.2739 42.1913 35.2661 42.0762C35.2565 41.9617 35.2696 41.8465 35.3045 41.7371C35.3395 41.6277 35.3957 41.5262 35.4699 41.4385C35.5441 41.3509 35.6349 41.2787 35.737 41.2261C35.8391 41.1734 35.9505 41.1415 36.065 41.132C37.005 41.0573 37.9503 41.181 38.8394 41.4952C39.7285 41.8093 40.5417 42.3068 41.2261 42.9555C42.0259 43.6948 42.6641 44.5917 43.1006 45.5896C43.537 46.5875 43.7623 47.6649 43.7623 48.7541C43.7623 48.869 43.7397 48.9828 43.6958 49.089C43.6518 49.1951 43.5874 49.2916 43.5061 49.3729C43.4249 49.4542 43.3284 49.5186 43.2222 49.5626C43.116 49.6065 43.0022 49.6291 42.8873 49.629Z" fill="#FF8C54"/>
<path d="M33.775 51.8787H22.7504C22.6206 51.8787 22.4926 51.8498 22.3754 51.7943C22.2582 51.7387 22.1548 51.6578 22.0727 51.5574C21.9906 51.4569 21.9318 51.3395 21.9007 51.2136C21.8695 51.0877 21.8667 50.9565 21.8924 50.8294C22.1924 49.3612 22.9902 48.0417 24.151 47.0941C25.3117 46.1465 26.7642 45.6289 28.2627 45.6289C29.7611 45.6289 31.2136 46.1465 32.3744 47.0941C33.5352 48.0417 34.333 49.3612 34.6329 50.8294C34.6587 50.9565 34.6559 51.0877 34.6247 51.2136C34.5935 51.3395 34.5348 51.4569 34.4527 51.5574C34.3706 51.6578 34.2672 51.7387 34.15 51.7943C34.0328 51.8498 33.9047 51.8787 33.775 51.8787ZM23.9535 50.1287H32.5719C32.1904 49.3073 31.582 48.6121 30.8186 48.1249C30.0551 47.6377 29.1683 47.3789 28.2627 47.3789C27.357 47.3789 26.4702 47.6377 25.7068 48.1249C24.9433 48.6121 24.335 49.3073 23.9535 50.1287Z" fill="#FF8C54"/>
<path d="M45.7627 58.5044C45.6478 58.5045 45.534 58.4819 45.4278 58.4379C45.3216 58.394 45.2251 58.3295 45.1438 58.2483C45.0626 58.167 44.9981 58.0705 44.9542 57.9643C44.9102 57.8581 44.8876 57.7443 44.8877 57.6294V33.1294C44.8877 32.8973 44.9799 32.6748 45.144 32.5107C45.3081 32.3466 45.5306 32.2544 45.7627 32.2544C45.9948 32.2544 46.2173 32.3466 46.3814 32.5107C46.5455 32.6748 46.6377 32.8973 46.6377 33.1294V57.6294C46.6378 57.7443 46.6152 57.8581 46.5712 57.9643C46.5273 58.0705 46.4628 58.167 46.3816 58.2483C46.3003 58.3295 46.2038 58.394 46.0976 58.4379C45.9914 58.4819 45.8776 58.5045 45.7627 58.5044Z" fill="#FF8C54"/>
<path d="M10.7627 58.5044C10.6478 58.5045 10.534 58.4819 10.4278 58.4379C10.3216 58.394 10.2251 58.3295 10.1438 58.2483C10.0626 58.167 9.99811 58.0705 9.95416 57.9643C9.91022 57.8581 9.88763 57.7443 9.8877 57.6294V33.1294C9.8877 32.8973 9.97988 32.6748 10.144 32.5107C10.3081 32.3466 10.5306 32.2544 10.7627 32.2544C10.9948 32.2544 11.2173 32.3466 11.3814 32.5107C11.5455 32.6748 11.6377 32.8973 11.6377 33.1294V57.6294C11.6378 57.7443 11.6152 57.8581 11.5712 57.9643C11.5273 58.0705 11.4628 58.167 11.3816 58.2483C11.3003 58.3295 11.2038 58.394 11.0976 58.4379C10.9914 58.4819 10.8776 58.5045 10.7627 58.5044Z" fill="#FF8C54"/>
<path d="M49.2627 58.5044H7.2627C7.03063 58.5044 6.80807 58.4122 6.64398 58.2481C6.47988 58.084 6.3877 57.8615 6.3877 57.6294C6.3877 57.3973 6.47988 57.1748 6.64398 57.0107C6.80807 56.8466 7.03063 56.7544 7.2627 56.7544H49.2627C49.4948 56.7544 49.7173 56.8466 49.8814 57.0107C50.0455 57.1748 50.1377 57.3973 50.1377 57.6294C50.1377 57.8615 50.0455 58.084 49.8814 58.2481C49.7173 58.4122 49.4948 58.5044 49.2627 58.5044Z" fill="#FF8C54"/>
<path d="M7.63413 35.4716C6.87927 35.4729 6.14281 35.2387 5.52735 34.8016C4.9119 34.3646 4.4481 33.7464 4.20058 33.0333C3.95306 32.3201 3.93415 31.5476 4.14647 30.8232C4.3588 30.0988 4.79179 29.4587 5.38512 28.992L26.0211 12.778C26.6595 12.2741 27.4491 12 28.2624 12C29.0758 12 29.8654 12.2741 30.5038 12.778L37.9131 18.5997V13.8795C37.913 13.7645 37.9356 13.6507 37.9795 13.5445C38.0235 13.4383 38.0879 13.3419 38.1692 13.2606C38.2505 13.1793 38.347 13.1149 38.4531 13.0709C38.5593 13.027 38.6731 13.0044 38.7881 13.0045H44.0509C44.1658 13.0044 44.2797 13.027 44.3858 13.0709C44.492 13.1149 44.5885 13.1793 44.6698 13.2606C44.751 13.3419 44.8155 13.4383 44.8595 13.5445C44.9034 13.6507 44.926 13.7645 44.9259 13.8795V24.1094L51.1398 28.9919C51.8962 29.5864 52.3854 30.4569 52.4999 31.4121C52.6144 32.3673 52.3448 33.3288 51.7503 34.0851C51.1559 34.8415 50.2853 35.3307 49.3302 35.4452C48.375 35.5597 47.4135 35.2901 46.6571 34.6957L28.2624 20.242L9.86778 34.6957C9.23196 35.1987 8.44485 35.4721 7.63413 35.4716ZM28.2624 13.7513C27.8417 13.7513 27.4332 13.8931 27.1029 14.1538L6.4669 30.3677C6.1751 30.5972 5.95788 30.9081 5.84269 31.261C5.72751 31.614 5.71952 31.9931 5.81975 32.3506C5.91997 32.708 6.12391 33.0278 6.40579 33.2694C6.68767 33.511 7.03484 33.6636 7.40343 33.7079C7.64808 33.7381 7.89629 33.7194 8.13363 33.6528C8.37097 33.5862 8.5927 33.4731 8.78593 33.32L27.7215 18.4415C27.8757 18.3203 28.0662 18.2544 28.2624 18.2544C28.4585 18.2544 28.649 18.3203 28.8032 18.4415L47.7388 33.32C48.1304 33.6264 48.6275 33.7649 49.1212 33.7052C49.6148 33.6454 50.0645 33.3922 50.3717 33.0012C50.6788 32.6102 50.8183 32.1133 50.7595 31.6196C50.7006 31.1259 50.4483 30.6756 50.0579 30.3677L43.5099 25.2229C43.4058 25.141 43.3216 25.0365 43.2638 24.9173C43.2059 24.7982 43.1759 24.6674 43.1759 24.535V14.7545H39.6631V20.4001C39.6631 20.5643 39.6169 20.7252 39.5298 20.8644C39.4426 21.0036 39.3181 21.1154 39.1704 21.1872C39.0227 21.2589 38.8578 21.2877 38.6945 21.2701C38.5313 21.2526 38.3762 21.1895 38.2472 21.088L29.4219 14.1538C29.0917 13.8931 28.6832 13.7513 28.2624 13.7513Z" fill="#FF8C54"/>
<path d="M45.0375 14.7544H37.8008C37.5687 14.7544 37.3462 14.6622 37.1821 14.4981C37.018 14.334 36.9258 14.1115 36.9258 13.8794C36.9258 13.6473 37.018 13.4248 37.1821 13.2607C37.3462 13.0966 37.5687 13.0044 37.8008 13.0044H45.0375C45.2695 13.0044 45.4921 13.0966 45.6562 13.2607C45.8203 13.4248 45.9125 13.6473 45.9125 13.8794C45.9125 14.1115 45.8203 14.334 45.6562 14.4981C45.4921 14.6622 45.2695 14.7544 45.0375 14.7544Z" fill="#FF8C54"/>
<path d="M20.3987 42.8786C19.5581 42.8786 18.7364 42.6295 18.0375 42.1625C17.3385 41.6956 16.7937 41.0318 16.472 40.2553C16.1503 39.4787 16.0661 38.6242 16.2301 37.7997C16.394 36.9753 16.7988 36.218 17.3932 35.6237C17.9876 35.0293 18.7448 34.6245 19.5693 34.4605C20.3937 34.2966 21.2482 34.3808 22.0248 34.7025C22.8014 35.0242 23.4651 35.569 23.932 36.2679C24.399 36.9669 24.6482 37.7886 24.6481 38.6292C24.6467 39.7558 24.1986 40.8358 23.402 41.6324C22.6054 42.4291 21.5253 42.8772 20.3987 42.8786ZM20.3987 36.1289C19.9043 36.1288 19.4209 36.2754 19.0098 36.55C18.5987 36.8246 18.2782 37.215 18.0889 37.6717C17.8996 38.1285 17.85 38.6311 17.9464 39.116C18.0428 39.601 18.2808 40.0464 18.6303 40.3961C18.9799 40.7458 19.4253 40.9839 19.9102 41.0805C20.3951 41.177 20.8977 41.1276 21.3545 40.9384C21.8113 40.7493 22.2018 40.429 22.4766 40.0179C22.7513 39.6069 22.898 39.1236 22.8981 38.6292C22.8972 37.9665 22.6336 37.3312 22.1651 36.8625C21.6966 36.3938 21.0614 36.13 20.3987 36.1289Z" fill="#FF8C54"/>
<path d="M20.3989 49.6292H13.6484C13.5335 49.6293 13.4197 49.6067 13.3135 49.5628C13.2073 49.5188 13.1108 49.4544 13.0296 49.3731C12.9483 49.2918 12.8839 49.1953 12.8399 49.0892C12.796 48.983 12.7734 48.8692 12.7734 48.7542C12.7734 47.6652 12.9987 46.5879 13.4352 45.5901C13.8716 44.5923 14.5098 43.6957 15.3096 42.9565C15.9944 42.3081 16.8077 41.8107 17.6969 41.4965C18.5861 41.1822 19.5314 41.0581 20.4715 41.1321C20.7027 41.1514 20.9167 41.2617 21.0666 41.4388C21.2164 41.6158 21.2898 41.8452 21.2705 42.0763C21.2512 42.3075 21.1409 42.5215 20.9639 42.6714C20.7868 42.8212 20.5575 42.8946 20.3263 42.8753C19.6275 42.8242 18.9258 42.9195 18.266 43.1552C17.6062 43.391 17.0029 43.7619 16.4948 44.2442C15.4666 45.2055 14.7946 46.4869 14.5883 47.8792H20.3989C20.6309 47.8792 20.8535 47.9714 21.0176 48.1355C21.1817 48.2996 21.2739 48.5222 21.2739 48.7542C21.2739 48.9863 21.1817 49.2089 21.0176 49.3729C20.8535 49.537 20.631 49.6292 20.3989 49.6292Z" fill="#FF8C54"/>
</svg>
