<svg xmlns="http://www.w3.org/2000/svg" viewBox="0 0 529 444">
    <script xmlns="" id="eppiocemhmnlbhjplcgkofciiegomcon" />
    <script xmlns="" />
    <script xmlns="" />
    <path
        d="M161.27 107.53C161.751 99.8242 166.554 96.3195 170.447 92.3026C198.133 63.738 226.135 35.4901 253.46 6.5678C261.482 -1.92291 266.966 -2.36068 275.14 6.30447C303.091 35.9327 331.618 64.9897 359.995 94.1932C364.43 98.7571 367.607 103.473 367.58 110.425C367.397 158.378 367.478 206.332 367.387 254.286C367.383 256.508 366.547 258.728 366.121 260.836C359.496 262.186 357.342 256.992 354.27 253.871C327.703 226.872 301.059 199.945 274.925 172.508C266.994 164.182 261.546 163.626 253.275 172.441C227.671 199.726 201.28 226.233 175.141 252.987C171.93 256.273 169.328 260.514 161.207 262.383C161.207 210.519 161.207 159.652 161.27 107.53Z"
        fill="#29A29E" />
    <path
        d="M307.178 276.367C324.569 294.535 341.096 312.153 358.032 329.346C364.778 336.195 367.906 343.563 367.676 353.524C367.1 378.436 367.215 403.377 367.624 428.296C367.794 438.64 364.115 443.056 353.788 443.01C293.975 442.748 234.16 442.741 174.346 442.868C164.888 442.888 160.954 439.073 161.077 429.171C161.415 401.852 161.316 374.524 161.045 347.203C160.976 340.252 164.02 335.554 168.492 330.97C197.249 301.492 226.066 272.072 254.452 242.222C261.561 234.747 266.718 233.935 273.894 241.977C284.294 253.633 295.573 264.464 307.178 276.367Z"
        fill="#29A29E" />
    <path
        d="M71.3681 194.193C83.8044 181.45 95.5408 169.428 107.277 157.406C108.403 158.044 109.528 158.683 110.653 159.321C110.653 233.976 110.653 308.631 110.653 383.335C104.465 385.838 102.032 380.536 99.0262 377.47C67.8837 345.704 37.1574 313.503 5.69581 282.076C-2.68166 273.708 -1.22721 268.406 6.21445 260.962C27.9548 239.215 49.218 216.967 71.3681 194.193Z"
        fill="#29A29E" />
    <path
        d="M519.957 259.724C531.785 268.183 530.122 274.805 520.902 283.943C490.364 314.213 460.695 345.404 430.624 376.171C427.464 379.405 425.119 384.094 418.03 383.959C418.03 309.246 418.03 234.596 418.03 159.947C418.975 158.997 419.92 158.047 420.865 157.098C453.662 191.067 486.46 225.036 519.957 259.724Z"
        fill="#29A29E" />
</svg>