<svg xmlns="http://www.w3.org/2000/svg" width="223" height="40" viewBox="0 0 223 40" fill="none">
    <script xmlns="" id="eppiocemhmnlbhjplcgkofciiegomcon" />
    <script xmlns="" />
    <script xmlns="" />
    <path
        d="M14.5614 9.70907C14.6048 9.01326 15.0385 8.69682 15.39 8.33412C17.8898 5.75499 20.4182 3.20445 22.8853 0.593015C23.6096 -0.173622 24.1048 -0.213149 24.8429 0.569239C27.3666 3.24441 29.9424 5.86801 32.5046 8.50483C32.905 8.91691 33.1918 9.3427 33.1894 9.97041C33.1729 14.3002 33.1802 18.63 33.172 22.9598C33.1716 23.1604 33.0961 23.3609 33.0577 23.5512C32.4595 23.6731 32.265 23.2042 31.9876 22.9223C29.5888 20.4846 27.1831 18.0533 24.8234 15.576C24.1073 14.8242 23.6154 14.774 22.8686 15.5699C20.5568 18.0335 18.1739 20.4269 15.8138 22.8425C15.5239 23.1392 15.289 23.5222 14.5557 23.6909C14.5557 19.008 14.5557 14.4152 14.5614 9.70907Z"
        fill="#FF8C54" />
    <path
        d="M27.7356 24.9536C29.3059 26.594 30.7982 28.1847 32.3273 29.7371C32.9364 30.3555 33.2189 31.0208 33.1981 31.9201C33.1461 34.1695 33.1565 36.4214 33.1934 38.6714C33.2087 39.6054 32.8765 40.0041 31.9441 40C26.5435 39.9763 21.1428 39.9757 15.7421 39.9871C14.8881 39.9889 14.5329 39.6444 14.544 38.7504C14.5746 36.2837 14.5656 33.8162 14.5411 31.3494C14.5349 30.7218 14.8097 30.2976 15.2136 29.8837C17.8101 27.2221 20.4119 24.5657 22.975 21.8705C23.6168 21.1956 24.0825 21.1223 24.7304 21.8484C25.6694 22.9008 26.6878 23.8788 27.7356 24.9536Z"
        fill="#FF8C54" />
    <path
        d="M6.44392 17.534C7.56681 16.3834 8.62651 15.2979 9.68621 14.2124C9.78781 14.2701 9.8894 14.3277 9.991 14.3853C9.991 21.126 9.991 27.8667 9.991 34.6118C9.4323 34.8379 9.21263 34.3591 8.94121 34.0823C6.12931 31.2141 3.35499 28.3067 0.514282 25.4691C-0.24213 24.7135 -0.110807 24.2348 0.561111 23.5627C2.52407 21.5991 4.44396 19.5902 6.44392 17.534Z"
        fill="#FF8C54" />
    <path
        d="M46.9477 23.4508C48.0157 24.2146 47.8655 24.8125 47.0331 25.6376C44.2757 28.3707 41.5969 31.187 38.8817 33.965C38.5964 34.257 38.3847 34.6804 37.7446 34.6682C37.7446 27.9222 37.7446 21.182 37.7446 14.4418C37.8299 14.356 37.9152 14.2703 38.0005 14.1846C40.9619 17.2517 43.9233 20.3188 46.9477 23.4508Z"
        fill="#FF8C54" />
    <path
        d="M154.691 14.0674C154.691 11.8773 154.691 9.81725 154.691 7.75714C154.612 7.7371 154.532 7.71707 154.452 7.69704C153.065 10.1486 151.675 12.5979 150.293 15.0524C148.964 17.4133 147.615 19.764 146.334 22.1522C145.907 22.9471 145.361 23.238 144.505 23.2143C140.258 23.0966 141.492 23.8502 139.367 20.1696C136.984 16.0401 134.695 11.8533 132.291 7.55827C131.95 8.0982 132.065 8.56266 132.064 8.98904C132.053 13.2319 132.023 17.4752 132.074 21.7174C132.088 22.8592 131.713 23.2788 130.614 23.2115C129.479 23.1419 128.336 23.1821 127.197 23.1946C126.414 23.2032 126.06 22.8734 126.062 22.0289C126.08 15.7512 126.079 9.47342 126.06 3.19573C126.057 2.32408 126.461 2.06931 127.224 2.07344C129.799 2.08736 132.374 2.09758 134.948 2.06771C135.777 2.05808 136.121 2.56795 136.464 3.20632C138.5 6.99664 140.554 10.777 142.606 14.5588C142.808 14.9315 143.032 15.2913 143.315 15.7735C143.934 15.1536 144.242 14.4512 144.599 13.7924C146.486 10.313 148.385 6.83954 150.231 3.33696C150.708 2.43182 151.285 2.02079 152.323 2.05275C154.642 2.12416 156.965 2.10843 159.286 2.06022C160.291 2.03935 160.71 2.34689 160.703 3.45654C160.662 9.60415 160.669 15.7522 160.697 21.9C160.702 22.8529 160.378 23.2423 159.453 23.2086C158.357 23.1687 157.256 23.1504 156.162 23.2124C155.086 23.2732 154.644 22.8908 154.674 21.7301C154.738 19.2207 154.692 16.7084 154.691 14.0674Z"
        fill="white" />
    <path
        d="M222.967 20.566C222.966 23.2038 222.966 23.2046 220.458 23.1993C219.572 23.1975 218.685 23.1744 217.798 23.1908C217.054 23.2045 216.735 22.8767 216.748 22.0988C216.761 21.324 216.758 20.533 216.624 19.7749C216.356 18.2604 215.742 17.6244 214.242 17.5876C210.95 17.5068 207.656 17.5587 204.363 17.539C203.623 17.5345 203.422 17.937 203.432 18.6046C203.447 19.6438 203.398 20.6851 203.443 21.7225C203.487 22.7528 203.125 23.2539 202.059 23.2083C200.837 23.1561 199.61 23.1711 198.387 23.2034C197.488 23.2271 197.077 22.8637 197.079 21.9095C197.093 15.716 197.09 9.52235 197.074 3.32878C197.072 2.36206 197.52 2.06166 198.407 2.06472C204.487 2.08569 210.567 2.06777 216.647 2.09165C217.443 2.09478 218.249 2.21295 219.033 2.36737C221.449 2.84314 222.847 4.51556 222.968 7.06625C223.017 8.10348 222.998 9.14492 222.986 10.1841C222.954 12.7574 222.247 13.7533 219.884 14.5912C219.693 14.6589 219.502 14.7263 218.861 14.9531C222.342 15.4862 223.12 17.6453 222.967 20.566ZM203.439 9.78289C203.44 10.4313 203.449 11.0798 203.44 11.728C203.431 12.3715 203.712 12.6706 204.355 12.6673C207.768 12.6498 211.182 12.6753 214.594 12.6192C215.379 12.6063 216.205 12.4298 216.669 11.6036C217.868 9.4734 216.654 7.14845 214.295 7.12131C211.472 7.08882 208.648 7.10172 205.825 7.10919C203.225 7.11607 203.449 6.8174 203.439 9.78289Z"
        fill="white" />
    <path
        d="M61.8183 23.2008C59.7099 23.1764 59.7054 23.1764 59.704 21.0981C59.7003 15.2986 59.7292 9.49875 59.6765 3.69969C59.6653 2.46726 60.0173 1.96569 61.2525 2.05777C62.4278 2.14539 63.6143 2.09709 64.7952 2.07295C65.5985 2.05653 65.9369 2.4111 65.9255 3.23855C65.9017 4.96937 65.9578 6.7018 65.9119 8.43163C65.8878 9.3377 66.235 9.6636 67.0935 9.65883C71.0172 9.63699 74.9411 9.63651 78.8648 9.65578C79.6744 9.65976 80.0001 9.33939 79.9843 8.50253C79.9517 6.772 80.0028 5.03979 79.9682 3.30934C79.9506 2.42488 80.2833 2.04559 81.1552 2.06927C82.4622 2.1048 83.7711 2.09793 85.0786 2.0749C85.866 2.06103 86.2178 2.36768 86.2153 3.21874C86.1967 9.4943 86.1995 15.7699 86.2149 22.0455C86.2167 22.7914 85.9736 23.1949 85.2085 23.1892C83.8164 23.1788 82.4241 23.1765 81.0319 23.179C80.1874 23.1805 79.9719 22.6748 79.9788 21.9125C79.9952 20.0949 79.926 18.2746 80.0012 16.4601C80.0467 15.3594 79.7587 14.9173 78.6038 14.9373C74.9355 15.0005 71.2655 14.9491 67.5963 14.9646C66.0517 14.9711 65.9232 15.1225 65.9201 16.6546C65.9165 18.4291 65.8954 20.2042 65.933 21.9778C65.9522 22.8806 65.572 23.23 64.7256 23.2058C63.7981 23.1793 62.8693 23.2007 61.8183 23.2008Z"
        fill="white" />
    <path
        d="M167.294 15.7484C169.648 11.4833 171.971 7.30952 174.25 3.11116C174.649 2.3773 175.122 2.04209 175.948 2.05922C177.974 2.10123 180.001 2.09438 182.028 2.06559C182.778 2.05494 183.292 2.29052 183.677 2.99119C187.152 9.33095 190.652 15.6571 194.138 21.9907C194.28 22.248 194.361 22.5404 194.453 22.7719C194.249 23.2469 193.88 23.1881 193.555 23.1952C192.879 23.2101 192.191 23.1156 191.53 23.216C188.999 23.6004 187.095 22.9173 186.231 20.2109C186.027 19.5716 185.512 19.3321 184.833 19.3356C180.949 19.3556 177.064 19.3634 173.18 19.3301C172.368 19.3232 171.865 19.6894 171.636 20.3967C170.858 22.7913 169.267 23.6231 166.892 23.2237C165.827 23.0445 164.712 23.3529 163.324 22.964C164.67 20.5172 165.959 18.1744 167.294 15.7484ZM175.438 15.0481C178.016 14.9933 180.604 15.1907 183.408 14.9117C181.903 12.1104 180.52 9.53573 178.998 6.70311C177.552 9.44152 176.271 11.8664 174.992 14.2932C174.814 14.6322 174.701 14.9616 175.438 15.0481Z"
        fill="white" />
    <path
        d="M108.492 4.97892C108.491 8.78539 108.489 12.4629 108.49 16.1404C108.491 17.9558 108.493 17.9565 110.334 17.9565C113.919 17.9565 117.504 17.9545 121.089 17.9559C123.193 17.9568 123.193 17.9591 123.193 20.1759C123.193 20.7816 123.155 21.3903 123.2 21.9923C123.271 22.9186 122.834 23.2034 121.999 23.2014C115.842 23.1868 109.684 23.1834 103.526 23.201C102.631 23.2036 102.241 22.8996 102.245 21.9217C102.272 15.735 102.27 9.54797 102.241 3.36126C102.236 2.39538 102.598 2.04176 103.507 2.07069C104.687 2.10824 105.872 2.13241 107.049 2.05824C108.155 1.98849 108.618 2.41976 108.499 3.55283C108.454 3.98044 108.492 4.4173 108.492 4.97892Z"
        fill="white" />
    <path
        d="M91.3618 2.3058C93.1246 1.9073 94.8112 2.13778 96.491 2.09916C97.1487 2.08404 97.3455 2.50226 97.3449 3.11323C97.3395 9.4715 97.3387 15.8298 97.3457 22.188C97.3464 22.8241 97.0922 23.1723 96.4598 23.1749C94.9842 23.181 93.5086 23.1826 92.033 23.1794C91.0998 23.1773 91.1156 22.4985 91.1158 21.8203C91.1172 16.5001 91.1006 11.1798 91.1237 5.8597C91.1287 4.70169 90.9402 3.5284 91.3618 2.3058Z"
        fill="white" />
    <path
        d="M134.454 32.587C135.316 31.896 136.22 32.2262 137.081 32.2295C137.582 32.2314 137.641 32.6714 137.643 33.0796C137.649 34.68 137.646 36.2805 137.652 37.8809C137.654 38.47 137.379 38.7573 136.807 38.758C136.223 38.7587 135.974 38.4461 135.976 37.8671C135.981 36.5412 135.978 35.2153 135.706 33.8282C134.939 35.1572 134.174 36.4869 133.405 37.8152C132.629 39.158 131.727 39.1888 130.954 37.874C130.171 36.5437 129.422 35.1924 128.435 33.8711C128.435 35.0872 128.442 36.3034 128.432 37.5195C128.426 38.1546 128.366 38.7669 127.52 38.7765C126.668 38.7861 126.61 38.1994 126.613 37.5447C126.619 36.1172 126.632 34.6894 126.607 33.2624C126.594 32.4974 126.902 32.218 127.652 32.158C128.986 32.0512 129.981 32.3001 130.559 33.7485C130.931 34.68 131.372 35.6466 132.171 36.4417C133.171 35.3126 133.592 33.8704 134.454 32.587Z"
        fill="white" />
    <path
        d="M108.538 38.8054C106.645 38.4407 106.335 38.0605 106.312 36.2147C106.266 32.3748 106.582 32.0347 110.362 32.0264C111.41 32.0241 112.459 32.1299 113.508 32.1704C114.653 32.2146 115.28 32.8403 115.476 33.9666C115.52 34.2203 115.558 34.477 115.572 34.7339C115.758 38.2303 115.212 38.8228 111.807 38.8218C110.756 38.8214 109.704 38.8145 108.538 38.8054ZM113.66 35.4994C113.604 35.1197 113.608 34.7157 113.478 34.365C113.146 33.4772 112.34 33.5442 111.653 33.6132C110.543 33.7249 109.162 33.007 108.389 34.2627C107.451 35.7867 108.427 37.3731 110.174 37.3867C110.719 37.3909 111.266 37.3591 111.809 37.3927C112.989 37.4657 113.661 36.9839 113.66 35.4994Z"
        fill="white" />
    <path
        d="M148.665 38.5155C148.325 36.6192 148.49 34.8027 148.495 32.99C148.496 32.688 148.594 32.4043 148.909 32.247C149.705 31.8492 151.686 32.2778 152.273 33.0042C153.368 34.3602 154.455 35.7243 155.687 37.2623C155.904 35.7997 156.025 34.5802 155.901 33.3373C155.842 32.7418 155.869 32.2088 156.69 32.1772C157.52 32.1454 157.681 32.5997 157.672 33.3094C157.653 34.7381 157.636 36.1682 157.679 37.5958C157.706 38.5136 157.302 38.7605 156.466 38.8141C155.229 38.8934 154.311 38.5762 153.541 37.4862C152.639 36.211 151.694 34.9408 150.313 33.6472C150.313 35.0697 150.322 36.2196 150.31 37.3692C150.295 38.7984 150.151 38.9055 148.665 38.5155Z"
        fill="white" />
    <path
        d="M61.3386 32.174C63.0631 32.1756 64.6645 32.1546 66.2651 32.1847C67.9911 32.2172 68.6436 32.8822 68.7221 34.6029C68.8928 38.3419 68.4674 38.799 64.8115 38.7965C63.5054 38.7956 62.1989 38.7697 60.8933 38.7937C60.0451 38.8092 59.6685 38.4642 59.6982 37.5635C59.7409 36.2684 59.7794 34.9653 59.6863 33.6757C59.5972 32.4413 60.0971 32.0231 61.3386 32.174ZM61.7256 33.7004C61.2228 34.7116 61.5579 35.7882 61.5033 36.8337C61.4842 37.1997 61.7511 37.3574 62.0908 37.3563C63.2675 37.3526 64.4538 37.4384 65.6184 37.3132C66.9695 37.1679 66.8457 36.0406 66.843 35.0297C66.8404 34.055 66.3816 33.6041 65.4502 33.6122C64.2736 33.6224 63.0969 33.6288 61.7256 33.7004Z"
        fill="white" />
    <path
        d="M144.387 34.8357C145.148 34.9839 146.291 34.4575 146.312 35.397C146.336 36.4321 145.197 35.8817 144.577 35.9575C143.788 36.054 142.979 35.9854 142.179 35.9868C141.731 35.9876 141.307 36.0142 141.345 36.656C141.378 37.2007 141.695 37.4007 142.185 37.4021C143.364 37.4055 144.543 37.4007 145.721 37.4187C146.216 37.4262 146.853 37.3525 146.848 38.105C146.842 38.8518 146.2 38.7828 145.71 38.7873C144.026 38.8029 142.342 38.7812 140.658 38.7952C139.894 38.8016 139.483 38.5313 139.505 37.6653C139.542 36.1978 139.537 34.7281 139.508 33.2603C139.492 32.5028 139.756 32.1563 140.529 32.1696C142.297 32.1998 144.066 32.1758 145.834 32.1862C146.256 32.1887 146.733 32.1821 146.72 32.8196C146.707 33.468 146.216 33.4033 145.802 33.4074C144.707 33.4184 143.612 33.3942 142.518 33.4264C142.015 33.4412 141.414 33.4899 141.442 34.2167C141.468 34.8981 142.048 34.8134 142.499 34.8276C143.087 34.8461 143.677 34.8344 144.387 34.8357Z"
        fill="white" />
    <path
        d="M124.923 36.1071C124.511 36.836 123.943 37.0296 123.263 37.0205C122.335 37.0081 121.405 37.0374 120.477 37.0156C119.632 36.9958 118.848 36.9456 118.857 38.2115C118.86 38.7797 118.312 38.774 117.88 38.7493C117.41 38.7223 117.219 38.4276 117.219 37.9731C117.218 36.1185 117.218 34.2638 117.218 32.2735C119.482 32.1252 121.665 32.0074 123.819 32.3132C125.137 32.5002 125.533 34.0267 124.923 36.1071ZM122.317 35.5944C122.952 35.5069 123.334 35.1597 123.264 34.4775C123.19 33.7607 122.654 33.622 122.069 33.6136C121.356 33.6035 120.642 33.6237 119.929 33.6025C119.273 33.5829 118.923 33.8039 118.907 34.5564C118.889 35.3587 119.232 35.6346 119.961 35.6112C120.673 35.5883 121.387 35.6093 122.317 35.5944Z"
        fill="white" />
    <path
        d="M95.9353 32.1815C96.5345 32.2004 96.9018 32.352 96.7906 32.9494C96.6918 33.4802 96.2573 33.4179 95.8866 33.4189C94.7077 33.422 93.5287 33.4038 92.3499 33.4121C91.9413 33.4149 91.4434 33.3441 91.441 34.0054C91.4388 34.6157 91.8018 34.824 92.3445 34.8262C93.4391 34.8305 94.534 34.8318 95.6281 34.8602C96.0066 34.8701 96.456 34.9223 96.4572 35.4435C96.4584 35.9991 95.9864 35.967 95.618 35.9725C94.5234 35.9889 93.4286 35.9828 92.3338 35.9843C91.848 35.985 91.3956 35.9951 91.369 36.6929C91.3412 37.4236 91.8118 37.4088 92.2926 37.4107C93.5136 37.4154 94.7347 37.412 95.9556 37.4255C96.4295 37.4307 96.97 37.4573 96.95 38.1216C96.9304 38.7754 96.3801 38.7827 95.9139 38.7851C94.1877 38.794 92.4612 38.7728 90.7351 38.7892C89.9576 38.7965 89.5746 38.5016 89.5939 37.648C89.627 36.1804 89.6158 34.7108 89.586 33.2429C89.5702 32.4659 89.8914 32.1602 90.6396 32.1709C92.3656 32.1957 94.0922 32.1783 95.9353 32.1815Z"
        fill="white" />
    <path
        d="M70.3448 34.8635C70.3812 31.8721 69.9957 32.1994 72.8423 32.1763C74.1073 32.166 75.3725 32.1713 76.6374 32.1849C77.054 32.1893 77.5474 32.1574 77.5511 32.7928C77.5548 33.4163 77.0916 33.4194 76.655 33.4186C75.4321 33.4164 74.2092 33.414 72.9864 33.4059C72.4615 33.4024 72.0665 33.5219 72.0908 34.191C72.1138 34.8252 72.5436 34.8297 72.9785 34.8325C73.9905 34.8389 75.0032 34.8165 76.0143 34.8488C76.4859 34.8638 77.2132 34.7275 77.1796 35.4658C77.1456 36.2145 76.4097 35.9505 75.9552 35.9695C74.9869 36.01 74.0159 35.9812 73.046 35.9846C72.5497 35.9863 72.0846 36.0538 72.0857 36.7229C72.0869 37.429 72.6015 37.4028 73.0711 37.4069C74.2939 37.4175 75.5169 37.4118 76.7397 37.4264C77.1682 37.4315 77.6521 37.455 77.6902 38.0369C77.7338 38.7049 77.2245 38.7825 76.7413 38.7842C74.9282 38.7906 73.1151 38.7756 71.302 38.775C70.6033 38.7748 70.3318 38.4089 70.3467 37.7169C70.3662 36.809 70.3473 35.9002 70.3448 34.8635Z"
        fill="white" />
    <path
        d="M86.6772 35.3807C86.261 36.1429 85.8501 36.8021 85.5252 37.5033C85.1267 38.3632 84.5994 38.8239 83.5853 38.8273C82.5648 38.8306 82.0809 38.3484 81.6596 37.4977C80.8776 35.9186 80.0066 34.3859 79.1811 32.8292C79.1263 32.726 79.1428 32.5831 79.1162 32.3841C80.1387 31.9371 80.8361 32.162 81.3516 33.222C82.0034 34.5624 82.752 35.8533 83.5851 37.4C84.44 35.8273 85.1584 34.475 85.9059 33.1398C86.5182 32.0461 86.7074 31.9959 88.1084 32.4278C87.8474 33.4886 87.1478 34.3267 86.6772 35.3807Z"
        fill="white" />
    <path
        d="M161.258 33.6413C160.645 33.602 160.139 33.5986 159.636 33.5517C159.248 33.5154 159.041 33.2713 159.043 32.8563C159.045 32.432 159.262 32.2076 159.659 32.206C161.806 32.1972 163.953 32.1966 166.099 32.2031C166.491 32.2043 166.727 32.4097 166.732 32.84C166.737 33.2499 166.537 33.4836 166.151 33.5549C166.027 33.5778 165.9 33.5829 165.775 33.5956C163.745 33.8001 163.746 33.8001 163.742 35.8522C163.741 36.5 163.73 37.1479 163.738 37.7955C163.745 38.4164 163.511 38.777 162.854 38.7743C162.229 38.7717 161.911 38.4551 161.898 37.8325C161.875 36.7965 161.882 35.7598 161.864 34.7237C161.856 34.299 161.903 33.8307 161.258 33.6413Z"
        fill="white" />
    <path
        d="M102.142 37.3677C102.977 37.3724 103.693 37.3712 104.408 37.3841C104.823 37.3915 105.161 37.5144 105.172 38.034C105.182 38.5249 104.902 38.7623 104.472 38.7652C102.747 38.7766 101.021 38.7808 99.2962 38.7451C98.7094 38.7329 98.553 38.257 98.5505 37.7365C98.5433 36.2252 98.5435 34.7138 98.5444 33.2025C98.5449 32.5388 98.7906 32.165 99.5221 32.1755C100.301 32.1867 100.409 32.6526 100.402 33.2801C100.393 34.1005 100.477 34.9301 100.385 35.7395C100.233 37.0803 100.762 37.5803 102.142 37.3677Z"
        fill="white" />
</svg>