<svg xmlns="http://www.w3.org/2000/svg" width="50" height="50" viewBox="0 0 48 44" fill="none">
    <script xmlns="" id="eppiocemhmnlbhjplcgkofciiegomcon" />
    <script xmlns="" />
    <script xmlns="" />
    <path
        d="M14.5614 9.70907C14.6048 9.01326 15.0385 8.69682 15.39 8.33412C17.8898 5.75499 20.4182 3.20445 22.8853 0.593015C23.6096 -0.173622 24.1048 -0.213149 24.8429 0.569239C27.3666 3.24441 29.9424 5.86801 32.5046 8.50483C32.905 8.91691 33.1918 9.3427 33.1894 9.97041C33.1729 14.3002 33.1802 18.63 33.172 22.9598C33.1716 23.1604 33.0961 23.3609 33.0577 23.5512C32.4595 23.6731 32.265 23.2042 31.9876 22.9223C29.5888 20.4846 27.1831 18.0533 24.8234 15.576C24.1073 14.8242 23.6154 14.774 22.8686 15.5699C20.5568 18.0335 18.1739 20.4269 15.8138 22.8425C15.5239 23.1392 15.289 23.5222 14.5557 23.6909C14.5557 19.008 14.5557 14.4152 14.5614 9.70907Z"
        fill="#FF8C54" />
    <path
        d="M27.7356 24.9536C29.3059 26.594 30.7982 28.1847 32.3273 29.7371C32.9364 30.3555 33.2189 31.0208 33.1981 31.9201C33.1461 34.1695 33.1565 36.4214 33.1934 38.6714C33.2087 39.6054 32.8765 40.0041 31.9441 40C26.5435 39.9763 21.1428 39.9757 15.7421 39.9871C14.8881 39.9889 14.5329 39.6444 14.544 38.7504C14.5746 36.2837 14.5656 33.8162 14.5411 31.3494C14.5349 30.7218 14.8097 30.2976 15.2136 29.8837C17.8101 27.2221 20.4119 24.5657 22.975 21.8705C23.6168 21.1956 24.0825 21.1223 24.7304 21.8484C25.6694 22.9008 26.6878 23.8788 27.7356 24.9536Z"
        fill="#FF8C54" />
    <path
        d="M6.44392 17.534C7.56681 16.3834 8.62651 15.2979 9.68621 14.2124C9.78781 14.2701 9.8894 14.3277 9.991 14.3853C9.991 21.126 9.991 27.8667 9.991 34.6118C9.4323 34.8379 9.21263 34.3591 8.94121 34.0823C6.12931 31.2141 3.35499 28.3067 0.514282 25.4691C-0.24213 24.7135 -0.110807 24.2348 0.561111 23.5627C2.52407 21.5991 4.44396 19.5902 6.44392 17.534Z"
        fill="#FF8C54" />
    <path
        d="M46.9477 23.4508C48.0157 24.2146 47.8655 24.8125 47.0331 25.6376C44.2757 28.3707 41.5969 31.187 38.8817 33.965C38.5964 34.257 38.3847 34.6804 37.7446 34.6682C37.7446 27.9222 37.7446 21.182 37.7446 14.4418C37.8299 14.356 37.9152 14.2703 38.0005 14.1846C40.9619 17.2517 43.9233 20.3188 46.9477 23.4508Z"
        fill="#FF8C54" />
</svg>