<svg width="58" height="70" viewBox="0 0 58 70" fill="none" xmlns="http://www.w3.org/2000/svg">
<path d="M23.5062 50.2964C23.1206 50.2964 22.8062 50.6081 22.8062 50.9964V57.723C22.8062 58.1113 23.1206 58.423 23.5062 58.423C23.8917 58.423 24.2062 58.1113 24.2062 57.723V50.9964C24.2062 50.6081 23.8917 50.2964 23.5062 50.2964Z" fill="#FF8C54"/>
<path d="M28.1277 50.2964C27.7422 50.2964 27.4277 50.6081 27.4277 50.9964V57.723C27.4277 58.1113 27.7422 58.423 28.1277 58.423C28.5133 58.423 28.8277 58.1113 28.8277 57.723V50.9964C28.8277 50.6081 28.516 50.2964 28.1277 50.2964Z" fill="#FF8C54"/>
<path d="M32.7513 50.2964C32.3657 50.2964 32.0513 50.6081 32.0513 50.9964V57.723C32.0513 58.1113 32.3657 58.423 32.7513 58.423C33.1368 58.423 33.4513 58.1113 33.4513 57.723V50.9964C33.4513 50.6081 33.1368 50.2964 32.7513 50.2964Z" fill="#FF8C54"/>
<path d="M23.5062 38.5791C23.1206 38.5791 22.8062 38.8908 22.8062 39.2791V46.0057C22.8062 46.394 23.1206 46.7057 23.5062 46.7057C23.8917 46.7057 24.2062 46.394 24.2062 46.0057V39.2791C24.2062 38.8908 23.8917 38.5791 23.5062 38.5791Z" fill="#FF8C54"/>
<path d="M28.1277 38.5791C27.7422 38.5791 27.4277 38.8908 27.4277 39.2791V46.0057C27.4277 46.394 27.7422 46.7057 28.1277 46.7057C28.5133 46.7057 28.8277 46.394 28.8277 46.0057V39.2791C28.8277 38.8908 28.516 38.5791 28.1277 38.5791Z" fill="#FF8C54"/>
<path d="M32.7513 38.5791C32.3657 38.5791 32.0513 38.8908 32.0513 39.2791V46.0057C32.0513 46.394 32.3657 46.7057 32.7513 46.7057C33.1368 46.7057 33.4513 46.394 33.4513 46.0057V39.2791C33.4513 38.8908 33.1368 38.5791 32.7513 38.5791Z" fill="#FF8C54"/>
<path d="M29.9842 15.162C30.3697 15.162 30.6842 14.8503 30.6842 14.462V11.6756C30.6842 11.2874 30.3697 10.9756 29.9842 10.9756C29.5986 10.9756 29.2842 11.2874 29.2842 11.6756V14.462C29.2842 14.8475 29.5959 15.162 29.9842 15.162Z" fill="#FF8C54"/>
<path d="M35.3108 15.162C35.6964 15.162 36.0108 14.8503 36.0108 14.462V11.6756C36.0108 11.2874 35.6964 10.9756 35.3108 10.9756C34.9253 10.9756 34.6108 11.2874 34.6108 11.6756V14.462C34.6108 14.8475 34.9253 15.162 35.3108 15.162Z" fill="#FF8C54"/>
<path d="M40.6404 15.162C41.026 15.162 41.3404 14.8503 41.3404 14.462V11.6756C41.3404 11.2874 41.026 10.9756 40.6404 10.9756C40.2549 10.9756 39.9404 11.2874 39.9404 11.6756V14.462C39.9404 14.8475 40.2521 15.162 40.6404 15.162Z" fill="#FF8C54"/>
<path d="M29.9842 22.526C30.3697 22.526 30.6842 22.2143 30.6842 21.826V19.0397C30.6842 18.6514 30.3697 18.3397 29.9842 18.3397C29.5986 18.3397 29.2842 18.6514 29.2842 19.0397V21.826C29.2842 22.2143 29.5959 22.526 29.9842 22.526Z" fill="#FF8C54"/>
<path d="M35.3108 22.526C35.6964 22.526 36.0108 22.2143 36.0108 21.826V19.0397C36.0108 18.6514 35.6964 18.3397 35.3108 18.3397C34.9253 18.3397 34.6108 18.6514 34.6108 19.0397V21.826C34.6108 22.2143 34.9253 22.526 35.3108 22.526Z" fill="#FF8C54"/>
<path d="M40.6404 22.526C41.026 22.526 41.3404 22.2143 41.3404 21.826V19.0397C41.3404 18.6514 41.026 18.3397 40.6404 18.3397C40.2549 18.3397 39.9404 18.6514 39.9404 19.0397V21.826C39.9404 22.2143 40.2521 22.526 40.6404 22.526Z" fill="#FF8C54"/>
<path d="M29.9842 29.8921C30.3697 29.8921 30.6842 29.5804 30.6842 29.1921V26.4057C30.6842 26.0175 30.3697 25.7057 29.9842 25.7057C29.5986 25.7057 29.2842 26.0175 29.2842 26.4057V29.1921C29.2842 29.5804 29.5959 29.8921 29.9842 29.8921Z" fill="#FF8C54"/>
<path d="M35.3108 29.8921C35.6964 29.8921 36.0108 29.5804 36.0108 29.1921V26.4057C36.0108 26.0175 35.6964 25.7057 35.3108 25.7057C34.9253 25.7057 34.6108 26.0175 34.6108 26.4057V29.1921C34.6108 29.5804 34.9253 29.8921 35.3108 29.8921Z" fill="#FF8C54"/>
<path d="M40.6404 29.8921C41.026 29.8921 41.3404 29.5804 41.3404 29.1921V26.4057C41.3404 26.0175 41.026 25.7057 40.6404 25.7057C40.2549 25.7057 39.9404 26.0175 39.9404 26.4057V29.1921C39.9404 29.5804 40.2521 29.8921 40.6404 29.8921Z" fill="#FF8C54"/>
<path d="M40.6404 37.2589C41.026 37.2589 41.3404 36.9472 41.3404 36.5589V33.7726C41.3404 33.3843 41.026 33.0726 40.6404 33.0726C40.2549 33.0726 39.9404 33.3843 39.9404 33.7726V36.5589C39.9404 36.9445 40.2521 37.2589 40.6404 37.2589Z" fill="#FF8C54"/>
<path d="M40.6404 44.6222C41.026 44.6222 41.3404 44.3105 41.3404 43.9222V41.1359C41.3404 40.7476 41.026 40.4359 40.6404 40.4359C40.2549 40.4359 39.9404 40.7476 39.9404 41.1359V43.9222C39.9404 44.3077 40.2521 44.6222 40.6404 44.6222Z" fill="#FF8C54"/>
<path d="M40.6404 51.9862C41.026 51.9862 41.3404 51.6745 41.3404 51.2862V48.4999C41.3404 48.1116 41.026 47.7999 40.6404 47.7999C40.2549 47.7999 39.9404 48.1116 39.9404 48.4999V51.2862C39.9404 51.6745 40.2521 51.9862 40.6404 51.9862Z" fill="#FF8C54"/>
<path d="M40.6404 59.3523C41.026 59.3523 41.3404 59.0406 41.3404 58.6523V55.866C41.3404 55.4777 41.026 55.166 40.6404 55.166C40.2549 55.166 39.9404 55.4777 39.9404 55.866V58.6523C39.9404 59.0406 40.2521 59.3523 40.6404 59.3523Z" fill="#FF8C54"/>
<path d="M56.9998 53.9C56.9998 51.1875 54.7932 48.9836 52.0834 48.9836C49.3736 48.9836 47.167 51.1875 47.167 53.9C47.167 56.3718 49.0045 58.4199 51.3834 58.7617V61.6H45.4498V7.7C45.4498 7.31172 45.1353 7 44.7498 7H26.0388C25.6532 7 25.3388 7.31172 25.3388 7.7V11.5691L12.9383 17.7461C12.7004 17.8664 12.55 18.107 12.55 18.3722V61.6H6.61638V58.759C8.99526 58.4172 10.8328 56.3719 10.8328 53.8973C10.8328 51.1848 8.62615 48.9809 5.91638 48.9809C3.20661 48.9837 1 51.1875 1 53.9C1 56.3719 2.8375 58.4199 5.21638 58.7617V61.6H1.7C1.31445 61.6 1 61.9117 1 62.3C1 62.6883 1.31445 63 1.7 63H56.3C56.6855 63 57 62.6883 57 62.3C57 61.9117 56.6855 61.6 56.3 61.6H52.7836V58.759C55.1625 58.4172 56.9998 56.3718 56.9998 53.9ZM2.39978 53.9C2.39978 51.9614 3.97751 50.3836 5.91616 50.3836C7.85481 50.3836 9.43254 51.9614 9.43254 53.9C9.43254 55.8387 7.85481 57.4164 5.91616 57.4164C3.97751 57.4164 2.39978 55.8387 2.39978 53.9ZM26.7388 8.4H44.0477V61.6H37.6383L37.6411 42.2023V33.6357C37.6411 33.2474 37.3266 32.9357 36.9411 32.9357H26.7393L26.7388 8.4ZM19.3258 32.9357C18.9402 32.9357 18.6258 33.2474 18.6258 33.6357V36.4631H13.95V29.4986H25.339V32.9358L19.3258 32.9357ZM13.95 37.8631H18.6258V44.8275H13.95V37.8631ZM25.339 28.0988H13.95V21.1343H25.339V28.0988ZM13.95 46.2274H18.6258V53.1918H13.95V46.2274ZM20.0258 34.3358H36.2406V61.6001H20.0258V34.3358ZM25.3386 13.1363V19.7343H13.9496V18.8101L25.3386 13.1363ZM13.9496 54.5952H18.6254L18.6282 61.6008H13.9524L13.9496 54.5952ZM48.5667 53.9006C48.5667 51.962 50.1445 50.3843 52.0831 50.3843C54.0218 50.3843 55.5995 51.962 55.5995 53.9006C55.5995 55.8393 54.0218 57.417 52.0831 57.417C50.1445 57.417 48.5667 55.8393 48.5667 53.9006Z" fill="#FF8C54"/>
</svg>
